<?xml version="1.0" encoding="utf-8"?>
<!-- Generator: Adobe Illustrator 24.1.2, SVG Export Plug-In . SVG Version: 6.00 Build 0)  -->
<svg version="1.1" id="Layer_1" xmlns="http://www.w3.org/2000/svg" xmlns:xlink="http://www.w3.org/1999/xlink" x="0px" y="0px"
	 viewBox="0 0 1920 1920" style="enable-background:new 0 0 1920 1920;" xml:space="preserve">
<style type="text/css">
	.st0{fill:#FFFFFF;}
	.st1{fill:#046937;}
	.st2{fill:#079247;}
	.st3{filter:url(#Adobe_OpacityMaskFilter);}
	.st4{filter:url(#Adobe_OpacityMaskFilter_1_);}
	.st5{mask:url(#SVGID_1_);fill:url(#SVGID_2_);}
	.st6{opacity:0.9;fill:url(#SVGID_3_);}
</style>
<g>
	<g>
		<circle class="st1" cx="627.44" cy="625.7" r="77.94"/>
		<circle class="st1" cx="627.44" cy="1294.3" r="77.94"/>
		<circle class="st1" cx="1292.56" cy="1294.3" r="77.94"/>
		<circle class="st1" cx="1292.56" cy="625.7" r="77.94"/>
		<path class="st1" d="M863,1226.74c15.27,0,28.66,7.92,36.37,19.86v-36.06c-94.34-23.08-168.57-97.31-191.65-191.65h-34.34
			c-18.14,0-26.89-27.71-13.12-40.69l-0.02,0c10.27-4.6,17.43-14.89,17.43-26.86c0-16.26-13.18-29.45-29.45-29.45
			c-16.26,0-29.45,13.18-29.45,29.45c0,11.98,7.16,22.26,17.43,26.86l-0.02,0c13.77,12.97,5.02,40.69-13.12,40.69h-44.31
			c8.61,53.26,28.11,102.85,56.06,146.51c14.69-11.48,33.16-18.33,53.25-18.33c47.83,0,86.61,38.77,86.61,86.61
			c0,19.72-6.6,37.88-17.7,52.44c42.65,26.55,90.82,45.07,142.41,53.4v-46.03c-7.71,11.94-21.11,19.86-36.37,19.86
			c-23.92,0-43.3-19.39-43.3-43.3S839.09,1226.74,863,1226.74z"/>
		<path class="st1" d="M1295.22,1018.89c11.94,7.71,19.86,21.11,19.86,36.37c0,23.92-19.39,43.3-43.3,43.3
			c-23.92,0-43.3-19.39-43.3-43.3c0-15.27,7.92-28.66,19.86-36.37h-32.6c-23.08,94.34-97.31,168.57-191.65,191.65v37.81
			c0,18.14-27.71,26.89-40.69,13.12l0,0.02c-4.6-10.27-14.89-17.43-26.86-17.43c-16.26,0-29.45,13.18-29.45,29.45
			s13.18,29.45,29.45,29.45c11.98,0,22.26-7.16,26.86-17.43l0,0.02c12.97-13.77,40.69-5.02,40.69,13.12v40.84
			c50.65-8.18,97.99-26.2,140.06-51.98c-11.77-14.79-18.81-33.5-18.81-53.86c0-47.83,38.77-86.61,86.61-86.61
			c21.14,0,40.5,7.58,55.53,20.16c28.58-44.1,48.51-94.33,57.24-148.34H1295.22z"/>
		<path class="st1" d="M966.93,620.51c-11.98,0-22.26,7.16-26.86,17.43l0-0.02c-12.97,13.77-40.69,5.02-40.69-13.12v-51.24
			c-53.1,8.58-102.55,27.99-146.12,55.8c13.32,15.23,21.4,35.15,21.4,56.97c0,47.83-38.77,86.61-86.61,86.61
			c-21.45,0-41.06-7.81-56.19-20.73c-26.41,42.54-44.82,90.56-53.12,141.97h44.83c-9.29-7.94-15.2-19.73-15.2-32.91
			c0-23.92,19.39-43.3,43.3-43.3c23.92,0,43.3,19.39,43.3,43.3c0,13.18-5.91,24.97-15.2,32.91h27.94
			c23.08-94.34,97.31-168.57,191.65-191.65v-27.42c0-18.14,27.71-26.89,40.69-13.12l0-0.02c4.6,10.27,14.89,17.43,26.86,17.43
			c16.26,0,29.45-13.18,29.45-29.45C996.37,633.69,983.19,620.51,966.93,620.51z"/>
		<path class="st1" d="M1283.8,934.87l0.02,0c-13.77-12.97-5.02-40.69,13.12-40.69h47.77c-8.43-52.2-27.31-100.89-54.37-143.91
			c-15.4,14.07-35.9,22.66-58.4,22.66c-47.83,0-86.61-38.77-86.61-86.61c0-22.5,8.59-43,22.66-58.4
			c-43.02-27.06-91.71-45.94-143.91-54.37v52.95c7.71-11.94,21.11-19.86,36.37-19.86c23.92,0,43.3,19.39,43.3,43.3
			c0,23.92-19.39,43.3-43.3,43.3c-15.27,0-28.66-7.92-36.37-19.86v29.13c94.34,23.08,168.57,97.31,191.65,191.65h30.88
			c18.14,0,26.89,27.71,13.12,40.69l0.02,0c-10.27,4.6-17.43,14.89-17.43,26.86c0,16.26,13.18,29.45,29.45,29.45
			c16.26,0,29.45-13.18,29.45-29.45C1301.23,949.75,1294.06,939.47,1283.8,934.87z"/>
	</g>
	<g>
		<path class="st1" d="M1343.08,1528.32H576.92c-102.14,0-185.24-83.1-185.24-185.24V576.92c0-102.14,83.1-185.24,185.24-185.24
			h766.16c102.14,0,185.24,83.1,185.24,185.24v766.16C1528.32,1445.22,1445.22,1528.32,1343.08,1528.32z M576.92,417.89
			c-87.69,0-159.03,71.34-159.03,159.03v766.16c0,87.69,71.34,159.03,159.03,159.03h766.16c87.69,0,159.03-71.34,159.03-159.03
			V576.92c0-87.69-71.34-159.03-159.03-159.03H576.92z"/>
	</g>
</g>
</svg>
