<?xml version="1.0" encoding="utf-8"?>
<!-- Generator: Adobe Illustrator 24.1.2, SVG Export Plug-In . SVG Version: 6.00 Build 0)  -->
<svg version="1.1" id="Layer_1" xmlns="http://www.w3.org/2000/svg" xmlns:xlink="http://www.w3.org/1999/xlink" x="0px" y="0px"
	 viewBox="0 0 1920 1920" style="enable-background:new 0 0 1920 1920;" xml:space="preserve">
<style type="text/css">
	.st0{fill:#FFFFFF;}
	.st1{fill:#046937;}
	.st2{fill:#079247;}
	.st3{filter:url(#Adobe_OpacityMaskFilter);}
	.st4{filter:url(#Adobe_OpacityMaskFilter_1_);}
	.st5{mask:url(#SVGID_1_);fill:url(#SVGID_2_);}
	.st6{opacity:0.9;fill:url(#SVGID_3_);}
	.st7{fill:#939598;}
	.st8{fill:#3DB54A;}
	.st9{opacity:0.35;}
	.st10{fill:#E6E6E5;}
	.st11{opacity:0.6;fill:#079247;}
	.st12{fill:url(#SVGID_4_);}
	.st13{fill:url(#SVGID_5_);}
	.st14{fill:url(#SVGID_6_);}
	.st15{fill-rule:evenodd;clip-rule:evenodd;fill:#FFFFFF;}
	.st16{opacity:0.6;}
	.st17{fill:#F3F3F3;}
	.st18{fill:#F7F8F8;}
	.st19{fill:#E4E3E3;}
	.st20{fill:#E8E6E5;}
	.st21{fill:#D4D3D3;}
	.st22{fill:#BFBDBD;}
	.st23{fill:#D3D2D2;}
	.st24{fill:#CFCFCE;}
	.st25{fill:#C9C7C7;}
	.st26{fill:#E0E1E0;}
	.st27{fill:#E2E1E1;}
	.st28{fill:#B6B5B5;}
	.st29{fill:#B8B7B7;}
	.st30{fill:#C7C5C5;}
	.st31{fill:#949293;}
	.st32{fill:#B2B0B0;}
	.st33{fill:#ACAAAA;}
	.st34{fill:#A9A8A8;}
	.st35{fill:#B3B1B2;}
	.st36{fill:#AAA9A9;}
	.st37{fill:#868485;}
	.st38{fill:#8F8C8D;}
	.st39{fill:#939190;}
	.st40{fill:#949192;}
	.st41{fill:#908F8E;}
	.st42{fill:#A8A5A6;}
	.st43{fill:#A5A4A4;}
	.st44{fill:#6A6868;}
	.st45{fill:#706F6F;}
	.st46{fill:#5E5C5C;}
	.st47{fill:#5B5859;}
	.st48{fill:url(#SVGID_7_);}
	.st49{fill:url(#SVGID_8_);}
	.st50{fill:url(#SVGID_9_);}
	.st51{fill:url(#SVGID_10_);}
	.st52{fill:#F4F4F4;}
	.st53{fill:#E4E4E4;}
	.st54{fill:#D4D3D2;}
	.st55{fill:#C3C2C2;}
	.st56{fill:#D7D6D5;}
	.st57{fill:#D9D8D8;}
	.st58{fill:#DBDADA;}
	.st59{fill:#C2C0C0;}
	.st60{fill:#929090;}
	.st61{fill:#ACAAAB;}
	.st62{fill:#999798;}
	.st63{fill:#ADACAC;}
	.st64{fill:#878484;}
	.st65{fill:#9C9C9C;}
	.st66{fill:url(#SVGID_11_);}
	.st67{fill:url(#SVGID_12_);}
	.st68{fill:url(#SVGID_13_);}
	.st69{fill:url(#SVGID_14_);}
	.st70{fill:#EBEAEA;}
	.st71{fill:#DFDFDE;}
	.st72{fill:#ECECEC;}
	.st73{fill:#E1E0E0;}
	.st74{fill:#D0D0D0;}
	.st75{fill:#BBBABA;}
	.st76{fill:#CCCBCC;}
	.st77{fill:#BAB9B9;}
	.st78{fill:#CFCDCE;}
	.st79{fill:#CECCCD;}
	.st80{fill:#CBCACA;}
	.st81{fill:#B4B2B3;}
	.st82{fill:#C8C5C6;}
	.st83{fill:#B2B1B1;}
	.st84{fill:#A09E9F;}
	.st85{fill:#999698;}
	.st86{fill:#B5B3B4;}
	.st87{fill:#B1B0B1;}
	.st88{fill:#969595;}
	.st89{fill:#888686;}
	.st90{fill:#727070;}
	.st91{fill:#888586;}
	.st92{fill:#868383;}
	.st93{fill:url(#SVGID_15_);}
	.st94{fill:#C1282D;}
	.st95{fill:#37B44A;}
	.st96{fill:#ED1C25;}
	.st97{fill:#3BA39C;}
	.st98{fill:#53C3BF;}
	.st99{fill:#41A299;}
	.st100{fill:#476730;}
	.st101{fill:#4E7838;}
	.st102{fill:#659D41;}
	.st103{fill:#587E39;}
	.st104{fill:#5E913F;}
	.st105{fill:#79BA43;}
	.st106{fill:#2FBBA9;}
	.st107{fill:#4A2622;}
	.st108{fill:#250E0D;}
	.st109{fill:#BC8C32;}
	.st110{fill:#7BB242;}
	.st111{fill:#DDE3A9;}
	.st112{fill:#DEE5B4;}
	.st113{fill:#95B851;}
	.st114{fill:#A6BD77;}
	.st115{fill:#CCD4C0;}
	.st116{fill:#B1BF90;}
	.st117{fill:#9EBB5F;}
	.st118{fill:#CDE07B;}
	.st119{fill:#9DCC41;}
	.st120{fill:#C4DB6E;}
	.st121{fill:#A3CE47;}
	.st122{fill:#99C63D;}
	.st123{fill:#B6D660;}
	.st124{fill:#99CA3C;}
	.st125{fill:#8CBF3F;}
	.st126{fill:#8DBE3F;}
	.st127{fill:#9DCB3F;}
	.st128{fill:#A9D04F;}
	.st129{fill:#AED259;}
	.st130{fill:#8DC13F;}
	.st131{fill:#99CA3E;}
	.st132{fill:#9ECC3F;}
	.st133{fill:#9ECC40;}
	.st134{fill:#A8D04A;}
	.st135{fill:#B0D355;}
	.st136{fill:#ADD253;}
	.st137{fill:#C2DB6C;}
	.st138{fill:#A1CD43;}
	.st139{fill:#93C13E;}
	.st140{fill:#9FCC45;}
	.st141{fill:#B2D45C;}
	.st142{fill:#95C63D;}
	.st143{fill:#94C43E;}
	.st144{fill:#8DBF3F;}
	.st145{fill:#A0CD46;}
	.st146{fill:#D9E585;}
	.st147{fill:#BD6E29;}
	.st148{fill:#36B170;}
	.st149{fill:#249157;}
	.st150{fill:#154725;}
	.st151{fill:#299045;}
	.st152{fill:#3AA649;}
	.st153{fill:#187E3F;}
	.st154{fill:#588E3F;}
	.st155{fill:#FCCF1A;}
	.st156{fill:#598D3F;}
	.st157{fill:#599441;}
	.st158{fill:#ECB821;}
	.st159{fill:#ECB925;}
	.st160{fill:#6B9F4F;}
	.st161{fill:#81B369;}
	.st162{fill:#F4C117;}
	.st163{fill:#E3AC24;}
	.st164{fill:#E5AD23;}
	.st165{fill:#D49929;}
	.st166{fill:#D1992A;}
	.st167{fill:#839B3B;}
	.st168{fill:#2FBBAB;}
	.st169{fill:#63BEE7;}
	.st170{fill:#7CCBE7;}
	.st171{fill:url(#SVGID_16_);}
	.st172{fill:url(#SVGID_17_);}
	.st173{fill:url(#SVGID_18_);}
	.st174{fill:url(#SVGID_19_);}
	.st175{fill:url(#SVGID_20_);}
	.st176{fill:url(#SVGID_21_);}
	.st177{fill:url(#SVGID_22_);}
	.st178{fill:url(#SVGID_23_);}
	.st179{fill:url(#SVGID_24_);}
	.st180{fill:url(#SVGID_25_);}
	.st181{fill:url(#SVGID_26_);}
	.st182{fill:url(#SVGID_27_);}
	.st183{fill:url(#SVGID_28_);}
	.st184{fill:url(#SVGID_29_);}
	.st185{fill:url(#SVGID_30_);}
	.st186{fill:url(#SVGID_31_);}
	.st187{fill:url(#SVGID_32_);}
</style>
<g>
	<g>
		<path class="st0" d="M507.03,1326.08c-102.99,0-186.78-83.79-186.78-186.78V780.7c0-102.99,83.79-186.78,186.78-186.78h905.93
			c102.99,0,186.78,83.79,186.78,186.78v358.6c0,102.99-83.79,186.78-186.78,186.78H507.03z"/>
		<path class="st8" d="M1412.97,611.46c93.47,0,169.24,75.77,169.24,169.24v358.59c0,93.47-75.77,169.24-169.24,169.24H507.03
			c-93.47,0-169.24-75.77-169.24-169.24V780.7c0-93.47,75.77-169.24,169.24-169.24H1412.97 M1412.97,576.38H507.03
			c-112.66,0-204.32,91.66-204.32,204.32v358.59c0,112.66,91.66,204.32,204.32,204.32h905.93c112.66,0,204.32-91.66,204.32-204.32
			V780.7C1617.29,668.04,1525.63,576.38,1412.97,576.38L1412.97,576.38z"/>
	</g>
	<g>
		<linearGradient id="SVGID_1_" gradientUnits="userSpaceOnUse" x1="999.7767" y1="1221.5342" x2="1009.5087" y2="1211.8021">
			<stop  offset="0" style="stop-color:#E6A75C"/>
			<stop  offset="0.0234" style="stop-color:#E8AB63"/>
			<stop  offset="0.1847" style="stop-color:#F2C48B"/>
			<stop  offset="0.3066" style="stop-color:#FBD5A5"/>
			<stop  offset="0.3744" style="stop-color:#FFDCAF"/>
			<stop  offset="0.525" style="stop-color:#E6A75C"/>
			<stop  offset="0.6674" style="stop-color:#FFDCAF"/>
			<stop  offset="1" style="stop-color:#E6A75C"/>
		</linearGradient>
		<path style="fill:url(#SVGID_1_);" d="M1004.64,1209.81c-1.9,0-3.53,0.68-4.9,2.02c-1.37,1.35-2.05,2.96-2.05,4.84
			c0,1.88,0.68,3.49,2.05,4.83c1.37,1.35,3,2.02,4.9,2.02c1.9,0,3.53-0.67,4.9-2.02c1.37-1.35,2.05-2.96,2.05-4.83
			c0-1.87-0.68-3.49-2.05-4.84C1008.17,1210.49,1006.54,1209.81,1004.64,1209.81z"/>
		<linearGradient id="SVGID_2_" gradientUnits="userSpaceOnUse" x1="672.5471" y1="1169.311" x2="1075.3187" y2="766.5394">
			<stop  offset="0" style="stop-color:#E6A75C"/>
			<stop  offset="0.0234" style="stop-color:#E8AB63"/>
			<stop  offset="0.1847" style="stop-color:#F2C48B"/>
			<stop  offset="0.3066" style="stop-color:#FBD5A5"/>
			<stop  offset="0.3744" style="stop-color:#FFDCAF"/>
			<stop  offset="0.525" style="stop-color:#E6A75C"/>
			<stop  offset="0.6674" style="stop-color:#FFDCAF"/>
			<stop  offset="1" style="stop-color:#E6A75C"/>
		</linearGradient>
		<path style="fill:url(#SVGID_2_);" d="M1113.28,904.89h-3.52h-7.03v-2.29h-16.53v5.1c-0.94-1.05-1.96-1.79-3.08-2.2
			c-0.72-0.26-1.98-0.44-3.78-0.54v-0.08H946.26h-3.52h-7.03v-2.29h-0.07c0.04-6.56,0.59-12.35,1.66-17.35
			c1.11-5.21,2.46-9.79,4.04-13.71c1.58-3.93,3.34-7.38,5.27-10.37c1.93-2.99,3.69-5.74,5.27-8.26c1.58-2.52,2.93-4.86,4.04-7.03
			c1.11-2.17,1.67-4.48,1.67-6.94c0-1.52-0.32-3.19-0.97-5.01c-0.65-1.82-1.67-3.54-3.08-5.19c-1.41-1.64-3.19-3.02-5.36-4.13
			c-2.17-1.11-4.78-1.67-7.82-1.67c-10.2,0-24.5,5.8-42.9,17.41c-0.59,0.35-1.17,0.53-1.76,0.53v-37.62h69.27v-9.32h-92.65h-3.52
			h-32.17c-0.35-4.34-1.49-8.53-3.43-12.57c-1.93-4.04-4.75-7.65-8.44-10.81c-3.69-3.16-8.29-5.71-13.8-7.65
			c-5.51-1.93-11.96-2.9-19.34-2.9h-18.16c0,0-4.11-0.13-40.55-0.13c-61.01-1.69-51.69,52.53-51.69,52.53l-0.01,26.27h0v339.35
			h16.53V838.64h-0.07c-0.1-4.3-0.23-14.78,0.07-35.16c0.42-28.38,29.23-27.11,34.74-27.11c5.21,0,8.15-0.38,35.93,0.06v0.08h23.21
			c8.79,0,15.56,1.58,20.31,4.75c4.75,3.16,7.41,7.38,8,12.66h-55.21v9.32h23.03l-0.18,0.18c-4.92,2.7-8.76,6.33-11.52,10.9
			c-2.76,4.57-4.13,9.91-4.13,16c0,6.8,2.17,12.95,6.51,18.46l13.01-10.37c-1.99-2.58-2.99-5.39-2.99-8.44
			c0-2.69,0.62-5.1,1.85-7.21c1.23-2.11,2.9-3.69,5.01-4.75l11.25-5.98c1.41,0.12,3.02,0.38,4.83,0.79c1.82,0.41,3.52,1.14,5.1,2.2
			c1.58,1.05,2.9,2.58,3.96,4.57c1.05,1.99,1.58,4.57,1.58,7.74c0,2.81-0.47,5.98-1.41,9.49c-0.94,3.52-2.46,6.83-4.57,9.93
			c-2.11,3.11-4.92,5.69-8.44,7.74c-3.52,2.05-7.85,3.08-13.01,3.08c-6.33,0-13.3-1.82-20.92-5.45l-7.03,15.12
			c5.63,2.46,10.75,4.22,15.38,5.27c4.63,1.05,8.88,1.58,12.75,1.58c6.68,0,12.22-1.02,16.61-3.08c4.4-2.05,8-4.31,10.81-6.77v0.18
			c0.12-0.12,1.32-0.97,3.6-2.55c2.29-1.58,5.13-3.25,8.53-5.01c3.4-1.76,6.27-3.05,8.61-3.87c2.34-0.82,3.98-1.23,4.92-1.23h0.7
			c0,2.23-0.9,4.48-2.71,6.77c-1.81,2.29-4.05,4.72-6.74,7.3c-2.68,2.58-5.57,5.27-8.66,8.09c-3.09,2.81-5.98,5.8-8.66,8.97
			c-2.68,3.16-4.93,6.51-6.74,10.02c-1.81,3.52-2.71,7.21-2.71,11.08h16.53c0-2.34,0.88-4.69,2.65-7.03
			c1.77-2.34,4.01-4.8,6.71-7.38c2.71-2.58,5.63-5.21,8.75-7.91c3.12-2.7,6.04-5.57,8.74-8.61c2.71-3.05,4.95-6.24,6.71-9.58
			c1.77-3.34,2.65-6.88,2.65-10.64c0-5.63-1.54-9.93-4.6-12.92c-3.07-2.99-7.26-4.48-12.56-4.48c-3.19,0-6.61,0.65-10.26,1.93
			c0.23-1.64,0.44-3.31,0.62-5.01c0.18-1.7,0.26-3.37,0.26-5.01c0-6.68-1.47-12.42-4.4-17.23c1.05-2.22,1.76-4.51,2.11-6.86h32.53
			h3.52h6.86v39.38c0,3.87,1.49,7.33,4.48,10.37c2.99,3.05,6.94,4.57,11.87,4.57c3.63,0,7.21-1.05,10.72-3.16
			c9.73-5.86,17.26-9.85,22.59-11.96c5.33-2.11,8.99-3.16,10.99-3.16h0.88c-1.05,2.46-2.79,5.36-5.19,8.7
			c-2.4,3.34-4.81,7.5-7.21,12.48c-2.4,4.98-4.54,10.96-6.42,17.93c-1.88,6.98-2.81,15.33-2.81,25.05h0.08v4.26
			c-0.94-1.05-1.96-1.79-3.08-2.2c-0.72-0.26-1.98-0.44-3.78-0.54v-0.08H808.42v9.32h77.01v0.35c-0.35,2.11-2.32,3.99-5.89,5.63
			c-3.58,1.64-7.94,3.37-13.1,5.19c-5.16,1.82-10.7,3.87-16.61,6.15c-5.92,2.29-11.43,5.16-16.53,8.61
			c-5.1,3.46-9.32,7.74-12.66,12.83c-3.34,5.1-5.01,11.28-5.01,18.55c0,12.31,5.24,21.92,15.74,28.83
			c10.49,6.92,25.76,10.37,45.8,10.37c1.52,0,2.96,0,4.31,0c1.35,0,2.66-0.06,3.96-0.18v3.87h16.53V914.21h6.86h2.64
			c5.04,0,7.62,2.52,7.74,7.56v92.48h16.53V914.21h7.03h3.52h61.71c-12.66,22.62-19.05,34.17-19.16,34.64
			c-0.7,1.99-1.05,3.87-1.05,5.63c0,4.92,1.67,8.88,5.01,11.87c3.34,2.99,7.24,4.48,11.69,4.48c4.57,0,10.31-0.7,17.23-2.11h0.18
			c-7.97,14.65-18.58,21.98-31.82,21.98c-7.5,0-13.3-2.46-17.41-7.38c-4.1-4.92-6.15-11.49-6.15-19.69c0-3.87,0.38-7.15,1.14-9.85
			c0.76-2.7,1.73-4.63,2.9-5.8l-11.78-11.78c-2.35,2.58-4.13,5.27-5.36,8.09c-1.23,2.81-2.11,5.51-2.64,8.09
			c-0.53,2.58-0.79,4.9-0.79,6.94c0,2.05,0,3.49,0,4.31c0,7.03,1.05,13.27,3.16,18.72c2.11,5.45,4.98,10.02,8.61,13.71
			c3.63,3.69,7.88,6.48,12.75,8.35c4.86,1.88,10.05,2.81,15.56,2.81c21.92,0,38.39-12.36,49.4-37.1c0.82-1.76,1.23-3.63,1.23-5.63
			c0-4.1-1.44-7.32-4.31-9.67c-2.87-2.34-5.95-3.52-9.23-3.52c-0.7,0-2.08,0.15-4.13,0.44c-2.05,0.29-4.25,0.65-6.59,1.05
			c-2.35,0.41-4.63,0.76-6.86,1.05c-2.23,0.29-3.87,0.44-4.92,0.44l13.89-24.79c4.34,1.05,8.7,2.35,13.1,3.87
			c4.4,1.52,8.38,3.19,11.96,5.01c3.57,1.82,6.47,3.78,8.7,5.89c2.23,2.11,3.34,4.28,3.34,6.51c0,4.92-2.23,10.67-6.68,17.23
			c-3.52,5.16-7.03,9.93-10.55,14.33c-3.52,4.4-6.68,8.47-9.49,12.22c-2.81,3.75-5.1,7.27-6.86,10.55
			c-1.76,3.28-2.64,6.33-2.64,9.14l16.53,0.18c0.59-2.46,4.63-8.32,12.13-17.58c7.5-9.26,13.39-17.58,17.67-24.97
			c4.28-7.38,6.42-14.42,6.42-21.1c0-8.09-3.96-15.24-11.87-21.45c-7.91-6.21-19.6-11.25-35.08-15.12h50.63h2.64
			c5.04,0,7.62,2.52,7.74,7.56v92.48h16.53V914.21h7.03h3.52h73.49v0.35c0,2.23-1.73,4.13-5.19,5.71
			c-3.46,1.58-7.77,3.25-12.92,5.01c-5.16,1.76-10.76,3.75-16.79,5.98c-6.04,2.23-11.63,5.1-16.79,8.61
			c-5.16,3.52-9.47,7.82-12.92,12.92c-3.46,5.1-5.19,11.34-5.19,18.72c0,11.49,4.69,20.98,14.07,28.48
			c-0.82,2.11-1.23,4.46-1.23,7.03c0,3.16,0.62,6.18,1.85,9.05c1.23,2.87,2.91,5.36,5.02,7.47c2.12,2.11,4.62,3.78,7.5,5.01
			c2.88,1.23,5.91,1.85,9.08,1.85c10.58,0,18.05-5.51,22.4-16.53c2-0.12,3.94-0.29,5.82-0.53c1.88-0.23,3.64-0.47,5.29-0.7v2.64
			h16.53V914.21h10.37v-9.32H1113.28z M885.42,993.85c-1.18,0.12-2.35,0.21-3.53,0.26c-1.18,0.06-2.41,0.09-3.71,0.09
			c-3.65,0-7.35-0.15-11.11-0.44c-3.76-0.29-7.41-0.82-10.94-1.58c-3.53-0.76-6.88-1.79-10.05-3.08c-3.18-1.29-5.94-2.87-8.29-4.75
			c-3.76-3.16-5.65-7.5-5.65-13.01c0-3.63,0.85-6.83,2.56-9.58c1.7-2.75,4.08-5.21,7.14-7.38c3.06-2.17,6.79-4.19,11.2-6.07
			c4.41-1.87,9.32-3.69,14.73-5.45c3.05-1.05,6.08-2.14,9.08-3.25c3-1.11,5.85-2.31,8.56-3.6V993.85z M1158.17,1011.87
			c-1.37,1.35-3,2.02-4.9,2.02c-1.9,0-3.53-0.67-4.9-2.02c-1.37-1.35-2.05-2.96-2.05-4.83c0-1.87,0.68-3.49,2.05-4.84
			c1.37-1.35,3-2.02,4.9-2.02c1.9,0,3.53,0.68,4.9,2.02c1.37,1.35,2.05,2.96,2.05,4.84
			C1160.22,1008.91,1159.54,1010.53,1158.17,1011.87z M1186.77,995.61c-3.18,0.94-7.29,1.47-12.35,1.58
			c-4.82-9.02-11.88-13.54-21.17-13.54c-4.35,0-8.35,1.12-12,3.34c-5.18-3.87-7.76-9.02-7.76-15.47c0-3.63,0.85-6.83,2.56-9.58
			c1.7-2.75,4.08-5.21,7.14-7.38c3.06-2.17,6.79-4.19,11.2-6.07c4.41-1.87,9.32-3.69,14.73-5.45c3.05-1.05,6.08-2.14,9.08-3.25
			c3-1.11,5.85-2.31,8.56-3.6V995.61z"/>
		<g>
			<linearGradient id="SVGID_3_" gradientUnits="userSpaceOnUse" x1="769.3365" y1="1325.4072" x2="1252.7272" y2="842.0165">
				<stop  offset="0" style="stop-color:#E6A75C"/>
				<stop  offset="0.0234" style="stop-color:#E8AB63"/>
				<stop  offset="0.1847" style="stop-color:#F2C48B"/>
				<stop  offset="0.3066" style="stop-color:#FBD5A5"/>
				<stop  offset="0.3744" style="stop-color:#FFDCAF"/>
				<stop  offset="0.525" style="stop-color:#E6A75C"/>
				<stop  offset="0.6674" style="stop-color:#FFDCAF"/>
				<stop  offset="1" style="stop-color:#E6A75C"/>
			</linearGradient>
			<path style="fill:url(#SVGID_3_);" d="M1252.74,1206.8V842.03h-16.53v364.76H683.78v-6.22h31.03h16.53v-16.53v-48.72v-12.84
				v-87.2h6.85h3.52h73.49v0.35c-0.35,2.11-2.32,3.99-5.89,5.63c-3.58,1.64-7.94,3.37-13.1,5.19c-5.16,1.82-10.7,3.87-16.61,6.15
				c-5.92,2.29-11.43,5.16-16.53,8.61c-5.1,3.46-9.32,7.74-12.66,12.83c-3.34,5.1-5.01,11.28-5.01,18.55
				c0,12.31,5.24,21.92,15.74,28.83c10.49,6.92,25.76,10.37,45.8,10.37c1.52,0,2.96,0,4.31,0c1.35,0,2.66-0.06,3.96-0.18v3.87h16.53
				v-100.22h6.86h3.52h73.49c-3.16,1.99-6.45,4.19-9.85,6.59c-3.4,2.4-6.65,4.98-9.76,7.74c-3.11,2.76-5.98,5.63-8.61,8.61
				c-2.64,2.99-4.84,6.13-6.59,9.41c-1.99,4.1-2.99,8.32-2.99,12.66c0,3.05,0.64,6.13,1.93,9.23c1.29,3.11,3.28,6.01,5.98,8.7
				l7.56,7.38l11.6-11.78l-7.74-7.56c-1.88-1.87-2.81-4.04-2.81-6.51c0-1.64,0.41-3.1,1.23-4.4v-0.18
				c4.45-8.32,14.59-17.29,30.42-26.9c0.47-0.23,0.88-0.35,1.23-0.35c0.7,0,1.41,0.35,2.11,1.05c3.16,3.99,5.54,7.24,7.12,9.76
				c1.58,2.52,2.73,4.69,3.43,6.51c0.7,1.82,1.05,3.46,1.05,4.92c0,1.47,0,3.08,0,4.84c0,3.05-0.38,6.13-1.14,9.23
				c-0.76,3.11-1.84,6.3-3.24,9.58c-1.17,2.7-2.98,5.51-5.44,8.44c-2.46,2.93-5.35,5.66-8.68,8.18c-3.34,2.52-7.05,4.6-11.14,6.24
				c-4.09,1.64-8.42,2.46-12.98,2.46c-4.91,0-9.56-0.97-13.95-2.9c-4.39-1.93-8.19-4.63-11.4-8.09c-3.22-3.46-5.79-7.5-7.72-12.13
				c-1.93-4.63-2.89-9.64-2.89-15.03c0-9.02,2.93-17.35,8.79-24.97l-13.06-10.37c-8.18,10.79-12.26,22.45-12.26,34.99
				c0,7.38,1.35,14.42,4.04,21.1c2.69,6.68,6.36,12.51,10.99,17.49c4.63,4.98,10.14,8.97,16.53,11.96
				c6.39,2.99,13.27,4.48,20.66,4.48c5.86,0,11.49-0.99,16.88-2.99c6.33-2.46,12.13-5.6,17.41-9.41c5.27-3.81,9.76-8.18,13.45-13.1
				c3.69-4.92,6.56-10.29,8.61-16.09c2.05-5.8,3.08-11.87,3.08-18.2c0-2.46-0.15-5.01-0.44-7.65c-0.29-2.64-0.85-5.24-1.67-7.82
				c-0.82-2.81-2.05-5.63-3.69-8.44c-1.64-2.81-3.34-5.39-5.1-7.74c-1.76-2.34-3.4-4.33-4.92-5.98c-1.52-1.64-2.52-2.64-2.99-2.99
				h22.5h3.52h73.49v0.35c0,2.23-1.73,4.13-5.19,5.71c-3.46,1.58-7.77,3.25-12.92,5.01c-5.16,1.76-10.76,3.75-16.79,5.98
				c-6.04,2.23-11.63,5.1-16.79,8.61c-5.16,3.52-9.47,7.82-12.92,12.92c-3.46,5.1-5.19,11.34-5.19,18.72
				c0,11.49,4.69,20.98,14.07,28.48c-0.82,2.11-1.23,4.46-1.23,7.03c0,3.16,0.62,6.18,1.85,9.05c1.23,2.87,2.91,5.36,5.02,7.47
				c2.12,2.11,4.62,3.78,7.5,5.01c2.88,1.23,5.91,1.85,9.08,1.85c10.58,0,18.05-5.51,22.4-16.53c2-0.12,3.94-0.29,5.82-0.53
				c1.88-0.23,3.64-0.47,5.29-0.7v2.64h16.53v-101.09h10.37v-9.32H964.65h-3.52H842.1h-3.52h-96.87h-3.52h-6.85v-5.45
				c0-4.92,0.7-9.2,2.11-12.83c1.41-3.63,3.05-6.68,4.92-9.14c1.87-2.46,3.75-4.37,5.63-5.71c1.87-1.35,3.28-2.26,4.22-2.73
				c6.68-3.28,13.54-4.92,20.57-4.92c3.16,0,6.94,0.53,11.34,1.58c4.4,1.05,8.67,2.87,12.83,5.45c4.16,2.58,7.74,6.04,10.72,10.37
				c2.99,4.34,4.6,9.85,4.83,16.53h16.53c-0.24-7.03-1.82-13.63-4.75-19.78c-2.93-6.15-6.92-11.49-11.96-16
				c-5.04-4.51-10.93-8.09-17.67-10.72c-6.74-2.64-14.04-3.96-21.89-3.96c-7.62,0-14.71,1.26-21.27,3.78
				c-6.57,2.52-12.25,6.04-17.05,10.55c-4.81,4.51-8.61,9.96-11.43,16.35c-2.81,6.39-4.22,13.45-4.22,21.19v5.45h-10.37v9.32h10.37
				v87.2v12.84v48.72h-47.56v0h0v22.75h0v16.53h568.96h16.53h0L1252.74,1206.8L1252.74,1206.8z M815.2,1114.94
				c-1.18,0.12-2.35,0.21-3.53,0.26c-1.18,0.06-2.41,0.09-3.71,0.09c-3.65,0-7.35-0.15-11.11-0.44c-3.76-0.29-7.41-0.82-10.94-1.58
				c-3.53-0.76-6.88-1.79-10.05-3.08c-3.18-1.29-5.94-2.87-8.29-4.75c-3.76-3.16-5.65-7.5-5.65-13.01c0-3.63,0.85-6.83,2.56-9.58
				c1.7-2.75,4.08-5.21,7.14-7.38c3.06-2.17,6.79-4.19,11.2-6.07c4.41-1.87,9.32-3.69,14.73-5.45c3.05-1.06,6.08-2.14,9.08-3.25
				c3-1.11,5.85-2.31,8.56-3.6V1114.94z M1009.54,1132.96c-1.37,1.35-3,2.02-4.9,2.02c-1.9,0-3.53-0.67-4.9-2.02
				c-1.37-1.35-2.05-2.96-2.05-4.83c0-1.87,0.68-3.49,2.05-4.84c1.37-1.35,3-2.02,4.9-2.02c1.9,0,3.53,0.68,4.9,2.02
				c1.37,1.35,2.05,2.96,2.05,4.84C1011.59,1130,1010.9,1131.61,1009.54,1132.96z M1038.14,1116.7c-3.18,0.94-7.29,1.47-12.35,1.58
				c-4.82-9.02-11.88-13.54-21.17-13.54c-4.35,0-8.35,1.12-12,3.34c-5.18-3.87-7.76-9.02-7.76-15.47c0-3.63,0.85-6.83,2.56-9.58
				c1.7-2.75,4.08-5.21,7.14-7.38c3.06-2.17,6.79-4.19,11.2-6.07c4.41-1.87,9.32-3.69,14.73-5.45c3.05-1.05,6.08-2.14,9.08-3.25
				c3-1.11,5.85-2.31,8.56-3.6V1116.7z"/>
			<g>
				<linearGradient id="SVGID_4_" gradientUnits="userSpaceOnUse" x1="1092.1287" y1="1133.3778" x2="1166.9276" y2="1058.5789">
					<stop  offset="0" style="stop-color:#E6A75C"/>
					<stop  offset="0.0234" style="stop-color:#E8AB63"/>
					<stop  offset="0.1847" style="stop-color:#F2C48B"/>
					<stop  offset="0.3066" style="stop-color:#FBD5A5"/>
					<stop  offset="0.3744" style="stop-color:#FFDCAF"/>
					<stop  offset="0.525" style="stop-color:#E6A75C"/>
					<stop  offset="0.6674" style="stop-color:#FFDCAF"/>
					<stop  offset="1" style="stop-color:#E6A75C"/>
				</linearGradient>
				<path class="st12" d="M1149,1049.53v2.51h11.39v10.23H1149v109.83h-18.14v-60.42c0-8.11-1.16-14.86-3.49-20.27
					c-2.33-5.4-5.33-9.71-9.01-12.93c-3.68-3.22-7.88-5.47-12.6-6.76c-4.72-1.29-9.46-1.93-14.24-1.93c-2.2,0-4.17,0.16-5.91,0.48
					c-1.74,0.32-2.74,1.58-3,3.76c-0.26,1.67-0.39,3.22-0.39,4.63c0,1.42,0,2.77,0,4.05c0,5.4,0.46,9.72,1.37,12.93
					c0.91,3.22,2.18,5.66,3.8,7.33c1.63,1.67,3.58,2.77,5.85,3.28c2.27,0.52,4.71,0.77,7.32,0.77v18.15
					c-11.58,0-20.56-3.63-26.93-10.91c-6.37-7.27-9.56-17.66-9.56-31.17c0-4.89,0.45-9.27,1.35-13.13c0.9-3.86,2.41-7.14,4.54-9.84
					c2.12-2.7,4.89-4.79,8.3-6.27c3.41-1.48,7.69-2.22,12.84-2.22c6.3,0,12.96,0.9,19.98,2.7c7.01,1.8,13.61,5.28,19.79,10.42
					v-15.25H1149z"/>
				<linearGradient id="SVGID_5_" gradientUnits="userSpaceOnUse" x1="1160.3907" y1="1172.1062" x2="1180.3025" y2="1152.1945">
					<stop  offset="0" style="stop-color:#E6A75C"/>
					<stop  offset="0.0234" style="stop-color:#E8AB63"/>
					<stop  offset="0.1847" style="stop-color:#F2C48B"/>
					<stop  offset="0.3066" style="stop-color:#FBD5A5"/>
					<stop  offset="0.3744" style="stop-color:#FFDCAF"/>
					<stop  offset="0.525" style="stop-color:#E6A75C"/>
					<stop  offset="0.6674" style="stop-color:#FFDCAF"/>
					<stop  offset="1" style="stop-color:#E6A75C"/>
				</linearGradient>
				<rect x="1160.39" y="1152.19" class="st13" width="19.91" height="19.91"/>
				<linearGradient id="SVGID_6_" gradientUnits="userSpaceOnUse" x1="1193.8594" y1="1172.1062" x2="1213.7711" y2="1152.1945">
					<stop  offset="0" style="stop-color:#E6A75C"/>
					<stop  offset="0.0234" style="stop-color:#E8AB63"/>
					<stop  offset="0.1847" style="stop-color:#F2C48B"/>
					<stop  offset="0.3066" style="stop-color:#FBD5A5"/>
					<stop  offset="0.3744" style="stop-color:#FFDCAF"/>
					<stop  offset="0.525" style="stop-color:#E6A75C"/>
					<stop  offset="0.6674" style="stop-color:#FFDCAF"/>
					<stop  offset="1" style="stop-color:#E6A75C"/>
				</linearGradient>
				<rect x="1193.86" y="1152.19" class="st14" width="19.91" height="19.91"/>
			</g>
		</g>
		<g>
			<linearGradient id="SVGID_7_" gradientUnits="userSpaceOnUse" x1="779.9737" y1="750.0768" x2="819.7871" y2="710.2633">
				<stop  offset="0" style="stop-color:#E6A75C"/>
				<stop  offset="0.0234" style="stop-color:#E8AB63"/>
				<stop  offset="0.1847" style="stop-color:#F2C48B"/>
				<stop  offset="0.3066" style="stop-color:#FBD5A5"/>
				<stop  offset="0.3744" style="stop-color:#FFDCAF"/>
				<stop  offset="0.525" style="stop-color:#E6A75C"/>
				<stop  offset="0.6674" style="stop-color:#FFDCAF"/>
				<stop  offset="1" style="stop-color:#E6A75C"/>
			</linearGradient>
			<path class="st48" d="M825.39,749.46c-0.78-1.02-1.71-1.9-2.8-2.63c-1.09-0.73-2.28-1.29-3.58-1.68v-3.41h-0.67
				c0-0.79,0.01-1.58,0.02-2.36c0.02-1.12,0.07-2.23,0.17-3.34c0.06-0.75,0.17-1.43,0.32-2.05c0.15-0.62,0.3-1.22,0.46-1.8
				c0.16-0.58,0.3-1.18,0.41-1.78c0.11-0.6,0.17-1.26,0.17-1.97c0-0.84-0.14-1.63-0.41-2.36c-0.28-0.73-0.67-1.37-1.17-1.92
				c-0.5-0.55-1.1-0.99-1.8-1.32c-0.7-0.32-1.47-0.49-2.31-0.49c-0.91,0-1.85,0.16-2.83,0.49v-7.89h10.52v-2.58h-30.4h-0.97h-27.82
				v2.58h21.34v0.1c-0.1,0.58-0.64,1.1-1.63,1.56c-0.99,0.46-2.2,0.93-3.63,1.44c-1.43,0.5-2.96,1.07-4.6,1.71
				c-1.64,0.63-3.17,1.43-4.58,2.39c-1.41,0.96-2.58,2.14-3.51,3.56c-0.93,1.41-1.39,3.13-1.39,5.14c0,3.41,1.45,6.07,4.36,7.99
				c2.91,1.92,7.14,2.87,12.69,2.87c0.42,0,0.82,0,1.19,0c0.37,0,0.74-0.02,1.1-0.05v1.07h4.58v-27.77h1.9h0.97h15.3v3.17
				l-0.88-0.44c-0.81-0.39-1.64-0.71-2.48-0.95c-0.85-0.24-1.64-0.44-2.39-0.58c-0.75-0.15-1.44-0.24-2.07-0.29
				c-0.63-0.05-1.14-0.07-1.53-0.07c-1.14,0-2.03,0.2-2.68,0.61c-0.65,0.41-1.14,0.9-1.49,1.49c-0.34,0.58-0.55,1.19-0.63,1.83
				c-0.08,0.63-0.12,1.18-0.12,1.63c0,0.85,0.13,1.71,0.39,2.58c0.26,0.88,0.69,1.66,1.29,2.36c0.6,0.7,1.4,1.28,2.39,1.73
				c0.99,0.46,2.23,0.68,3.73,0.68v-4.58c-1.23,0-2.07-0.28-2.51-0.85c-0.44-0.57-0.66-1.14-0.66-1.73c0-0.26,0-0.5,0-0.73
				c0-0.23,0.02-0.37,0.05-0.44h0.49c0.52,0.03,1.29,0.12,2.31,0.27c1.02,0.15,2.04,0.41,3.04,0.78c1.01,0.37,1.88,0.91,2.63,1.61
				c0.75,0.7,1.12,1.6,1.12,2.7v1.51c-0.46,0.26-1.1,0.5-1.92,0.71c-0.83,0.21-1.74,0.45-2.73,0.71c-0.99,0.26-2,0.56-3.02,0.9
				c-1.02,0.34-1.96,0.78-2.8,1.32c-0.85,0.54-1.53,1.19-2.07,1.95c-0.54,0.76-0.8,1.7-0.8,2.8c0,1.43,0.42,2.57,1.27,3.43
				c0.84,0.86,1.9,1.53,3.17,2c1.27,0.47,2.61,0.79,4.04,0.95c1.43,0.16,2.73,0.24,3.9,0.24h0.97v0.29h4.58v-14.76
				c0.65-0.32,1.2-0.54,1.66-0.66c0.45-0.11,0.83-0.17,1.12-0.17c0.52,0,0.84,0.14,0.97,0.41c0.13,0.28,0.19,0.59,0.19,0.95
				c0,0.33-0.04,0.73-0.12,1.22c-0.08,0.49-0.2,0.96-0.37,1.41c-0.23,0.71-0.41,1.53-0.54,2.46c-0.13,0.93-0.24,1.91-0.32,2.95
				c-0.08,1.04-0.14,2.11-0.17,3.22c-0.03,1.1-0.05,2.18-0.05,3.22h0.63v1.56c-0.32,0-0.6-0.01-0.83-0.02
				c-0.23-0.02-0.42-0.02-0.58-0.02c-0.16,0-0.29,0.01-0.39,0.02c-0.1,0.02-0.16,0.02-0.19,0.02v0.05c-0.88,0.03-1.7,0.22-2.46,0.56
				c-0.76,0.34-1.43,0.8-2,1.37c-0.57,0.57-1.01,1.24-1.32,2.01c-0.31,0.77-0.46,1.59-0.46,2.47c0,0.88,0.17,1.7,0.51,2.47
				c0.34,0.76,0.8,1.44,1.39,2.03c0.58,0.59,1.27,1.05,2.05,1.39c0.78,0.34,1.61,0.51,2.48,0.51c0.85,0,1.66-0.16,2.44-0.49
				c0.78-0.33,1.46-0.78,2.05-1.36c0.58-0.58,1.05-1.27,1.39-2.05c0.34-0.78,0.51-1.61,0.51-2.48c0-0.13,0-0.28,0-0.44
				c0-0.16-0.03-0.28-0.1-0.34c1.46,0.58,2.56,1.47,3.29,2.66c0.73,1.19,1.1,2.7,1.1,4.56h4.58c0-1.56-0.21-2.99-0.63-4.29
				C826.77,751.64,826.17,750.48,825.39,749.46z M784.03,737.01c-0.33,0.03-0.65,0.06-0.98,0.07c-0.33,0.02-0.67,0.02-1.03,0.02
				c-1.01,0-2.04-0.04-3.08-0.12c-1.04-0.08-2.05-0.23-3.03-0.44c-0.98-0.21-1.91-0.49-2.79-0.85c-0.88-0.36-1.65-0.8-2.3-1.32
				c-1.04-0.88-1.56-2.08-1.56-3.61c0-1.01,0.24-1.89,0.71-2.66c0.47-0.76,1.13-1.44,1.98-2.05c0.85-0.6,1.88-1.16,3.1-1.68
				c1.22-0.52,2.58-1.02,4.08-1.51c0.85-0.29,1.69-0.59,2.52-0.9c0.83-0.31,1.62-0.64,2.37-1V737.01z M806.78,737.64h-1.17
				c-1.49,0-2.93-0.11-4.31-0.34c-1.38-0.23-2.4-0.6-3.05-1.12c-0.16-0.16-0.24-0.32-0.24-0.49c0-0.29,0.21-0.58,0.63-0.85
				c0.42-0.28,0.95-0.54,1.58-0.8c0.63-0.26,1.32-0.49,2.05-0.71c0.73-0.21,1.42-0.4,2.07-0.56c0.65-0.16,1.2-0.29,1.66-0.39
				c0.45-0.1,0.71-0.16,0.78-0.19V737.64z M813.84,752.07c-0.36,0.36-0.78,0.54-1.27,0.54c-0.52,0-0.96-0.18-1.32-0.54
				c-0.36-0.36-0.54-0.78-0.54-1.27c0-0.52,0.18-0.96,0.54-1.32c0.36-0.36,0.8-0.54,1.32-0.54c0.49,0,0.91,0.18,1.27,0.54
				c0.36,0.36,0.54,0.8,0.54,1.32C814.38,751.29,814.2,751.71,813.84,752.07z"/>
			<linearGradient id="SVGID_8_" gradientUnits="userSpaceOnUse" x1="864.4021" y1="761.0571" x2="937.5259" y2="687.9333">
				<stop  offset="0" style="stop-color:#E6A75C"/>
				<stop  offset="0.0234" style="stop-color:#E8AB63"/>
				<stop  offset="0.1847" style="stop-color:#F2C48B"/>
				<stop  offset="0.3066" style="stop-color:#FBD5A5"/>
				<stop  offset="0.3744" style="stop-color:#FFDCAF"/>
				<stop  offset="0.525" style="stop-color:#E6A75C"/>
				<stop  offset="0.6674" style="stop-color:#FFDCAF"/>
				<stop  offset="1" style="stop-color:#E6A75C"/>
			</linearGradient>
			<path class="st49" d="M942.69,746.63c0.8,0.34,1.64,0.51,2.52,0.51c2.93,0,5-1.53,6.21-4.58c0.55-0.03,1.09-0.08,1.61-0.15
				c0.52-0.06,1.01-0.13,1.47-0.19v0.73h4.58v-28.01h2.87v-2.58h-27.82h-0.97h-1.95v-0.63h-4.58v1.41
				c-0.26-0.29-0.54-0.49-0.85-0.61c-0.2-0.07-0.55-0.12-1.05-0.15v-0.02h-27.82h-0.97h-26.84h-0.98h-1.9v-1.51
				c0-1.36,0.19-2.55,0.58-3.56c0.39-1.01,0.84-1.85,1.36-2.53c0.52-0.68,1.04-1.21,1.56-1.58c0.52-0.37,0.91-0.62,1.17-0.76
				c1.85-0.91,3.75-1.36,5.7-1.36c0.88,0,1.92,0.15,3.14,0.44c1.22,0.29,2.4,0.8,3.56,1.51c1.15,0.71,2.14,1.67,2.97,2.87
				c0.83,1.2,1.27,2.73,1.34,4.58h4.58c-0.07-1.95-0.5-3.78-1.32-5.48c-0.81-1.71-1.92-3.18-3.31-4.43c-1.4-1.25-3.03-2.24-4.9-2.97
				c-1.87-0.73-3.89-1.1-6.07-1.1c-2.11,0-4.08,0.35-5.9,1.05c-1.82,0.7-3.39,1.67-4.73,2.92c-1.33,1.25-2.39,2.76-3.17,4.53
				c-0.78,1.77-1.17,3.73-1.17,5.87v1.51h-1.9h-0.97h-1.9v-0.63h-4.58v4.87c-0.03,0-0.05,0.02-0.05,0.05
				c-3.87-2.96-7.6-4.43-11.21-4.43c-2.08,0-3.87,0.46-5.38,1.39s-2.7,2.25-3.58,3.97c-0.58,1.33-0.88,2.63-0.88,3.9
				c0,1.04,0.17,2.03,0.51,2.97c0.34,0.94,0.8,1.8,1.4,2.58c0.59,0.78,1.31,1.47,2.15,2.07c0.84,0.6,1.76,1.05,2.77,1.34l-2.09,1.9
				l3.13,3.36l7.77-7.11c1.04-0.78,2.02-1.58,2.93-2.41c0.91-0.83,1.76-1.66,2.54-2.51v19.1h4.58v-27.82h1.9h0.97h1.9v27.72h4.58
				v-27.72h1.9h0.98h20.36v0.1c0,0.62-0.48,1.15-1.44,1.58c-0.96,0.44-2.15,0.9-3.58,1.39c-1.43,0.49-2.98,1.04-4.65,1.66
				c-1.67,0.62-3.22,1.41-4.65,2.39c-1.43,0.97-2.62,2.17-3.58,3.58c-0.96,1.41-1.44,3.14-1.44,5.19c0,3.18,1.3,5.81,3.9,7.89
				c-0.23,0.58-0.34,1.23-0.34,1.95c0,0.88,0.17,1.71,0.51,2.51c0.34,0.8,0.81,1.49,1.39,2.07c0.59,0.58,1.28,1.05,2.08,1.39
				c0.8,0.34,1.64,0.51,2.52,0.51c2.93,0,5-1.53,6.21-4.58c0.55-0.03,1.09-0.08,1.61-0.15c0.52-0.06,1.01-0.13,1.47-0.19v0.73h4.58
				v-28.01h1.9h0.97h20.37v0.1c-0.1,0.58-0.64,1.1-1.63,1.56c-0.99,0.46-2.2,0.93-3.63,1.44c-1.43,0.5-2.96,1.07-4.6,1.71
				c-1.64,0.63-3.17,1.43-4.58,2.39c-1.41,0.96-2.58,2.14-3.51,3.56c-0.93,1.41-1.39,3.13-1.39,5.14c0,3.41,1.45,6.07,4.36,7.99
				c2.91,1.92,7.14,2.87,12.69,2.87c0.42,0,0.82,0,1.19,0c0.37,0,0.74-0.02,1.1-0.05v1.07h4.58v-27.77h1.9h0.73
				c1.4,0,2.11,0.7,2.14,2.09v25.63h4.58v-27.72h1.95h0.97h20.36v0.1c0,0.62-0.48,1.15-1.44,1.58c-0.96,0.44-2.15,0.9-3.58,1.39
				c-1.43,0.49-2.98,1.04-4.65,1.66c-1.67,0.62-3.22,1.41-4.65,2.39c-1.43,0.97-2.62,2.17-3.58,3.58c-0.96,1.41-1.44,3.14-1.44,5.19
				c0,3.18,1.3,5.81,3.9,7.89c-0.23,0.58-0.34,1.23-0.34,1.95c0,0.88,0.17,1.71,0.51,2.51c0.34,0.8,0.81,1.49,1.39,2.07
				C941.2,745.83,941.9,746.29,942.69,746.63z M843.81,725.07l-0.34,0.24c-0.85,0.62-1.75,0.93-2.73,0.93
				c-0.68,0-1.33-0.13-1.95-0.39c-0.62-0.26-1.14-0.6-1.58-1.02c-0.44-0.42-0.79-0.92-1.05-1.49c-0.26-0.57-0.39-1.18-0.39-1.83
				c0-0.78,0.14-1.46,0.41-2.05c0.28-0.58,0.66-1.07,1.15-1.46c0.49-0.39,1.05-0.69,1.68-0.9c0.63-0.21,1.29-0.32,1.97-0.32
				c2.5,0,5.24,1.12,8.23,3.36L843.81,725.07z M881.53,742c-0.38,0.37-0.83,0.56-1.36,0.56c-0.53,0-0.98-0.19-1.36-0.56
				c-0.38-0.37-0.57-0.82-0.57-1.34c0-0.52,0.19-0.97,0.57-1.34c0.38-0.37,0.83-0.56,1.36-0.56c0.53,0,0.98,0.19,1.36,0.56
				c0.38,0.37,0.57,0.82,0.57,1.34C882.1,741.18,881.91,741.63,881.53,742z M889.46,737.5c-0.88,0.26-2.02,0.41-3.42,0.44
				c-1.34-2.5-3.29-3.75-5.87-3.75c-1.21,0-2.31,0.31-3.32,0.93c-1.43-1.07-2.15-2.5-2.15-4.29c0-1.01,0.24-1.89,0.71-2.66
				c0.47-0.76,1.13-1.44,1.98-2.05c0.85-0.6,1.88-1.16,3.1-1.68c1.22-0.52,2.58-1.02,4.08-1.51c0.85-0.29,1.69-0.59,2.52-0.9
				c0.83-0.31,1.62-0.64,2.37-1V737.5z M917.27,737.01c-0.33,0.03-0.65,0.06-0.98,0.07c-0.33,0.02-0.67,0.02-1.03,0.02
				c-1.01,0-2.04-0.04-3.08-0.12c-1.04-0.08-2.05-0.23-3.03-0.44c-0.98-0.21-1.91-0.49-2.79-0.85c-0.88-0.36-1.65-0.8-2.3-1.32
				c-1.04-0.88-1.56-2.08-1.56-3.61c0-1.01,0.24-1.89,0.71-2.66c0.47-0.76,1.13-1.44,1.98-2.05c0.85-0.6,1.88-1.16,3.1-1.68
				c1.22-0.52,2.58-1.02,4.08-1.51c0.85-0.29,1.69-0.59,2.52-0.9c0.83-0.31,1.62-0.64,2.37-1V737.01z M946.57,742
				c-0.38,0.37-0.83,0.56-1.36,0.56c-0.53,0-0.98-0.19-1.36-0.56c-0.38-0.37-0.57-0.82-0.57-1.34c0-0.52,0.19-0.97,0.57-1.34
				c0.38-0.37,0.83-0.56,1.36-0.56c0.53,0,0.98,0.19,1.36,0.56c0.38,0.37,0.57,0.82,0.57,1.34
				C947.14,741.18,946.95,741.63,946.57,742z M940.44,728.17c0.47-0.76,1.13-1.44,1.98-2.05c0.85-0.6,1.88-1.16,3.1-1.68
				c1.22-0.52,2.58-1.02,4.08-1.51c0.85-0.29,1.69-0.59,2.52-0.9c0.83-0.31,1.62-0.64,2.37-1v16.47c-0.88,0.26-2.02,0.41-3.42,0.44
				c-1.34-2.5-3.29-3.75-5.87-3.75c-1.21,0-2.31,0.31-3.32,0.93c-1.43-1.07-2.15-2.5-2.15-4.29
				C939.73,729.82,939.97,728.93,940.44,728.17z"/>
			<linearGradient id="SVGID_9_" gradientUnits="userSpaceOnUse" x1="976.7614" y1="746.9172" x2="998.0847" y2="725.5939">
				<stop  offset="0" style="stop-color:#E6A75C"/>
				<stop  offset="0.0234" style="stop-color:#E8AB63"/>
				<stop  offset="0.1847" style="stop-color:#F2C48B"/>
				<stop  offset="0.3066" style="stop-color:#FBD5A5"/>
				<stop  offset="0.3744" style="stop-color:#FFDCAF"/>
				<stop  offset="0.525" style="stop-color:#E6A75C"/>
				<stop  offset="0.6674" style="stop-color:#FFDCAF"/>
				<stop  offset="1" style="stop-color:#E6A75C"/>
			</linearGradient>
			<path class="st50" d="M993.28,753.87c0.68,0,1.36-0.03,2.05-0.1c0.68-0.07,1.36-0.16,2.05-0.29c1.59-0.29,3.17-0.87,4.73-1.73
				c1.56-0.86,2.87-2.07,3.95-3.63l-4.87-3.26c-0.42,0.65-0.95,1.19-1.58,1.61c-0.63,0.42-1.33,0.76-2.09,1.02
				c-0.76,0.26-1.57,0.45-2.41,0.56c-0.84,0.11-1.69,0.17-2.53,0.17c-1.66,0-3.36-0.23-5.12-0.68l-1.66-0.54
				c-1.69-0.68-3.16-1.62-4.41-2.8c-1.25-1.19-2.29-2.52-3.12-4c-0.83-1.48-1.45-3.05-1.88-4.73c-0.42-1.67-0.63-3.34-0.63-4.99
				c0-1.98,0.28-3.98,0.85-5.99c0.57-2.01,1.44-3.8,2.61-5.36c0.36-0.49,0.79-0.96,1.29-1.41c0.5-0.45,1.01-0.87,1.51-1.24
				c0.5-0.37,0.97-0.7,1.41-0.97c0.44-0.28,0.76-0.46,0.95-0.56h0.49v-2.58h-2.24c-0.75,0-1.87,0.55-3.36,1.66
				c-1.36,0.94-2.54,2.06-3.53,3.36c-0.99,1.3-1.82,2.7-2.48,4.21c-0.67,1.51-1.16,3.1-1.49,4.77c-0.33,1.67-0.49,3.35-0.49,5.04
				c0,2.14,0.27,4.26,0.8,6.33c0.54,2.08,1.32,4.02,2.36,5.82c1.04,1.8,2.33,3.43,3.87,4.87c1.54,1.44,3.32,2.62,5.33,3.53
				l1.12,0.44C987.48,753.48,990.32,753.97,993.28,753.87z"/>
			<linearGradient id="SVGID_10_" gradientUnits="userSpaceOnUse" x1="999.6505" y1="750.3619" x2="1050.3495" y2="699.6629">
				<stop  offset="0" style="stop-color:#E6A75C"/>
				<stop  offset="0.0234" style="stop-color:#E8AB63"/>
				<stop  offset="0.1847" style="stop-color:#F2C48B"/>
				<stop  offset="0.3066" style="stop-color:#FBD5A5"/>
				<stop  offset="0.3744" style="stop-color:#FFDCAF"/>
				<stop  offset="0.525" style="stop-color:#E6A75C"/>
				<stop  offset="0.6674" style="stop-color:#FFDCAF"/>
				<stop  offset="1" style="stop-color:#E6A75C"/>
			</linearGradient>
			<path class="st51" d="M986.04,734.4c0.31,1.09,0.8,2.23,1.49,3.41c0.68,1.19,1.66,2.22,2.92,3.09c1.98,1.4,4.42,2.1,7.31,2.1
				c2.4,0,5.1-0.48,8.09-1.45v1.11h4.58v-27.72h1.95h0.93h7.84c-1.14,0.97-2.14,2.09-3,3.34c-0.86,1.25-1.57,2.59-2.12,4.02
				c-0.55,1.43-0.97,2.92-1.24,4.46c-0.28,1.54-0.41,3.09-0.41,4.65c0,2.14,0.27,4.26,0.8,6.33c0.54,2.08,1.32,4.02,2.36,5.82
				c1.04,1.8,2.33,3.43,3.87,4.87c1.54,1.44,3.32,2.62,5.33,3.53l1.12,0.44c2.73,1.07,5.57,1.56,8.53,1.46
				c1.07,0,2.19-0.08,3.36-0.24c1.17-0.16,2.32-0.46,3.46-0.9c1.14-0.44,2.22-1.03,3.24-1.78c1.02-0.75,1.92-1.69,2.7-2.83
				l-4.87-3.26c-0.42,0.65-0.95,1.19-1.58,1.61c-0.63,0.42-1.33,0.76-2.09,1.02c-0.76,0.26-1.57,0.45-2.41,0.56
				c-0.84,0.11-1.69,0.17-2.53,0.17c-1.66,0-3.36-0.23-5.12-0.68l-1.66-0.54c-1.69-0.68-3.16-1.62-4.41-2.8
				c-1.25-1.19-2.29-2.52-3.12-4c-0.83-1.48-1.45-3.05-1.88-4.73c-0.42-1.67-0.63-3.34-0.63-4.99c0-1.98,0.28-3.98,0.85-5.99
				c0.57-2.01,1.44-3.8,2.61-5.36c0.36-0.49,0.79-0.96,1.29-1.41c0.5-0.45,1.01-0.87,1.51-1.24c0.5-0.37,0.97-0.7,1.41-0.97
				c0.44-0.28,0.76-0.46,0.95-0.56h0.49h20.27v0.1c-0.1,0.71-0.81,1.36-2.14,1.95c-0.71,0.33-1.64,0.67-2.78,1.02
				c-1.14,0.36-2.35,0.78-3.63,1.27c-1.28,0.49-2.57,1.06-3.85,1.71c-1.28,0.65-2.44,1.43-3.46,2.34c-1.02,0.91-1.86,1.98-2.51,3.22
				c-0.65,1.23-0.97,2.68-0.97,4.34c0,3.48,1.48,6.16,4.43,8.06c2.96,1.9,7.19,2.85,12.72,2.85c0.42,0,0.81-0.01,1.17-0.02
				c0.36-0.02,0.7-0.04,1.02-0.07v0.97h4.58v-22.31l1.17,0.63c1.07,0.58,1.61,1.41,1.61,2.48v5.8h4.58v-5.8
				c0-1.43-0.37-2.72-1.12-3.87c-0.75-1.15-1.77-2.07-3.07-2.75l-3.17-1.71v-0.19h10.23v-2.58h-35.08h-1.95h-12.72h-0.93h-1.95
				v-0.63h-4.58v24.99c-3.09,1.14-5.78,1.71-8.09,1.71c-1.27,0-2.35-0.18-3.24-0.54c-0.89-0.36-1.64-0.83-2.24-1.42
				c-0.6-0.59-1.06-1.23-1.39-1.93c-0.32-0.7-0.54-1.39-0.63-2.07l0.29-0.05c1.57-0.23,3.03-0.68,4.4-1.37
				c1.37-0.68,2.57-1.55,3.6-2.59c1.03-1.04,1.84-2.23,2.45-3.56c0.6-1.33,0.91-2.78,0.91-4.34c0-1.98-0.6-3.84-1.81-5.56
				l-0.24-0.34c-1.56-1.92-3.6-2.88-6.11-2.88c-1.37,0-2.59,0.33-3.67,0.97c-1.07,0.65-1.99,1.49-2.74,2.53
				c-0.68,1.1-1.12,2.31-1.29,3.61c-0.18,1.3-0.27,2.6-0.27,3.9h4.58c0-2.24,0.28-3.87,0.83-4.9c0.55-1.02,1.4-1.53,2.53-1.53
				c1.01,0,1.83,0.39,2.48,1.17l0.1,0.15c0.36,0.52,0.62,1.03,0.78,1.53c0.16,0.5,0.24,0.98,0.24,1.44c0,1.1-0.26,2.11-0.78,3.02
				c-0.52,0.91-1.22,1.68-2.09,2.31c-0.88,0.63-1.9,1.13-3.07,1.49c-1.17,0.36-2.39,0.54-3.65,0.54h-2.19l-0.1,2.24
				c0,0.1,0.02,0.54,0.07,1.34C985.56,732.37,985.73,733.32,986.04,734.4z M1048.23,737.11c-0.36,0.03-0.71,0.06-1.07,0.07
				c-0.36,0.02-0.71,0.02-1.07,0.02c-1.33,0-2.74-0.08-4.21-0.24c-1.48-0.16-2.83-0.47-4.07-0.93c-1.23-0.45-2.27-1.1-3.09-1.92
				c-0.83-0.83-1.24-1.91-1.24-3.24c0-1.4,0.37-2.52,1.1-3.36c0.73-0.84,1.75-1.58,3.07-2.22c1.32-0.63,2.87-1.26,4.68-1.88
				c1.8-0.62,3.78-1.41,5.92-2.39V737.11z"/>
			<linearGradient id="SVGID_11_" gradientUnits="userSpaceOnUse" x1="858.9425" y1="795.9284" x2="914.6606" y2="740.2103">
				<stop  offset="0" style="stop-color:#E6A75C"/>
				<stop  offset="0.0234" style="stop-color:#E8AB63"/>
				<stop  offset="0.1847" style="stop-color:#F2C48B"/>
				<stop  offset="0.3066" style="stop-color:#FBD5A5"/>
				<stop  offset="0.3744" style="stop-color:#FFDCAF"/>
				<stop  offset="0.525" style="stop-color:#E6A75C"/>
				<stop  offset="0.6674" style="stop-color:#FFDCAF"/>
				<stop  offset="1" style="stop-color:#E6A75C"/>
			</linearGradient>
			<path class="st66" d="M916.96,760.54h-14.85h-1.22h-7.93h-0.61h-1.22v-0.4h-2.87v0.88c-0.16-0.18-0.34-0.31-0.53-0.38
				c-0.12-0.05-0.35-0.07-0.66-0.09v-0.02h-18.36h-0.62h-1.21v-0.4h-2.87v0.88c-0.16-0.18-0.34-0.31-0.52-0.38
				c-0.18-0.07-0.42-0.11-0.7-0.11h-26.48v1.62h21.84v10.58c-0.29-0.06-0.57-0.12-0.87-0.18c-0.29-0.06-0.58-0.08-0.87-0.06
				l-0.73,0.03c0.24-0.85,0.37-1.72,0.37-2.59c0-0.49-0.03-0.95-0.08-1.37c-0.05-0.43-0.17-0.87-0.35-1.34
				c-0.18-0.47-0.44-0.97-0.78-1.51c-0.34-0.54-0.78-1.15-1.33-1.85c-0.53-0.57-1.02-0.91-1.48-1.02c-0.46-0.11-0.79-0.17-0.99-0.17
				c-0.53,0-1.2,0.22-2.03,0.67c-0.82,0.45-1.84,1.16-3.04,2.14c-2.12,1.71-3.17,3.43-3.17,5.15c0,0.53,0.11,1.05,0.32,1.57
				c0.21,0.52,0.55,0.99,1.01,1.42l1.24,1.2l1.98-2.09l-1.28-1.22c-0.26-0.24-0.4-0.56-0.4-0.95c0-0.33,0.13-0.69,0.38-1.08
				c0.26-0.4,0.61-0.81,1.07-1.24c0.46-0.43,1.01-0.86,1.64-1.31c0.63-0.45,1.32-0.89,2.05-1.34l0.18-0.03
				c0.06,0,0.2,0.11,0.43,0.34c0.22,0.22,0.47,0.53,0.73,0.93c0.27,0.4,0.5,0.85,0.7,1.37c0.2,0.52,0.31,1.07,0.31,1.66
				c0,3.06-1.72,5.28-5.17,6.65c-0.67,0.18-1.29,0.28-1.87,0.28c-0.84,0-1.6-0.16-2.29-0.47c-0.69-0.32-1.3-0.75-1.82-1.3
				c-0.52-0.55-0.92-1.19-1.21-1.92c-0.29-0.73-0.43-1.51-0.43-2.35c0-1.4,0.46-2.7,1.37-3.9l-2.22-1.83
				c-1.35,1.73-2.02,3.65-2.02,5.77c0,1.2,0.22,2.34,0.67,3.42c0.45,1.08,1.06,2.02,1.85,2.83c0.78,0.81,1.7,1.45,2.75,1.92
				c1.05,0.47,2.18,0.71,3.4,0.71c0.79,0,1.56-0.1,2.3-0.3c0.74-0.2,1.44-0.48,2.1-0.84c0.66-0.36,1.26-0.76,1.8-1.2
				c0.54-0.45,1.01-0.92,1.42-1.4c0.98-0.39,1.85-0.58,2.62-0.58c0.53,0,0.95,0.14,1.25,0.41c0.31,0.27,0.46,0.82,0.46,1.63v2.2
				h2.87v-17.42h1.19c0.57,0,1,0.08,1.28,0.23c0.28,0.15,0.46,0.51,0.52,1.08v16.04h2.87v-17.36h1.21h0.62h1.21
				c-0.36,0.77-0.54,1.7-0.54,2.78c0,0.18,0,0.37,0.02,0.55c0.01,0.18,0.03,0.38,0.05,0.58c0.2,1.28,0.81,2.46,1.83,3.54
				c-1.28,1.1-1.92,2.42-1.92,3.97c0,0.87,0.17,1.68,0.52,2.43c0.35,0.74,0.81,1.39,1.4,1.94c0.59,0.55,1.28,0.98,2.06,1.3
				c0.78,0.32,1.6,0.47,2.46,0.47v-2.87c-0.33,0-0.7-0.06-1.12-0.18c-0.42-0.12-0.82-0.32-1.18-0.58c-0.37-0.26-0.68-0.6-0.92-1.02
				c-0.25-0.42-0.37-0.91-0.37-1.48c0-0.35,0.08-0.67,0.24-0.96c0.16-0.29,0.39-0.55,0.67-0.78c0.29-0.22,0.62-0.4,0.99-0.53
				c0.38-0.13,0.78-0.2,1.21-0.2c0.55,0,1.23,0.09,2.05,0.27c0.82,0.18,1.6,0.51,2.34,0.99c0.74,0.48,1.38,1.14,1.91,1.98
				c0.53,0.84,0.8,1.93,0.8,3.25v1.98h2.87v-17.42h1.19h0.46c0.87,0,1.32,0.44,1.34,1.31v16.04h2.87v-17.36h1.22h0.61h4.88
				c-0.71,0.61-1.34,1.31-1.88,2.09c-0.54,0.78-0.98,1.62-1.33,2.52c-0.35,0.9-0.61,1.83-0.78,2.79c-0.17,0.97-0.26,1.94-0.26,2.91
				c0,1.34,0.17,2.66,0.5,3.97c0.34,1.3,0.83,2.52,1.48,3.65c0.65,1.13,1.46,2.15,2.43,3.05c0.97,0.9,2.08,1.64,3.34,2.21l0.7,0.27
				c1.71,0.67,3.49,0.98,5.34,0.92c0.67,0,1.37-0.05,2.1-0.15c0.73-0.1,1.45-0.29,2.17-0.56c0.71-0.27,1.39-0.65,2.03-1.11
				c0.64-0.47,1.2-1.06,1.69-1.77l-3.05-2.04c-0.26,0.41-0.59,0.74-0.99,1.01c-0.4,0.26-0.83,0.48-1.31,0.64
				c-0.48,0.16-0.98,0.28-1.51,0.35c-0.53,0.07-1.06,0.11-1.59,0.11c-1.04,0-2.1-0.14-3.2-0.43l-1.04-0.34
				c-1.06-0.43-1.98-1.01-2.76-1.75c-0.78-0.74-1.43-1.58-1.95-2.5c-0.52-0.93-0.91-1.91-1.17-2.96c-0.26-1.05-0.4-2.09-0.4-3.13
				c0-1.24,0.18-2.49,0.53-3.75c0.36-1.26,0.9-2.38,1.63-3.36c0.22-0.31,0.49-0.6,0.81-0.88c0.32-0.28,0.63-0.54,0.95-0.78
				c0.32-0.23,0.61-0.44,0.88-0.61c0.27-0.17,0.47-0.29,0.59-0.35h0.3h0.58v6.83c0,0.67,0.26,1.27,0.78,1.8
				c0.52,0.53,1.21,0.79,2.06,0.79c0.63,0,1.25-0.18,1.86-0.55c1.69-1.02,2.99-1.71,3.92-2.07c0.93-0.37,1.56-0.55,1.91-0.55h0.15
				c-0.18,0.43-0.48,0.93-0.9,1.51c-0.42,0.58-0.83,1.3-1.25,2.17c-0.42,0.86-0.79,1.9-1.11,3.11c-0.33,1.21-0.49,2.66-0.49,4.35
				h2.87c0-1.2,0.1-2.25,0.29-3.16c0.19-0.9,0.43-1.7,0.7-2.38c0.27-0.68,0.58-1.28,0.92-1.8c0.34-0.52,0.64-1,0.91-1.43
				c0.27-0.44,0.51-0.84,0.7-1.22c0.19-0.38,0.29-0.78,0.29-1.2c0-0.26-0.06-0.55-0.17-0.87c-0.11-0.32-0.29-0.61-0.53-0.9
				c-0.24-0.28-0.55-0.52-0.93-0.72c-0.38-0.19-0.83-0.29-1.36-0.29c-1.77,0-4.25,1.01-7.44,3.02c-0.1,0.06-0.2,0.09-0.31,0.09
				v-6.53h11.41h0.61h12.75v0.06c0,0.39-0.3,0.72-0.9,0.99c-0.6,0.27-1.35,0.56-2.24,0.87c-0.9,0.31-1.87,0.65-2.91,1.04
				c-1.05,0.39-2.02,0.88-2.91,1.49c-0.9,0.61-1.64,1.36-2.24,2.24c-0.6,0.88-0.9,1.97-0.9,3.25c0,1.99,0.81,3.64,2.44,4.94
				c-0.14,0.37-0.21,0.77-0.21,1.22c0,0.55,0.11,1.07,0.32,1.57c0.21,0.5,0.5,0.93,0.87,1.3c0.37,0.37,0.8,0.66,1.3,0.87
				c0.5,0.21,1.02,0.32,1.58,0.32c1.84,0,3.13-0.96,3.89-2.87c0.35-0.02,0.68-0.05,1.01-0.09c0.33-0.04,0.63-0.08,0.92-0.12v0.46
				h2.87v-17.54h1.8v-1.62h-17.42H916.96z M882.4,770.82c-0.86-0.76-1.91-1.38-3.15-1.87c-1.24-0.48-2.59-0.72-4.04-0.72
				c-0.18,0-0.37,0.01-0.55,0.02c-0.18,0.01-0.36,0.03-0.52,0.05c-0.65-0.49-1.14-0.99-1.45-1.52c-0.32-0.53-0.47-1.11-0.47-1.76
				c0-0.36,0.04-0.71,0.12-1.03c0.08-0.32,0.17-0.6,0.26-0.83c0.09-0.23,0.18-0.42,0.26-0.56c0.08-0.14,0.13-0.22,0.15-0.24
				l0.15-0.18h9.24V770.82z M925.36,779.1c-0.24,0.23-0.52,0.35-0.85,0.35c-0.33,0-0.61-0.12-0.85-0.35
				c-0.24-0.23-0.36-0.51-0.36-0.84c0-0.32,0.12-0.6,0.36-0.84c0.24-0.23,0.52-0.35,0.85-0.35c0.33,0,0.61,0.12,0.85,0.35
				c0.24,0.23,0.36,0.51,0.36,0.84C925.72,778.59,925.6,778.87,925.36,779.1z M930.32,776.28c-0.55,0.16-1.27,0.25-2.14,0.27
				c-0.84-1.57-2.06-2.35-3.67-2.35c-0.75,0-1.45,0.19-2.08,0.58c-0.9-0.67-1.35-1.57-1.35-2.68c0-0.63,0.15-1.18,0.44-1.66
				c0.3-0.48,0.71-0.9,1.24-1.28c0.53-0.38,1.18-0.73,1.94-1.05c0.77-0.33,1.62-0.64,2.56-0.95c0.53-0.18,1.06-0.37,1.58-0.56
				c0.52-0.19,1.02-0.4,1.48-0.63V776.28z"/>
			<linearGradient id="SVGID_12_" gradientUnits="userSpaceOnUse" x1="948.9171" y1="781.8448" x2="977.0082" y2="753.7536">
				<stop  offset="0" style="stop-color:#E6A75C"/>
				<stop  offset="0.0234" style="stop-color:#E8AB63"/>
				<stop  offset="0.1847" style="stop-color:#F2C48B"/>
				<stop  offset="0.3066" style="stop-color:#FBD5A5"/>
				<stop  offset="0.3744" style="stop-color:#FFDCAF"/>
				<stop  offset="0.525" style="stop-color:#E6A75C"/>
				<stop  offset="0.6674" style="stop-color:#FFDCAF"/>
				<stop  offset="1" style="stop-color:#E6A75C"/>
			</linearGradient>
			<path class="st67" d="M967.14,760.54h-27.57v1.62h4.3v1.11l0.85,0.36c0.02,0.02,0.16,0.1,0.41,0.23
				c0.25,0.13,0.56,0.32,0.93,0.56c-0.73,0.02-1.41,0.15-2.04,0.38c-0.63,0.23-1.18,0.56-1.66,0.98c-0.48,0.42-0.85,0.91-1.13,1.48
				c-0.27,0.57-0.41,1.19-0.41,1.87c0,0.47,0.09,0.91,0.26,1.33c0.17,0.42,0.42,0.79,0.73,1.12c0.31,0.33,0.69,0.59,1.12,0.78
				c0.44,0.19,0.91,0.29,1.41,0.29c0.55,0,1.07-0.11,1.56-0.34c0.5-0.22,0.93-0.52,1.31-0.9c0.37-0.38,0.67-0.81,0.88-1.31
				c0.21-0.5,0.32-1.02,0.32-1.57h-2.87c0,0.35-0.11,0.65-0.34,0.89c-0.22,0.24-0.51,0.36-0.85,0.36c-0.1,0-0.24-0.03-0.41-0.09
				c-0.17-0.06-0.26-0.27-0.26-0.62c0-0.31,0.08-0.57,0.23-0.79s0.35-0.4,0.58-0.56c0.23-0.15,0.49-0.27,0.78-0.34
				c0.28-0.07,0.57-0.11,0.85-0.11c1.14,0,2.01,0.29,2.62,0.88c0.61,0.59,1.08,1.37,1.4,2.35c-0.71,0.16-1.35,0.41-1.92,0.75
				c-0.57,0.34-1.05,0.73-1.45,1.17c-0.4,0.45-0.7,0.95-0.92,1.49c-0.21,0.55-0.32,1.11-0.32,1.68c0,0.53,0.11,1.03,0.32,1.51
				c0.21,0.48,0.51,0.9,0.9,1.25c0.39,0.36,0.84,0.64,1.36,0.85c0.52,0.21,1.08,0.32,1.69,0.32v-2.87c-0.42,0-0.75-0.11-1.01-0.32
				c-0.26-0.21-0.4-0.45-0.42-0.72c0-0.39,0.11-0.74,0.32-1.05c0.21-0.32,0.5-0.58,0.86-0.79c0.36-0.21,0.76-0.38,1.19-0.49
				c0.44-0.11,0.89-0.17,1.36-0.17c0.8,0,1.54,0.13,2.25,0.38c0.7,0.25,1.33,0.6,1.87,1.04c0.54,0.44,0.98,0.97,1.32,1.59
				c0.34,0.62,0.53,1.3,0.57,2.03v1.37h0.34v1.01c-0.2,0-0.38-0.01-0.52-0.02c-0.14-0.01-0.26-0.02-0.37-0.02
				c-0.1,0-0.18,0-0.24,0.02c-0.06,0.01-0.1,0.02-0.12,0.02v0.03c-0.55,0.02-1.06,0.14-1.54,0.35c-0.48,0.21-0.89,0.5-1.25,0.86
				c-0.36,0.36-0.63,0.78-0.82,1.26c-0.19,0.48-0.29,0.99-0.29,1.55c0,0.55,0.11,1.07,0.32,1.55c0.21,0.48,0.5,0.9,0.87,1.27
				c0.37,0.37,0.79,0.66,1.28,0.87c0.49,0.21,1.01,0.32,1.56,0.32c0.53,0,1.04-0.1,1.52-0.31c0.49-0.2,0.92-0.49,1.28-0.85
				c0.37-0.37,0.66-0.79,0.87-1.28c0.21-0.49,0.32-1.01,0.32-1.56c0-0.08,0-0.17,0-0.27c0-0.1-0.02-0.17-0.06-0.21
				c0.92,0.37,1.6,0.92,2.06,1.66c0.46,0.74,0.69,1.69,0.69,2.85h2.87c0-0.98-0.13-1.87-0.4-2.68c-0.26-0.81-0.64-1.54-1.13-2.18
				c-0.49-0.64-1.07-1.19-1.75-1.65c-0.68-0.46-1.43-0.81-2.24-1.05v-2.14h-0.37v-9.15c0.53,0.04,0.98,0.1,1.34,0.18
				c-0.2,0.2-0.37,0.45-0.5,0.75c-0.13,0.29-0.2,0.62-0.2,0.96c0,0.29,0.06,0.57,0.17,0.87c0.11,0.29,0.27,0.56,0.49,0.81
				c0.21,0.24,0.47,0.44,0.78,0.59c0.3,0.15,0.65,0.23,1.04,0.23c0.35,0,0.67-0.08,0.96-0.23c0.29-0.15,0.55-0.36,0.76-0.61
				c0.21-0.25,0.38-0.54,0.5-0.85c0.12-0.32,0.18-0.65,0.18-0.99c0-0.92-0.2-1.67-0.59-2.26c-0.4-0.59-0.87-1.06-1.43-1.42
				c-0.56-0.36-1.16-0.6-1.8-0.73c-0.64-0.13-1.2-0.2-1.69-0.2v-4.73h6.16h0.61h1.19v6.83c0,0.35,0.07,0.69,0.21,1.02
				c0.14,0.34,0.35,0.63,0.61,0.88c0.26,0.25,0.58,0.46,0.96,0.63c0.38,0.16,0.79,0.24,1.24,0.24c0.59,0,1.15-0.16,1.68-0.49
				c1.52-0.96,2.73-1.62,3.63-2c0.89-0.38,1.55-0.58,1.95-0.63c-0.29,0.26-0.58,0.58-0.9,0.96c-0.32,0.38-0.63,0.84-0.93,1.39
				c-0.31,0.55-0.58,1.19-0.82,1.94c-0.24,0.74-0.44,1.61-0.58,2.61c-0.37,0.06-0.77,0.18-1.22,0.35c-0.45,0.17-0.9,0.35-1.36,0.53
				c-0.46,0.18-0.89,0.35-1.3,0.49c-0.41,0.14-0.74,0.21-1.01,0.21c-0.29,0-0.52-0.06-0.72-0.18c-0.19-0.12-0.35-0.27-0.46-0.46
				c-0.11-0.18-0.19-0.38-0.23-0.59c-0.04-0.21-0.06-0.41-0.06-0.59c0-0.04,0-0.08,0.02-0.12c0.01-0.04,0.02-0.08,0.02-0.12
				l-2.87-0.3c-0.02,0.06-0.03,0.22-0.03,0.49c0,0.31,0.05,0.73,0.15,1.27c0.1,0.54,0.31,1.07,0.63,1.59
				c0.32,0.52,0.77,0.97,1.36,1.34c0.59,0.38,1.36,0.56,2.32,0.56c0.37,0,0.82-0.09,1.36-0.26c0.54-0.17,1.09-0.37,1.65-0.58
				c0.56-0.21,1.1-0.41,1.62-0.59c0.52-0.18,0.93-0.27,1.24-0.27c0.51,0,0.9,0.06,1.17,0.17c0.27,0.11,0.47,0.24,0.59,0.38
				c0.12,0.14,0.19,0.28,0.2,0.41c0.01,0.13,0.02,0.22,0.02,0.26l2.87-0.03c0-0.06-0.02-0.25-0.06-0.58
				c-0.04-0.33-0.16-0.69-0.37-1.1c-0.2-0.41-0.51-0.81-0.93-1.22c-0.42-0.41-0.99-0.73-1.72-0.98c0.22-1.28,0.54-2.27,0.95-2.97
				c0.41-0.7,0.81-1.27,1.22-1.71c0.41-0.44,0.76-0.83,1.07-1.17c0.3-0.35,0.46-0.79,0.46-1.34c0-0.2-0.06-0.45-0.17-0.75
				c-0.11-0.29-0.29-0.58-0.53-0.85c-0.24-0.27-0.55-0.51-0.93-0.72c-0.38-0.2-0.83-0.3-1.36-0.3c-1.75,0-4.23,1.02-7.44,3.05
				c-0.04,0.02-0.1,0.03-0.18,0.03c-0.06,0-0.1-0.01-0.12-0.03v-6.68h11.99v-1.62h-16.04H967.14z M958.11,785.4
				c-0.22,0.22-0.49,0.34-0.79,0.34c-0.33,0-0.6-0.11-0.82-0.34c-0.22-0.22-0.34-0.49-0.34-0.79c0-0.33,0.11-0.6,0.34-0.82
				c0.22-0.22,0.5-0.34,0.82-0.34c0.3,0,0.57,0.11,0.79,0.34c0.22,0.22,0.34,0.5,0.34,0.82
				C958.45,784.91,958.34,785.18,958.11,785.4z M958.11,772.35c-0.96-0.81-2.06-1.38-3.3-1.71c-0.31-0.08-0.61-0.15-0.92-0.2
				c-0.31-0.05-0.6-0.09-0.89-0.11c-0.1-0.71-0.33-1.41-0.67-2.1c-0.35-0.69-0.78-1.3-1.31-1.83c-0.26-0.98-0.7-1.82-1.32-2.52
				c-0.61-0.7-1.25-1.28-1.93-1.72h5.48c-0.02,0.14-0.03,0.29-0.03,0.44c0,0.15,0,0.31,0,0.47c0,0.71,0.06,1.47,0.17,2.25
				c0.11,0.79,0.33,1.51,0.66,2.16c0.47,0.82,1.07,1.39,1.8,1.71c0.73,0.33,1.48,0.51,2.26,0.55V772.35z M958.11,766.82
				c-0.48-0.02-0.84-0.12-1.1-0.3c-0.26-0.18-0.46-0.43-0.6-0.75c-0.14-0.32-0.23-0.7-0.26-1.14c-0.03-0.45-0.05-0.95-0.05-1.49
				c0-0.16,0-0.32,0-0.49c0-0.16,0.01-0.32,0.03-0.49h1.98V766.82z"/>
			<linearGradient id="SVGID_13_" gradientUnits="userSpaceOnUse" x1="991.986" y1="779.056" x2="1006.7232" y2="764.3188">
				<stop  offset="0" style="stop-color:#E6A75C"/>
				<stop  offset="0.0234" style="stop-color:#E8AB63"/>
				<stop  offset="0.1847" style="stop-color:#F2C48B"/>
				<stop  offset="0.3066" style="stop-color:#FBD5A5"/>
				<stop  offset="0.3744" style="stop-color:#FFDCAF"/>
				<stop  offset="0.525" style="stop-color:#E6A75C"/>
				<stop  offset="0.6674" style="stop-color:#FFDCAF"/>
				<stop  offset="1" style="stop-color:#E6A75C"/>
			</linearGradient>
			<path class="st68" d="M995.86,778.96c0.68-0.18,1.36-0.39,2.04-0.61c0.68-0.22,1.32-0.43,1.91-0.61
				c0.59-0.18,1.04-0.27,1.34-0.27c0.49,0,0.86,0.05,1.13,0.15c0.26,0.1,0.46,0.22,0.59,0.37c0.13,0.14,0.21,0.29,0.23,0.43
				c0.02,0.14,0.03,0.25,0.03,0.34v0.03v0.73h2.93v-10.92c0-0.22,0-0.46,0.02-0.7c0.01-0.24,0.02-0.48,0.02-0.7
				c0-0.24,0-0.49,0-0.73c0-0.24-0.01-0.49-0.03-0.73c-0.06-0.79-0.26-1.54-0.6-2.23c-0.34-0.69-0.8-1.3-1.39-1.82
				c-0.59-0.52-1.29-0.93-2.08-1.24s-1.69-0.46-2.67-0.46c-0.88,0-1.72,0.16-2.51,0.49c-0.8,0.33-1.5,0.77-2.1,1.33
				c-0.6,0.56-1.08,1.23-1.44,2c-0.36,0.77-0.54,1.61-0.54,2.5c0,0.53,0.08,1.08,0.25,1.66c0.16,0.58,0.4,1.11,0.71,1.6
				c0.31,0.49,0.69,0.9,1.16,1.22c0.46,0.33,0.99,0.49,1.58,0.49c0.89,0,1.61-0.33,2.14-0.98l1.1-1.37l-2.23-1.8l-1.01,1.22
				c-0.55-0.57-0.82-1.23-0.82-1.98c0-0.55,0.11-1.04,0.32-1.46c0.21-0.43,0.49-0.79,0.84-1.1c0.35-0.3,0.75-0.54,1.22-0.7
				c0.47-0.16,0.95-0.24,1.43-0.24c0.43,0,0.86,0.05,1.31,0.14c0.45,0.09,0.85,0.29,1.22,0.58c0.37,0.3,0.67,0.73,0.9,1.3
				c0.23,0.57,0.35,1.34,0.35,2.29c0,0.49-0.01,0.98-0.03,1.48c-0.02,0.5-0.03,0.99-0.03,1.48v4.74c-0.55-0.18-1.14-0.27-1.77-0.27
				c-0.65,0-1.35,0.1-2.1,0.28c-0.75,0.19-1.59,0.46-2.5,0.82c-1.08,0.44-1.97,0.66-2.68,0.66c-0.35,0-0.62-0.07-0.82-0.2
				c-0.2-0.13-0.36-0.29-0.47-0.49c-0.11-0.19-0.19-0.4-0.23-0.63c-0.04-0.22-0.06-0.44-0.06-0.64c0-0.14,0.01-0.24,0.03-0.31
				l-2.87-0.3c-0.02,0.06-0.03,0.23-0.03,0.52c0,0.24,0.02,0.53,0.06,0.87c0.04,0.34,0.12,0.69,0.24,1.07
				c0.12,0.38,0.3,0.75,0.53,1.13c0.23,0.38,0.54,0.72,0.93,1.02c0.73,0.55,1.63,0.82,2.68,0.82
				C994.58,779.24,995.18,779.15,995.86,778.96z"/>
			<linearGradient id="SVGID_14_" gradientUnits="userSpaceOnUse" x1="1007.3504" y1="774.2135" x2="1021.3819" y2="760.1821">
				<stop  offset="0" style="stop-color:#E6A75C"/>
				<stop  offset="0.0234" style="stop-color:#E8AB63"/>
				<stop  offset="0.1847" style="stop-color:#F2C48B"/>
				<stop  offset="0.3066" style="stop-color:#FBD5A5"/>
				<stop  offset="0.3744" style="stop-color:#FFDCAF"/>
				<stop  offset="0.525" style="stop-color:#E6A75C"/>
				<stop  offset="0.6674" style="stop-color:#FFDCAF"/>
				<stop  offset="1" style="stop-color:#E6A75C"/>
			</linearGradient>
			<path class="st69" d="M1021.74,762.16v-1.62h-2.1c-0.06-0.75-0.26-1.48-0.61-2.18c-0.35-0.7-0.84-1.33-1.48-1.88
				c-0.64-0.55-1.43-0.99-2.38-1.31c-0.95-0.32-2.06-0.49-3.34-0.49h-4v2.87h4c1.55,0,2.72,0.27,3.54,0.81
				c0.81,0.54,1.27,1.27,1.37,2.18h-9.55v1.62h4.39l-1.22,0.79c-1.28,1-1.92,2.28-1.92,3.84c0,1.24,0.44,2.36,1.33,3.36l0.12,0.12
				l2.03-2.01c-0.41-0.41-0.61-0.88-0.61-1.43c0-0.65,0.27-1.18,0.8-1.59l2.39-1.56c0.27,0.02,0.58,0.08,0.95,0.18
				c0.37,0.1,0.72,0.29,1.04,0.56c0.33,0.27,0.6,0.65,0.83,1.11c0.22,0.47,0.34,1.07,0.34,1.8c0,1.63-0.4,2.92-1.19,3.89
				c-0.79,0.97-1.98,1.45-3.57,1.45c-1.22,0-2.6-0.31-4.15-0.92l-0.09-0.03l-1.16,2.62l12.23,6.53l1.37-2.53l-5.83-3.11
				c0.87-0.24,1.64-0.61,2.3-1.11c0.66-0.5,1.21-1.09,1.65-1.78c0.44-0.69,0.76-1.46,0.98-2.3c0.21-0.84,0.32-1.74,0.32-2.7
				c0-1.71-0.41-3.1-1.22-4.18c0.12-0.33,0.21-0.66,0.27-1.01H1021.74z"/>
			<linearGradient id="SVGID_15_" gradientUnits="userSpaceOnUse" x1="1051.2542" y1="798.2389" x2="1111.6696" y2="737.8235">
				<stop  offset="0" style="stop-color:#E6A75C"/>
				<stop  offset="0.0234" style="stop-color:#E8AB63"/>
				<stop  offset="0.1847" style="stop-color:#F2C48B"/>
				<stop  offset="0.3066" style="stop-color:#FBD5A5"/>
				<stop  offset="0.3744" style="stop-color:#FFDCAF"/>
				<stop  offset="0.525" style="stop-color:#E6A75C"/>
				<stop  offset="0.6674" style="stop-color:#FFDCAF"/>
				<stop  offset="1" style="stop-color:#E6A75C"/>
			</linearGradient>
			<path class="st93" d="M1122.64,776.74c-1.32,0-2.28-0.42-2.88-1.25c-0.6-0.83-0.92-2.04-0.96-3.63v-0.24
				c0-1.22,0.05-2.1,0.14-2.64c0.09-0.54,0.4-0.81,0.93-0.81c0.49,0.04,1.07,0.12,1.75,0.24c0.68,0.12,1.39,0.31,2.12,0.56
				c0.73,0.25,1.45,0.59,2.17,1.01c0.71,0.42,1.35,0.96,1.92,1.62c0.57,0.66,1.03,1.45,1.37,2.38c0.35,0.93,0.52,2.02,0.52,3.28
				v2.29h2.87v-17.39h1.8v-1.62h-19.64h-0.61h-22.48h-0.61h-1.22v-0.4h-2.87v0.88c-0.16-0.18-0.34-0.31-0.53-0.38
				c-0.12-0.05-0.35-0.07-0.66-0.09v-0.02h-16.9h-2.23h-7.93h-0.61h-1.22v-0.4h-2.87v0.88c-0.16-0.18-0.34-0.31-0.52-0.38
				c-0.18-0.07-0.42-0.11-0.7-0.11h-26.48v1.62h21.84v10.58c-0.29-0.06-0.57-0.12-0.87-0.18c-0.29-0.06-0.58-0.08-0.87-0.06
				l-0.73,0.03c0.24-0.85,0.37-1.72,0.37-2.59c0-0.49-0.03-0.95-0.08-1.37c-0.05-0.43-0.17-0.87-0.35-1.34
				c-0.18-0.47-0.44-0.97-0.78-1.51c-0.34-0.54-0.78-1.15-1.33-1.85c-0.53-0.57-1.02-0.91-1.48-1.02c-0.46-0.11-0.79-0.17-0.99-0.17
				c-0.53,0-1.2,0.22-2.03,0.67c-0.82,0.45-1.84,1.16-3.04,2.14c-2.12,1.71-3.17,3.43-3.17,5.15c0,0.53,0.11,1.05,0.32,1.57
				c0.21,0.52,0.55,0.99,1.01,1.42l1.24,1.2l1.98-2.09l-1.28-1.22c-0.26-0.24-0.4-0.56-0.4-0.95c0-0.33,0.13-0.69,0.38-1.08
				c0.26-0.4,0.61-0.81,1.07-1.24c0.46-0.43,1.01-0.86,1.64-1.31c0.63-0.45,1.32-0.89,2.05-1.34l0.18-0.03
				c0.06,0,0.2,0.11,0.43,0.34c0.22,0.22,0.47,0.53,0.73,0.93c0.27,0.4,0.5,0.85,0.7,1.37c0.2,0.52,0.31,1.07,0.31,1.66
				c0,3.06-1.72,5.28-5.17,6.65c-0.67,0.18-1.29,0.28-1.86,0.28c-0.84,0-1.6-0.16-2.29-0.47c-0.69-0.32-1.3-0.75-1.82-1.3
				c-0.52-0.55-0.92-1.19-1.21-1.92c-0.29-0.73-0.43-1.51-0.43-2.35c0-1.4,0.46-2.7,1.37-3.9l-2.22-1.83
				c-1.35,1.73-2.02,3.65-2.02,5.77c0,1.2,0.22,2.34,0.67,3.42c0.45,1.08,1.06,2.02,1.85,2.83c0.78,0.81,1.7,1.45,2.75,1.92
				c1.05,0.47,2.18,0.71,3.4,0.71c0.79,0,1.56-0.1,2.3-0.3c0.74-0.2,1.44-0.48,2.1-0.84c0.66-0.36,1.26-0.76,1.8-1.2
				c0.54-0.45,1.01-0.92,1.42-1.4c0.98-0.39,1.85-0.58,2.62-0.58c0.53,0,0.95,0.14,1.25,0.41c0.31,0.27,0.46,0.82,0.46,1.63v2.2
				h2.87v-17.42h1.19c0.57,0,1,0.08,1.28,0.23c0.28,0.15,0.46,0.51,0.52,1.08v16.04h2.87v-17.36h1.22h0.61h5.64
				c-0.85,0.71-1.6,1.52-2.23,2.42c-0.63,0.91-1.16,1.87-1.57,2.88c-0.41,1.02-0.71,2.07-0.91,3.17c-0.2,1.1-0.29,2.2-0.29,3.29
				c0,1.51,0.21,3.02,0.62,4.56c0.41,1.54,1.02,2.97,1.83,4.3c0.81,1.33,1.8,2.52,2.98,3.55c1.18,1.04,2.54,1.81,4.09,2.32
				l0.76,0.27c0.85,0.24,1.71,0.43,2.56,0.56c0.85,0.13,1.71,0.2,2.56,0.2c0.75,0,1.54-0.06,2.35-0.18
				c0.81-0.12,1.62-0.34,2.41-0.64c0.79-0.31,1.56-0.71,2.29-1.22c0.73-0.51,1.37-1.16,1.92-1.95l-3.08-2.04
				c-0.37,0.55-0.86,1.01-1.49,1.37c-0.65,0.41-1.4,0.7-2.26,0.87c-0.85,0.17-1.71,0.26-2.56,0.26c-0.59,0-1.2-0.04-1.85-0.12
				c-0.64-0.08-1.26-0.21-1.85-0.4l-1.19-0.43c-1.22-0.47-2.28-1.13-3.19-1.98c-0.91-0.85-1.66-1.82-2.26-2.88
				c-0.6-1.07-1.05-2.21-1.34-3.42c-0.29-1.21-0.44-2.41-0.44-3.61c0-1.46,0.2-2.9,0.59-4.32c0.4-1.41,1.03-2.7,1.91-3.86
				c0.31-0.41,0.67-0.79,1.08-1.14c0.42-0.36,0.82-0.67,1.2-0.93c0.23-0.16,0.44-0.29,0.64-0.41c0,0,0,0,0,0c0,0.17,0,0.36,0,0.56
				c0,0.49,0.06,1.01,0.17,1.56c0.11,0.55,0.32,1.11,0.63,1.68c0.83,1.36,2.1,2.24,3.81,2.62h0.03c-0.47,0.24-0.96,0.53-1.48,0.85
				c-0.52,0.33-0.99,0.7-1.42,1.11c-0.43,0.42-0.78,0.89-1.07,1.42c-0.29,0.53-0.43,1.13-0.43,1.8c0,0.37,0.04,0.77,0.12,1.2
				c0.08,0.44,0.24,0.88,0.49,1.33c0.24,0.45,0.59,0.87,1.05,1.27c0.46,0.4,1.05,0.73,1.78,0.99c0.2,0.98,0.67,1.76,1.4,2.36
				c0.73,0.6,1.6,0.9,2.59,0.9c0.98,0,1.82-0.29,2.52-0.87c0.7-0.58,1.17-1.33,1.42-2.24l1.83-0.3v0.64h2.87v-17.39h1.19h0.46
				c0.87,0,1.32,0.44,1.34,1.31v16.04h2.87v-17.36h1.22h0.61h10.71c-2.2,3.92-3.3,5.93-3.32,6.01c-0.12,0.35-0.18,0.67-0.18,0.98
				c0,0.85,0.29,1.54,0.87,2.06c0.58,0.52,1.26,0.78,2.03,0.78c0.79,0,1.79-0.12,2.99-0.37h0.03c-1.38,2.54-3.22,3.81-5.52,3.81
				c-1.3,0-2.31-0.43-3.02-1.28c-0.71-0.85-1.07-1.99-1.07-3.42c0-0.67,0.07-1.24,0.2-1.71c0.13-0.47,0.3-0.8,0.5-1.01l-2.04-2.04
				c-0.41,0.45-0.72,0.91-0.93,1.4c-0.21,0.49-0.37,0.96-0.46,1.4c-0.09,0.45-0.14,0.85-0.14,1.21c0,0.36,0,0.61,0,0.75
				c0,1.22,0.18,2.3,0.55,3.25c0.37,0.95,0.86,1.74,1.49,2.38c0.63,0.64,1.37,1.12,2.21,1.45c0.84,0.33,1.74,0.49,2.7,0.49
				c3.8,0,6.66-2.15,8.57-6.44c0.14-0.31,0.21-0.63,0.21-0.98c0-0.71-0.25-1.27-0.75-1.68c-0.5-0.41-1.03-0.61-1.6-0.61
				c-0.12,0-0.36,0.03-0.72,0.08c-0.36,0.05-0.74,0.11-1.14,0.18c-0.41,0.07-0.8,0.13-1.19,0.18c-0.39,0.05-0.67,0.08-0.85,0.08
				l2.41-4.3c0.75,0.18,1.51,0.41,2.27,0.67c0.76,0.26,1.45,0.55,2.07,0.87c0.62,0.32,1.12,0.66,1.51,1.02
				c0.39,0.37,0.58,0.74,0.58,1.13c0,0.85-0.39,1.85-1.16,2.99c-0.61,0.9-1.22,1.72-1.83,2.49c-0.61,0.76-1.16,1.47-1.65,2.12
				c-0.49,0.65-0.88,1.26-1.19,1.83c-0.3,0.57-0.46,1.1-0.46,1.59l2.87,0.03c0.1-0.43,0.8-1.44,2.1-3.05
				c1.3-1.61,2.32-3.05,3.07-4.33c0.74-1.28,1.11-2.5,1.11-3.66c0-1.4-0.69-2.64-2.06-3.72c-1.37-1.08-3.4-1.95-6.09-2.62h8.78h0.61
				h14.98v7.32c-0.61-0.63-1.31-1.21-2.1-1.72c-0.79-0.52-1.63-0.96-2.5-1.33c-0.87-0.37-1.77-0.65-2.7-0.84
				c-0.93-0.19-1.84-0.29-2.73-0.29c-0.81,0-1.46,0.17-1.95,0.52c-0.49,0.35-0.86,0.8-1.13,1.36c-0.26,0.56-0.44,1.18-0.53,1.86
				c-0.09,0.68-0.14,1.36-0.14,2.03v0.55v0.24c0,1.2,0.15,2.28,0.46,3.23c0.31,0.96,0.74,1.77,1.31,2.44
				c0.57,0.67,1.27,1.18,2.1,1.54c0.83,0.36,1.78,0.53,2.84,0.53V776.74z M1076.16,779.1c-0.22,0.23-0.5,0.35-0.82,0.35
				c-0.33,0-0.61-0.12-0.84-0.35c-0.23-0.23-0.35-0.51-0.35-0.84c0-0.32,0.12-0.6,0.35-0.84c0.23-0.23,0.51-0.35,0.84-0.35
				c0.33,0,0.6,0.12,0.82,0.35c0.22,0.23,0.34,0.51,0.34,0.84C1076.49,778.59,1076.38,778.87,1076.16,779.1z M1081.1,775.98
				c-0.41,0.08-0.79,0.16-1.16,0.23c-0.37,0.07-0.72,0.13-1.07,0.17c-0.83-1.44-2.01-2.17-3.54-2.17c-1.46,0-2.62,0.65-3.48,1.95
				c-0.45-0.24-0.74-0.53-0.88-0.85c-0.14-0.33-0.21-0.67-0.21-1.04c0-0.53,0.35-1.04,1.04-1.53c0.51-0.37,1.04-0.69,1.59-0.96
				c0.55-0.27,1.05-0.56,1.49-0.85c0.45-0.29,0.81-0.61,1.1-0.95c0.28-0.34,0.43-0.75,0.43-1.24c0-0.37-0.1-0.69-0.3-0.96
				c-0.2-0.27-0.47-0.51-0.81-0.7c-0.34-0.19-0.71-0.35-1.13-0.47c-0.42-0.12-0.84-0.23-1.27-0.34c-0.47-0.1-0.85-0.26-1.16-0.47
				c-0.31-0.21-0.55-0.46-0.73-0.73c-0.18-0.27-0.31-0.58-0.38-0.92c-0.07-0.34-0.11-0.68-0.11-1.02c0-0.37,0.03-0.69,0.09-0.98
				h10.49V775.98z"/>
			<linearGradient id="SVGID_16_" gradientUnits="userSpaceOnUse" x1="1021.1172" y1="839.0069" x2="1089.8529" y2="770.2712">
				<stop  offset="0" style="stop-color:#E6A75C"/>
				<stop  offset="0.0234" style="stop-color:#E8AB63"/>
				<stop  offset="0.1847" style="stop-color:#F2C48B"/>
				<stop  offset="0.3066" style="stop-color:#FBD5A5"/>
				<stop  offset="0.3744" style="stop-color:#FFDCAF"/>
				<stop  offset="0.525" style="stop-color:#E6A75C"/>
				<stop  offset="0.6674" style="stop-color:#FFDCAF"/>
				<stop  offset="1" style="stop-color:#E6A75C"/>
			</linearGradient>
			<path class="st171" d="M1098.7,797.14h-14.85h-1.22h-7.93h-0.61h-17.9h-0.61h-1.22v-0.4h-2.87v0.88
				c-0.16-0.18-0.34-0.31-0.53-0.38c-0.12-0.05-0.35-0.07-0.66-0.09v-0.02h-13.88h-0.61h-17.72h-0.61h-25.59v1.62h21.54v11.16
				c-0.46-0.1-0.92-0.15-1.36-0.15c-0.16,0-0.33,0.01-0.51,0.02c-0.18,0.01-0.35,0.03-0.51,0.05c0.43-1.12,0.65-2.25,0.65-3.39
				c0-0.77-0.1-1.52-0.29-2.24c-0.2-0.72-0.57-1.47-1.13-2.24c-0.35-0.49-0.66-0.9-0.92-1.24c-0.27-0.34-0.54-0.61-0.81-0.82
				c-0.27-0.21-0.56-0.37-0.85-0.46c-0.29-0.09-0.64-0.14-1.02-0.14c-0.37,0-0.82,0.11-1.36,0.34c-0.54,0.22-1.11,0.53-1.72,0.91
				c-0.61,0.39-1.22,0.83-1.83,1.34c-0.61,0.51-1.16,1.05-1.65,1.63c-0.49,0.58-0.88,1.17-1.19,1.78c-0.3,0.61-0.46,1.21-0.46,1.8
				c0,0.55,0.11,1.09,0.34,1.63c0.22,0.54,0.56,1.01,1.01,1.42l1.22,1.17l1.98-2.09l-1.28-1.22c-0.26-0.26-0.4-0.58-0.4-0.95
				c0-0.2,0.05-0.41,0.15-0.61l0.03-0.03c0.69-1.24,2.34-2.64,4.94-4.21c0.08-0.04,0.14-0.06,0.18-0.06c0.1,0,0.2,0.05,0.3,0.15
				c0.51,0.61,0.89,1.12,1.16,1.53c0.26,0.41,0.45,0.75,0.55,1.04c0.1,0.29,0.16,0.54,0.17,0.78c0.01,0.23,0.02,0.48,0.02,0.75
				c0,1.32-0.41,2.57-1.24,3.73c-0.83,1.17-2.15,2.11-3.96,2.82l-0.43,0.12c-0.24,0.08-0.49,0.13-0.73,0.14
				c-0.24,0.01-0.48,0.02-0.7,0.02c-0.82,0-1.57-0.16-2.26-0.47c-0.69-0.32-1.3-0.74-1.82-1.27c-0.52-0.53-0.93-1.15-1.22-1.88
				c-0.3-0.72-0.44-1.49-0.44-2.3c0-1.42,0.46-2.71,1.37-3.87l-2.22-1.83c-1.35,1.73-2.02,3.62-2.02,5.67
				c0,1.16,0.21,2.27,0.64,3.34c0.43,1.07,1.03,2.01,1.8,2.81c0.77,0.81,1.69,1.45,2.76,1.94c1.07,0.48,2.23,0.72,3.49,0.72
				c1.14,0,2.23-0.22,3.28-0.66c1.05-0.44,1.96-0.95,2.73-1.54c0.59-0.33,1.29-0.62,2.09-0.88c0.8-0.26,1.5-0.4,2.09-0.4
				c0.49,0,0.84,0.11,1.07,0.32c0.22,0.21,0.34,0.65,0.34,1.3v1.92h2.87v-17.42h1.19h0.61h0.76c-0.31,0.71-0.46,1.51-0.46,2.38
				c0,1.32,0.31,2.48,0.93,3.46c0.62,0.99,1.6,1.84,2.94,2.55c0.49,0.26,0.86,0.63,1.13,1.08c0.26,0.46,0.4,0.98,0.4,1.57
				c0,0.26-0.04,0.59-0.12,0.99c-0.08,0.4-0.29,0.78-0.63,1.14c-0.34,0.37-0.84,0.68-1.51,0.95c-0.67,0.26-1.61,0.4-2.81,0.4v2.87
				c1.2,0,2.29-0.15,3.26-0.46c0.98-0.31,1.81-0.74,2.5-1.3c0.69-0.56,1.23-1.23,1.6-2c0.38-0.77,0.56-1.63,0.56-2.56
				c0-0.08,0.09-0.15,0.27-0.21c0.18-0.06,0.4-0.1,0.64-0.12c0.24-0.02,0.47-0.04,0.69-0.05c0.21-0.01,0.35-0.02,0.41-0.02
				c0.98,0,1.73,0.22,2.27,0.66c0.54,0.44,0.81,1.16,0.81,2.18v3.87h2.87v-17.39h1.19h0.61h4.82l-2.07,1.31
				c-1.4,0.87-2.1,2.16-2.1,3.84c0,1.34,0.54,2.49,1.62,3.45l1.83-2.2c-0.39-0.32-0.58-0.74-0.58-1.25c0-0.61,0.25-1.08,0.76-1.4
				l2.41-1.53c0.26,0,0.57,0.05,0.92,0.14c0.35,0.09,0.68,0.26,1.01,0.52c0.33,0.25,0.6,0.61,0.82,1.05
				c0.22,0.45,0.34,1.03,0.34,1.74c0,1.57-0.4,2.8-1.19,3.71c-0.79,0.91-1.95,1.36-3.48,1.36c-1.14,0-2.44-0.27-3.9-0.82l-1.49,2.47
				l12.17,6.31l1.31-2.53l-5.55-2.9c1.67-0.51,2.92-1.45,3.75-2.82c0.83-1.37,1.25-2.96,1.25-4.77c0-1.34-0.27-2.5-0.81-3.48
				c-0.54-0.98-1.33-1.71-2.36-2.2h3.81h0.46c0.87,0,1.32,0.44,1.34,1.31v16.04h2.87v-17.36h1.22h0.61h0.46
				c-0.04,0.16-0.06,0.33-0.06,0.5c0,0.17,0,0.36,0,0.56c0,0.49,0.06,1.01,0.17,1.56c0.11,0.55,0.32,1.11,0.63,1.68
				c0.83,1.36,2.1,2.24,3.81,2.62h0.03c-0.47,0.24-0.96,0.53-1.48,0.85c-0.52,0.33-0.99,0.7-1.42,1.11
				c-0.43,0.42-0.78,0.89-1.07,1.42c-0.29,0.53-0.43,1.13-0.43,1.8c0,0.37,0.04,0.77,0.12,1.2c0.08,0.44,0.24,0.88,0.49,1.33
				c0.24,0.45,0.59,0.87,1.05,1.27c0.46,0.4,1.05,0.73,1.78,0.99c0.2,0.98,0.67,1.76,1.4,2.36c0.73,0.6,1.6,0.9,2.59,0.9
				c0.98,0,1.82-0.29,2.52-0.87c0.7-0.58,1.17-1.33,1.42-2.24l1.83-0.3v0.64h2.87v-17.39h1.19h0.61h4.88
				c-0.71,0.61-1.34,1.31-1.88,2.09c-0.54,0.78-0.98,1.62-1.33,2.52c-0.35,0.9-0.61,1.83-0.78,2.79c-0.17,0.97-0.26,1.94-0.26,2.91
				c0,1.34,0.17,2.66,0.5,3.97c0.34,1.3,0.83,2.52,1.48,3.65c0.65,1.13,1.46,2.15,2.43,3.05c0.97,0.9,2.08,1.64,3.34,2.21l0.7,0.27
				c1.71,0.67,3.49,0.98,5.34,0.92c0.67,0,1.37-0.05,2.1-0.15c0.73-0.1,1.45-0.29,2.17-0.56c0.71-0.27,1.39-0.65,2.03-1.11
				c0.64-0.47,1.2-1.06,1.69-1.77l-3.05-2.04c-0.26,0.41-0.59,0.74-0.99,1.01c-0.4,0.26-0.83,0.48-1.31,0.64
				c-0.48,0.16-0.98,0.28-1.51,0.35c-0.53,0.07-1.06,0.11-1.59,0.11c-1.04,0-2.1-0.14-3.2-0.43l-1.04-0.34
				c-1.06-0.43-1.98-1.01-2.76-1.75c-0.78-0.74-1.43-1.58-1.95-2.5c-0.52-0.93-0.91-1.91-1.17-2.96c-0.26-1.05-0.4-2.09-0.4-3.13
				c0-1.24,0.18-2.49,0.53-3.75c0.36-1.26,0.9-2.38,1.63-3.36c0.22-0.31,0.49-0.6,0.81-0.88c0.32-0.28,0.63-0.54,0.95-0.78
				c0.32-0.23,0.61-0.44,0.88-0.61c0.27-0.17,0.47-0.29,0.59-0.35h0.3h0.58v6.83c0,0.67,0.26,1.27,0.78,1.8
				c0.52,0.53,1.2,0.79,2.06,0.79c0.63,0,1.25-0.18,1.86-0.55c1.69-1.02,2.99-1.71,3.92-2.07c0.93-0.37,1.56-0.55,1.91-0.55h0.15
				c-0.18,0.43-0.48,0.93-0.9,1.51c-0.42,0.58-0.83,1.3-1.25,2.17c-0.42,0.86-0.79,1.9-1.11,3.11c-0.33,1.21-0.49,2.66-0.49,4.35
				h2.87c0-1.2,0.1-2.25,0.29-3.16c0.19-0.9,0.43-1.7,0.7-2.38c0.27-0.68,0.58-1.28,0.92-1.8c0.34-0.52,0.64-1,0.91-1.43
				c0.27-0.44,0.51-0.84,0.7-1.22c0.19-0.38,0.29-0.78,0.29-1.2c0-0.26-0.06-0.55-0.17-0.87c-0.11-0.32-0.29-0.61-0.53-0.9
				c-0.24-0.28-0.55-0.52-0.93-0.72c-0.38-0.19-0.83-0.29-1.36-0.29c-1.77,0-4.25,1.01-7.44,3.02c-0.1,0.06-0.2,0.09-0.31,0.09
				v-6.53h11.41h0.61h12.75v0.06c0,0.39-0.3,0.72-0.9,0.99c-0.6,0.27-1.35,0.56-2.24,0.87c-0.9,0.31-1.87,0.65-2.91,1.04
				c-1.05,0.39-2.02,0.88-2.91,1.49c-0.9,0.61-1.64,1.36-2.24,2.24c-0.6,0.88-0.9,1.97-0.9,3.25c0,1.99,0.81,3.64,2.44,4.94
				c-0.14,0.37-0.21,0.77-0.21,1.22c0,0.55,0.11,1.07,0.32,1.57c0.21,0.5,0.5,0.93,0.87,1.3c0.37,0.37,0.8,0.66,1.3,0.87
				c0.5,0.21,1.02,0.32,1.58,0.32c1.84,0,3.13-0.96,3.89-2.87c0.35-0.02,0.68-0.05,1.01-0.09c0.33-0.04,0.63-0.08,0.92-0.12v0.46
				h2.87v-17.54h1.8v-1.62h-17.42H1098.7z M1031.75,807.21c-0.39-0.18-0.83-0.34-1.33-0.46c-0.5-0.12-1.07-0.18-1.72-0.18
				c-0.41,0-0.84,0.03-1.3,0.08c-0.46,0.05-0.95,0.14-1.48,0.26c-0.53-0.98-1.29-1.74-2.29-2.29c-1.59-0.87-2.38-1.96-2.38-3.26
				c0-0.33,0.04-0.64,0.11-0.95c0.07-0.3,0.15-0.57,0.24-0.81c0.09-0.23,0.18-0.43,0.26-0.58c0.08-0.15,0.13-0.24,0.15-0.26h9.73
				V807.21z M1065.08,815.71c-0.22,0.23-0.5,0.35-0.82,0.35c-0.33,0-0.61-0.12-0.84-0.35c-0.23-0.23-0.35-0.51-0.35-0.84
				c0-0.33,0.12-0.6,0.35-0.84c0.23-0.23,0.51-0.35,0.84-0.35c0.33,0,0.6,0.12,0.82,0.35c0.22,0.23,0.34,0.51,0.34,0.84
				C1065.42,815.19,1065.31,815.47,1065.08,815.71z M1070.03,812.58c-0.41,0.08-0.79,0.16-1.16,0.23c-0.37,0.07-0.72,0.13-1.07,0.17
				c-0.83-1.44-2.01-2.17-3.54-2.17c-1.46,0-2.62,0.65-3.48,1.95c-0.45-0.24-0.74-0.53-0.88-0.85c-0.14-0.33-0.21-0.67-0.21-1.04
				c0-0.53,0.35-1.04,1.04-1.53c0.51-0.37,1.04-0.69,1.59-0.96c0.55-0.27,1.05-0.56,1.49-0.85c0.45-0.29,0.81-0.61,1.1-0.95
				c0.28-0.34,0.43-0.75,0.43-1.24c0-0.37-0.1-0.69-0.3-0.96c-0.2-0.27-0.47-0.51-0.81-0.7c-0.34-0.19-0.71-0.35-1.13-0.47
				c-0.42-0.12-0.84-0.23-1.27-0.34c-0.47-0.1-0.85-0.26-1.16-0.47c-0.31-0.21-0.55-0.46-0.73-0.73c-0.18-0.27-0.31-0.58-0.38-0.92
				c-0.07-0.34-0.11-0.68-0.11-1.02c0-0.37,0.03-0.69,0.09-0.98h10.49V812.58z M1107.1,815.71c-0.24,0.23-0.52,0.35-0.85,0.35
				c-0.33,0-0.61-0.12-0.85-0.35c-0.24-0.23-0.36-0.51-0.36-0.84c0-0.33,0.12-0.6,0.36-0.84c0.24-0.23,0.52-0.35,0.85-0.35
				c0.33,0,0.61,0.12,0.85,0.35c0.24,0.23,0.36,0.51,0.36,0.84C1107.45,815.19,1107.33,815.47,1107.1,815.71z M1112.06,812.88
				c-0.55,0.16-1.27,0.25-2.14,0.27c-0.84-1.57-2.06-2.35-3.67-2.35c-0.75,0-1.45,0.19-2.08,0.58c-0.9-0.67-1.35-1.57-1.35-2.68
				c0-0.63,0.15-1.18,0.44-1.66c0.3-0.48,0.71-0.9,1.24-1.28c0.53-0.38,1.18-0.73,1.94-1.05c0.77-0.32,1.62-0.64,2.56-0.95
				c0.53-0.18,1.06-0.37,1.58-0.56c0.52-0.19,1.02-0.4,1.48-0.63V812.88z"/>
			<linearGradient id="SVGID_17_" gradientUnits="userSpaceOnUse" x1="1132.6516" y1="822.7145" x2="1168.0988" y2="787.2673">
				<stop  offset="0" style="stop-color:#E6A75C"/>
				<stop  offset="0.0234" style="stop-color:#E8AB63"/>
				<stop  offset="0.1847" style="stop-color:#F2C48B"/>
				<stop  offset="0.3066" style="stop-color:#FBD5A5"/>
				<stop  offset="0.3744" style="stop-color:#FFDCAF"/>
				<stop  offset="0.525" style="stop-color:#E6A75C"/>
				<stop  offset="0.6674" style="stop-color:#FFDCAF"/>
				<stop  offset="1" style="stop-color:#E6A75C"/>
			</linearGradient>
			<path class="st172" d="M1176.18,797.14v-0.37h-2.87v13.36c-0.69-0.1-1.28-0.18-1.77-0.23c-0.49-0.05-0.9-0.08-1.22-0.08v-12.69
				h-15.01h-1.22h-7.93h-0.61h-1.22v-0.4h-2.87v0.88c-0.16-0.18-0.34-0.31-0.53-0.38c-0.12-0.05-0.35-0.07-0.66-0.09v-0.02h-18.98
				v1.62h1.83c-0.36,0.77-0.54,1.7-0.54,2.78c0,0.18,0,0.37,0.02,0.55c0.01,0.18,0.03,0.38,0.05,0.58c0.2,1.28,0.81,2.46,1.83,3.54
				c-1.28,1.1-1.92,2.42-1.92,3.97c0,0.87,0.17,1.68,0.52,2.43c0.35,0.74,0.81,1.39,1.4,1.94c0.59,0.55,1.28,0.98,2.06,1.3
				c0.78,0.32,1.6,0.47,2.46,0.47v-2.87c-0.33,0-0.7-0.06-1.12-0.18c-0.42-0.12-0.82-0.32-1.18-0.58c-0.37-0.26-0.68-0.6-0.92-1.02
				c-0.25-0.42-0.37-0.91-0.37-1.48c0-0.35,0.08-0.67,0.24-0.96c0.16-0.29,0.39-0.55,0.67-0.78c0.29-0.22,0.62-0.4,0.99-0.53
				c0.38-0.13,0.78-0.2,1.21-0.2c0.55,0,1.23,0.09,2.05,0.27c0.82,0.18,1.6,0.51,2.34,0.99c0.74,0.48,1.38,1.14,1.91,1.98
				c0.53,0.84,0.8,1.93,0.8,3.25v1.98h2.87v-17.42h1.19h0.46c0.87,0,1.32,0.44,1.34,1.31v16.04h2.87v-17.36h1.22h0.61h4.88
				c-0.71,0.61-1.34,1.31-1.88,2.09c-0.54,0.78-0.98,1.62-1.33,2.52c-0.35,0.9-0.61,1.83-0.78,2.79c-0.17,0.97-0.26,1.94-0.26,2.91
				c0,1.34,0.17,2.66,0.5,3.97c0.34,1.3,0.83,2.52,1.48,3.65c0.65,1.13,1.46,2.15,2.43,3.05c0.97,0.9,2.08,1.64,3.34,2.21l0.7,0.27
				c1.71,0.67,3.49,0.98,5.34,0.92c0.67,0,1.37-0.05,2.1-0.15c0.73-0.1,1.45-0.29,2.17-0.56c0.71-0.27,1.39-0.65,2.03-1.11
				c0.64-0.47,1.2-1.06,1.69-1.77l-3.05-2.04c-0.26,0.41-0.59,0.74-0.99,1.01c-0.4,0.26-0.83,0.48-1.31,0.64
				c-0.48,0.16-0.98,0.28-1.51,0.35c-0.53,0.07-1.06,0.11-1.59,0.11c-1.04,0-2.1-0.14-3.2-0.43l-1.04-0.34
				c-1.06-0.43-1.98-1.01-2.76-1.75c-0.78-0.74-1.43-1.58-1.95-2.5c-0.52-0.93-0.91-1.91-1.17-2.96c-0.26-1.05-0.4-2.09-0.4-3.13
				c0-1.24,0.18-2.49,0.53-3.75c0.36-1.26,0.9-2.38,1.63-3.36c0.22-0.31,0.49-0.6,0.81-0.88c0.32-0.28,0.63-0.54,0.95-0.78
				c0.32-0.23,0.61-0.44,0.88-0.61c0.27-0.17,0.47-0.29,0.59-0.35h0.3h12.14v0.06c0,0.37-0.3,0.69-0.9,0.96
				c-0.6,0.27-1.35,0.56-2.24,0.85c-0.9,0.29-1.87,0.64-2.91,1.02c-1.05,0.39-2.02,0.88-2.91,1.49c-0.9,0.61-1.64,1.36-2.24,2.24
				c-0.6,0.88-0.9,1.97-0.9,3.25c0,2.09,0.9,3.75,2.71,4.97c1.81,1.22,4.48,1.83,8.02,1.83c0.26,0,0.51,0,0.73,0
				c0.22,0,0.44-0.01,0.64-0.03v0.7h2.87v-3.42c0.65,0,1.53,0.14,2.62,0.43c0.1,0.06,0.19,0.16,0.26,0.29
				c0.07,0.13,0.11,0.35,0.11,0.66v2.04h2.87v-17.36h1.8v-1.62H1176.18z M1135.61,807.42c-0.86-0.76-1.91-1.38-3.15-1.87
				c-1.24-0.48-2.59-0.72-4.04-0.72c-0.18,0-0.37,0.01-0.55,0.02c-0.18,0.01-0.36,0.03-0.52,0.05c-0.65-0.49-1.14-0.99-1.45-1.52
				c-0.32-0.53-0.47-1.11-0.47-1.76c0-0.36,0.04-0.71,0.12-1.03c0.08-0.32,0.17-0.6,0.26-0.83c0.09-0.23,0.18-0.42,0.26-0.56
				c0.08-0.14,0.13-0.22,0.15-0.24l0.15-0.18h9.24V807.42z M1167.45,812.55c-0.2,0.02-0.4,0.03-0.59,0.03c-0.19,0-0.4,0-0.63,0
				c-0.61,0-1.25-0.03-1.91-0.08c-0.66-0.05-1.3-0.14-1.92-0.27c-0.62-0.13-1.21-0.31-1.77-0.53c-0.56-0.22-1.04-0.5-1.45-0.82
				c-0.65-0.53-0.98-1.27-0.98-2.23c0-0.63,0.15-1.18,0.44-1.65c0.29-0.47,0.71-0.89,1.25-1.27c0.54-0.38,1.19-0.72,1.95-1.04
				c0.76-0.32,1.61-0.63,2.55-0.93c0.53-0.16,1.05-0.35,1.57-0.56c0.52-0.21,1.01-0.43,1.48-0.66V812.55z"/>
		</g>
	</g>
</g>
</svg>
