<?xml version="1.0" encoding="utf-8"?>
<!-- Generator: Adobe Illustrator 24.1.2, SVG Export Plug-In . SVG Version: 6.00 Build 0)  -->
<svg version="1.1" id="Layer_1" xmlns="http://www.w3.org/2000/svg" xmlns:xlink="http://www.w3.org/1999/xlink" x="0px" y="0px"
	 viewBox="0 0 1920 1920" style="enable-background:new 0 0 1920 1920;" xml:space="preserve">
<style type="text/css">
	.st0{fill:#FFFFFF;}
	.st1{fill:#046937;}
	.st2{fill:#079247;}
	.st3{filter:url(#Adobe_OpacityMaskFilter);}
	.st4{filter:url(#Adobe_OpacityMaskFilter_1_);}
	.st5{mask:url(#SVGID_1_);fill:url(#SVGID_2_);}
	.st6{opacity:0.9;fill:url(#SVGID_3_);}
	.st7{fill:#939598;}
	.st8{fill:#3DB54A;}
	.st9{opacity:0.35;}
	.st10{fill:#E6E6E5;}
	.st11{opacity:0.6;fill:#079247;}
	.st12{fill:url(#SVGID_4_);}
	.st13{fill:url(#SVGID_5_);}
	.st14{fill:url(#SVGID_6_);}
	.st15{fill-rule:evenodd;clip-rule:evenodd;fill:#FFFFFF;}
	.st16{opacity:0.6;}
	.st17{fill:#F3F3F3;}
	.st18{fill:#F7F8F8;}
	.st19{fill:#E4E3E3;}
	.st20{fill:#E8E6E5;}
	.st21{fill:#D4D3D3;}
	.st22{fill:#BFBDBD;}
	.st23{fill:#D3D2D2;}
	.st24{fill:#CFCFCE;}
	.st25{fill:#C9C7C7;}
	.st26{fill:#E0E1E0;}
	.st27{fill:#E2E1E1;}
	.st28{fill:#B6B5B5;}
	.st29{fill:#B8B7B7;}
	.st30{fill:#C7C5C5;}
	.st31{fill:#949293;}
	.st32{fill:#B2B0B0;}
	.st33{fill:#ACAAAA;}
	.st34{fill:#A9A8A8;}
	.st35{fill:#B3B1B2;}
	.st36{fill:#AAA9A9;}
	.st37{fill:#868485;}
	.st38{fill:#8F8C8D;}
	.st39{fill:#939190;}
	.st40{fill:#949192;}
	.st41{fill:#908F8E;}
	.st42{fill:#A8A5A6;}
	.st43{fill:#A5A4A4;}
	.st44{fill:#6A6868;}
	.st45{fill:#706F6F;}
	.st46{fill:#5E5C5C;}
	.st47{fill:#5B5859;}
	.st48{fill:url(#SVGID_7_);}
	.st49{fill:url(#SVGID_8_);}
	.st50{fill:url(#SVGID_9_);}
	.st51{fill:url(#SVGID_10_);}
	.st52{fill:#F4F4F4;}
	.st53{fill:#E4E4E4;}
	.st54{fill:#D4D3D2;}
	.st55{fill:#C3C2C2;}
	.st56{fill:#D7D6D5;}
	.st57{fill:#D9D8D8;}
	.st58{fill:#DBDADA;}
	.st59{fill:#C2C0C0;}
	.st60{fill:#929090;}
	.st61{fill:#ACAAAB;}
	.st62{fill:#999798;}
	.st63{fill:#ADACAC;}
	.st64{fill:#878484;}
	.st65{fill:#9C9C9C;}
	.st66{fill:url(#SVGID_11_);}
	.st67{fill:url(#SVGID_12_);}
	.st68{fill:url(#SVGID_13_);}
	.st69{fill:url(#SVGID_14_);}
	.st70{fill:#EBEAEA;}
	.st71{fill:#DFDFDE;}
	.st72{fill:#ECECEC;}
	.st73{fill:#E1E0E0;}
	.st74{fill:#D0D0D0;}
	.st75{fill:#BBBABA;}
	.st76{fill:#CCCBCC;}
	.st77{fill:#BAB9B9;}
	.st78{fill:#CFCDCE;}
	.st79{fill:#CECCCD;}
	.st80{fill:#CBCACA;}
	.st81{fill:#B4B2B3;}
	.st82{fill:#C8C5C6;}
	.st83{fill:#B2B1B1;}
	.st84{fill:#A09E9F;}
	.st85{fill:#999698;}
	.st86{fill:#B5B3B4;}
	.st87{fill:#B1B0B1;}
	.st88{fill:#969595;}
	.st89{fill:#888686;}
	.st90{fill:#727070;}
	.st91{fill:#888586;}
	.st92{fill:#868383;}
	.st93{fill:url(#SVGID_15_);}
</style>
<g>
	<linearGradient id="SVGID_1_" gradientUnits="userSpaceOnUse" x1="336.6365" y1="875.8671" x2="884.4337" y2="875.8671">
		<stop  offset="0" style="stop-color:#273B83"/>
		<stop  offset="0.9409" style="stop-color:#121742"/>
	</linearGradient>
	<path style="fill:url(#SVGID_1_);" d="M465.38,914.04c0,0,1.31-118.22,57.8-60.42c56.49,57.8,9.2,52.54,9.2,52.54L465.38,914.04z"
		/>
	<linearGradient id="SVGID_2_" gradientUnits="userSpaceOnUse" x1="1562.6967" y1="887.3091" x2="712.7582" y2="809.803">
		<stop  offset="0" style="stop-color:#273B83"/>
		<stop  offset="0.9409" style="stop-color:#121742"/>
	</linearGradient>
	<path style="fill:url(#SVGID_2_);" d="M1452.08,914.04c0,0-1.31-118.22-57.8-60.42c-56.49,57.8-9.2,52.54-9.2,52.54L1452.08,914.04
		z"/>
	
		<radialGradient id="SVGID_3_" cx="886.5053" cy="-3305.5161" r="388.9401" gradientTransform="matrix(1.8573 0 0 0.0805 -688.4342 1169.7313)" gradientUnits="userSpaceOnUse">
		<stop  offset="0" style="stop-color:#0D1F44"/>
		<stop  offset="0.1468" style="stop-color:#393F5E"/>
		<stop  offset="0.3184" style="stop-color:#666680"/>
		<stop  offset="0.484" style="stop-color:#908FA3"/>
		<stop  offset="0.6391" style="stop-color:#B8B7C4"/>
		<stop  offset="0.7813" style="stop-color:#DAD9DF"/>
		<stop  offset="0.9061" style="stop-color:#F2F1F3"/>
		<stop  offset="1" style="stop-color:#FFFFFF"/>
	</radialGradient>
	<path style="fill:url(#SVGID_3_);" d="M958.07,856.54c-284.25,0-530.15,10.68-648.06,26.2v41.56
		c117.91,15.52,363.81,26.2,648.06,26.2c287.39,0,535.57-10.91,651.92-26.72v-40.53C1493.64,867.46,1245.46,856.54,958.07,856.54z"
		/>
	<rect x="310.01" y="905.77" class="st15" width="1299.98" height="189.53"/>
	<g class="st16">
		<path class="st0" d="M1466.77,846.33c-3.74-8.63-8.29-16.59-17.33-20.8c5.65,0,13.91-2.22,16.28,0.57
			c2.92,3.43,0.93,11.04,1.05,16.84C1466.79,844.07,1466.77,845.2,1466.77,846.33z"/>
		<path class="st0" d="M487.45,853.27c1.05-14.94,12.23-24.9,29.21-25.97c2.3-0.14,4.62-0.03,6.93-0.03
			c300.02,0,600.04,0.01,900.05-0.06c5.53,0,10.88,0.53,16.22,1.88c17.75,4.47,24.87,19.51,20.36,35.08
			c-9.84,33.96-22.38,67.01-36.2,99.59c-7.52,17.72-13.36,36.15-19.88,54.29c-5.03,13.99-13.79,23.68-29.24,25.87
			c-3,1.59-6.24,0.8-9.36,0.8c-263.58,0.04-527.16,0.04-790.74,0c-3.11,0-6.35,0.79-9.35-0.8c-17.86-1.09-26.09-13.32-30.97-28.16
			c-15.68-47.76-30.87-95.68-46.14-143.57c-0.85-2.66-0.62-5.66-0.9-8.51C486.13,860.2,486.13,856.73,487.45,853.27z"/>
		<path class="st0" d="M565.45,1043.91c269.82,0,539.64,0,809.45,0c-2.56,2.84-5.95,1.68-8.98,1.68
			c-263.83,0.05-527.66,0.05-791.49,0C571.4,1045.59,568.01,1046.75,565.45,1043.91z"/>
		<path class="st0" d="M487.45,853.27c0,3.47,0,6.93,0,10.4C484.82,860.2,484.82,856.73,487.45,853.27z"/>
		<path class="st17" d="M511.71,915.66c-2.54-3.01-3.31-6.6-3.47-10.4c-3.13-9.17-4.37-18.92-8.67-27.73
			c-2.04-1.25-1.67-3.3-1.73-5.2c-5.47-16.35-2.31-27.45,9.48-33.79c2.09-1.12,4.3-2.38,6.5-2.08c11.86,1.65,23.45-1.56,35.27-1.55
			c282.12,0.22,564.24,0.22,846.35,0c12.43-0.01,24.65,1.65,37.02,2.05c15.61,0.5,24.05,15.19,18.25,29.83
			c-1.17,2.96-1.59,6.15-3.02,9c0,0.58-0.01,1.15-0.01,1.73c-3.26,8.58-6.97,17-9.38,25.88c-0.67,2.47-0.96,5.03-2.75,7.05v0
			c-4.38,5.6-2.71,13.41-6.93,19.06v0c-3.26,8.58-6.98,17-9.39,25.88c-0.67,2.47-0.96,5.03-2.75,7.05
			c-4.38,5.6-2.71,13.41-6.93,19.06c-4.05,5.23-4.56,12.01-6.93,17.9c-2.91,7.24-5.74,14.65-8.67,21.97l0,0
			c-2.87,4.06-5.49,8.37-10.4,10.4c-1.15,0.58-2.31,1.16-3.46,1.74c-10.07,4.1-20.93,4.07-31.32,4.08
			c-252.41,0.3-504.81,0.3-757.22,0c-10.39-0.01-21.25,0.02-31.32-4.08c-1.43-0.04-2.72-0.34-3.47-1.73
			c-4.9-2.03-7.52-6.34-10.4-10.4c-5.49-9.11-8.17-19.21-10.4-29.46c-3.43-10.99-5.62-22.37-10.4-32.93
			c-2.54-3.01-3.31-6.6-3.47-10.4C518.69,937.6,516.49,926.22,511.71,915.66z"/>
		<path class="st18" d="M1447.71,875.8c-1.23-7.15,4.98-13.1,2.25-21c-3.86-11.17-8.73-16.22-20.7-17.09
			c-2.3-0.17-4.62-0.04-6.93-0.04c-299.22,0-598.44,0-897.66,0.03c-3.72,0-7.42-0.31-11.16,0.78c-12.41,3.62-16.95,9.87-16.12,22.63
			c0.24,3.73,0.31,7.48,0.46,11.22c-6.79-8.73-7-16.73-0.7-27.57c4.09-7.05,12.66-10.45,21.97-9.12c2.77,0.4,6.56,0.87,8.36-0.58
			c4.21-3.38,8.71-2.55,13.19-2.56c288.7-0.04,577.4-0.09,866.1,0.15c11.27,0.01,22.74,1.87,33.74,4.46
			c13.11,3.09,18.57,16.77,12.37,28.92C1451.21,869.3,1451.12,873.47,1447.71,875.8z"/>
		<path class="st18" d="M560.25,1033.52c18.9,3.15,37.96,1.65,56.94,1.66c235.33,0.11,470.65,0.11,705.98,0
			c18.98-0.01,38.04,1.49,56.94-1.66c-3.31,3.65-6.91,5.36-12.11,3.61c-6.42-2.16-11.45,3.57-18.07,3.56
			c-253.17-0.29-506.33-0.1-759.5-0.8C580.83,1039.86,569.19,1040.71,560.25,1033.52z"/>
		<path class="st18" d="M1393.97,1021.38c3.06-14.13,9.1-27.08,15.6-39.86c-0.21,10.97-8.38,19.7-8.51,30.8
			C1401.02,1016.57,1395.96,1018.02,1393.97,1021.38z"/>
		<path class="st18" d="M1435.57,910.46c1.74-11.82,6.31-22.61,12.13-32.93c0.33,10.57-8.67,18.62-7.95,29.39
			C1439.87,908.77,1437.98,910.45,1435.57,910.46z"/>
		<path class="st18" d="M1416.5,962.45c1.74-11.82,6.3-22.61,12.13-32.93c0.32,10.57-8.67,18.62-7.96,29.39
			C1420.8,960.77,1418.91,962.45,1416.5,962.45z"/>
		<path class="st18" d="M511.71,915.66c5.98,10.18,9.11,21.27,10.4,32.93C516.93,938.16,514.85,926.74,511.71,915.66z"/>
		<path class="st18" d="M525.58,958.99c5.98,10.18,9.11,21.27,10.4,32.93C530.8,981.48,528.72,970.07,525.58,958.99z"/>
		<path class="st18" d="M499.58,877.53c5.62,8.39,7.59,17.92,8.67,27.73C502.34,896.96,502.67,886.71,499.58,877.53z"/>
		<path class="st18" d="M1409.57,981.52c0.55-6.99,2.29-13.56,6.93-19.06c-0.72,4.38-2.71,8.48-2.31,13.14
			C1414.45,978.57,1413.13,981.12,1409.57,981.52z"/>
		<path class="st18" d="M1428.64,929.52c0.55-6.99,2.29-13.56,6.93-19.06c-0.72,4.38-2.71,8.48-2.31,13.14
			C1433.52,926.58,1432.19,929.13,1428.64,929.52z"/>
		<path class="st18" d="M1383.57,1031.78c2.78-4.15,6.24-7.62,10.4-10.4C1392.68,1027.02,1391.86,1033.14,1383.57,1031.78z"/>
		<path class="st18" d="M546.38,1021.38c4.16,2.78,7.63,6.24,10.4,10.4C548.5,1033.13,547.68,1027.02,546.38,1021.38z"/>
		<path class="st19" d="M1385.31,1023.12c-4.18,7.44-11.91,7.2-18.82,8.58c-2.22,0.44-4.61,0.08-6.92,0.08
			c-259.69,0-519.38,0-779.07,0c-20.2,0-26.46-3.43-32.99-22.29c-11.84-34.23-22.74-68.78-33.9-103.25
			c-3.98-12.29-7.91-24.62-11.22-37.11c-4.48-16.91,3.95-27.82,21.43-27.95c25.42-0.18,50.84-0.05,76.26-0.05
			c271.82,0,543.64,0,815.46,0c2.89,0,5.78-0.02,8.67,0.01c17.79,0.18,26,10.83,20.68,27.84c-3.66,11.7-8.48,23.05-12.78,34.55
			c-1.7,0.97-3.17,1.1-4.05-1.06c0.01-7.77,4.3-14.25,6.58-21.33c1.41-4.38,3.16-8.64,4.17-13.18c2.86-12.89-1.52-19.22-14.67-20.75
			c-3.15-0.37-6.35-0.17-9.53-0.17c-294.01,0-588.01,0-882.02-0.01c-8.4,0-16.91-0.4-23.18,6.79c-3.07,5.01-2.86,10.27-1.08,15.61
			c4.67,14.04,8.36,28.39,13.52,42.27c3.6,11.43,7.38,22.81,10.63,34.35c1.2,5.42,2.43,10.84,5.63,15.55
			c3.48,6.92,6.03,14.14,7.07,21.85c-0.13,3.02,1.02,5.76,1.83,8.59c2.04,6.33,4.49,12.49,6.77,18.71
			c3.52,9.63,10.72,13.93,20.32,14.94c4.3,0.45,8.65,0.16,12.98,0.16c254.29,0,508.58-0.03,762.86,0.1
			c11.96,0.01,23.58-0.26,34.14-6.69C1386.61,1019.9,1386.13,1021.46,1385.31,1023.12z"/>
		<path class="st20" d="M1428.65,903.53c1.15,0,2.31,0,3.46,0c-2.9,15.65-10.01,29.92-14.97,44.89
			c-6.96,20.98-15.4,41.48-23.32,62.13c-1.84,4.8-3.39,9.93-8.51,12.56c-0.01-1.17-0.01-2.33-0.02-3.5c-1-5.84,2.93-9.95,5.12-14.68
			c2.23-2.35,3.25-5.17,3.27-8.39c0.19-2.06,0.74-3.97,2.02-5.63c2.76-3.16,3.81-7.05,4.68-11.02c4.45-15.77,10.97-30.79,16.6-46.12
			c1.09-2.96,2.12-5.94,2.72-9.05c1.42-4.77,3.11-9.45,4.68-14.17c0.32-1.17,0.74-2.31,1.24-3.42
			C1426.33,905.68,1427.13,904.3,1428.65,903.53z"/>
		<path class="st21" d="M1428.65,903.53c-0.06,1.42-0.34,2.73-1.73,3.49c-3.71-4.09-0.39-8.42-0.43-12.64
			c0.59-3.09,1.69-5.99,3.09-8.8c2.64-5.81,4.6-11.87,6.16-18.01c2.49-9.75-1.8-15.7-11.82-16.88c-2.58-0.3-5.19-0.16-7.79-0.16
			c-294.94-0.01-589.89,0-884.83-0.04c-6.42,0-12.7,0.3-18.5,3.43c-1.98,1.04-3.98,2.01-6.29,1.09c2.09-8.68,9.82-8.65,16.3-10.27
			c2.45-0.61,5.17-0.13,7.77-0.13c295.5,0,591,0,886.5,0c2.6,0,5.22-0.19,7.79,0.07c14.27,1.47,19.79,9.37,16.53,23.13
			C1438.46,880.19,1433.02,891.67,1428.65,903.53z"/>
		<path class="st21" d="M1397.41,991.91c-2.02,1.25-1.66,3.29-1.72,5.19c-1.55,2.73-2,5.91-3.48,8.67
			c-2.31,4.62-4.62,9.23-6.92,13.85c-7.36,7.01-16.18,8.81-26.18,8.81c-258.45-0.15-516.9-0.12-775.36-0.12
			c-22.91,0-28.24-3.79-35.75-25.69c-1.39-4.06-3.44-7.97-3.38-12.43c2.88-0.67,3.8,1.72,5.24,3.32c3.26,5.65,4.45,12.24,8.09,17.74
			c4.09,7.81,11.1,10.52,19.31,11.08c2.88,0.19,5.77,0.08,8.66,0.08c256.48,0,512.96-0.01,769.43,0.04c9.11,0,17.98-0.23,24.92-7.29
			c7.54-8.33,9.52-19.28,13.69-29.2c1.56-3.72,1.28-8.83,6.75-9.95c1.59,1.46,0.88,3.31,0.88,5.05
			C1399.66,984.45,1399.28,988.47,1397.41,991.91z"/>
		<path class="st22" d="M555.03,1009.28c-4.42-4.27-4.01-10.69-6.92-15.64c-1.63-3.52-2.99-7.17-5.18-10.41
			c-1.13-7.33-3.37-14.29-6.87-20.84c-1.25-3.86-2.35-7.76-3.31-11.7c-3.08-14.57-8.49-28.42-13.16-42.51
			c-4.07-12.3-7.44-24.82-11.62-37.09c-2.11-6.19-2.88-12.37,2.01-17.84c5.35-4.77,11.86-5.24,18.59-5.24
			c106.6,0.03,213.2,0.02,319.79,0.02c189.22,0,378.44,0,567.66,0.01c3.46,0,6.99-0.27,10.38,0.27c9.25,1.47,13.99,7.19,12.44,16.39
			c-1.37,8.13-3.41,16.31-8.45,23.24c-1.1-0.88-1.6-2.08-1.82-3.42c-0.05-6.15,2.39-11.6,4.86-17.02c1.44-2.27,2.15-4.68,1.27-7.37
			c-0.3-0.67-0.58-1.33-0.92-1.98c-1.15-2.34-3.45-2.79-5.64-3.44c-1.83-0.5-3.37-1.65-5.22-2.13c-3.47-0.51-6.95-0.34-10.41-0.34
			c-292.87-0.01-585.74-0.01-878.6-0.01c-3.18,0-6.36-0.07-9.5,0.21c-1.44,0.25-2.71,0.93-3.94,1.69c-1.04,0.77-2.12,1.5-3.16,2.28
			c-5.74,4.88-3.27,10.8-2.06,16.55c8.63,26.99,17.53,53.87,25.83,80.95c0.84,2.75,2,5.36,3.28,7.92c1.97,4.57,3.75,9.19,4.3,14.19
			c1.15,10.67,6.73,20.24,7.73,30.95C556.19,1007.9,555.73,1008.66,555.03,1009.28z"/>
		<path class="st23" d="M509.98,853.27c-2.6,7.64-1.97,15.02,0.79,22.6c3.9,10.72,7.55,21.55,9.63,32.83
			c0.98,1.19,0.96,2.36-0.04,3.53c-7.13-14.6-10.08-30.61-15.21-45.89c-1.13-3.37-1.79-7.9,1.35-11.34
			C507.67,854.42,508.82,853.84,509.98,853.27z"/>
		<path class="st24" d="M520.37,912.23c0.01-1.18,0.02-2.35,0.04-3.53c5.91,13.44,10.45,27.34,13.84,41.62
			c-3.39,1.08-1.9-2.71-3.45-3.47C527.32,935.31,523.84,923.77,520.37,912.23z"/>
		<path class="st24" d="M542.93,983.24c5.22,1.73,4.56,6.39,5.18,10.41c-1.16-1.15-2.32-2.31-3.48-3.46
			C542.12,988.35,543.11,985.65,542.93,983.24z"/>
		<path class="st21" d="M530.79,946.86c1.15,1.16,2.3,2.31,3.45,3.47c0.61,4.03,1.21,8.05,1.82,12.08
			C532.8,957.73,531.42,952.42,530.79,946.86z"/>
		<path class="st25" d="M1428.63,894.86c-0.57,4.05-1.14,8.11-1.71,12.16c-0.03,1.14-0.05,2.27-0.08,3.41
			c-4.42,3.89-4.76,9.46-6.04,14.65c-3.63,12.18-8.85,23.78-12.84,35.83c-0.52,1.57-0.96,4.18-3.9,3.41
			c-1.35-1.46-1.66-3.24-1.67-5.13c1.72-10.2,6.96-19.4,8.53-29.64c2.45-5.8,3.47-12.17,6.79-17.63c3.35-3.38,4.3-7.9,5.74-12.19
			c0.24-0.73,0.56-1.42,0.92-2.1C1425.5,896.26,1426.01,893.92,1428.63,894.86z"/>
		<path class="st26" d="M1404.39,964.23c7.21-12.51,10.33-26.62,15.59-39.9c0.57-0.84,1.14-0.8,1.72-0.01
			c-2.8,14.02-9.49,26.69-14,40.12c-1.89,5.64-4.65,11.01-5.08,17.08c-0.58,0.67-1.15,0.71-1.73,0c0-1.73,0.01-3.46,0.01-5.2
			C1399.54,971.56,1401.34,967.72,1404.39,964.23z"/>
		<path class="st21" d="M1421.7,924.32c-0.57,0.01-1.15,0.01-1.72,0.01c1.13-5.21,0.43-11.32,6.87-13.91
			C1425.13,915.05,1423.41,919.68,1421.7,924.32z"/>
		<path class="st27" d="M1400.9,981.52c0.58,0,1.15,0,1.73,0c-2.08,3.29-1.67,7.83-5.21,10.39
			C1397.61,988.12,1398.37,984.52,1400.9,981.52z"/>
		<path class="st27" d="M1392.21,1005.77c-0.07-3.38,0.75-6.41,3.48-8.67C1395.81,1000.5,1395.02,1003.54,1392.21,1005.77z"/>
		<path class="st28" d="M1428.63,894.86c-1.15,1.16-2.31,2.31-3.46,3.47c-2.38-6.15-1.56-11.12,5.17-13.88
			c0.02,1.17,0.03,2.34,0.05,3.51C1429.8,890.26,1429.22,892.56,1428.63,894.86z"/>
		<path class="st29" d="M555.03,1009.28c0.02-0.59,0.03-1.19,0.05-1.78c1.57-0.18,2.93,0.35,3.77,1.63
			c6.55,9.98,16.67,11.51,27.36,11.51c255.84,0.03,511.69,0.02,767.53,0.06c4.97,0,9.75-0.77,14.51-1.83
			c0.89-0.22,1.77-0.55,2.58-1.01c2.85-1.65,5.8-3.23,7.62-6.19c1-1.34,2.07-2.6,3.79-3.04c0.88,0.04,1.58,0.41,2.1,1.12
			c0.7,1.72,0.37,3.28-0.78,4.7c-4.98,8-12.75,10.34-21.51,10.37c-22.81,0.07-45.63,0.03-68.44,0.03c-237.67,0-475.35,0-713.02-0.01
			C565.38,1024.84,559.06,1020.96,555.03,1009.28z"/>
		<path class="st30" d="M1383.57,1014.45c0.01-1.73,0.01-3.46,0.02-5.19c-0.24-3.07,1.47-5.59,2.36-8.35
			c5.02-11.54,8.1-23.79,13.06-35.33c1.12-2.6,0.92-6.57,5.35-6.61c0.01,1.75,0.02,3.5,0.02,5.26c-0.01,4.36-1.9,8.18-3.48,12.09
			c-6.33,10.19-8.25,22.21-13.52,32.85C1386.37,1011.23,1385.95,1013.47,1383.57,1014.45z"/>
		<path class="st31" d="M1381.86,1009.25c-0.62,1.11-1.24,2.23-1.86,3.34c-2.27,1.77-4.46,3.66-6.82,5.33
			c-0.05,0.53-0.07,1.05-0.06,1.58c-6.15,1.61-12.43,1.88-18.75,1.88c-256.13-0.01-512.26,0-768.38-0.01
			c-20.63,0-26.41-4.3-32.38-23.84c-2.19-7.16-3.74-14.54-7.16-21.28c-1.18-4.6-2.36-9.19-3.54-13.79
			c-8.83-28.51-17.84-56.96-27.27-85.28c-1.96-5.88-2.51-11.74-2-17.82c0.34-2.02,1.62-3.34,3.29-4.35
			c0.58-0.56,1.17-1.12,1.75-1.68c4.44-1.46,8.98-1.82,13.65-1.82c294.15,0.04,588.3,0.03,882.44,0.04c2.02,0,4.06-0.13,6.06,0.12
			c11.15,1.42,15.1,7.13,12.21,17.98c-1.48,5.54-2.99,11.12-5.82,16.19c-1.99,1.46-2.67-0.13-3.45-1.47
			c-1.37-4.89,0.67-9.13,2.62-13.37c1.64-3.14,3.16-6.29-0.21-9.34c-2.59-1.75-5.29-3.23-8.36-3.98c-3.77-0.31-7.53-0.2-11.28-0.2
			c-288.12,0-576.23-0.01-864.35,0.03c-5.15,0-10.41-0.8-15.43,1.11c-8.02,2.48-7.72,8.01-5.57,14.52
			c12.11,36.71,23.14,73.76,35.11,110.52c2.23,6.85,4.05,13.84,6.95,20.47c2.25,5.15,5.83,8.91,11.5,9.33
			c7.76,0.57,15.36,2.16,23.23,2.15c247.85-0.12,495.69-0.12,743.54,0c8.15,0,16.06-1.49,24.09-2.16c5.61-0.47,9.34-4.24,11.51-9.38
			c1.9-4.51,3.32-9.24,6.21-13.28c1.14-1.12,2.48-1.69,4.1-1.49c4.59,3.47-0.63,6.46-0.5,9.71
			C1385.38,1002.47,1384.23,1006.16,1381.86,1009.25z"/>
		<path class="st32" d="M546.45,976.25c5.88,5.47,6.4,13.3,8.38,20.29c5.39,19.01,10.21,23.13,29.46,23.13
			c257.17,0,514.34,0,771.51-0.01c5.77,0,11.54-0.1,17.31-0.16c-5.7,2.99-11.85,3.61-18.15,3.61
			c-256.63-0.01-513.25-0.02-769.88,0.01c-12.81,0-23.82-3.09-30.01-15.63C552.32,997.05,548.01,987.03,546.45,976.25z"/>
		<path class="st33" d="M1425.18,886.22c0.83-1.15,1.96-2.18,2.45-3.46c8.82-23.14,6.72-29.69-19.25-29.67
			c-290.64,0.27-581.28,0.19-871.92,0.03c-5.93,0-11.84,2.25-17.78,0.2c0.57-0.6,1.13-1.2,1.7-1.79c3-1.59,6.24-0.8,9.36-0.8
			c295.93-0.04,591.86-0.04,887.8,0c3.11,0,6.36-0.81,9.35,0.82c0.76,1.39,2.06,1.68,3.48,1.71c2.14,1.33,3.9,3.03,5.19,5.2l0,0
			c1.32,2.88,1.31,5.77,0.01,8.66c-2.12,5.66-4.74,11.16-5.23,17.31c-3.64,3.91-4.67,8.8-5.17,13.88v0c-2.3,4.4-3.03,9.4-5.22,13.85
			c-3.71,5.23-3.92,11.84-6.91,17.35c-0.9,0.58-1.71,0.48-2.43-0.31c-1.36-2.03-1.46-4.31-1.32-6.64c1.27-6.45,3.5-12.61,5.98-18.67
			c3.82-3.89,5.09-9.04,6.8-13.98C1422.77,888.41,1423.61,887,1425.18,886.22z"/>
		<path class="st28" d="M1426.89,851.56c-302.17-0.01-604.33-0.02-906.5-0.02c2.56-2.83,5.95-1.69,8.99-1.69
			c296.18-0.05,592.36-0.05,888.55,0C1420.94,849.85,1424.35,848.68,1426.89,851.56z"/>
		<path class="st34" d="M515.18,858.47c-1.62,19.1,8.57,35.36,12.94,53.01c3.57,14.42,8.78,28.44,13.44,42.58
			c0.92,2.79,1.55,5.5,1.35,8.4c-4.82-4.78-4.67-11.5-6.63-17.35c-7.07-21.15-13.88-42.39-20.7-63.63
			c-0.95-2.97-1.44-6.08-2.14-9.13C513.23,867.62,509.85,862.5,515.18,858.47z"/>
		<path class="st33" d="M515.18,858.47c-3.46,4.27-0.96,9.28-1.73,13.88c-1.5-6.31-5.65-13.16,3.49-17.33
			C516.35,856.16,515.76,857.32,515.18,858.47z"/>
		<path class="st28" d="M1435.57,867.13c0-2.89-0.01-5.77-0.01-8.66C1438.15,861.36,1438.12,864.24,1435.57,867.13z"/>
		<path class="st28" d="M1435.56,858.47c-2.32-1.14-4.05-2.89-5.19-5.2C1433.69,853.42,1435.42,855.15,1435.56,858.47z"/>
		<path class="st35" d="M1411.29,929.52c0.58,0,1.17,0.01,1.75,0.01c-1.32,10.28-6.27,19.49-8.68,29.44
			c-6.75,12.92-9.69,27.29-15.57,40.54c-0.44,1-1.16,1.88-1.76,2.81c-1.4-0.75-0.73-2.51-1.71-3.46c1.1-2.89,2.2-5.79,3.3-8.68
			c-1.58-2.13-0.53-4.06,0.46-5.99c2.84-4.67,4.53-9.69,4.5-15.22c0.18-2.64,0.95-5.05,2.67-7.1c5.62-7,7.78-15.38,9.53-23.93
			C1406.67,934.5,1407.38,930.96,1411.29,929.52z"/>
		<path class="st28" d="M1419.96,912.17c0.56-5.06,1.51-9.97,5.22-13.85C1424.64,903.4,1423.7,908.31,1419.96,912.17z"/>
		<path class="st32" d="M1385.33,998.86c1.38,0.75,1.67,2.05,1.71,3.46c-0.29,2.74-1.22,5.17-3.45,6.94c0,0-0.87-0.01-0.87-0.01
			s-0.87,0.01-0.87,0.01C1381.34,1005.23,1383.8,1002.2,1385.33,998.86z"/>
		<path class="st36" d="M1373.18,1017.92c1.47-2.8,3.44-4.96,6.82-5.33C1378.67,1015.58,1376.68,1017.71,1373.18,1017.92z"/>
		<path class="st37" d="M1397.55,962.49c-1.35,2.09-2.1,4.34-1.87,6.86c-1.69,1.77-1.47,4.36-2.72,6.32
			c-2.54,4.84-3.27,10.64-7.63,14.52c-11.19,29.43-9.45,27.21-40.96,27.3c-249.4,0.73-498.81,0.42-748.22,0.33
			c-7.72,0-15.54-0.58-23.13-1.93c-10.73-1.91-12.98-11.71-15.64-19.97c-13.31-41.33-26.15-82.82-39.12-124.27
			c-2.77-8.87-1.29-11.75,7.34-14.92c2.12-1.35,4.5-0.81,6.76-0.81c153.31-0.02,306.63-0.02,459.94-0.02c1.44,0,2.89-0.01,4.31,0.26
			c1.18,4.09-2.14,3.98-4.41,4.4c-3.7,0.68-7.49,0.35-11.24,0.35c-146.12,0.01-292.24,0-438.35,0.01
			c-20.76,0-21.88,1.55-15.48,21.13c0.99,3.02,2.04,6.01,3.07,9.01c1.98,4.38,3.59,8.9,4.59,13.62
			c4.59,18.19,11.37,35.7,16.67,53.67c3.51,11.89,7.66,23.58,11.25,35.45c4.67,15.44,8.8,18.22,24.91,18.22
			c223.8,0.01,447.59,0,671.39,0c32.05,0,64.11,0.04,96.16-0.02c12.88-0.02,16.57-2.57,21.4-14.61
			c7.41-18.47,13.85-37.3,20.76-55.96c8.36-22.43,16.52-44.94,24.87-67.38c3.05-8.2,0.81-11.77-7.96-12.94
			c-3.72-0.49-7.5-0.21-11.25-0.21c-129.38-0.01-258.76,0-388.14-0.01c-3.75,0-7.55,0.34-11.24-0.36c-2.23-0.42-5.62-0.29-4.35-4.4
			c2.3-0.39,4.61-0.23,6.92-0.23c135.68-0.01,271.36-0.01,407.05,0.03c2.83,0,5.78-0.72,8.49,0.8c2.3,1.16,4.61,2.32,6.91,3.49
			c1.36,3.46,1.32,6.92,0.03,10.39c-1.63,3.91-3.48,7.75-3.49,12.12c-1.34,2.43-0.92,5.47-2.69,7.76
			c-1.92,4.41-1.83,9.72-5.91,13.15c-0.27,6.73-4.09,12.48-5.27,18.96c-1.55,5.61-4.57,10.75-5.25,16.64
			C1403.99,947.27,1400.88,954.92,1397.55,962.49z"/>
		<path class="st38" d="M1421.71,856.73c-141,0.02-281.99,0.04-422.99,0.06c-0.54,0.68-1.08,0.65-1.61,0
			c-157.17-0.02-314.35-0.04-471.52-0.06c2.57-2.82,5.96-1.68,8.99-1.68c292.71-0.05,585.43-0.05,878.14,0
			C1415.75,855.05,1419.14,853.91,1421.71,856.73z"/>
		<path class="st39" d="M1385.32,990.19c2.87-4.96,2.48-11.34,6.89-15.62c2.39,3.96-0.84,6.99-1.7,10.42
			c-0.62,1.73-1.25,3.46-1.87,5.19C1387.53,990.18,1386.42,990.18,1385.32,990.19z"/>
		<path class="st38" d="M1428.65,870.6c-0.01-3.46-0.02-6.92-0.03-10.39C1431.29,863.67,1431.24,867.13,1428.65,870.6z"/>
		<path class="st38" d="M1421.71,889.66c1.15-2.32,2.29-4.63,3.44-6.95c0.01,1.17,0.02,2.33,0.03,3.5c-0.04,1.41-0.34,2.7-1.7,3.46
			C1422.89,890.5,1422.3,890.5,1421.71,889.66z"/>
		<path class="st40" d="M1404.4,938.23c1.35-5.63,2.76-11.23,6.88-15.64c0,2.31,0,4.62,0,6.93c-1.15,2.89-2.3,5.78-3.45,8.67
			C1406.7,939.21,1405.56,939.22,1404.4,938.23z"/>
		<path class="st41" d="M1421.71,889.66c0.59,0.01,1.18,0.01,1.77,0.02c-1.2,5.2-0.52,11.33-6.93,13.95
			C1418.28,898.97,1419.99,894.32,1421.71,889.66z"/>
		<path class="st42" d="M1404.4,938.23c1.14-0.01,2.29-0.03,3.43-0.04c-1.95,8.73-3.23,17.74-10.29,24.3
			C1397.19,953.65,1403.32,946.65,1404.4,938.23z"/>
		<path class="st43" d="M1390.51,984.99c0.57-3.47,1.14-6.95,1.7-10.42c0.02-2.49,1.23-4.19,3.46-5.22
			C1395.79,975.16,1394.44,980.5,1390.51,984.99z"/>
		<path class="st44" d="M532.52,903.53c-1.15-3.47-2.3-6.95-3.45-10.42c-0.52-6.71-3.78-12.67-5.31-19.1
			c-1.93-8.13,1.16-12.68,9.51-13.66c2.58-0.3,5.19-0.14,7.79-0.14c288.54-0.01,577.07-0.01,865.61,0c1.44,0,2.89-0.02,4.33,0.01
			c11.29,0.3,14.95,5.57,11.04,16.38c-7.27,20.07-14.47,40.17-22.12,60.1c-0.41,1.08-0.8,2.17-1.08,3.29
			c-7.06,19.22-13.95,38.5-21.28,57.62c-4.78,12.48-8.62,15.1-21.9,15.1c-256.78,0.01-513.56,0.01-770.33,0
			c-14.47,0-18.68-3.24-23-17.07C552.7,964.83,543.32,933.95,532.52,903.53z"/>
		<path class="st45" d="M1397.44,939.92c7.11-19.45,14.24-38.89,21.32-58.35c1.08-2.97,2.38-5.96,2.79-9.04
			c0.87-6.51-1.54-10.75-8.9-10.6c-2.31,0.05-4.62,0-6.93,0c-287.69,0-575.39,0-863.08,0c-2.89,0-5.81-0.25-8.66,0.13
			c-8.03,1.05-10.39,5.36-8.47,13.07c1.47,5.91,6.42,11.21,3.56,17.98c-4.53-7.48-5.95-16.05-8.34-24.26
			c-1.17-4.03,1.36-6.46,4.48-8.45c3.94-2.51,8.34-1.91,12.63-1.91c149.51-0.02,299.01,0,448.52-0.08c3.59,0,7.55,1.4,10.75-1.62
			c0.54,0.01,1.08,0.01,1.61,0c3.2,3.01,7.16,1.62,10.75,1.62c132.71,0.08,265.42,0.07,398.12,0.09c4.01,0,7.96-0.14,11.95,1.23
			c5.65,1.93,8.43,5.46,6.31,11.06c-8.91,23.62-16.53,47.72-26.68,70.87C1398.12,941.54,1397.95,940.57,1397.44,939.92z"/>
		<path class="st45" d="M1397.44,939.92c0.58,0.58,1.15,1.15,1.73,1.73c-6.4,21.5-14.44,42.43-23.09,63.09
			c-3.23,7.71-10.35,9.8-18.61,9.79c-100.49-0.14-200.98-0.08-301.47-0.08c-157.09,0-314.17,0-471.26-0.01
			c-13.88,0-19.1-3.63-23.41-16.95c-9.31-28.75-18.47-57.55-27.59-86.36c-0.77-2.42-0.82-5.06-1.21-7.6
			c7.25,8.69,8.4,19.86,11.83,30.03c7.53,22.32,14.25,44.92,21.46,67.35c2.19,6.81,7.11,10.28,14.41,10.07c1.73-0.05,3.46,0,5.2,0
			c256.37,0,512.73,0,769.1,0c15.07,0,17.39-1.86,22.51-16.05C1383.66,976.54,1390.62,958.25,1397.44,939.92z"/>
		<path class="st46" d="M973.62,865.4c144.14,0,288.28,0,432.42,0c12.99,0,14.58,1.87,10.15,14.01
			c-10.26,28.09-21.11,55.97-31.22,84.11c-4.17,11.6-8.31,23.16-13.07,34.55c-2.73,6.53-6.44,8.98-12.65,9.42
			c-2.01,0.14-4.04,0.03-6.06,0.03c-255.35,0-510.7,0-766.05,0c-14.86,0-15.8-0.58-20.32-14.47
			c-12.11-37.24-24.15-74.49-36.16-111.76c-4.29-13.29-2.37-15.89,11.42-15.89C685.92,865.4,829.77,865.4,973.62,865.4z"/>
		<path class="st47" d="M972.77,870.6c142.12,0,284.25,0,426.37,0c13.06,0,14.12,1.2,9.81,13.14
			c-13.1,36.27-26.36,72.49-39.67,108.69c-2.38,6.46-6.51,10.03-14.27,10.02c-256.51-0.16-513.03-0.15-769.54-0.02
			c-7.64,0-11.63-3.08-13.84-10.11c-11.9-37.89-23.89-75.76-36.1-113.56c-1.94-6.01-0.09-8.14,5.68-8.15
			c2.31-0.01,4.62-0.01,6.93-0.01C689.68,870.6,831.23,870.6,972.77,870.6z"/>
	</g>
	<g>
		<linearGradient id="SVGID_4_" gradientUnits="userSpaceOnUse" x1="960" y1="1124.2003" x2="960" y2="782.6721">
			<stop  offset="0" style="stop-color:#273B83"/>
			<stop  offset="0.9409" style="stop-color:#121742"/>
		</linearGradient>
		<polygon class="st12" points="1363.85,1005.98 548.26,1005.98 494.45,837.85 1425.55,837.85 		"/>
	</g>
	<rect x="771.46" y="837.85" class="st0" width="9.2" height="168.13"/>
	<path class="st15" d="M668.83,879.93c3.93-0.13,7.85-0.03,11.79-0.04c0.48,0,0.96,0,1.62,0v-20.42c-2.1-0.21-4.29-0.51-6.49-0.62
		c-4.03-0.18-8.06-0.38-12.09-0.29c-6.16,0.13-11.98,1.63-17.07,5.28c-5.83,4.2-9.04,10.09-10.26,17.05
		c-0.5,2.87-0.64,5.85-0.71,8.77c-0.11,4.58-0.02,9.17-0.02,13.75v1.72h-19.55v22.82h19.43v57.35h23.75v-57.26h19.37
		c0.99-7.59,1.96-15.1,2.98-22.92c-1.56,0-2.96,0-4.35,0c-5.51,0.02-18.15,0-18.15,0s0.05-11.31,0.19-16.22
		C659.46,882.18,663.44,880.12,668.83,879.93z"/>
</g>
</svg>
