<?xml version="1.0" encoding="utf-8"?>
<!-- Generator: Adobe Illustrator 24.1.2, SVG Export Plug-In . SVG Version: 6.00 Build 0)  -->
<svg version="1.1" id="Layer_1" xmlns="http://www.w3.org/2000/svg" xmlns:xlink="http://www.w3.org/1999/xlink" x="0px" y="0px"
	 viewBox="0 0 1920 1920" style="enable-background:new 0 0 1920 1920;" xml:space="preserve">
<style type="text/css">
	.st0{fill:#FFFFFF;}
	.st1{fill:#046937;}
	.st2{fill:#079247;}
	.st3{filter:url(#Adobe_OpacityMaskFilter);}
	.st4{filter:url(#Adobe_OpacityMaskFilter_1_);}
	.st5{mask:url(#SVGID_1_);fill:url(#SVGID_2_);}
	.st6{opacity:0.9;fill:url(#SVGID_3_);}
	.st7{fill:#939598;}
	.st8{fill:#3DB54A;}
	.st9{opacity:0.35;}
	.st10{fill:#E6E6E5;}
	.st11{opacity:0.6;fill:#079247;}
	.st12{fill:url(#SVGID_4_);}
	.st13{fill:url(#SVGID_5_);}
	.st14{fill:url(#SVGID_6_);}
	.st15{fill-rule:evenodd;clip-rule:evenodd;fill:#FFFFFF;}
	.st16{opacity:0.6;}
	.st17{fill:#F3F3F3;}
	.st18{fill:#F7F8F8;}
	.st19{fill:#E4E3E3;}
	.st20{fill:#E8E6E5;}
	.st21{fill:#D4D3D3;}
	.st22{fill:#BFBDBD;}
	.st23{fill:#D3D2D2;}
	.st24{fill:#CFCFCE;}
	.st25{fill:#C9C7C7;}
	.st26{fill:#E0E1E0;}
	.st27{fill:#E2E1E1;}
	.st28{fill:#B6B5B5;}
	.st29{fill:#B8B7B7;}
	.st30{fill:#C7C5C5;}
	.st31{fill:#949293;}
	.st32{fill:#B2B0B0;}
	.st33{fill:#ACAAAA;}
	.st34{fill:#A9A8A8;}
	.st35{fill:#B3B1B2;}
	.st36{fill:#AAA9A9;}
	.st37{fill:#868485;}
	.st38{fill:#8F8C8D;}
	.st39{fill:#939190;}
	.st40{fill:#949192;}
	.st41{fill:#908F8E;}
	.st42{fill:#A8A5A6;}
	.st43{fill:#A5A4A4;}
	.st44{fill:#6A6868;}
	.st45{fill:#706F6F;}
	.st46{fill:#5E5C5C;}
	.st47{fill:#5B5859;}
	.st48{fill:url(#SVGID_7_);}
	.st49{fill:url(#SVGID_8_);}
	.st50{fill:url(#SVGID_9_);}
	.st51{fill:url(#SVGID_10_);}
	.st52{fill:#F4F4F4;}
	.st53{fill:#E4E4E4;}
	.st54{fill:#D4D3D2;}
	.st55{fill:#C3C2C2;}
	.st56{fill:#D7D6D5;}
	.st57{fill:#D9D8D8;}
	.st58{fill:#DBDADA;}
	.st59{fill:#C2C0C0;}
	.st60{fill:#929090;}
	.st61{fill:#ACAAAB;}
	.st62{fill:#999798;}
	.st63{fill:#ADACAC;}
	.st64{fill:#878484;}
	.st65{fill:#9C9C9C;}
	.st66{fill:url(#SVGID_11_);}
	.st67{fill:url(#SVGID_12_);}
	.st68{fill:url(#SVGID_13_);}
	.st69{fill:url(#SVGID_14_);}
	.st70{fill:#EBEAEA;}
	.st71{fill:#DFDFDE;}
	.st72{fill:#ECECEC;}
	.st73{fill:#E1E0E0;}
	.st74{fill:#D0D0D0;}
	.st75{fill:#BBBABA;}
	.st76{fill:#CCCBCC;}
	.st77{fill:#BAB9B9;}
	.st78{fill:#CFCDCE;}
	.st79{fill:#CECCCD;}
	.st80{fill:#CBCACA;}
	.st81{fill:#B4B2B3;}
	.st82{fill:#C8C5C6;}
	.st83{fill:#B2B1B1;}
	.st84{fill:#A09E9F;}
	.st85{fill:#999698;}
	.st86{fill:#B5B3B4;}
	.st87{fill:#B1B0B1;}
	.st88{fill:#969595;}
	.st89{fill:#888686;}
	.st90{fill:#727070;}
	.st91{fill:#888586;}
	.st92{fill:#868383;}
	.st93{fill:url(#SVGID_15_);}
</style>
<g>
	<linearGradient id="SVGID_1_" gradientUnits="userSpaceOnUse" x1="421.377" y1="894.5043" x2="543.5473" y2="865.6037">
		<stop  offset="0.1216" style="stop-color:#FAA42E"/>
		<stop  offset="0.4123" style="stop-color:#EA2C33"/>
		<stop  offset="0.632" style="stop-color:#9E237A"/>
		<stop  offset="1" style="stop-color:#54449B"/>
	</linearGradient>
	<path style="fill:url(#SVGID_1_);" d="M465.38,914.08c0,0,1.31-118.22,57.8-60.42c56.49,57.8,9.2,52.54,9.2,52.54L465.38,914.08z"
		/>
	<linearGradient id="SVGID_2_" gradientUnits="userSpaceOnUse" x1="1540.2042" y1="878.8008" x2="1352.3503" y2="873.546">
		<stop  offset="0.1216" style="stop-color:#FAA42E"/>
		<stop  offset="0.4123" style="stop-color:#EA2C33"/>
		<stop  offset="0.632" style="stop-color:#9E237A"/>
		<stop  offset="1" style="stop-color:#54449B"/>
	</linearGradient>
	<path style="fill:url(#SVGID_2_);" d="M1452.08,914.08c0,0-1.31-118.22-57.8-60.42c-56.49,57.8-9.2,52.54-9.2,52.54L1452.08,914.08
		z"/>
	
		<radialGradient id="SVGID_3_" cx="886.5053" cy="-3305.1389" r="388.9405" gradientTransform="matrix(1.8573 0 0 0.0805 -688.4342 1169.7465)" gradientUnits="userSpaceOnUse">
		<stop  offset="0" style="stop-color:#0D1F44"/>
		<stop  offset="0.1468" style="stop-color:#393F5E"/>
		<stop  offset="0.3184" style="stop-color:#666680"/>
		<stop  offset="0.484" style="stop-color:#908FA3"/>
		<stop  offset="0.6391" style="stop-color:#B8B7C4"/>
		<stop  offset="0.7813" style="stop-color:#DAD9DF"/>
		<stop  offset="0.9061" style="stop-color:#F2F1F3"/>
		<stop  offset="1" style="stop-color:#FFFFFF"/>
	</radialGradient>
	<path style="fill:url(#SVGID_3_);" d="M958.07,856.59c-284.25,0-530.15,10.68-648.06,26.2v41.56
		c117.91,15.52,363.81,26.2,648.06,26.2c287.39,0,535.57-10.91,651.92-26.72v-40.53C1493.64,867.5,1245.46,856.59,958.07,856.59z"/>
	<rect x="310.01" y="905.82" class="st15" width="1299.98" height="189.53"/>
	<g class="st16">
		<path class="st0" d="M1466.77,846.29c-3.74-8.63-8.29-16.59-17.33-20.8c5.65,0,13.91-2.22,16.28,0.57
			c2.92,3.43,0.93,11.04,1.05,16.84C1466.79,844.03,1466.77,845.16,1466.77,846.29z"/>
		<path class="st0" d="M487.45,853.22c1.05-14.94,12.23-24.9,29.21-25.97c2.3-0.14,4.62-0.03,6.93-0.03
			c300.02,0,600.04,0.01,900.05-0.06c5.53,0,10.88,0.53,16.22,1.88c17.75,4.47,24.82,19.49,20.37,35.08
			c-9.68,34.02-22.43,66.99-36.22,99.59c-7.5,17.73-13.36,36.15-19.88,54.29c-5.03,13.99-13.79,23.68-29.24,25.87
			c-3,1.59-6.24,0.8-9.36,0.8c-263.58,0.04-527.16,0.04-790.74,0c-3.11,0-6.35,0.79-9.35-0.8c-17.86-1.09-26.09-13.32-30.97-28.16
			c-15.68-47.76-30.87-95.68-46.14-143.57c-0.85-2.66-0.62-5.66-0.9-8.51C486.13,860.15,486.13,856.69,487.45,853.22z"/>
		<path class="st0" d="M565.45,1043.87c269.82,0,539.64,0,809.45,0c-2.56,2.84-5.95,1.68-8.98,1.68
			c-263.83,0.05-527.66,0.05-791.49,0C571.4,1045.55,568.01,1046.7,565.45,1043.87z"/>
		<path class="st0" d="M487.45,853.22c0,3.47,0,6.93,0,10.4C484.82,860.15,484.82,856.69,487.45,853.22z"/>
		<path class="st18" d="M1407.84,984.94c0.23,1.13,1.04,2.63,0.6,3.32c-6.19,9.65-3.55,22.8-12.53,31.33
			c-3.51,3.34-3.04,8.74-7.26,12.33c-4.4,3.73-10.24,6.01-14.01,5.32c-9.6-1.73-17.65,3.36-26.78,3.35
			c-250.45-0.24-500.9-0.22-751.35-0.1c-12.92,0.01-25.23-3.98-38.08-4.57c-3.19-0.15-8.2-3.75-10.1-8.06
			c-7.48-17-14.12-34.23-18.3-52.48c-2.62-11.43-8.69-22.08-11.24-33.52c-4.09-18.32-13.19-34.96-16.6-53.48
			c-1.22-6.62-4.13-13.22-7.55-19.09c-6.19-10.64,2.73-30.21,15.02-34.7c0.53-0.19,1.24-0.51,1.67-0.32
			c10.38,4.52,20-2.03,30.17-2.02c288.29,0.22,576.58,0.23,864.88-0.09c7.77-0.01,14.37,5.31,21.67,3.46
			c5.94-1.51,10.5-0.05,15.53,2.41c10.48,5.11,14.32,16.59,9.89,27.66c-3.3,8.25-8.32,16.04-8.04,25.56
			c0.11,3.65-2.42,5.7-6.35,5.31c-2.48-3.13-0.56-5.82,0.57-8.82c3.76-9.95,8.09-19.76,7.36-30.83c-0.59-8.98-4.33-13.3-13.19-15.49
			c-4.56-1.13-9.1-1.36-13.73-1.36c-297.79,0-595.58,0-893.37,0.01c-6.66,0-13.38-0.01-19,4.27c-7.47,5.68-9.88,16.65-6.31,27.5
			c15.04,45.71,29.63,91.57,44.06,137.48c4.95,15.75,13.81,22.7,30.23,23.4c2.6,0.11,5.2,0.06,7.8,0.06c257.93,0,515.86,0,773.79,0
			c5.48,0,10.88-0.41,16.34-1.34c8.98-1.52,14.31-6.8,17.85-14.62c3.81-8.41,7.19-16.98,10.13-25.73
			C1403.49,988.86,1403.75,984.94,1407.84,984.94z"/>
		<path class="st17" d="M1404.37,990.14c-3.44,8.2-6.35,16.64-9.42,24.95c-5.22,14.14-15.37,19.17-29.01,20.08
			c-2.3,0.15-4.62,0.03-6.93,0.03c-259.32,0-518.64,0-777.96,0c-24.02,0-31.45-6.28-39.04-29.12
			c-11.79-35.46-22.49-71.26-34.35-106.7c-4.11-12.27-9.07-24.55-10.2-38.08c-1.18-14.13,11.37-23.45,22.72-23.66
			c2.02-0.04,4.04-0.01,6.06-0.01c298.3,0,596.61,0,894.91,0c7.19,0,14.61-0.07,20.76,3.99c9.62,6.36,8.73,16.57,6.86,25.86
			c-1.68,8.29-3.52,16.87-8.69,24.12c-0.9,1.26-0.71,3.29-1.02,4.96c0,1.15-0.01,2.3-0.01,3.46c-1.4,1.12-2.75,0.98-4.06-0.18
			c-2.08-4.24,0.18-8.07,1.11-12.04c2.63-8.78,7.23-17.01,7.4-26.48c0.19-10.92-3.25-15.25-13.89-17.35
			c-3.71-0.73-7.49-0.44-11.23-0.44c-296.31-0.01-592.61-0.01-888.92-0.01c-2.02,0-4.04-0.03-6.06,0.04
			c-15.03,0.46-22.07,9.33-18.84,24.1c2.4,11,6.19,21.61,9.71,32.28c12.29,37.23,23.07,74.96,36.46,111.83
			c4.41,12.14,11.75,17.19,24.85,17.49c1.73,0.04,3.47,0.03,5.2,0.03c259.63,0,519.26,0,778.88,0.02c6.68,0,13.31,0.08,19.21-3.68
			c5.79-3.74,9.46-9.18,12.1-15.41c3.57-6,5.12-12.86,8.06-19.11c1.17-2.49,1.12-6.69,5.77-6.11
			C1405.31,986.77,1405.62,988.51,1404.37,990.14z"/>
		<path class="st52" d="M1404.37,990.14c0-1.73,0-3.47,0-5.2c-1.89-2.04-1.09-4.34-0.41-6.47c4.59-14.43,10.45-28.4,15.52-42.66
			c0.59-1.65,1.6-3.02,3.38-3.63c0.95-0.13,1.83,0.07,2.63,0.6c1.46,5.41-1.23,9.7-3.78,14.04c0,0.58-0.01,1.15-0.01,1.73
			c-2.83,4.21-1.92,9.82-5.2,13.86c-1.4,0.75-1.7,2.04-1.73,3.47c-2.39,4.98-1.77,10.96-5.2,15.6c-1.4,0.75-1.7,2.04-1.73,3.47
			C1406.68,986.67,1405.53,988.41,1404.37,990.14z"/>
		<path class="st18" d="M1433.83,915.61c-2.14,4.71,3.28,13.19-6.92,13.88c-2.88-3.54-0.8-6.75,0.65-10.01
			C1429.3,917.62,1430.52,914.92,1433.83,915.61z"/>
		<path class="st18" d="M1435.58,900.02c1.15,0,2.3,0,3.46-0.01c0.75,5.55,0.28,10.65-5.2,13.87c-1.08-0.86-1.56-2.04-1.79-3.36
			c-0.23-1.73-0.03-3.43,0.42-5.11C1433.15,903.41,1433.73,901.35,1435.58,900.02z"/>
		<path class="st18" d="M1409.57,981.47c-0.43-5.92,2.44-10.74,5.2-15.6C1412.84,971.01,1417.75,978.42,1409.57,981.47z"/>
		<path class="st18" d="M1416.5,962.41c-0.38-5.41,1.55-9.96,5.2-13.86C1419.77,953.09,1424.31,960.06,1416.5,962.41z"/>
		<path class="st17" d="M1428.65,919.08c-0.58,3.47-1.16,6.94-1.73,10.4c0,1.15-0.01,2.3-0.01,3.46c-0.58,0.86-1.15,0.82-1.73,0
			c-0.58,0-1.16,0-1.74-0.01c-2.95-5.86-0.48-10.23,3.89-14.08C1427.76,918.94,1428.21,919.01,1428.65,919.08z"/>
		<path class="st18" d="M1425.17,932.95c0.58,0,1.15,0,1.73,0c0.75,5.55,0.28,10.65-5.2,13.87
			C1422.86,942.19,1424.02,937.57,1425.17,932.95z"/>
		<path class="st52" d="M1433.83,910.41c0,1.16,0.01,2.31,0.01,3.47c0,0.58-0.01,1.15-0.01,1.73c-1.8,1.06-2.5,3.74-5.19,3.47
			c0,0-0.03-0.01-0.03-0.01c-1.82-1.94-1.38-3.91-0.06-5.88C1430.05,911.77,1431.16,909.61,1433.83,910.41z"/>
		<path class="st53" d="M1381.87,1024.81c-2.13,6.25-8.04,5.65-12.81,6.77c-2.74,0.64-5.75,0.15-8.64,0.15
			c-260.2,0-520.41,0-780.61,0c-19.38,0-25.61-3.94-32.25-21.88c-13.38-36.14-23.87-73.23-35.82-109.85
			c-3.38-10.37-6.78-20.76-9.51-31.31c-4.32-16.71,4.47-27.6,21.88-27.6c299.77-0.01,599.54-0.02,899.31,0
			c19.27,0,26.72,10.19,21.31,28.64c-2,6.82-4.14,13.55-7.42,19.88c-0.83,0.61-1.58,0.53-2.27-0.24c-1.37-3.03,0.16-5.97,0.25-8.95
			c1.45-8.38,6.7-16.2,3.72-25.23c-0.31-2.74-1.5-4.83-4.3-5.71c-1.45-0.65-2.87-1.34-4.33-1.97c-2.63-0.96-5.35-0.51-8.06-0.57
			c-295.38,0.06-590.74,0.02-886.09,0.03c-1.44,0-2.89,0.06-4.33-0.01c-24.46-1.23-28.73,8.38-22.03,29.64
			c10.58,33.55,21.22,67.08,32.16,100.51c1.11,2.77,2.03,5.63,3.92,8.04c1.75,3.74,2.8,7.67,3.05,11.81
			c0.35,2.01,1.04,3.92,1.71,5.82c6.67,19.12,12.13,23.01,32.33,23.01c258.19,0.01,516.39,0,774.58,0.02
			c5.49,0,10.97,0.01,16.31-1.5C1376.58,1024.28,1379.3,1023.42,1381.87,1024.81z"/>
		<path class="st20" d="M1435.55,889.61c0.59,0,1.17,0.01,1.76,0.01c-0.58,3.47-1.15,6.93-1.73,10.4c-0.09,1.9,0.29,3.95-1.74,5.2
			c-1.58,2.72-2.02,5.89-3.49,8.66c-2.03,1.25-1.66,3.3-1.73,5.2c-3.68,3.89-4.67,8.79-5.19,13.87
			c-7.15,17.04-13.82,34.25-19.06,51.99c-5.74,7.88-5.5,18.54-12.13,26.01c-1.14-0.95-1.65-2.22-1.86-3.65
			c2.7-15.09,9.46-28.86,14.51-43.16c7.46-21.14,15.37-42.12,23.23-63.11C1429.69,896.82,1429.51,891.06,1435.55,889.61z"/>
		<path class="st27" d="M1392.22,1007.46c0.01,1.16,0.01,2.32,0.02,3.48c-1.95,5.75-3.63,11.7-10.37,13.87
			c-1.75,0.57-3.5,1.14-5.26,1.7c0.24-6.28,7.59-7.57,9.1-12.97C1387.81,1011.45,1387.96,1007.24,1392.22,1007.46z"/>
		<path class="st17" d="M1430.35,913.87c-0.07-3.38,0.72-6.42,3.49-8.66c0,1.73,0,3.46-0.01,5.2
			C1432.67,911.57,1431.51,912.72,1430.35,913.87z"/>
		<path class="st54" d="M1387.04,1014.4c-1.32,5.89-7.18,7.88-10.42,12.12c-8.18,2.19-16.55,1.75-24.89,1.75
			c-255.89,0-511.78-0.13-767.67,0.2c-24.95,0.03-32.02-7.98-37.65-33.14c5,0.29,5.62,4.58,6.68,7.93
			c4.62,14.6,14.32,19.36,29.51,19.34c258.43-0.34,516.87-0.29,775.3-0.08c10.86,0.01,19.93-1.72,26.19-11.25
			C1387.31,1010.21,1388.14,1011.4,1387.04,1014.4z"/>
		<path class="st55" d="M1385.39,1010.93c-3.11,9.91-10.13,13.91-20.21,13.91c-263.32-0.04-526.63-0.03-789.95-0.05
			c-11.23,0-17.69-4.98-22.26-15.59c-2.01-4.68-2.63-10.1-6.57-13.89c-0.62-3.44-1.23-6.87-1.85-10.31
			c-2.39-2.74-2.76-6.37-4.26-9.51c-10.46-30.35-19.36-61.19-28.9-91.83c-0.43-1.39-0.87-2.74-0.24-4.17
			c0.64-0.74,1.44-1.1,2.42-1.1c4.06,1.19,4.61,4.96,5.48,8.14c5.27,19.14,12.69,37.59,17.94,56.74c1.06,3.87,2.22,7.76,4.59,11.12
			c4.58,9.17,6.79,19.06,8.98,28.98c1.38,7.43,4.31,14.35,6.8,21.43c3.92,11.14,12.31,15.36,23.37,15.74
			c3.18,0.11,6.35,0.06,9.53,0.06c253.34,0,506.69,0,760.03,0c6.35,0,12.72,0.33,18.85-1.76c2.28-0.6,4.16-1.82,5.54-3.76
			c4.01-3.59,5.13-9.78,10.71-11.98c0.92,0.05,1.68,0.43,2.3,1.11C1389.01,1007.19,1388.35,1009.46,1385.39,1010.93z"/>
		<path class="st56" d="M511.72,879.22c9.82,32.35,19.65,64.69,29.47,97.04c0.99,1.16,0.97,2.32-0.01,3.48
			c-6.52-13.22-9.53-27.63-14.03-41.53c-7.17-22.18-14.55-44.31-20.97-66.71c-5.31-18.54,1.53-26.95,20.5-26.95
			c299.49,0,598.98,0,898.48,0c1.59,1.35,6.71,1.66,1.48,5.03c-7.24,1.83-14.25-1-21.46-1c-287.43,0.17-574.87,0.16-862.3,0.08
			c-6.7,0-13.21,1.01-19.78,1.84c-9.46,1.2-12.21,4.73-12.46,14.24C510.52,869.65,513.69,874.24,511.72,879.22z"/>
		<path class="st57" d="M1385.39,1010.93c1.1-2.17,1.97-4.41,1.69-6.92c6.64-14.41,11.49-29.49,16.77-44.41
			c6.33-16.3,12.39-32.7,18.04-49.25c2.82-7.74,5.26-15.62,8.41-23.24c1.06-2.57,1.52-5.58,4.54-6.88c0.94-0.17,1.77,0.07,2.47,0.72
			c-0.58,2.89-1.17,5.77-1.75,8.66c-10,21.65-16.97,44.46-25.35,66.73c-6.36,16.9-13.3,33.62-17.97,51.12
			c-1.73,2.31-3.46,4.63-5.19,6.94C1387.01,1013,1386.73,1011.71,1385.39,1010.93z"/>
		<path class="st56" d="M1437.3,880.95c-0.58,0-1.17,0-1.75-0.01c-1.84-1.9-1.7-4.19-0.89-6.35c3.65-9.79,3.04-18.69-5.07-26.18
			c0.18-1.48,0.64-2.65,2.51-2.13c1.15,0.58,2.31,1.16,3.46,1.75c2.14,1.32,3.87,3.06,5.2,5.2
			C1444.96,863.13,1439.17,871.8,1437.3,880.95z"/>
		<path class="st23" d="M541.18,979.74c0-1.16,0.01-2.32,0.01-3.48c2.31,2.46,2.8,5.63,3.36,8.76
			C541.16,984.71,541.15,982.24,541.18,979.74z"/>
		<path class="st58" d="M1432.11,846.28c-0.58,0.57-1.16,1.15-1.74,1.72c-0.58,0.55-1.16,0.53-1.72-0.04
			c-1.16-1.13-2.32-2.27-3.48-3.4C1427.57,844.79,1430.28,843.76,1432.11,846.28z"/>
		<path class="st57" d="M1440.77,853.22c-2.34-1.13-4.07-2.86-5.2-5.2C1438.88,848.18,1440.61,849.91,1440.77,853.22z"/>
		<path class="st59" d="M1428.65,847.96c0.57,0.04,1.14,0.05,1.72,0.04c9.87,7.99,10.98,11.95,7.11,24.62
			c-0.83,2.72-1.3,5.55-1.93,8.33c-4.03,9.83-8.06,19.66-12.09,29.48c-0.84,0.6-1.62,0.52-2.33-0.23c-2.11-4.2,0.14-7.88,1.56-11.57
			c3.42-8.89,6.9-17.78,9.6-26.89c2.7-9.09,1.52-17.34-7.77-18.53c-0.98-0.32-1.94-0.6-2.95-0.8c-3.49-0.29-6.95-0.2-10.41-0.2
			c-290.37,0-580.74,0-871.11,0.01c-4.61,0-9.24-0.29-13.81,0.44c-11.94,2.94-13.49,5.18-11.77,17.75c0.42,3.07,1.53,6.09-0.96,8.79
			c-0.59,0.01-1.19,0.01-1.78,0.02c-2.83-5.52-3.51-11.38-3.62-17.56c-0.15-7.99,4.53-11.85,11.09-13.28
			c6.68-1.46,13.68-1.98,20.54-1.98c289.16-0.09,578.32-0.09,867.47-0.01C1414.35,846.39,1421.5,847.41,1428.65,847.96z"/>
		<path class="st60" d="M1385.17,1003.96c-2.86,4.05-5.71,8.09-8.57,12.14c-3.5,2.22-7.25,3.87-11.29,4.85
			c-3.16,0.58-6.34,0.37-9.51,0.37c-257.13,0.01-514.25,0.01-771.38,0c-17.69,0-22.74-3.49-29.14-19.88
			c-0.22-2.32-0.38-4.62,1.6-6.38c4.36,0.51,5.19,4.19,6.31,7.36c2.93,8.29,8.94,11.55,17.38,11.26c2.88-0.1,5.77,0,8.66,0
			c254.41,0,508.82,0,763.23,0c3.18,0,6.35-0.02,9.53-0.03c7.04-0.03,11.99-2.76,14.74-9.71c1.65-4.18,2.52-9,6.5-12
			c2.12-1.02,2.84,0.52,3.6,1.98c0.71,2,0.73,4.06,0.46,6.14C1387.06,1001.61,1386.23,1002.85,1385.17,1003.96z"/>
		<path class="st61" d="M556.78,1000.54c4.94,15.04,10.3,19.05,25.67,19.05c261.82,0,523.65-0.01,785.47-0.02
			c1.78-1.07,3.55-1.35,5.3,0.04c-4.83,2.91-10.17,3.45-15.66,3.45c-258.11-0.01-516.22-0.01-774.33-0.02
			c-17.01,0-23.62-4.26-29.27-20.04c-2.49-6.96-6.07-13.78-5.83-21.54c5.26-0.3,5.33,4.15,6.69,7.37
			C556.38,992.57,554.79,996.86,556.78,1000.54z"/>
		<path class="st61" d="M513.51,879.2c-0.61-5.05-1.6-10.08-1.73-15.14c-0.24-8.98,2.7-11.81,12.04-12.59
			c3.01-1.55,6.25-0.78,9.37-0.79c294.21-0.04,588.42-0.04,882.64,0c3.12,0,6.36-0.78,9.36,0.8l0-0.01c0.45,1.24,0.11,2.2-1.01,2.88
			c-5.28,2.21-10.83,1.27-16.26,1.27c-290.41,0.05-580.82,0.04-871.23,0.09c-5.42,0-11-1.03-16.17,1.58
			c-5.24,3.16-4.98,7.73-3.45,12.79c6.39,21.1,12.98,42.15,19.98,63.06c1.65,4.92,2.81,9.91,3.74,14.98
			c0.47,2.59,0.82,5.13-1.27,7.26c-6.36-18.97-12.79-37.92-19.06-56.92C518.3,891.98,517.08,885.17,513.51,879.2z"/>
		<path class="st62" d="M539.51,955.39c-0.38-6.94-2.09-13.59-4.17-20.18c-6.94-21.96-13.83-43.93-20.85-65.86
			c-1.54-4.8-1.49-9.04,2.44-12.67c1.2-1.01,2.44-0.96,3.7-0.12c-2.99,20.08,6.65,37.16,13.14,54.98c1.52,2.78,2.43,5.74,2.71,8.89
			c1.25,8.57,3.24,16.9,7.87,24.38c2.84,6.15,5.14,12.48,6.07,19.23c0.79,7.47,3.53,14.42,5.71,21.53c0.97,3.16,3.13,6.33,0.67,9.76
			c0,1.74-0.01,3.47-0.01,5.21c-5.03-5.38-1.89-14.48-8.67-19.06C545.19,972.8,544.11,963.51,539.51,955.39z"/>
		<path class="st30" d="M1385.17,1003.96c0.05-1.14,0.11-2.27,0.16-3.41c6.39-10.88,8.48-23.44,13.58-34.82
			c1.14-2.55,1.47-5.56,4.24-7.14c1.69-0.31,2.17,1.06,2.91,2.07c-4.62,12.47-9.23,24.93-13.85,37.4c-0.97,2.63-1.49,5.64-5.14,5.95
			C1386.44,1004,1385.81,1003.98,1385.17,1003.96z"/>
		<path class="st36" d="M1373.22,1019.62c-1.77-0.01-3.53-0.03-5.3-0.04c2.29-2.67,5.3-3.53,8.68-3.48
			C1376.06,1017.84,1374.85,1018.93,1373.22,1019.62z"/>
		<path class="st30" d="M1406.06,960.66c-0.57-0.58-1.14-1.16-1.7-1.75c-1.41-1.33-1.53-2.99-1.2-4.76c1-3.2,2.5-6.21,3.51-9.41
			c2.12-4.56,3.74-9.29,4.67-14.24c1.36-5.23,3.72-10.09,5.62-15.11c0.82-2.18,1.11-5.26,4.7-5c0.6,0.01,1.19,0.02,1.79,0.03
			c-3.65,15.68-10.52,30.25-15.76,45.38C1407.14,957.42,1406.61,959.04,1406.06,960.66z"/>
		<path class="st63" d="M1425.18,851.48c-300.45,0-600.91-0.01-901.36-0.01c2.59-2.76,5.97-1.66,9.01-1.66
			c294.45-0.05,588.9-0.05,883.35,0C1419.21,849.82,1422.6,848.69,1425.18,851.48z"/>
		<path class="st63" d="M1421.67,910.4c-2.88,6.94-5.75,13.88-8.63,20.81c-1.16,1.02-2.41,1.02-3.73,0.33
			c-0.6-0.69-0.98-1.49-1.15-2.39c0.52-8.01,4.23-14.98,7.29-22.15c3.01-3.05,4.34-6.77,4.3-11.03c1.62-7.53,4.47-14.63,7.64-21.61
			c5.96-9.39,5.87-10.24-2.21-21.14c0-0.58,0-1.16,0.01-1.74c10.09,2.15,13.28,8.14,9.6,20.21c-2.9,9.51-6.86,18.7-10.27,28.06
			C1423.25,903.2,1421.55,906.57,1421.67,910.4z"/>
		<path class="st64" d="M1416.57,906.99c-2.37,7.49-4.74,14.98-7.1,22.47c-1.38,3.09-2.52,6.26-3.06,9.62
			c-0.28,2.41-0.94,4.7-1.91,6.92c-1.36,3.02-2.4,6.18-3.98,9.11c-3.91,9.45-7.28,19.09-10.73,28.7c-1.03,2.88-1.84,6.02-4.51,8.04
			c-3.91,3.81-4.53,9.23-6.55,13.91c-3,6.97-7.82,10.39-15.27,10.39c-2.6,0-5.2,0.01-7.8,0.01c-256.76,0-513.51-0.08-770.27,0.22
			c-13.68,0.02-23.02-3.32-26.17-17.59c-0.28-1.27-1.6-2.3-2.44-3.45c-2.52-10.5-7.61-20.29-8.66-31.21
			c5.83-1.84,5.94,3.35,7.16,6.34c3.29,8.01,4.9,16.58,7.78,24.75c4.69,13.35,9.27,16.73,23.63,16.73
			c91.83,0.04,183.66,0.02,275.49,0.02c162.58,0,325.16,0,487.74,0c18.93,0,22.23-2,28.73-19.66
			c14.33-38.98,28.87-77.88,42.91-116.97c3.69-10.27,1.31-13.73-9.69-14.39c-3.46-0.21-6.93-0.08-10.39-0.08
			c-275.49,0-550.98-0.01-826.46,0.03c-5.46,0-10.98-0.65-16.34,0.94c-7.96,1.38-16.02,0.4-24.03,0.79
			c-8.62,0.41-10.68,2.92-9.07,11.4c1.93,10.18,6.56,19.57,8.91,29.65c0.26,3.06,0.57,6.13-2.01,8.51
			c-3.22-1.23-3.41-4.36-4.26-6.98c-3.48-10.82-6.8-21.69-10.27-32.51c-1.85-5.78-1.67-11.17,2.46-15.99
			c0.82-0.75,1.77-1.24,2.85-1.5c11.44-0.53,22.89-0.1,34.35-0.24c287.95,0.04,575.9-0.07,863.84,0.05c3.47,0.11,6.38,1.3,8.34,4.34
			c1.5,3.47,1.18,7.04,0.56,10.62c-0.11,1.54-0.69,2.89-1.67,4.07c-2.33,7.49-4.67,14.98-7,22.48
			C1419.47,899.77,1419.27,903.98,1416.57,906.99z"/>
		<path class="st35" d="M1404.4,953.76c-0.01,1.72-0.03,3.44-0.04,5.15c-5.25,10.13-8.17,21.13-12.11,31.75
			c-1.41,3.8-1.76,8.6-6.91,9.89c-0.01-1.73-0.01-3.46-0.02-5.19c1.99-3.49,1.42-7.92,4.11-11.15c2.29-4.21,3.79-8.7,4.6-13.42
			c0.29-2.84,2.11-5.16,2.65-7.91c2.55-2.91,2.65-7.52,6.59-9.46C1403.65,953.54,1404.03,953.65,1404.4,953.76z"/>
		<path class="st39" d="M1397.48,962.43c-0.6,2.87-1.2,5.75-1.8,8.62c-2.23,4.44-3.04,9.41-5.17,13.89
			c-2.15,3.27-1.72,7.82-5.2,10.42c-0.01-1.17-0.02-2.35-0.03-3.52c3.63-13.06,8.05-25.84,13.88-38.1
			C1401.13,957.13,1400.59,960.03,1397.48,962.43z"/>
		<path class="st65" d="M522.12,856.69c-0.57,0.01-1.14,0.01-1.71,0.01c-1.16,0-2.33-0.01-3.49-0.01c3.72-4.45,8.86-3.46,13.68-3.46
			c238.44-0.03,476.88-0.02,715.32-0.02c59.75,0,119.51,0.01,179.26,0.02c10.33,5.72,11.69,13.84,3.51,20.82
			c0-1.16-0.01-2.32-0.01-3.48c1.36-3.47,1.38-6.95-0.01-10.42c-1.74-1.16-3.48-2.32-5.21-3.48c-3.28-1.7-6.81-0.83-10.21-0.83
			c-285.15-0.05-570.3-0.04-855.44-0.04C545.91,856.33,533.97,854.67,522.12,856.69z"/>
		<path class="st45" d="M556.78,860.14c3.13-1.95,6.61-1.72,10.08-1.72c280.97,0.01,561.95,0.01,842.92,0.05
			c2.84,0,5.74,0.34,8.52,0.93c6.51,1.39,9.42,5.03,7,11.86c-4.79,13.55-9.27,27.22-14.24,40.7
			c-10.75,29.16-21.71,58.24-32.62,87.34c-4.06,10.83-9.93,15.05-21.46,15.05c-257.87,0.03-515.75,0.03-773.62,0
			c-11.88,0-17.85-4.42-21.67-15.89c-3.37-10.1-6.56-20.25-9.73-30.41c-0.65-2.06-1.3-3.85-3.83-3.94
			c-0.27-6.75-4.08-12.52-5.26-19.02c-3.49-7.88-3.98-16.83-8.61-24.3c-0.6-2.87-1.19-5.74-1.79-8.61c0.01-2.9,0.03-5.8,0.04-8.7
			c5.97,0.13,6.29,5.25,7.53,9.08c8.63,26.62,16.98,53.32,25.68,79.92c5.1,15.58,5.84,16.02,22.05,16.02
			c255.05,0.01,510.1,0.01,765.16,0c15.44,0,16.96-1.38,22.44-16.06c13.42-35.94,26.26-72.1,39.83-107.99
			c6.09-16.1,7.46-20.27-13.96-20.25c-275.27,0.21-550.54,0.14-825.81,0.13c-4.04,0-8.1,0.2-12.13-0.16
			C560.56,863.92,557.28,864.18,556.78,860.14z"/>
		<path class="st64" d="M534.27,920.8c7.34,6.52,7.83,15.46,8.61,24.3C536.52,938.24,536.08,929.27,534.27,920.8z"/>
		<path class="st35" d="M1409.59,931.22c1.15,0,2.3,0,3.45,0c-0.52,5.08-1.55,9.97-5.18,13.88c-0.28-0.3-0.57-0.61-0.85-0.91
			c-1.35-3.39,0.45-6.51,0.83-9.76C1408.06,933.17,1408.58,932.05,1409.59,931.22z"/>
		<path class="st35" d="M1407.86,945.1c0.07,3.38-0.77,6.39-3.45,8.67c0,0-0.06-0.04-0.06-0.04c-1.4-1.4-1.61-3.07-1.13-4.9
			c1.05-1.84,1.58-4.33,4.61-3.76L1407.86,945.1z"/>
		<path class="st65" d="M1416.57,906.99c-0.09-4.36,1.16-8.07,5.1-10.47C1421.52,900.76,1422.28,905.45,1416.57,906.99z"/>
		<path class="st40" d="M1409.59,931.22c-0.01,1.14-0.03,2.28-0.04,3.42c-1.46,1.54-0.85,6.05-5.11,3.58
			c0.43-3.64,1.68-6.8,5.04-8.76C1409.51,930.04,1409.55,930.63,1409.59,931.22z"/>
		<path class="st44" d="M556.78,860.14c3.15,3.15,7.13,1.68,10.71,1.68c279.84,0.08,559.68,0.07,839.53,0.07
			c14.76,0,17.65,3.68,12.58,17.64c-14.43,39.76-29.18,79.41-43.78,119.11c-3.15,8.57-8.71,12.44-18.34,12.44
			c-258.18-0.18-516.36-0.14-774.55-0.15c-11.52,0-14.43-2.02-18.07-13.28c-9.2-28.48-18.19-57.03-27.44-85.49
			c-1.01-3.1-0.98-7.1-4.9-8.68c-3.16-9.78-6.63-19.48-9.41-29.36c-2.9-10.32-0.02-13.9,10.44-13.97
			C541.3,860.09,549.04,860.14,556.78,860.14z"/>
		<path class="st39" d="M556.78,854.94c285.02,0,570.05-0.01,855.07,0.08c3.86,0,8.12-1.55,11.59,1.65
			c-288.89-0.02-577.77-0.04-866.66-0.06c-0.57-0.37-0.75-0.74-0.57-1.12C556.4,855.12,556.59,854.94,556.78,854.94z"/>
		<path class="st40" d="M556.78,854.94c0,0.56,0,1.12,0,1.67c-11.55,0.02-23.11,0.05-34.66,0.07
			C533.5,852.73,545.25,856.02,556.78,854.94z"/>
		<path class="st42" d="M1404.4,948.56c-0.02,1.72-0.04,3.44-0.06,5.17c-3.72,1.78-1.73,8.05-6.86,8.71
			c1.52-2.71,1.97-5.63,1.69-8.69c1.21-2.87,2.43-5.75,3.64-8.62C1405.57,945.22,1405.57,946.62,1404.4,948.56z"/>
		<path class="st63" d="M1404.4,948.56c-0.06-1.37-0.29-2.66-1.6-3.44c0.54-2.3,1.08-4.6,1.63-6.9c2.66,0.17,3.35-2.47,5.12-3.58
			c-0.58,3.47-1.15,6.95-1.73,10.42C1406.68,946.23,1405.54,947.39,1404.4,948.56z"/>
		<path class="st39" d="M1428.66,860.15c2.61,3.47,2.61,6.94,0.01,10.42C1428.66,867.09,1428.66,863.62,1428.66,860.15z"/>
		<path class="st43" d="M1390.51,984.94c0.5-5.09,1.53-9.97,5.17-13.89C1395.22,976.15,1394.2,981.04,1390.51,984.94z"/>
		<path class="st46" d="M973.53,865.35c144.14,0,288.28,0,432.42,0c13.06,0,14.66,1.84,10.25,13.93
			c-10.26,28.11-21.12,56.01-31.24,84.18c-4.17,11.6-8.3,23.16-13.07,34.55c-2.73,6.52-6.43,8.99-12.64,9.43
			c-2.01,0.14-4.04,0.03-6.06,0.03c-255.35,0-510.7,0-766.04,0c-14.61,0-17.27-2.22-21.53-15.85
			c-11.17-35.71-22.57-71.34-33.88-107.01c-0.61-1.92-1.39-3.8-1.92-5.74c-2.9-10.72-0.75-13.52,10.43-13.52
			C684.67,865.35,829.1,865.35,973.53,865.35z"/>
		<path class="st47" d="M972.76,870.55c142.12,0,284.25,0,426.37,0c13.07,0,14.13,1.19,9.82,13.13
			c-13.1,36.27-26.36,72.49-39.67,108.69c-2.37,6.46-6.5,10.03-14.27,10.03c-256.51-0.16-513.03-0.15-769.55-0.02
			c-7.64,0-11.63-3.06-13.84-10.1c-11.9-37.89-23.89-75.76-36.11-113.56c-1.94-6-0.12-8.15,5.67-8.16c2.31-0.01,4.62-0.01,6.93-0.01
			C689.67,870.55,831.22,870.55,972.76,870.55z"/>
	</g>
	<g>
		<linearGradient id="SVGID_4_" gradientUnits="userSpaceOnUse" x1="960" y1="1092.7213" x2="960" y2="710.4021">
			<stop  offset="0.1216" style="stop-color:#FAA42E"/>
			<stop  offset="0.4123" style="stop-color:#EA2C33"/>
			<stop  offset="0.632" style="stop-color:#9E237A"/>
			<stop  offset="1" style="stop-color:#54449B"/>
		</linearGradient>
		<polygon class="st12" points="1363.85,1006.03 548.26,1006.03 494.45,837.9 1425.55,837.9 		"/>
	</g>
	<rect x="771.46" y="837.9" class="st0" width="9.2" height="168.13"/>
	<g>
		<path class="st0" d="M710.17,896.28c-0.69-6.79-3.29-12.79-8.34-17.6c-5.31-5.06-11.8-7.3-18.91-7.68
			c-12.12-0.66-40.91-1.08-51.02,0.57c-11.55,1.88-19.12,8.62-22.32,20.03c-2.46,8.78-1.97,49.23-0.54,57.9
			c1.96,11.86,8.97,19.47,20.72,22.5c8.14,2.1,48.12,1.83,57.1,0.38c11.87-1.92,19.51-8.89,22.6-20.63
			C711.82,942.73,711,904.4,710.17,896.28z M700.68,947.82c-1.38,9.01-7.36,14.59-16.42,15.58c-8.32,0.91-45.48,1.41-53.2-0.74
			c-7.38-2.06-11.6-7.14-12.83-14.57c-1.17-7.1-1.46-42.56-0.02-52.05c1.36-8.93,7.34-14.51,16.34-15.51
			c9.14-1.02,42.02-1.14,50.78,0.21c8.99,1.38,14.56,7.37,15.55,16.45C701.81,905.63,702.07,938.72,700.68,947.82z M659.44,895.52
			c-14.61-0.01-26.45,11.83-26.46,26.43c-0.01,14.61,11.83,26.45,26.43,26.46c14.61,0.01,26.45-11.83,26.46-26.43
			C685.88,907.38,674.05,895.53,659.44,895.52z M659.26,939.06c-9.45-0.08-17.03-7.81-16.95-17.26c0.08-9.45,7.81-17.04,17.26-16.95
			c9.45,0.08,17.04,7.81,16.95,17.26C676.43,931.55,668.71,939.14,659.26,939.06z M693.11,894.52c-0.01,3.42-2.79,6.19-6.21,6.18
			c-3.42-0.01-6.18-2.79-6.18-6.21c0.01-3.42,2.79-6.19,6.21-6.18C690.36,888.32,693.12,891.1,693.11,894.52z"/>
		<path class="st0" d="M710.17,896.28c-0.69-6.79-3.29-12.79-8.34-17.6c-5.31-5.06-11.8-7.3-18.91-7.68
			c-12.12-0.66-40.91-1.08-51.02,0.57c-11.55,1.88-19.12,8.62-22.32,20.03c-2.46,8.78-1.97,49.23-0.54,57.9
			c1.96,11.86,8.97,19.47,20.72,22.5c8.14,2.1,48.12,1.83,57.1,0.38c11.87-1.92,19.51-8.89,22.6-20.63
			C711.82,942.73,711,904.4,710.17,896.28z M700.68,947.82c-1.38,9.01-7.36,14.59-16.42,15.58c-8.32,0.91-45.48,1.41-53.2-0.74
			c-7.38-2.06-11.6-7.14-12.83-14.57c-1.17-7.1-1.46-42.56-0.02-52.05c1.36-8.93,7.34-14.51,16.34-15.51
			c9.14-1.02,42.02-1.14,50.78,0.21c8.99,1.38,14.56,7.37,15.55,16.45C701.81,905.63,702.07,938.72,700.68,947.82z M659.44,895.52
			c-14.61-0.01-26.45,11.83-26.46,26.43c-0.01,14.61,11.83,26.45,26.43,26.46c14.61,0.01,26.45-11.83,26.46-26.43
			C685.88,907.38,674.05,895.53,659.44,895.52z M659.26,939.06c-9.45-0.08-17.03-7.81-16.95-17.26c0.08-9.45,7.81-17.04,17.26-16.95
			c9.45,0.08,17.04,7.81,16.95,17.26C676.43,931.55,668.71,939.14,659.26,939.06z M693.11,894.52c-0.01,3.42-2.79,6.19-6.21,6.18
			c-3.42-0.01-6.18-2.79-6.18-6.21c0.01-3.42,2.79-6.19,6.21-6.18C690.36,888.32,693.12,891.1,693.11,894.52z"/>
	</g>
</g>
</svg>
