<?xml version="1.0" encoding="utf-8"?>
<!-- Generator: Adobe Illustrator 24.1.2, SVG Export Plug-In . SVG Version: 6.00 Build 0)  -->
<svg version="1.1" id="Layer_1" xmlns="http://www.w3.org/2000/svg" xmlns:xlink="http://www.w3.org/1999/xlink" x="0px" y="0px"
	 viewBox="0 0 1920 1920" style="enable-background:new 0 0 1920 1920;" xml:space="preserve">
<style type="text/css">
	.st0{fill-rule:evenodd;clip-rule:evenodd;fill:#046937;}
	.st1{fill:#046937;}
</style>
<g>
	<polygon class="st1" points="351.92,703.15 351.92,1304.42 713.38,1003.73 	"/>
	<path class="st1" d="M1472.08,516.07H447.9c-47.25,0-86.78,34.59-94.58,79.69l477.82,397.37l79.64,66.23
		c27.07,22.53,71.32,22.53,98.41,0l83.69-69.59l473.77-394C1558.86,550.66,1519.34,516.07,1472.08,516.07z"/>
	<polygon class="st1" points="1568.08,1304.42 1568.08,703.15 1206.61,1003.73 	"/>
	<path class="st1" d="M1073.88,1114.12l-64.7,53.8c-27.08,22.51-71.36,22.51-98.39,0l-83.43-69.4L778.61,1058l-390.58,324.8
		c16.45,13.18,37.27,21.14,59.87,21.14h1024.18c22.6,0,43.41-7.96,59.85-21.14l-390.6-324.8L1073.88,1114.12z"/>
</g>
</svg>
