<?xml version="1.0" encoding="utf-8"?>
<!-- Generator: Adobe Illustrator 24.1.2, SVG Export Plug-In . SVG Version: 6.00 Build 0)  -->
<svg version="1.1" id="Layer_1" xmlns="http://www.w3.org/2000/svg" xmlns:xlink="http://www.w3.org/1999/xlink" x="0px" y="0px"
	 viewBox="0 0 1920 1920" style="enable-background:new 0 0 1920 1920;" xml:space="preserve">
<style type="text/css">
	.st0{fill-rule:evenodd;clip-rule:evenodd;fill:#046937;}
	.st1{fill:#046937;}
</style>
<g>
	<path class="st1" d="M823.14,799.95c10.79-10.82,26.19-29.51,34.23-49.19c27.69-67.98,15.06-81.15,15.06-81.15
		c-18.2-39.26-57.22-91.73-108.71-143.28c-51.55-51.58-104.06-90.46-143.29-108.73c0,0-63.8-19.63-111.65,28.42
		c-0.28-0.13,0,0-0.48,0.49c-0.08,0.08-0.17,0.08-0.24,0.1l0.07,0.06c-6.58,6.64-12.67,13.27-18.38,19.86L823.14,799.95z"/>
	<path class="st1" d="M1502.41,1299.59c-18.18-39.23-57.17-91.71-108.74-143.29c-51.49-51.55-104.06-90.52-143.28-108.71
		c0,0-13.15-12.67-81.15,15.1c-19.66,7.99-38.38,23.44-49.18,34.16l333.44,333.42c6.58-5.7,13.19-11.81,19.87-18.38h0.03
		c0,0,0.01-0.08,0.1-0.19c0.49-0.48,0.62-0.27,0.49-0.48C1522.02,1363.3,1502.41,1299.59,1502.41,1299.59z"/>
	<path class="st1" d="M1084.44,1144.73c-10.55,14.17-27.22,20.01-47.15,20.01c-60.72,0-151.47-54.35-189.57-92.37
		c-50.65-50.68-129.77-194.09-72.44-236.79c3.23-2,6.5-4.06,9.81-6.23L460.6,504.86c-48.94,74.18-46.94,133.43-46.94,133.43
		s-8.47,269.38,295.16,572.96c287.53,287.53,544.34,295.12,570.7,295.12c1.46,0,2.2,0,2.2,0s0.34,0,1,0
		c8.04,0,63.84-1.7,132.43-46.96l-324.49-324.48C1088.48,1138.22,1086.39,1141.5,1084.44,1144.73z"/>
</g>
</svg>
