<?xml version="1.0" encoding="utf-8"?>
<!-- Generator: Adobe Illustrator 24.1.2, SVG Export Plug-In . SVG Version: 6.00 Build 0)  -->
<svg version="1.1" id="Layer_1" xmlns="http://www.w3.org/2000/svg" xmlns:xlink="http://www.w3.org/1999/xlink" x="0px" y="0px"
	 viewBox="0 0 1920 1920" style="enable-background:new 0 0 1920 1920;" xml:space="preserve">
<style type="text/css">
	.st0{fill-rule:evenodd;clip-rule:evenodd;fill:#046937;}
	.st1{fill:#046937;}
	.st2{fill:#FFFFFF;}
	.st3{fill:#079247;}
</style>
<g>
	<circle class="st2" cx="960" cy="960" r="438.28"/>
	<g>
		<path class="st1" d="M960.08,1294.12c-40.06-0.41-79.83-3.47-119.2-11.02c-27.63-5.3-54.68-12.61-80.31-24.46
			c-14.43-6.67-28.03-14.68-39.7-25.63c-9.86-9.24-17.44-19.95-20.94-33.21c-1.62-6.12-1.99-12.36-1.85-18.65
			c1.31-57.67,19.22-109.57,54.24-155.44c20.73-27.16,46.02-49.24,75.43-66.63c1.45-0.86,2.31-0.7,3.58,0.32
			c30.1,24.07,64.22,38.99,102.49,43.58c57.19,6.87,108.67-7.54,154.15-42.99c1.88-1.47,3.09-1.73,5.22-0.42
			c62.41,38.11,103.03,92.42,121.26,163.29c5.33,20.71,7.67,41.86,7.49,63.25c-0.13,15.35-6.14,28.46-16.04,39.92
			c-10.46,12.11-23.48,20.89-37.53,28.23c-21.72,11.36-44.87,18.76-68.61,24.43c-31.42,7.51-63.33,11.78-95.55,13.64
			C989.52,1293.17,974.79,1293.53,960.08,1294.12z"/>
		<path class="st1" d="M960,972.1c-95.04-0.01-172.65-76.57-173.03-172.08c-0.39-96.58,77.02-174.12,173.18-174.13
			c95.9-0.01,173.35,77.71,172.92,174.17C1132.64,895.89,1054.74,972.15,960,972.1z"/>
	</g>
	<circle class="st3" cx="1279.01" cy="1263.31" r="119.75"/>
	<path class="st3" d="M960,1398.28c-242.05,0-438.28-196.22-438.28-438.28S717.95,521.72,960,521.72S1398.28,717.95,1398.28,960
		c0,67.04-15.08,130.56-41.99,187.37c5.59,3.74,10.89,7.87,15.87,12.35c3.42-7.06,6.68-14.22,9.75-21.48
		c23.88-56.47,35.99-116.44,35.99-178.24s-12.11-121.78-35.99-178.24c-23.06-54.53-56.08-103.5-98.13-145.55
		c-42.05-42.05-91.02-75.06-145.55-98.13c-56.47-23.88-116.44-35.99-178.24-35.99s-121.78,12.11-178.24,35.99
		c-54.53,23.06-103.5,56.08-145.55,98.13c-42.05,42.05-75.06,91.02-98.13,145.55C514.2,838.22,502.09,898.19,502.09,960
		s12.11,121.78,35.99,178.24c23.06,54.53,56.08,103.5,98.13,145.55c42.05,42.05,91.02,75.06,145.55,98.13
		c56.47,23.88,116.44,35.99,178.24,35.99s121.78-12.11,178.24-35.99c14.4-6.09,28.4-12.9,42-20.36c-4.73-4.75-9.12-9.84-13.13-15.23
		C1105.44,1379.46,1034.92,1398.28,960,1398.28z"/>
	<path class="st2" d="M1356.29,1147.37c-22.13-14.8-48.71-23.45-77.27-23.45c-76.86,0-139.38,62.53-139.38,139.38
		c0,31.08,10.23,59.81,27.49,83.01c4.01,5.39,8.4,10.48,13.13,15.23c5.96-3.27,11.84-6.66,17.64-10.18
		c-4.93-4.54-9.46-9.5-13.57-14.81c-15.69-20.25-25.05-45.66-25.05-73.26c0-66.14,53.62-119.75,119.75-119.75
		c25.44,0,49.01,7.96,68.41,21.48c5.51,3.84,10.68,8.13,15.46,12.82c3.23-5.97,6.31-12.01,9.28-18.13
		C1367.18,1155.24,1361.88,1151.11,1356.29,1147.37z"/>
</g>
</svg>
