<?xml version="1.0" encoding="utf-8"?>
<!-- Generator: Adobe Illustrator 24.1.2, SVG Export Plug-In . SVG Version: 6.00 Build 0)  -->
<svg version="1.1" id="Layer_1" xmlns="http://www.w3.org/2000/svg" xmlns:xlink="http://www.w3.org/1999/xlink" x="0px" y="0px"
	 viewBox="0 0 1920 1920" style="enable-background:new 0 0 1920 1920;" xml:space="preserve">
<style type="text/css">
	.st0{fill:#FFFFFF;}
	.st1{fill:#046937;}
	.st2{fill:#079247;}
	.st3{filter:url(#Adobe_OpacityMaskFilter);}
	.st4{filter:url(#Adobe_OpacityMaskFilter_1_);}
	.st5{mask:url(#SVGID_1_);fill:url(#SVGID_2_);}
	.st6{opacity:0.9;fill:url(#SVGID_3_);}
	.st7{fill:#939598;}
	.st8{fill:#3DB54A;}
	.st9{opacity:0.35;}
	.st10{fill:#E6E6E5;}
	.st11{opacity:0.6;fill:#079247;}
	.st12{fill:url(#SVGID_4_);}
	.st13{fill:url(#SVGID_5_);}
	.st14{fill:url(#SVGID_6_);}
	.st15{fill-rule:evenodd;clip-rule:evenodd;fill:#FFFFFF;}
	.st16{opacity:0.6;}
	.st17{fill:#F3F3F3;}
	.st18{fill:#F7F8F8;}
	.st19{fill:#E4E3E3;}
	.st20{fill:#E8E6E5;}
	.st21{fill:#D4D3D3;}
	.st22{fill:#BFBDBD;}
	.st23{fill:#D3D2D2;}
	.st24{fill:#CFCFCE;}
	.st25{fill:#C9C7C7;}
	.st26{fill:#E0E1E0;}
	.st27{fill:#E2E1E1;}
	.st28{fill:#B6B5B5;}
	.st29{fill:#B8B7B7;}
	.st30{fill:#C7C5C5;}
	.st31{fill:#949293;}
	.st32{fill:#B2B0B0;}
	.st33{fill:#ACAAAA;}
	.st34{fill:#A9A8A8;}
	.st35{fill:#B3B1B2;}
	.st36{fill:#AAA9A9;}
	.st37{fill:#868485;}
	.st38{fill:#8F8C8D;}
	.st39{fill:#939190;}
	.st40{fill:#949192;}
	.st41{fill:#908F8E;}
	.st42{fill:#A8A5A6;}
	.st43{fill:#A5A4A4;}
	.st44{fill:#6A6868;}
	.st45{fill:#706F6F;}
	.st46{fill:#5E5C5C;}
	.st47{fill:#5B5859;}
	.st48{fill:url(#SVGID_7_);}
	.st49{fill:url(#SVGID_8_);}
	.st50{fill:url(#SVGID_9_);}
	.st51{fill:url(#SVGID_10_);}
	.st52{fill:#F4F4F4;}
	.st53{fill:#E4E4E4;}
	.st54{fill:#D4D3D2;}
	.st55{fill:#C3C2C2;}
	.st56{fill:#D7D6D5;}
	.st57{fill:#D9D8D8;}
	.st58{fill:#DBDADA;}
	.st59{fill:#C2C0C0;}
	.st60{fill:#929090;}
	.st61{fill:#ACAAAB;}
	.st62{fill:#999798;}
	.st63{fill:#ADACAC;}
	.st64{fill:#878484;}
	.st65{fill:#9C9C9C;}
	.st66{fill:url(#SVGID_11_);}
	.st67{fill:url(#SVGID_12_);}
	.st68{fill:url(#SVGID_13_);}
	.st69{fill:url(#SVGID_14_);}
	.st70{fill:#EBEAEA;}
	.st71{fill:#DFDFDE;}
	.st72{fill:#ECECEC;}
	.st73{fill:#E1E0E0;}
	.st74{fill:#D0D0D0;}
	.st75{fill:#BBBABA;}
	.st76{fill:#CCCBCC;}
	.st77{fill:#BAB9B9;}
	.st78{fill:#CFCDCE;}
	.st79{fill:#CECCCD;}
	.st80{fill:#CBCACA;}
	.st81{fill:#B4B2B3;}
	.st82{fill:#C8C5C6;}
	.st83{fill:#B2B1B1;}
	.st84{fill:#A09E9F;}
	.st85{fill:#999698;}
	.st86{fill:#B5B3B4;}
	.st87{fill:#B1B0B1;}
	.st88{fill:#969595;}
	.st89{fill:#888686;}
	.st90{fill:#727070;}
	.st91{fill:#888586;}
	.st92{fill:#868383;}
	.st93{fill:url(#SVGID_15_);}
	.st94{fill:#C1282D;}
	.st95{fill:#37B44A;}
	.st96{fill:#ED1C25;}
	.st97{fill:#3BA39C;}
	.st98{fill:#53C3BF;}
	.st99{fill:#41A299;}
	.st100{fill:#476730;}
	.st101{fill:#4E7838;}
	.st102{fill:#659D41;}
	.st103{fill:#587E39;}
	.st104{fill:#5E913F;}
	.st105{fill:#79BA43;}
	.st106{fill:#2FBBA9;}
	.st107{fill:#4A2622;}
	.st108{fill:#250E0D;}
	.st109{fill:#BC8C32;}
	.st110{fill:#7BB242;}
	.st111{fill:#DDE3A9;}
	.st112{fill:#DEE5B4;}
	.st113{fill:#95B851;}
	.st114{fill:#A6BD77;}
	.st115{fill:#CCD4C0;}
	.st116{fill:#B1BF90;}
	.st117{fill:#9EBB5F;}
	.st118{fill:#CDE07B;}
	.st119{fill:#9DCC41;}
	.st120{fill:#C4DB6E;}
	.st121{fill:#A3CE47;}
	.st122{fill:#99C63D;}
	.st123{fill:#B6D660;}
	.st124{fill:#99CA3C;}
	.st125{fill:#8CBF3F;}
	.st126{fill:#8DBE3F;}
	.st127{fill:#9DCB3F;}
	.st128{fill:#A9D04F;}
	.st129{fill:#AED259;}
	.st130{fill:#8DC13F;}
	.st131{fill:#99CA3E;}
	.st132{fill:#9ECC3F;}
	.st133{fill:#9ECC40;}
	.st134{fill:#A8D04A;}
	.st135{fill:#B0D355;}
	.st136{fill:#ADD253;}
	.st137{fill:#C2DB6C;}
	.st138{fill:#A1CD43;}
	.st139{fill:#93C13E;}
	.st140{fill:#9FCC45;}
	.st141{fill:#B2D45C;}
	.st142{fill:#95C63D;}
	.st143{fill:#94C43E;}
	.st144{fill:#8DBF3F;}
	.st145{fill:#A0CD46;}
	.st146{fill:#D9E585;}
	.st147{fill:#BD6E29;}
	.st148{fill:#36B170;}
	.st149{fill:#249157;}
	.st150{fill:#154725;}
	.st151{fill:#299045;}
	.st152{fill:#3AA649;}
	.st153{fill:#187E3F;}
	.st154{fill:#588E3F;}
	.st155{fill:#FCCF1A;}
	.st156{fill:#598D3F;}
	.st157{fill:#599441;}
	.st158{fill:#ECB821;}
	.st159{fill:#ECB925;}
	.st160{fill:#6B9F4F;}
	.st161{fill:#81B369;}
	.st162{fill:#F4C117;}
	.st163{fill:#E3AC24;}
	.st164{fill:#E5AD23;}
	.st165{fill:#D49929;}
	.st166{fill:#D1992A;}
	.st167{fill:#839B3B;}
	.st168{fill:#2FBBAB;}
	.st169{fill:#63BEE7;}
	.st170{fill:#7CCBE7;}
	.st171{fill:url(#SVGID_16_);}
	.st172{fill:url(#SVGID_17_);}
	.st173{fill:url(#SVGID_18_);}
	.st174{fill:url(#SVGID_19_);}
	.st175{fill:url(#SVGID_20_);}
	.st176{fill:url(#SVGID_21_);}
	.st177{fill:url(#SVGID_22_);}
	.st178{fill:url(#SVGID_23_);}
	.st179{fill:url(#SVGID_24_);}
	.st180{fill:url(#SVGID_25_);}
	.st181{fill:url(#SVGID_26_);}
	.st182{fill:url(#SVGID_27_);}
	.st183{fill:url(#SVGID_28_);}
	.st184{fill:url(#SVGID_29_);}
	.st185{fill:url(#SVGID_30_);}
	.st186{fill:url(#SVGID_31_);}
	.st187{fill:url(#SVGID_32_);}
</style>
<g>
	<g>
		<path class="st0" d="M507.03,1326.08c-102.99,0-186.78-83.79-186.78-186.78V780.7c0-102.99,83.79-186.78,186.78-186.78h905.93
			c102.99,0,186.78,83.79,186.78,186.78v358.6c0,102.99-83.79,186.78-186.78,186.78H507.03z"/>
		<path class="st8" d="M1412.97,611.46c93.47,0,169.24,75.77,169.24,169.24v358.59c0,93.47-75.77,169.24-169.24,169.24H507.03
			c-93.47,0-169.24-75.77-169.24-169.24V780.7c0-93.47,75.77-169.24,169.24-169.24H1412.97 M1412.97,576.38H507.03
			c-112.66,0-204.32,91.66-204.32,204.32v358.59c0,112.66,91.66,204.32,204.32,204.32h905.93c112.66,0,204.32-91.66,204.32-204.32
			V780.7C1617.29,668.04,1525.63,576.38,1412.97,576.38L1412.97,576.38z"/>
	</g>
	<g>
		<g>
			<path class="st169" d="M834.31,688.36v-2.54h28.31v2.54h-2.83v27.31h-4.5v-1.05c-0.35,0.03-0.71,0.05-1.08,0.05
				c-0.37,0-0.76,0-1.17,0c-5.46,0-9.62-0.94-12.48-2.83c-2.86-1.88-4.29-4.5-4.29-7.86c0-1.98,0.46-3.66,1.37-5.05
				c0.91-1.39,2.06-2.56,3.45-3.5c1.39-0.94,2.89-1.72,4.5-2.35c1.61-0.62,3.12-1.18,4.53-1.68c1.41-0.49,2.6-0.97,3.57-1.41
				c0.97-0.45,1.51-0.96,1.6-1.53v-0.1H834.31z M842.31,707.48c0.64,0.51,1.39,0.94,2.26,1.29c0.87,0.35,1.78,0.63,2.74,0.84
				c0.96,0.21,1.95,0.35,2.98,0.43c1.03,0.08,2.04,0.12,3.03,0.12c0.35,0,0.69-0.01,1.01-0.02c0.32-0.02,0.64-0.04,0.96-0.07V694.3
				c-0.74,0.35-1.51,0.68-2.33,0.98c-0.82,0.3-1.64,0.6-2.48,0.89c-1.48,0.48-2.81,0.97-4.01,1.49c-1.2,0.51-2.22,1.06-3.05,1.65
				c-0.83,0.59-1.48,1.26-1.95,2.01c-0.46,0.75-0.7,1.62-0.7,2.61C840.78,705.44,841.29,706.62,842.31,707.48z"/>
			<path class="st169" d="M892.52,688.36h-10.35v7.76c0.96-0.32,1.88-0.48,2.78-0.48c0.83,0,1.59,0.16,2.28,0.48
				c0.69,0.32,1.28,0.75,1.77,1.29c0.49,0.54,0.88,1.17,1.15,1.89c0.27,0.72,0.41,1.49,0.41,2.32c0,0.7-0.06,1.35-0.17,1.94
				c-0.11,0.59-0.25,1.17-0.41,1.75c-0.16,0.57-0.31,1.17-0.46,1.77c-0.14,0.61-0.25,1.28-0.31,2.01c-0.1,1.09-0.15,2.18-0.17,3.28
				c-0.02,1.1-0.02,2.21-0.02,3.33h-4.5c0-1.02,0.02-2.08,0.05-3.16c0.03-1.09,0.09-2.14,0.17-3.16c0.08-1.02,0.18-1.99,0.31-2.9
				c0.13-0.91,0.3-1.72,0.53-2.42c0.16-0.45,0.28-0.91,0.36-1.39c0.08-0.48,0.12-0.88,0.12-1.2c0-0.35-0.06-0.66-0.19-0.93
				c-0.13-0.27-0.45-0.41-0.96-0.41c-0.29,0-0.66,0.06-1.1,0.17c-0.45,0.11-0.99,0.33-1.63,0.65v14.52h-4.5v-0.29h-0.96
				c-1.15,0-2.43-0.08-3.83-0.24c-1.41-0.16-2.73-0.47-3.98-0.93c-1.25-0.46-2.28-1.12-3.11-1.96c-0.83-0.85-1.25-1.97-1.25-3.38
				c0-1.09,0.26-2,0.79-2.76c0.53-0.75,1.2-1.39,2.04-1.92c0.83-0.53,1.75-0.96,2.75-1.29c1.01-0.34,2-0.63,2.97-0.89
				c0.97-0.26,1.87-0.49,2.68-0.69c0.82-0.21,1.45-0.44,1.89-0.69v-1.48c0-1.09-0.37-1.97-1.1-2.66c-0.73-0.69-1.6-1.21-2.59-1.58
				c-0.99-0.37-1.99-0.62-2.99-0.77c-1.01-0.14-1.77-0.23-2.28-0.26h-0.48c-0.03,0.06-0.05,0.21-0.05,0.43c0,0.22,0,0.46,0,0.72
				c0,0.57,0.22,1.14,0.65,1.7c0.43,0.56,1.25,0.84,2.47,0.84v4.5c-1.47,0-2.69-0.22-3.67-0.67c-0.97-0.45-1.76-1.01-2.35-1.7
				c-0.59-0.69-1.01-1.46-1.27-2.32c-0.26-0.86-0.38-1.71-0.38-2.54c0-0.45,0.04-0.98,0.12-1.6s0.29-1.22,0.62-1.8
				c0.34-0.57,0.82-1.06,1.46-1.46c0.64-0.4,1.52-0.6,2.64-0.6c0.38,0,0.89,0.02,1.51,0.07c0.62,0.05,1.3,0.14,2.04,0.29
				c0.73,0.14,1.52,0.34,2.35,0.57c0.83,0.24,1.64,0.55,2.44,0.93l0.86,0.43v-3.11h-16v-2.54h30.85V688.36z M869.28,709.25
				c0.64,0.51,1.64,0.88,2.99,1.1c1.36,0.22,2.77,0.34,4.24,0.34h1.15v-5.37c-0.06,0.03-0.32,0.1-0.77,0.19
				c-0.45,0.1-0.99,0.22-1.63,0.38c-0.64,0.16-1.32,0.34-2.04,0.55c-0.72,0.21-1.39,0.44-2.01,0.69c-0.62,0.26-1.14,0.52-1.56,0.79
				c-0.42,0.27-0.62,0.55-0.62,0.84C869.04,708.93,869.12,709.09,869.28,709.25z"/>
			<path class="st169" d="M893.86,729.95c0-1.82-0.36-3.31-1.08-4.48c-0.72-1.17-1.8-2.04-3.23-2.61c0.06,0.06,0.1,0.17,0.1,0.34
				c0,0.16,0,0.3,0,0.43c0,0.86-0.17,1.68-0.5,2.44c-0.34,0.77-0.79,1.44-1.37,2.01c-0.58,0.57-1.25,1.02-2.01,1.34
				c-0.77,0.32-1.56,0.48-2.4,0.48c-0.86,0-1.68-0.17-2.44-0.5c-0.77-0.34-1.44-0.79-2.01-1.37c-0.57-0.58-1.03-1.24-1.37-2
				c-0.34-0.75-0.5-1.56-0.5-2.43c0-0.87,0.15-1.68,0.46-2.43c0.3-0.75,0.73-1.41,1.29-1.97c0.56-0.56,1.21-1.01,1.96-1.35
				c0.75-0.34,1.56-0.52,2.42-0.55v-0.05c0.03,0,0.1-0.01,0.19-0.02c0.1-0.02,0.22-0.02,0.38-0.02c0.16,0,0.35,0.01,0.58,0.02
				c0.22,0.02,0.49,0.02,0.81,0.02v-2.54h4.55v3.35c1.28,0.38,2.45,0.93,3.52,1.65c1.07,0.72,1.99,1.58,2.75,2.59
				c0.77,1.01,1.36,2.15,1.77,3.43c0.42,1.28,0.62,2.68,0.62,4.22H893.86z M883.37,725.4c0.48,0,0.89-0.18,1.25-0.53
				c0.35-0.35,0.53-0.77,0.53-1.25c0-0.51-0.18-0.94-0.53-1.29c-0.35-0.35-0.77-0.53-1.25-0.53c-0.51,0-0.94,0.17-1.29,0.53
				c-0.35,0.35-0.53,0.78-0.53,1.29c0,0.48,0.18,0.89,0.53,1.25C882.43,725.22,882.86,725.4,883.37,725.4z"/>
			<path class="st169" d="M902.53,690.95c0.86-1.69,2.04-2.99,3.52-3.9c1.49-0.91,3.25-1.37,5.29-1.37c3.55,0,7.22,1.45,11.02,4.36
				c0-0.03,0.02-0.05,0.05-0.05v-4.79h4.5v0.62h2.83v2.54h-2.83v27.36h-4.5v-18.78c-0.77,0.83-1.6,1.65-2.5,2.47
				c-0.9,0.81-1.86,1.6-2.88,2.37l-7.64,6.99l-3.08-3.31l2.06-1.87c-0.99-0.29-1.9-0.73-2.72-1.32c-0.82-0.59-1.53-1.27-2.11-2.04
				c-0.58-0.77-1.04-1.61-1.37-2.54c-0.33-0.93-0.5-1.9-0.5-2.92C901.67,693.54,901.96,692.26,902.53,690.95z M911.3,690.18
				c-0.67,0-1.32,0.1-1.94,0.31c-0.62,0.21-1.17,0.5-1.65,0.89c-0.48,0.38-0.86,0.86-1.13,1.44s-0.41,1.25-0.41,2.01
				c0,0.64,0.13,1.24,0.38,1.8c0.26,0.56,0.6,1.05,1.03,1.46c0.43,0.42,0.95,0.75,1.56,1.01c0.61,0.26,1.25,0.38,1.92,0.38
				c0.96,0,1.85-0.3,2.68-0.91l0.34-0.24l5.32-4.84C916.46,691.29,913.76,690.18,911.3,690.18z"/>
			<path class="st169" d="M957.15,683.96c-0.06-1.82-0.5-3.32-1.32-4.5c-0.81-1.18-1.79-2.12-2.92-2.83c-1.13-0.7-2.3-1.2-3.5-1.48
				c-1.2-0.29-2.23-0.43-3.09-0.43c-1.92,0-3.79,0.45-5.61,1.34c-0.26,0.13-0.64,0.38-1.15,0.74c-0.51,0.37-1.02,0.89-1.53,1.56
				s-0.96,1.5-1.34,2.49c-0.38,0.99-0.58,2.16-0.58,3.5v1.49h2.83v2.54h-2.83v27.26h-4.5v-27.26h-2.83v-2.54h2.83v-1.49
				c0-2.11,0.38-4.03,1.15-5.77c0.77-1.74,1.8-3.23,3.11-4.46c1.31-1.23,2.86-2.19,4.65-2.87c1.79-0.69,3.72-1.03,5.8-1.03
				c2.14,0,4.13,0.36,5.96,1.08c1.84,0.72,3.44,1.69,4.82,2.92c1.37,1.23,2.46,2.68,3.26,4.36c0.8,1.68,1.23,3.47,1.29,5.39H957.15z
				"/>
			<path class="st169" d="M937.99,688.36v-2.54h28.32v2.54h-2.83v27.55h-4.5v-0.72c-0.45,0.06-0.93,0.13-1.44,0.19
				c-0.51,0.06-1.04,0.11-1.59,0.14c-1.18,3-3.22,4.5-6.1,4.5c-0.87,0-1.69-0.17-2.48-0.5c-0.78-0.34-1.47-0.79-2.04-1.37
				c-0.58-0.57-1.03-1.25-1.37-2.04c-0.34-0.78-0.5-1.6-0.5-2.47c0-0.7,0.11-1.34,0.33-1.92c-2.56-2.04-3.83-4.63-3.83-7.76
				c0-2.01,0.47-3.71,1.41-5.1c0.94-1.39,2.11-2.56,3.52-3.52c1.41-0.96,2.93-1.74,4.58-2.35c1.64-0.61,3.17-1.15,4.58-1.63
				c1.4-0.48,2.58-0.93,3.52-1.37c0.94-0.43,1.41-0.95,1.41-1.56v-0.1H937.99z M955.61,710.98c1.38-0.03,2.5-0.18,3.37-0.43v-16.19
				c-0.74,0.35-1.51,0.68-2.33,0.98c-0.82,0.3-1.64,0.6-2.48,0.89c-1.47,0.48-2.81,0.97-4.01,1.49c-1.2,0.51-2.22,1.06-3.05,1.65
				c-0.83,0.59-1.48,1.26-1.95,2.01c-0.47,0.75-0.7,1.62-0.7,2.61c0,1.76,0.7,3.16,2.11,4.22c0.99-0.61,2.08-0.91,3.27-0.91
				C952.37,707.29,954.29,708.52,955.61,710.98z M949.84,715.53c0.52,0,0.96-0.18,1.33-0.55c0.37-0.37,0.56-0.81,0.56-1.32
				c0-0.51-0.19-0.95-0.56-1.32c-0.37-0.37-0.82-0.55-1.33-0.55c-0.52,0-0.96,0.18-1.33,0.55c-0.37,0.37-0.56,0.81-0.56,1.32
				c0,0.51,0.19,0.95,0.56,1.32C948.88,715.35,949.33,715.53,949.84,715.53z"/>
			<path class="st169" d="M965.34,688.36v-2.54h28.32v2.54h-2.83v27.31h-4.5v-1.05c-0.35,0.03-0.71,0.05-1.08,0.05s-0.76,0-1.17,0
				c-5.46,0-9.62-0.94-12.48-2.83c-2.86-1.88-4.29-4.5-4.29-7.86c0-1.98,0.46-3.66,1.37-5.05c0.91-1.39,2.06-2.56,3.45-3.5
				c1.39-0.94,2.89-1.72,4.5-2.35c1.61-0.62,3.12-1.18,4.53-1.68c1.4-0.49,2.59-0.97,3.57-1.41c0.97-0.45,1.51-0.96,1.6-1.53v-0.1
				H965.34z M973.35,707.48c0.64,0.51,1.39,0.94,2.26,1.29c0.87,0.35,1.78,0.63,2.74,0.84c0.96,0.21,1.96,0.35,2.98,0.43
				c1.03,0.08,2.03,0.12,3.03,0.12c0.35,0,0.69-0.01,1.01-0.02c0.32-0.02,0.64-0.04,0.96-0.07V694.3c-0.74,0.35-1.51,0.68-2.33,0.98
				c-0.82,0.3-1.64,0.6-2.48,0.89c-1.47,0.48-2.81,0.97-4.01,1.49c-1.2,0.51-2.22,1.06-3.05,1.65c-0.83,0.59-1.48,1.26-1.95,2.01
				c-0.47,0.75-0.7,1.62-0.7,2.61C971.81,705.44,972.32,706.62,973.35,707.48z"/>
			<path class="st169" d="M1000.03,715.62h-4.5v-25.2c-0.03-1.37-0.73-2.06-2.11-2.06h-0.72v-2.54c1.02,0,1.68,0.06,1.99,0.17
				c0.3,0.11,0.58,0.31,0.84,0.6v-1.39h4.5v0.62h2.88v2.54h-2.88V715.62z"/>
			<path class="st169" d="M1001.95,688.36v-2.54h28.32v2.54h-2.83v27.55h-4.5v-0.72c-0.45,0.06-0.93,0.13-1.44,0.19
				c-0.51,0.06-1.04,0.11-1.58,0.14c-1.19,3-3.22,4.5-6.1,4.5c-0.87,0-1.69-0.17-2.48-0.5c-0.78-0.34-1.47-0.79-2.04-1.37
				s-1.03-1.25-1.37-2.04c-0.34-0.78-0.5-1.6-0.5-2.47c0-0.7,0.11-1.34,0.34-1.92c-2.56-2.04-3.83-4.63-3.83-7.76
				c0-2.01,0.47-3.71,1.41-5.1c0.94-1.39,2.12-2.56,3.52-3.52c1.4-0.96,2.93-1.74,4.57-2.35c1.64-0.61,3.17-1.15,4.58-1.63
				c1.4-0.48,2.58-0.93,3.52-1.37c0.94-0.43,1.41-0.95,1.41-1.56v-0.1H1001.95z M1019.57,710.98c1.38-0.03,2.5-0.18,3.37-0.43
				v-16.19c-0.74,0.35-1.51,0.68-2.33,0.98c-0.82,0.3-1.64,0.6-2.48,0.89c-1.47,0.48-2.81,0.97-4.01,1.49
				c-1.2,0.51-2.22,1.06-3.05,1.65c-0.83,0.59-1.48,1.26-1.95,2.01c-0.47,0.75-0.7,1.62-0.7,2.61c0,1.76,0.7,3.16,2.11,4.22
				c0.99-0.61,2.08-0.91,3.27-0.91C1016.33,707.29,1018.25,708.52,1019.57,710.98z M1013.8,715.53c0.52,0,0.96-0.18,1.33-0.55
				c0.37-0.37,0.56-0.81,0.56-1.32c0-0.51-0.19-0.95-0.56-1.32c-0.37-0.37-0.82-0.55-1.33-0.55c-0.52,0-0.96,0.18-1.33,0.55
				c-0.37,0.37-0.56,0.81-0.56,1.32c0,0.51,0.19,0.95,0.56,1.32C1012.84,715.35,1013.29,715.53,1013.8,715.53z"/>
			<path class="st169" d="M1047.8,715.48c-1.09-0.03-2.09-0.25-3.02-0.65c-0.93-0.4-1.72-0.93-2.4-1.6
				c-0.67-0.67-1.19-1.45-1.56-2.35c-0.37-0.89-0.55-1.85-0.55-2.87v-19.64h-2.83v-2.54h26.59v2.54h-19.26v3.02
				c0,0.67,0.09,1.21,0.26,1.63c0.17,0.42,0.52,0.74,1.03,0.98c0.51,0.24,1.21,0.41,2.08,0.5c0.88,0.1,2.04,0.14,3.47,0.14h0.91
				c3,0,5.34,0.54,7.02,1.6c1.68,1.07,2.52,2.85,2.52,5.34c0,1.79-0.45,3.51-1.34,5.17c-0.89,1.66-2.04,3.14-3.43,4.43
				c-1.39,1.29-2.93,2.33-4.62,3.11C1050.99,715.09,1049.36,715.48,1047.8,715.48z M1047.75,710.98l0.53-0.05
				c1.05-0.13,2.12-0.49,3.21-1.1c1.09-0.61,2.08-1.36,2.99-2.25c0.91-0.89,1.65-1.88,2.23-2.95c0.58-1.07,0.86-2.15,0.86-3.23
				c0-0.38-0.06-0.72-0.17-1.01c-0.11-0.29-0.38-0.52-0.79-0.69c-0.42-0.18-1.01-0.31-1.8-0.41c-0.78-0.1-1.86-0.14-3.23-0.14h-0.91
				c-2.01,0-3.98-0.27-5.89-0.81v9.68c0,0.93,0.3,1.65,0.91,2.18C1046.3,710.71,1046.98,710.98,1047.75,710.98z"/>
			<path class="st169" d="M1070.41,715.62h-4.5v-25.2c-0.03-1.37-0.73-2.06-2.11-2.06h-0.72v-2.54c1.02,0,1.68,0.06,1.99,0.17
				c0.3,0.11,0.58,0.31,0.84,0.6v-1.39h4.5v0.62h2.88v2.54h-2.88V715.62z"/>
			<path class="st169" d="M1075.15,695.12c-0.48-0.89-0.81-1.77-0.98-2.63c-0.18-0.86-0.26-1.68-0.26-2.44c0-0.32,0-0.61,0-0.89
				c0-0.27,0.03-0.53,0.1-0.79h-1.68v-2.54h30.04v2.54h-2.83v27.31h-4.5v-1.01l-2.87,0.48c-0.38,1.44-1.13,2.61-2.23,3.52
				c-1.1,0.91-2.42,1.37-3.95,1.37c-1.57,0-2.92-0.47-4.07-1.41c-1.15-0.94-1.88-2.18-2.2-3.71c-1.15-0.41-2.08-0.93-2.8-1.56
				c-0.72-0.62-1.27-1.29-1.65-1.99c-0.38-0.7-0.64-1.4-0.77-2.08c-0.13-0.69-0.19-1.32-0.19-1.89c0-1.05,0.22-2,0.67-2.83
				c0.45-0.83,1.01-1.57,1.68-2.23c0.67-0.65,1.41-1.24,2.23-1.75c0.82-0.51,1.59-0.96,2.32-1.34h-0.05
				C1078.46,698.63,1076.46,697.26,1075.15,695.12z M1095.04,710.07v-21.7h-16.48c-0.1,0.45-0.14,0.96-0.14,1.53
				c0,0.54,0.06,1.08,0.17,1.6c0.11,0.53,0.31,1.01,0.6,1.44c0.29,0.43,0.67,0.81,1.15,1.15c0.48,0.34,1.09,0.58,1.82,0.74
				c0.67,0.16,1.33,0.34,1.99,0.53c0.65,0.19,1.25,0.44,1.77,0.74c0.53,0.3,0.95,0.67,1.27,1.1c0.32,0.43,0.48,0.93,0.48,1.51
				c0,0.77-0.22,1.41-0.67,1.94c-0.45,0.53-1.02,1.02-1.72,1.49c-0.7,0.46-1.49,0.91-2.35,1.34c-0.86,0.43-1.69,0.93-2.49,1.51
				c-1.09,0.77-1.63,1.57-1.63,2.4c0,0.57,0.11,1.12,0.34,1.63c0.22,0.51,0.69,0.96,1.39,1.34c1.34-2.04,3.16-3.07,5.46-3.07
				c2.4,0,4.25,1.13,5.56,3.4c0.54-0.06,1.1-0.15,1.68-0.26C1093.79,710.31,1094.4,710.19,1095.04,710.07z M1085.98,715.53
				c0.51,0,0.94-0.18,1.29-0.55c0.35-0.37,0.53-0.81,0.53-1.32c0-0.51-0.18-0.95-0.53-1.32c-0.35-0.37-0.78-0.55-1.29-0.55
				c-0.51,0-0.95,0.18-1.32,0.55c-0.37,0.37-0.55,0.81-0.55,1.32c0,0.51,0.18,0.95,0.55,1.32
				C1085.03,715.35,1085.47,715.53,1085.98,715.53z"/>
		</g>
		<g>
			<path class="st170" d="M819.32,846.91c-1.32-1.04-2.38-2.2-3.18-3.49c-0.8-1.28-1.41-2.57-1.82-3.86
				c-0.42-1.28-0.7-2.5-0.83-3.65c-0.14-1.15-0.21-2.14-0.21-2.97c0-0.97,0.03-1.56,0.1-1.77l9.8,1.04c-0.07,0.21-0.1,0.56-0.1,1.04
				c0,0.69,0.07,1.42,0.21,2.19c0.14,0.77,0.4,1.48,0.78,2.14c0.38,0.66,0.92,1.22,1.61,1.67c0.69,0.45,1.63,0.68,2.81,0.68
				c2.43,0,5.49-0.75,9.17-2.25c3.13-1.23,5.97-2.17,8.54-2.82c2.57-0.65,4.97-0.97,7.19-0.97c2.15,0,4.17,0.31,6.04,0.93v-16.19
				c0-1.67,0.03-3.36,0.1-5.07c0.07-1.71,0.1-3.39,0.1-5.07c0-3.27-0.4-5.88-1.2-7.83c-0.8-1.95-1.82-3.43-3.07-4.44
				c-1.25-1.01-2.64-1.67-4.17-1.98c-1.53-0.31-3.02-0.47-4.48-0.47c-1.67,0-3.3,0.28-4.9,0.83c-1.6,0.56-2.99,1.36-4.17,2.4
				c-1.18,1.04-2.14,2.29-2.87,3.75c-0.73,1.46-1.09,3.13-1.09,5c0,2.57,0.94,4.83,2.81,6.77l3.44-4.17l7.61,6.15l-3.75,4.69
				c-1.81,2.22-4.24,3.33-7.29,3.33c-2.02,0-3.82-0.55-5.39-1.67c-1.58-1.11-2.9-2.5-3.95-4.17c-1.05-1.67-1.86-3.49-2.42-5.47
				c-0.56-1.98-0.84-3.87-0.84-5.68c0-3.06,0.61-5.9,1.83-8.55c1.22-2.64,2.86-4.91,4.92-6.83c2.06-1.91,4.45-3.42,7.17-4.53
				c2.72-1.11,5.58-1.67,8.58-1.67c3.35,0,6.38,0.52,9.11,1.56c2.72,1.04,5.1,2.45,7.12,4.22c2.02,1.77,3.61,3.84,4.76,6.2
				c1.15,2.36,1.83,4.9,2.04,7.61c0.07,0.83,0.1,1.67,0.1,2.5c0,0.83,0,1.67,0,2.5c0,0.76-0.02,1.56-0.05,2.4
				c-0.04,0.83-0.05,1.63-0.05,2.4v37.31h-10v-2.5v-0.1c0-0.28-0.04-0.66-0.1-1.15c-0.07-0.49-0.33-0.97-0.78-1.46
				c-0.45-0.48-1.13-0.9-2.03-1.25c-0.9-0.35-2.19-0.52-3.86-0.52c-1.04,0-2.57,0.31-4.59,0.94c-2.02,0.63-4.19,1.32-6.51,2.08
				c-2.33,0.77-4.65,1.46-6.98,2.08c-2.33,0.63-4.36,0.94-6.1,0.94C824.88,849.72,821.83,848.78,819.32,846.91z"/>
			<path class="st170" d="M878.62,824.19c5.28,2.08,10,3.13,14.17,3.13c5.42,0,9.48-1.65,12.19-4.95c2.71-3.3,4.06-7.73,4.06-13.29
				c0-2.5-0.38-4.55-1.15-6.15c-0.77-1.6-1.71-2.87-2.83-3.8c-1.12-0.94-2.3-1.58-3.56-1.93c-1.26-0.35-2.34-0.56-3.25-0.63
				l-8.17,5.31c-1.82,1.39-2.72,3.2-2.72,5.42c0,1.88,0.69,3.51,2.08,4.9l-6.93,6.88l-0.41-0.42c-3.03-3.4-4.54-7.22-4.54-11.46
				c0-5.35,2.19-9.73,6.57-13.13l4.17-2.71H873.3v-5.52h32.62c-0.35-3.13-1.91-5.61-4.69-7.45c-2.78-1.84-6.81-2.76-12.09-2.76
				h-13.65v-9.8h13.65c4.38,0,8.18,0.56,11.41,1.67c3.23,1.11,5.94,2.6,8.13,4.48c2.19,1.88,3.87,4.01,5.05,6.41
				c1.18,2.4,1.88,4.88,2.08,7.45h7.19v5.52h-7.4c-0.21,1.18-0.52,2.33-0.94,3.44c2.78,3.68,4.17,8.44,4.17,14.28
				c0,3.27-0.36,6.34-1.09,9.22c-0.73,2.88-1.84,5.51-3.33,7.87c-1.49,2.36-3.37,4.39-5.63,6.1c-2.26,1.7-4.88,2.97-7.87,3.8
				l19.9,10.63l-4.69,8.65l-41.79-22.3l3.96-8.96L878.62,824.19z"/>
			<path class="st170" d="M983.03,789.39c2.99,0.56,5.63,1.67,7.92,3.33v-8.23h9.8v1.36h6.15v5.52h-6.15v59.4h-9.8v-42.62
				l-1.88-2.92c-1.67-2.57-3.23-4.25-4.69-5.05c-1.46-0.8-3.02-1.2-4.69-1.2c-1.6,0-3.01,0.31-4.22,0.94
				c-1.22,0.63-2.21,1.46-2.97,2.5c-0.76,1.04-1.34,2.21-1.72,3.49c-0.38,1.29-0.57,2.59-0.57,3.91v0.31c0,0.28,0.03,0.49,0.1,0.63
				l0.1,0.94c0.56,5.84,4.62,9.62,12.19,11.36l1.98,0.31c0.21,0.14,0.47,0.17,0.78,0.1c0.31-0.07,0.54-0.03,0.68,0.1h0.31v9.8h-0.83
				c-0.21,0-0.51,0-0.89,0c-0.38,0-0.78-0.07-1.2-0.21l-2.81-0.42c-2.71-0.63-5.42-1.58-8.13-2.87c-2.71-1.28-5.07-3.18-7.09-5.68
				l-1.46-1.98c-2.15,2.36-4.73,4.13-7.71,5.31c-2.99,1.18-5.87,1.98-8.65,2.4l-2.29,0.31c-0.21,0.07-0.56,0.1-1.04,0.1h-1.35v-9.8
				h0.73c0.35,0,0.62-0.03,0.83-0.1l1.67-0.21c1.67-0.21,3.32-0.63,4.95-1.25c1.63-0.63,3.09-1.41,4.38-2.34
				c1.28-0.94,2.31-2.03,3.07-3.28c0.76-1.25,1.15-2.6,1.15-4.06l0.21-1.46c0-1.6-0.3-3.14-0.89-4.64c-0.59-1.49-1.55-2.8-2.87-3.91
				c-1.32-1.11-2.99-2-5-2.66c-2.02-0.66-4.45-0.99-7.29-0.99h-4.17v-9.8h4.79c0.49,0,0.83,0.04,1.04,0.1l2.19,0.21
				c2.92,0.42,5.92,1.22,9.01,2.4c3.09,1.18,5.71,2.95,7.87,5.31l1.15,1.35l0.83-0.83l1.15-1.04l1.56-1.15l1.15-0.63l0.73-0.42
				c0.14-0.07,0.26-0.14,0.36-0.21c0.1-0.07,0.22-0.14,0.36-0.21l2.61-0.94c0.21,0,0.35-0.03,0.42-0.1l0.83-0.21
				c0.14-0.07,0.31-0.1,0.52-0.1h0.21c1.04-0.21,2.12-0.31,3.23-0.31C980.74,789.07,981.85,789.18,983.03,789.39z"/>
			<path class="st170" d="M1013.67,761.04c1.53,1.88,2.76,3.87,3.7,5.99c0.94,2.12,1.65,4.24,2.14,6.36
				c0.48,2.12,0.82,4.24,0.99,6.36c0.17,2.12,0.26,4.15,0.26,6.1h6.15v5.52h-6.15v59.29h-9.8v-59.29h-6.15v-5.52h6.15
				c0-3.14-0.3-6.35-0.89-9.63c-0.59-3.28-1.89-6.21-3.91-8.79c-1.04-1.19-2.26-2.14-3.65-2.88c-1.39-0.73-2.83-1.31-4.32-1.73
				c-1.49-0.42-3-0.71-4.53-0.89c-1.53-0.17-2.95-0.26-4.27-0.26h-23.03c0.49,1.06,1.09,2.14,1.82,3.27c0.73,1.12,1.62,2.12,2.66,3
				c1.04,0.88,2.26,1.6,3.65,2.16c1.39,0.56,2.92,0.84,4.59,0.84c3.13,0,6.63-0.97,10.52-2.92l4.38,8.75
				c-5.42,2.64-10.42,3.96-15,3.96c-3.89,0-7.3-0.85-10.21-2.55c-2.92-1.7-5.37-3.73-7.35-6.1c-1.98-2.36-3.47-4.81-4.48-7.35
				c-1.01-2.54-1.51-4.64-1.51-6.3c0-2.01,0.66-3.61,1.98-4.79c1.32-1.18,2.78-1.77,4.38-1.77h27.61
				C1000.15,751.87,1008.25,754.93,1013.67,761.04z"/>
			<path class="st170" d="M1058.16,785.84v5.52h-1.04c-0.42,0.21-1.09,0.61-2.03,1.2c-0.94,0.59-1.95,1.29-3.02,2.08
				c-1.08,0.8-2.15,1.69-3.23,2.66c-1.08,0.97-2,1.98-2.76,3.02c-2.5,3.33-4.36,7.16-5.57,11.46c-1.22,4.31-1.82,8.58-1.82,12.82
				c0,3.54,0.45,7.1,1.35,10.68c0.9,3.58,2.24,6.95,4.01,10.11c1.77,3.16,3.99,6.01,6.67,8.55c2.67,2.53,5.82,4.53,9.43,5.99
				l3.54,1.15c3.75,0.97,7.4,1.46,10.94,1.46c1.81,0,3.61-0.12,5.42-0.36c1.8-0.24,3.52-0.64,5.16-1.2
				c1.63-0.56,3.13-1.29,4.48-2.19c1.36-0.9,2.48-2.05,3.39-3.44l10.42,6.98c-1.67,2.43-3.6,4.44-5.78,6.04
				c-2.19,1.6-4.5,2.87-6.93,3.8c-2.43,0.94-4.9,1.58-7.4,1.93c-2.5,0.35-4.9,0.52-7.19,0.52c-6.32,0.21-12.4-0.83-18.24-3.13
				l-2.4-0.94c-4.31-1.95-8.11-4.46-11.41-7.56c-3.3-3.09-6.06-6.56-8.28-10.42c-2.22-3.86-3.91-8.01-5.05-12.45
				c-1.15-4.44-1.72-8.96-1.72-13.55c0-3.33,0.29-6.65,0.89-9.95c0.59-3.3,1.48-6.48,2.66-9.54c1.18-3.06,2.69-5.92,4.53-8.6
				c1.84-2.67,3.98-5.05,6.41-7.14h-18.76v-5.52H1058.16z"/>
			<path class="st170" d="M1079,810.54c1.04-1.94,2.35-3.8,3.91-5.57s3.26-3.47,5.11-5.11c1.84-1.63,3.77-3.16,5.78-4.59
				c2.01-1.42,3.96-2.73,5.84-3.91h-45.64v-5.52h74.72v5.52h-15.42c0.28,0.21,0.87,0.8,1.77,1.77c0.9,0.97,1.88,2.15,2.92,3.54
				c1.04,1.39,2.05,2.92,3.02,4.59c0.97,1.67,1.7,3.33,2.19,5c0.48,1.53,0.82,3.07,0.99,4.64c0.17,1.56,0.26,3.07,0.26,4.53
				c0,3.75-0.61,7.35-1.82,10.79c-1.22,3.44-2.92,6.62-5.11,9.53c-2.19,2.92-4.84,5.51-7.97,7.76c-3.13,2.26-6.57,4.12-10.32,5.57
				c-3.2,1.18-6.53,1.77-10,1.77c-4.38,0-8.46-0.89-12.24-2.66c-3.79-1.77-7.05-4.13-9.8-7.09c-2.75-2.95-4.92-6.41-6.51-10.37
				c-1.6-3.96-2.4-8.13-2.4-12.5c0-7.43,2.42-14.34,7.27-20.74l7.74,6.15c-3.47,4.52-5.21,9.45-5.21,14.8c0,3.2,0.57,6.17,1.71,8.91
				c1.14,2.74,2.67,5.14,4.57,7.19c1.91,2.05,4.16,3.65,6.76,4.79c2.6,1.15,5.36,1.72,8.27,1.72c2.7,0,5.27-0.49,7.69-1.46
				c2.43-0.97,4.63-2.2,6.6-3.7c1.98-1.49,3.69-3.11,5.15-4.85c1.46-1.74,2.53-3.4,3.22-5c0.83-1.94,1.47-3.84,1.92-5.68
				c0.45-1.84,0.67-3.66,0.67-5.47c0-1.04,0-2,0-2.87c0-0.87-0.21-1.84-0.62-2.92c-0.42-1.08-1.09-2.36-2.03-3.86
				c-0.94-1.49-2.35-3.42-4.22-5.78c-0.42-0.42-0.83-0.63-1.25-0.63c-0.21,0-0.45,0.07-0.73,0.21c-9.38,5.7-15.39,11.01-18.03,15.94
				v0.1c-0.49,0.76-0.73,1.63-0.73,2.6c0,1.46,0.56,2.75,1.67,3.86l4.59,4.48l-6.88,6.98l-4.48-4.38c-1.6-1.6-2.78-3.32-3.54-5.16
				c-0.77-1.84-1.15-3.66-1.15-5.47C1077.23,815.47,1077.82,812.97,1079,810.54z"/>
			<path class="st170" d="M723.09,916.41v-5.52h64.71v5.52h-6.15v59.4h-9.8v-13.23c0-3.47-0.92-5.96-2.76-7.45
				c-1.84-1.49-4.43-2.24-7.76-2.24c-0.21,0-0.68,0.02-1.41,0.05c-0.73,0.04-1.51,0.09-2.35,0.16c-0.83,0.07-1.56,0.21-2.19,0.42
				c-0.63,0.21-0.94,0.45-0.94,0.73c0,3.2-0.64,6.11-1.93,8.75c-1.29,2.64-3.11,4.92-5.47,6.83c-2.36,1.91-5.21,3.39-8.55,4.43
				c-3.33,1.04-7.05,1.56-11.15,1.56v-9.8c4.1,0,7.29-0.45,9.59-1.36c2.29-0.9,4.01-1.98,5.16-3.23c1.15-1.25,1.86-2.55,2.14-3.91
				c0.28-1.35,0.42-2.48,0.42-3.39c0-2.01-0.45-3.8-1.36-5.37c-0.9-1.56-2.19-2.8-3.86-3.7c-4.59-2.43-7.94-5.33-10.06-8.7
				c-2.12-3.37-3.18-7.31-3.18-11.83c0-2.99,0.52-5.7,1.56-8.13H723.09z M771.86,945.28v-28.87h-33.24
				c-0.07,0.07-0.24,0.36-0.52,0.89c-0.28,0.52-0.57,1.18-0.89,1.98c-0.31,0.8-0.59,1.72-0.83,2.76c-0.24,1.04-0.36,2.12-0.36,3.23
				c0,4.45,2.71,8.16,8.13,11.15c3.4,1.88,6.01,4.48,7.82,7.82c1.8-0.42,3.49-0.71,5.05-0.89c1.56-0.17,3.04-0.26,4.43-0.26
				c2.22,0,4.18,0.21,5.89,0.63C769.03,944.13,770.54,944.65,771.86,945.28z"/>
			<path class="st170" d="M843.03,975.71h-9.8v-2.08c-0.69,0.07-1.42,0.12-2.19,0.16c-0.76,0.04-1.6,0.05-2.5,0.05
				c-11.81,0-20.88-2.03-27.2-6.1c-6.32-4.06-9.48-9.81-9.48-17.25c0-3.54,0.69-6.63,2.08-9.27c1.39-2.64,3.18-4.93,5.37-6.88
				c2.19-1.94,4.65-3.61,7.4-5c2.74-1.39,5.49-2.61,8.23-3.65c2.74-1.04,5.33-1.94,7.76-2.71c2.43-0.76,4.41-1.49,5.94-2.19
				c2.85-1.25,4.38-2.64,4.59-4.17v-0.21h-47.52v-5.52h79.2v5.52h-21.88v0.42l6.77,3.65c2.78,1.46,4.97,3.42,6.57,5.89
				c1.6,2.47,2.4,5.23,2.4,8.28v12.4h-9.8v-12.4c0-2.29-1.15-4.06-3.44-5.31l-2.5-1.36V975.71z M828.65,964.04
				c0.76,0,1.53-0.02,2.29-0.05c0.76-0.03,1.53-0.09,2.29-0.16v-34.39c-4.59,2.08-8.81,3.79-12.66,5.11
				c-3.86,1.32-7.19,2.66-10,4.01c-2.81,1.36-5,2.94-6.56,4.74c-1.56,1.81-2.35,4.2-2.35,7.19c0,2.85,0.89,5.16,2.66,6.93
				c1.77,1.77,3.98,3.14,6.62,4.12c2.64,0.97,5.54,1.63,8.7,1.98C822.8,963.86,825.8,964.04,828.65,964.04z"/>
			<path class="st170" d="M896.18,910.89v5.52h-1.04c-0.42,0.21-1.09,0.61-2.03,1.2c-0.94,0.59-1.95,1.29-3.02,2.08
				c-1.08,0.8-2.15,1.69-3.23,2.66c-1.08,0.97-2,1.98-2.76,3.02c-2.5,3.33-4.36,7.16-5.57,11.46c-1.22,4.31-1.82,8.58-1.82,12.82
				c0,3.54,0.45,7.1,1.35,10.68c0.9,3.58,2.24,6.95,4.01,10.11c1.77,3.16,3.99,6.01,6.67,8.55c2.67,2.53,5.82,4.53,9.43,5.99
				l3.54,1.15c3.75,0.97,7.4,1.46,10.94,1.46c1.81,0,3.61-0.12,5.42-0.36c1.81-0.24,3.53-0.64,5.16-1.2
				c1.63-0.56,3.13-1.29,4.48-2.19c1.35-0.9,2.48-2.05,3.39-3.44l10.42,6.98c-1.67,2.43-3.6,4.44-5.78,6.04
				c-2.19,1.6-4.5,2.87-6.93,3.8c-2.43,0.94-4.9,1.58-7.4,1.93c-2.5,0.35-4.9,0.52-7.19,0.52c-6.32,0.21-12.4-0.83-18.24-3.13
				l-2.4-0.94c-4.31-1.95-8.11-4.46-11.41-7.56c-3.3-3.09-6.06-6.56-8.28-10.42c-2.22-3.86-3.91-8.01-5.05-12.45
				c-1.15-4.44-1.72-8.96-1.72-13.55c0-3.33,0.29-6.65,0.89-9.95c0.59-3.3,1.47-6.48,2.66-9.54c1.18-3.06,2.69-5.92,4.53-8.6
				c1.84-2.67,3.98-5.05,6.41-7.14h-18.76v-5.52H896.18z"/>
			<path class="st170" d="M892.01,916.41v-5.52h78.15v5.52h-6.15v59.4h-9.8V945.8c-0.77-1.18-1.75-2.12-2.94-2.81
				c-1.19-0.69-2.48-1.04-3.88-1.04c-1.89,0-3.67,0.7-5.35,2.08c-1.68,1.39-2.59,3.4-2.73,6.04v0.52h-9.8v-3.44
				c0-3.75-0.97-6.46-2.92-8.13c-1.95-1.67-4.38-2.5-7.29-2.5c-2.02,0-3.89,0.35-5.63,1.04l-1.46,0.63
				c-0.97,0.42-1.84,1.06-2.6,1.93c-0.76,0.87-1.41,1.84-1.93,2.92c-0.52,1.08-0.94,2.21-1.25,3.39c-0.31,1.18-0.47,2.33-0.47,3.44
				c0,2.29,0.47,4.38,1.41,6.25c0.94,1.88,2.15,3.46,3.65,4.74c1.49,1.29,3.16,2.28,5,2.97c1.84,0.7,3.63,1.04,5.37,1.04h8.23v9.8
				h-8.23c-3.27,0-6.43-0.64-9.48-1.93c-3.06-1.28-5.75-3.04-8.08-5.26c-2.33-2.22-4.19-4.85-5.57-7.87
				c-1.39-3.02-2.08-6.3-2.08-9.85c0-3.19,0.59-6.18,1.77-8.96c1.18-2.78,2.81-5.21,4.9-7.29c2.08-2.08,4.53-3.73,7.35-4.95
				c2.81-1.21,5.85-1.82,9.12-1.82c1.6,0,3.19,0.16,4.79,0.47c1.6,0.31,3.16,0.83,4.69,1.56c1.53,0.73,2.95,1.68,4.27,2.87
				c1.32,1.18,2.5,2.6,3.54,4.27c3.19-2.5,6.88-3.75,11.05-3.75c1.18,0,2.33,0.12,3.44,0.36c1.11,0.24,2.15,0.54,3.13,0.89v-16.99
				H892.01z"/>
			<path class="st170" d="M1045.92,998.84c-1.46,0.28-2.92,0.49-4.38,0.63c-1.46,0.14-2.92,0.21-4.38,0.21
				c-6.32,0.21-12.4-0.83-18.24-3.13l-2.4-0.94c-4.31-1.95-8.11-4.46-11.41-7.56c-3.3-3.09-6.06-6.56-8.28-10.42
				c-2.22-3.86-3.91-8.01-5.05-12.45c-1.15-4.44-1.72-8.96-1.72-13.55c0-3.61,0.35-7.21,1.04-10.79c0.69-3.58,1.75-6.98,3.18-10.21
				c1.42-3.23,3.19-6.23,5.31-9.01c2.12-2.78,4.64-5.17,7.56-7.19c3.19-2.36,5.59-3.54,7.19-3.54h4.79v5.52h-1.04
				c-0.42,0.21-1.09,0.61-2.03,1.2c-0.94,0.59-1.95,1.29-3.02,2.08c-1.08,0.8-2.15,1.69-3.23,2.66c-1.08,0.97-2,1.98-2.76,3.02
				c-2.5,3.33-4.36,7.16-5.57,11.46c-1.22,4.31-1.82,8.58-1.82,12.82c0,3.54,0.45,7.1,1.35,10.68c0.9,3.58,2.24,6.95,4.01,10.11
				c1.77,3.16,3.99,6.01,6.67,8.55c2.67,2.53,5.82,4.53,9.43,5.99l3.54,1.15c3.75,0.97,7.4,1.46,10.94,1.46
				c1.81,0,3.61-0.12,5.42-0.36c1.8-0.24,3.52-0.64,5.16-1.2c1.63-0.56,3.13-1.29,4.48-2.19c1.36-0.9,2.48-2.05,3.39-3.44
				l10.42,6.98c-2.29,3.33-5.11,5.92-8.44,7.76C1052.69,996.98,1049.32,998.22,1045.92,998.84z"/>
			<path class="st170" d="M1014.97,916.41v-5.52h65.44v5.52h-6.15v59.4h-9.8v-2.19c-8.13,1.88-15.11,2.81-20.95,2.81
				c-7.85,0-13.82-1.63-17.92-4.9c-1.53-1.04-2.95-2.67-4.27-4.9c-1.32-2.22-2.02-5.21-2.08-8.96c0.14-2.22,0.69-4.25,1.67-6.1
				c0.97-1.84,2.17-3.49,3.6-4.95c1.42-1.46,3-2.73,4.74-3.8c1.74-1.08,3.44-2.03,5.11-2.87h-0.1c-2.78-0.63-5.16-1.62-7.14-2.97
				c-1.98-1.36-3.61-2.95-4.9-4.79c-1.29-1.84-2.24-3.82-2.87-5.94c-0.63-2.12-0.94-4.29-0.94-6.51c0-0.56,0.02-1.11,0.05-1.67
				c0.03-0.56,0.09-1.11,0.16-1.67H1014.97z M1064.47,963.72v-47.3h-35.95c-0.21,0.97-0.31,2.05-0.31,3.24
				c0,1.18,0.12,2.33,0.36,3.45c0.24,1.11,0.66,2.16,1.25,3.13c0.59,0.97,1.41,1.83,2.45,2.56c1.04,0.73,2.4,1.27,4.06,1.62
				c1.53,0.35,3,0.73,4.43,1.15c1.42,0.42,2.69,0.98,3.8,1.67c1.11,0.7,2.01,1.51,2.71,2.45c0.69,0.94,1.04,2.07,1.04,3.39
				c0,1.6-0.5,2.98-1.51,4.12c-1.01,1.15-2.26,2.21-3.75,3.18c-1.49,0.98-3.16,1.93-5,2.87c-1.84,0.94-3.59,2.04-5.26,3.29
				c-2.29,1.67-3.54,3.41-3.75,5.22c0.07,2.02,0.47,3.6,1.2,4.75c0.73,1.15,1.75,2.04,3.07,2.66c1.32,0.63,2.85,1.03,4.58,1.2
				c1.74,0.17,3.61,0.26,5.63,0.26C1049.22,966.64,1056.2,965.67,1064.47,963.72z"/>
			<path class="st170" d="M1111.67,910.89v5.52h-1.04c-0.42,0.21-1.09,0.61-2.03,1.2c-0.94,0.59-1.95,1.29-3.02,2.08
				c-1.08,0.8-2.15,1.69-3.23,2.66c-1.08,0.97-2,1.98-2.76,3.02c-2.5,3.33-4.36,7.16-5.57,11.46c-1.22,4.31-1.82,8.58-1.82,12.82
				c0,3.54,0.45,7.1,1.35,10.68c0.9,3.58,2.24,6.95,4.01,10.11c1.77,3.16,3.99,6.01,6.67,8.55c2.67,2.53,5.82,4.53,9.43,5.99
				l3.54,1.15c3.75,0.97,7.4,1.46,10.94,1.46c1.81,0,3.61-0.12,5.42-0.36c1.8-0.24,3.52-0.64,5.16-1.2
				c1.63-0.56,3.13-1.29,4.48-2.19c1.36-0.9,2.48-2.05,3.39-3.44l10.42,6.98c-1.67,2.43-3.6,4.44-5.78,6.04
				c-2.19,1.6-4.5,2.87-6.93,3.8c-2.43,0.94-4.9,1.58-7.4,1.93c-2.5,0.35-4.9,0.52-7.19,0.52c-6.32,0.21-12.4-0.83-18.24-3.13
				l-2.4-0.94c-4.31-1.95-8.11-4.46-11.41-7.56c-3.3-3.09-6.06-6.56-8.28-10.42c-2.22-3.86-3.91-8.01-5.05-12.45
				c-1.15-4.44-1.72-8.96-1.72-13.55c0-3.33,0.29-6.65,0.89-9.95c0.59-3.3,1.47-6.48,2.66-9.54c1.18-3.06,2.69-5.92,4.53-8.6
				c1.84-2.67,3.98-5.05,6.41-7.14h-18.76v-5.52H1111.67z"/>
			<path class="st170" d="M1107.5,916.41v-5.52h69.19v5.52h-6.15v59.4h-9.8V968c0-4.31-0.59-8.04-1.77-11.2
				c-1.18-3.16-2.75-5.87-4.69-8.13c-1.95-2.26-4.13-4.1-6.57-5.52c-2.43-1.42-4.9-2.57-7.4-3.44c-2.5-0.87-4.92-1.51-7.24-1.93
				c-2.33-0.42-4.32-0.69-5.99-0.83c-1.81,0-2.87,0.92-3.18,2.76c-0.31,1.84-0.47,4.85-0.47,9.01v0.83
				c0.14,5.42,1.23,9.55,3.28,12.4c2.05,2.85,5.33,4.27,9.85,4.27v9.8c-3.61,0-6.84-0.61-9.69-1.82c-2.85-1.21-5.25-2.97-7.19-5.26
				c-1.95-2.29-3.44-5.07-4.48-8.34c-1.04-3.26-1.56-6.95-1.56-11.05v-0.83v-1.88c0-2.29,0.16-4.6,0.47-6.93
				c0.31-2.33,0.92-4.45,1.82-6.36c0.9-1.91,2.19-3.46,3.86-4.64c1.67-1.18,3.89-1.77,6.67-1.77c3.06,0,6.16,0.33,9.33,0.99
				c3.16,0.66,6.23,1.61,9.22,2.87c2.99,1.25,5.84,2.76,8.54,4.53c2.71,1.77,5.11,3.74,7.19,5.89v-25.01H1107.5z"/>
			<path class="st170" d="M1190.66,975.71h-9.8V920.9c-0.07-2.99-1.6-4.48-4.59-4.48h-1.56v-5.52c2.22,0,3.66,0.12,4.32,0.36
				c0.66,0.24,1.27,0.68,1.82,1.3v-3.02h9.8v1.36h6.25v5.52h-6.25V975.71z"/>
			<path class="st170" d="M836.21,1057.61l8.96-16.15h-40.95v-5.52h41.47c-0.35-3.13-1.91-5.61-4.69-7.45
				c-2.78-1.84-6.84-2.76-12.19-2.76h-13.65v-9.8h13.65c4.1,0,7.78,0.52,11.05,1.56c3.26,1.04,6.04,2.47,8.34,4.27
				c2.29,1.81,4.06,3.93,5.31,6.36c1.25,2.43,1.91,5.04,1.98,7.82h20.01v5.52h-19.17l-11.05,20.11c0,0.49,0.1,0.77,0.31,0.83
				c0.21,0.07,0.52,0.1,0.94,0.1c1.25,0,2.73-0.12,4.43-0.36c1.7-0.24,3.37-0.49,5-0.73c1.63-0.24,3.04-0.49,4.22-0.73
				c1.18-0.24,1.88-0.36,2.08-0.36c1.11,0,2.2,0.21,3.28,0.63c1.08,0.42,2.03,1.01,2.87,1.77c0.83,0.77,1.51,1.65,2.03,2.66
				c0.52,1.01,0.78,2.14,0.78,3.39c0,1.18-0.28,2.4-0.83,3.65c-7.85,17.23-19.31,25.84-34.39,25.84c-3.89,0-7.5-0.68-10.84-2.03
				c-3.33-1.35-6.25-3.32-8.75-5.89c-2.5-2.57-4.46-5.73-5.89-9.48c-1.42-3.75-2.14-8.06-2.14-12.92c0-3.96,0.54-7.54,1.62-10.73
				c1.08-3.19,2.55-5.8,4.43-7.82l6.98,6.88c-0.9,0.97-1.67,2.5-2.29,4.59c-0.62,2.08-0.94,4.55-0.94,7.4
				c0,6.25,1.58,11.19,4.74,14.8c3.16,3.61,7.52,5.42,13.08,5.42c10.49,0,18.65-6.01,24.49-18.03l-2.08,0.42
				c-2.57,0.56-4.86,0.94-6.88,1.15c-2.02,0.21-3.82,0.31-5.42,0.31c-1.46,0-2.83-0.28-4.12-0.83c-1.29-0.56-2.41-1.32-3.39-2.29
				c-0.97-0.97-1.74-2.1-2.29-3.39c-0.56-1.28-0.83-2.69-0.83-4.22c0-1.18,0.21-2.4,0.63-3.65L836.21,1057.61z"/>
			<path class="st170" d="M944.79,1100.76c-4.03,0-7.64-1.49-10.84-4.48l-1.25-1.35v5.94h-9.8v-2.4c-4.1,0.77-7.87,1.35-11.31,1.77
				c-3.44,0.42-6.62,0.63-9.54,0.63c-8.34,0-14.48-1.65-18.44-4.95c-3.96-3.3-5.94-7.73-5.94-13.29c0-2.29,0.49-4.32,1.46-6.1
				c0.97-1.77,2.2-3.37,3.7-4.79c1.49-1.42,3.13-2.69,4.9-3.8c1.77-1.11,3.49-2.12,5.16-3.02h-0.1c-2.92-0.63-5.38-1.65-7.4-3.07
				c-2.02-1.42-3.66-3.07-4.95-4.95c-1.29-1.88-2.21-3.86-2.76-5.94c-0.56-2.08-0.83-4.13-0.83-6.15c0-0.63,0.02-1.2,0.05-1.72
				c0.04-0.52,0.09-1.06,0.16-1.62h-3.65v-5.52h59.29v9.9l1.15-1.15c1.53-1.53,3.19-2.64,5-3.33c1.81-0.69,3.68-1.04,5.63-1.04
				c2.36,0,4.46,0.38,6.3,1.15c1.84,0.77,3.39,1.74,4.64,2.92c1.25,1.18,2.19,2.55,2.81,4.12c0.62,1.56,0.94,3.11,0.94,4.64v5
				c0,2.92-0.96,5.49-2.87,7.71c-1.91,2.22-4.43,3.75-7.56,4.59c3.13,0.83,5.66,2.36,7.61,4.59c1.94,2.22,2.92,4.79,2.92,7.71v5.21
				c0,1.46-0.31,2.95-0.94,4.48c-0.63,1.53-1.56,2.92-2.81,4.17c-1.25,1.25-2.78,2.26-4.59,3.02
				C949.13,1100.37,947.08,1100.76,944.79,1100.76z M888.1,1051.15c0.63,1.11,1.6,2,2.92,2.66c1.32,0.66,2.76,1.25,4.32,1.77
				c1.56,0.52,3.13,1.03,4.69,1.51c1.56,0.49,2.9,1.08,4.01,1.77c2.15,0.07,4.95,0.42,8.39,1.04s6.93,1.7,10.47,3.23v-21.67h-35.74
				c-0.21,1.04-0.31,2.22-0.31,3.54c0,0.97,0.09,2,0.26,3.07C887.28,1049.16,887.61,1050.18,888.1,1051.15z M889.77,1088.15
				c0.83,0.77,2.26,1.44,4.27,2.03c2.01,0.59,4.55,0.89,7.61,0.89c2.5,0,5.52-0.21,9.07-0.63c3.54-0.42,7.61-1.08,12.19-1.98v-12.4
				c-0.14-0.97-0.77-1.86-1.88-2.66c-1.11-0.8-2.52-1.51-4.22-2.14c-1.7-0.63-3.6-1.15-5.68-1.56c-2.08-0.42-4.2-0.69-6.36-0.83
				c-1.04,0.9-2.52,1.89-4.43,2.97c-1.91,1.08-3.8,2.21-5.68,3.39c-1.88,1.18-3.53,2.4-4.95,3.65c-1.42,1.25-2.14,2.5-2.14,3.75
				c0,1.67,0.24,2.92,0.73,3.75C888.79,1087.21,889.28,1087.8,889.77,1088.15z M940.93,1051.47l-8.23,8.65v3.33l13.23-2.29
				c0.97-0.14,1.77-0.52,2.4-1.15c0.63-0.63,0.94-1.25,0.94-1.88v-5c0-0.63-0.19-1.15-0.57-1.56c-0.38-0.42-0.82-0.75-1.3-0.99
				c-0.49-0.24-0.99-0.4-1.51-0.47c-0.52-0.07-0.92-0.1-1.2-0.1c-0.69,0-1.37,0.1-2.03,0.31
				C941.99,1050.53,941.42,1050.91,940.93,1051.47z M932.7,1077.41v3.44l8.34,8.65c0.56,0.56,1.16,0.94,1.82,1.15
				c0.66,0.21,1.34,0.31,2.03,0.31c0.28,0,0.68-0.03,1.2-0.1c0.52-0.07,1.02-0.21,1.51-0.42c0.48-0.21,0.92-0.5,1.3-0.89
				c0.38-0.38,0.57-0.92,0.57-1.62v-5.21c0-0.56-0.33-1.13-0.99-1.72c-0.66-0.59-1.44-0.95-2.35-1.09L932.7,1077.41z"/>
			<path class="st170" d="M986.47,1060.64c1.04-1.94,2.35-3.8,3.91-5.57c1.56-1.77,3.26-3.47,5.11-5.11
				c1.84-1.63,3.77-3.16,5.78-4.59c2.01-1.42,3.96-2.73,5.84-3.91h-45.64v-5.52h74.72v5.52h-15.42c0.28,0.21,0.87,0.8,1.77,1.77
				c0.9,0.97,1.88,2.15,2.92,3.54c1.04,1.39,2.05,2.92,3.02,4.59c0.97,1.67,1.7,3.33,2.19,5c0.48,1.53,0.82,3.07,0.99,4.64
				c0.17,1.56,0.26,3.07,0.26,4.53c0,3.75-0.61,7.35-1.82,10.79c-1.22,3.44-2.92,6.62-5.11,9.53c-2.19,2.92-4.84,5.51-7.97,7.76
				c-3.13,2.26-6.57,4.12-10.32,5.57c-3.2,1.18-6.53,1.77-10,1.77c-4.38,0-8.46-0.89-12.24-2.66c-3.79-1.77-7.05-4.13-9.8-7.09
				c-2.75-2.95-4.92-6.41-6.51-10.37c-1.6-3.96-2.4-8.13-2.4-12.5c0-7.43,2.42-14.34,7.27-20.74l7.74,6.15
				c-3.48,4.52-5.21,9.45-5.21,14.8c0,3.2,0.57,6.17,1.71,8.91c1.14,2.74,2.67,5.14,4.58,7.19c1.9,2.05,4.16,3.65,6.76,4.79
				c2.6,1.15,5.35,1.72,8.27,1.72c2.7,0,5.27-0.49,7.69-1.46c2.43-0.97,4.63-2.2,6.6-3.7c1.98-1.49,3.69-3.11,5.15-4.85
				c1.46-1.74,2.53-3.4,3.22-5c0.83-1.94,1.47-3.84,1.92-5.68c0.45-1.84,0.67-3.66,0.67-5.47c0-1.04,0-2,0-2.87
				c0-0.87-0.21-1.84-0.62-2.92c-0.42-1.08-1.09-2.36-2.03-3.86c-0.94-1.49-2.35-3.42-4.22-5.78c-0.42-0.42-0.83-0.63-1.25-0.63
				c-0.21,0-0.45,0.07-0.73,0.21c-9.38,5.7-15.39,11.01-18.03,15.94v0.1c-0.49,0.77-0.73,1.63-0.73,2.6c0,1.46,0.56,2.75,1.67,3.86
				l4.59,4.48l-6.88,6.98l-4.48-4.38c-1.6-1.6-2.78-3.32-3.54-5.16c-0.76-1.84-1.15-3.66-1.15-5.47
				C984.7,1065.57,985.29,1063.07,986.47,1060.64z"/>
			<path class="st170" d="M1050.03,1100.76h-9.8v-54.81c-0.07-2.99-1.6-4.48-4.59-4.48h-1.56v-5.52c2.22,0,3.66,0.12,4.32,0.36
				c0.66,0.24,1.27,0.68,1.82,1.3v-3.02h9.8v1.36h6.25v5.52h-6.25V1100.76z"/>
			<path class="st170" d="M1054.2,1041.46v-5.52h61.59v5.52h-6.15v59.92h-9.8v-1.56c-0.98,0.14-2.02,0.28-3.14,0.42
				c-1.12,0.14-2.27,0.24-3.45,0.31c-2.58,6.53-7,9.8-13.28,9.8c-1.88,0-3.68-0.36-5.38-1.09c-1.71-0.73-3.19-1.72-4.44-2.97
				c-1.25-1.25-2.25-2.73-2.98-4.43c-0.73-1.7-1.1-3.49-1.1-5.37c0-1.53,0.24-2.92,0.73-4.17c-5.56-4.45-8.34-10.07-8.34-16.88
				c0-4.38,1.02-8.08,3.07-11.1c2.05-3.02,4.6-5.57,7.66-7.66c3.06-2.08,6.37-3.79,9.95-5.11c3.58-1.32,6.89-2.5,9.95-3.54
				c3.06-1.04,5.61-2.03,7.66-2.97c2.05-0.94,3.07-2.07,3.07-3.39v-0.21H1054.2z M1092.52,1090.65c3-0.07,5.44-0.38,7.32-0.94
				v-35.22c-1.6,0.77-3.29,1.48-5.07,2.14c-1.78,0.66-3.57,1.3-5.38,1.93c-3.21,1.04-6.12,2.12-8.73,3.23
				c-2.62,1.11-4.83,2.31-6.64,3.6c-1.81,1.29-3.22,2.75-4.23,4.38c-1.01,1.63-1.52,3.53-1.52,5.68c0,3.82,1.53,6.88,4.6,9.17
				c2.16-1.32,4.53-1.98,7.11-1.98C1085.48,1082.62,1089.66,1085.3,1092.52,1090.65z M1079.99,1100.55c1.13,0,2.09-0.4,2.9-1.2
				c0.81-0.8,1.21-1.75,1.21-2.87c0-1.11-0.4-2.07-1.21-2.87c-0.81-0.8-1.78-1.2-2.9-1.2c-1.13,0-2.09,0.4-2.9,1.2
				c-0.81,0.8-1.21,1.76-1.21,2.87c0,1.11,0.4,2.07,1.21,2.87C1077.9,1100.15,1078.86,1100.55,1079.99,1100.55z"/>
			<path class="st170" d="M852.31,1248.94c-1.46,0.28-2.92,0.49-4.38,0.62s-2.92,0.21-4.38,0.21c-6.32,0.21-12.4-0.83-18.24-3.13
				l-2.4-0.94c-4.31-1.95-8.11-4.46-11.41-7.56c-3.3-3.09-6.06-6.56-8.28-10.42c-2.22-3.86-3.91-8.01-5.05-12.45
				c-1.15-4.44-1.72-8.96-1.72-13.55c0-3.61,0.35-7.21,1.04-10.79c0.69-3.58,1.75-6.98,3.18-10.21c1.42-3.23,3.19-6.23,5.31-9.01
				c2.12-2.78,4.64-5.17,7.56-7.19c3.19-2.36,5.59-3.54,7.19-3.54h4.79v5.52h-1.04c-0.42,0.21-1.09,0.61-2.03,1.2
				c-0.94,0.59-1.95,1.29-3.02,2.08c-1.08,0.8-2.15,1.69-3.23,2.66c-1.08,0.97-2,1.98-2.76,3.02c-2.5,3.33-4.36,7.16-5.57,11.46
				c-1.22,4.31-1.82,8.58-1.82,12.82c0,3.54,0.45,7.1,1.35,10.68c0.9,3.58,2.24,6.95,4.01,10.11c1.77,3.16,3.99,6.01,6.67,8.55
				c2.67,2.53,5.82,4.53,9.43,5.99l3.54,1.15c3.75,0.97,7.4,1.46,10.94,1.46c1.81,0,3.61-0.12,5.42-0.36
				c1.8-0.24,3.52-0.64,5.16-1.2c1.63-0.56,3.13-1.29,4.48-2.19c1.35-0.9,2.48-2.05,3.39-3.44l10.42,6.98
				c-2.29,3.33-5.11,5.92-8.44,7.76C859.08,1247.08,855.71,1248.31,852.31,1248.94z"/>
			<path class="st170" d="M870.85,1230.6l-41.27-20.74l-2.92-1.15l3.86-9.07c6.67,2.64,12.33,3.96,16.99,3.96
				c5.28,0,9.29-1.55,12.04-4.64c2.74-3.09,4.12-7.17,4.12-12.24c0-5.28-1.91-8.75-5.73-10.42c0.76,2.08,1.15,4,1.15,5.73
				c0,1.95-0.45,3.87-1.35,5.78c-0.9,1.91-2.29,3.63-4.17,5.16c-1.88,1.53-4.22,2.76-7.03,3.7c-2.81,0.94-6.1,1.41-9.85,1.41
				c-1.25,0-2.43-0.24-3.54-0.73c-1.11-0.49-2.08-1.15-2.92-1.98c-0.83-0.83-1.49-1.81-1.98-2.92c-0.49-1.11-0.73-2.29-0.73-3.54
				v-22.4h-6.15v-5.52h56.38v5.52H859.5c2.01,0.56,3.87,1.44,5.57,2.66c1.7,1.22,3.18,2.69,4.43,4.43c1.25,1.74,2.22,3.72,2.92,5.94
				c0.69,2.22,1.04,4.62,1.04,7.19c0,6.11-1.41,11.43-4.22,15.94c-2.81,4.52-7.17,7.71-13.08,9.59l19.17,9.59L870.85,1230.6z
				 M837.3,1188.18c3.89-0.14,6.86-0.83,8.91-2.08c2.05-1.25,3.07-2.67,3.07-4.27c0-1.6-0.99-3.04-2.97-4.32
				c-1.98-1.28-4.95-2.03-8.91-2.24h-0.1V1188.18z"/>
			<path class="st170" d="M891.59,1225.8h-9.8v-54.81c-0.07-2.99-1.6-4.48-4.59-4.48h-1.56v-5.52c2.22,0,3.66,0.12,4.32,0.36
				c0.66,0.24,1.27,0.68,1.82,1.3v-3.02h9.8v1.36h6.25v5.52h-6.25V1225.8z"/>
			<path class="st170" d="M901.91,1181.2c-1.04-1.94-1.76-3.86-2.14-5.73c-0.38-1.88-0.57-3.65-0.57-5.32c0-0.69,0-1.34,0-1.93
				c0-0.59,0.07-1.16,0.21-1.72h-3.65v-5.52h65.34v5.52h-6.15v59.4h-9.8v-2.19l-6.25,1.04c-0.83,3.13-2.45,5.68-4.85,7.66
				c-2.4,1.98-5.26,2.97-8.6,2.97c-3.4,0-6.36-1.03-8.86-3.07c-2.5-2.05-4.1-4.74-4.79-8.08c-2.5-0.9-4.53-2.03-6.1-3.39
				c-1.56-1.36-2.76-2.8-3.59-4.33c-0.83-1.53-1.39-3.04-1.67-4.53c-0.28-1.49-0.42-2.87-0.42-4.12c0-2.29,0.49-4.34,1.46-6.15
				c0.97-1.81,2.19-3.42,3.65-4.85c1.46-1.42,3.07-2.69,4.85-3.8c1.77-1.11,3.46-2.08,5.05-2.92h-0.1
				C909.1,1188.85,904.75,1185.86,901.91,1181.2z M945.15,1213.71v-47.21H909.3c-0.21,0.97-0.31,2.08-0.31,3.33
				c0,1.18,0.12,2.34,0.36,3.49c0.24,1.15,0.68,2.19,1.3,3.13c0.62,0.94,1.46,1.77,2.5,2.5c1.04,0.73,2.36,1.27,3.96,1.62
				c1.46,0.35,2.9,0.73,4.33,1.15c1.42,0.42,2.71,0.96,3.86,1.62c1.15,0.66,2.07,1.46,2.76,2.4c0.69,0.94,1.04,2.03,1.04,3.28
				c0,1.67-0.49,3.07-1.46,4.22c-0.97,1.15-2.22,2.22-3.75,3.23c-1.53,1.01-3.23,1.98-5.11,2.92c-1.88,0.94-3.68,2.03-5.42,3.28
				c-2.36,1.67-3.54,3.4-3.54,5.21c0,1.25,0.24,2.43,0.73,3.54c0.49,1.11,1.49,2.08,3.02,2.92c2.92-4.45,6.88-6.67,11.88-6.67
				c5.21,0,9.24,2.47,12.09,7.4c1.18-0.14,2.4-0.33,3.65-0.57C942.44,1214.25,943.76,1213.99,945.15,1213.71z M925.46,1225.59
				c1.11,0,2.05-0.4,2.81-1.2c0.76-0.8,1.15-1.75,1.15-2.87s-0.38-2.07-1.15-2.87c-0.77-0.8-1.7-1.2-2.81-1.2
				c-1.11,0-2.07,0.4-2.86,1.2c-0.8,0.8-1.2,1.75-1.2,2.87s0.4,2.07,1.2,2.87C923.39,1225.2,924.34,1225.59,925.46,1225.59z"/>
			<path class="st170" d="M974.95,1225.8h-9.8v-54.81c-0.07-2.99-1.6-4.48-4.59-4.48h-1.56v-5.52c2.22,0,3.66,0.12,4.33,0.36
				c0.66,0.24,1.27,0.68,1.82,1.3v-3.02h9.8v1.36h6.25v5.52h-6.25V1225.8z"/>
			<path class="st170" d="M1002.98,1172.14c1.88-3.68,4.43-6.51,7.66-8.49c3.23-1.98,7.07-2.97,11.52-2.97
				c7.71,0,15.7,3.16,23.97,9.48c0-0.07,0.03-0.1,0.1-0.1v-10.42h9.8v1.36h6.15v5.52h-6.15v59.5h-9.8v-40.85
				c-1.67,1.81-3.48,3.59-5.44,5.37c-1.95,1.77-4.04,3.49-6.27,5.16l-16.62,15.21l-6.69-7.19l4.48-4.06
				c-2.15-0.62-4.13-1.58-5.92-2.87c-1.79-1.28-3.32-2.76-4.6-4.43c-1.27-1.67-2.27-3.51-2.99-5.52c-0.72-2.01-1.08-4.13-1.08-6.36
				C1001.11,1177.76,1001.73,1174.99,1002.98,1172.14z M1022.05,1170.47c-1.46,0-2.87,0.23-4.22,0.68
				c-1.35,0.45-2.55,1.09-3.59,1.93c-1.04,0.83-1.86,1.88-2.45,3.13c-0.59,1.25-0.89,2.71-0.89,4.38c0,1.39,0.28,2.69,0.83,3.91
				c0.55,1.22,1.3,2.28,2.24,3.18c0.94,0.9,2.07,1.63,3.39,2.19c1.32,0.56,2.71,0.83,4.17,0.83c2.08,0,4.03-0.66,5.84-1.98
				l0.73-0.52l11.57-10.52C1033.27,1172.87,1027.4,1170.47,1022.05,1170.47z"/>
			<path class="st170" d="M1076.03,1225.8h-9.8v-54.81c-0.07-2.99-1.6-4.48-4.59-4.48h-1.56v-5.52c2.22,0,3.66,0.12,4.32,0.36
				c0.66,0.24,1.27,0.68,1.82,1.3v-3.02h9.8v1.36h6.25v5.52h-6.25V1225.8z"/>
			<path class="st170" d="M1086.35,1181.2c-1.04-1.94-1.75-3.86-2.14-5.73c-0.38-1.88-0.57-3.65-0.57-5.32c0-0.69,0-1.34,0-1.93
				c0-0.59,0.07-1.16,0.21-1.72h-3.65v-5.52h65.34v5.52h-6.15v59.4h-9.8v-2.19l-6.25,1.04c-0.83,3.13-2.45,5.68-4.85,7.66
				c-2.4,1.98-5.26,2.97-8.6,2.97c-3.4,0-6.36-1.03-8.86-3.07c-2.5-2.05-4.1-4.74-4.79-8.08c-2.5-0.9-4.53-2.03-6.1-3.39
				c-1.56-1.36-2.76-2.8-3.6-4.33c-0.83-1.53-1.39-3.04-1.67-4.53c-0.28-1.49-0.42-2.87-0.42-4.12c0-2.29,0.49-4.34,1.46-6.15
				c0.97-1.81,2.19-3.42,3.65-4.85c1.46-1.42,3.07-2.69,4.85-3.8c1.77-1.11,3.45-2.08,5.05-2.92h-0.1
				C1093.54,1188.85,1089.2,1185.86,1086.35,1181.2z M1129.59,1213.71v-47.21h-35.85c-0.21,0.97-0.31,2.08-0.31,3.33
				c0,1.18,0.12,2.34,0.36,3.49c0.24,1.15,0.68,2.19,1.3,3.13c0.62,0.94,1.46,1.77,2.5,2.5c1.04,0.73,2.36,1.27,3.96,1.62
				c1.46,0.35,2.9,0.73,4.32,1.15c1.42,0.42,2.71,0.96,3.86,1.62c1.15,0.66,2.07,1.46,2.76,2.4c0.69,0.94,1.04,2.03,1.04,3.28
				c0,1.67-0.49,3.07-1.46,4.22c-0.97,1.15-2.22,2.22-3.75,3.23c-1.53,1.01-3.23,1.98-5.11,2.92c-1.88,0.94-3.68,2.03-5.42,3.28
				c-2.36,1.67-3.54,3.4-3.54,5.21c0,1.25,0.24,2.43,0.73,3.54c0.48,1.11,1.49,2.08,3.02,2.92c2.92-4.45,6.88-6.67,11.88-6.67
				c5.21,0,9.24,2.47,12.09,7.4c1.18-0.14,2.4-0.33,3.65-0.57C1126.88,1214.25,1128.2,1213.99,1129.59,1213.71z M1109.9,1225.59
				c1.11,0,2.05-0.4,2.81-1.2c0.76-0.8,1.15-1.75,1.15-2.87s-0.38-2.07-1.15-2.87c-0.77-0.8-1.7-1.2-2.81-1.2
				c-1.11,0-2.07,0.4-2.87,1.2c-0.8,0.8-1.2,1.75-1.2,2.87s0.4,2.07,1.2,2.87C1107.83,1225.2,1108.79,1225.59,1109.9,1225.59z"/>
		</g>
	</g>
</g>
</svg>
