<?xml version="1.0" encoding="utf-8"?>
<!-- Generator: Adobe Illustrator 24.1.2, SVG Export Plug-In . SVG Version: 6.00 Build 0)  -->
<svg version="1.1" id="Layer_1" xmlns="http://www.w3.org/2000/svg" xmlns:xlink="http://www.w3.org/1999/xlink" x="0px" y="0px"
	 viewBox="0 0 1920 1920" style="enable-background:new 0 0 1920 1920;" xml:space="preserve">
<style type="text/css">
	.st0{fill:#FFFFFF;}
	.st1{fill:#046937;}
	.st2{fill:#079247;}
	.st3{filter:url(#Adobe_OpacityMaskFilter);}
	.st4{filter:url(#Adobe_OpacityMaskFilter_1_);}
	.st5{mask:url(#SVGID_1_);fill:url(#SVGID_2_);}
	.st6{opacity:0.9;fill:url(#SVGID_3_);}
	.st7{fill:#939598;}
	.st8{fill:#3DB54A;}
	.st9{opacity:0.35;}
	.st10{fill:#E6E6E5;}
	.st11{opacity:0.6;fill:#079247;}
	.st12{fill:url(#SVGID_4_);}
	.st13{fill:url(#SVGID_5_);}
	.st14{fill:url(#SVGID_6_);}
	.st15{fill-rule:evenodd;clip-rule:evenodd;fill:#FFFFFF;}
	.st16{opacity:0.6;}
	.st17{fill:#F3F3F3;}
	.st18{fill:#F7F8F8;}
	.st19{fill:#E4E3E3;}
	.st20{fill:#E8E6E5;}
	.st21{fill:#D4D3D3;}
	.st22{fill:#BFBDBD;}
	.st23{fill:#D3D2D2;}
	.st24{fill:#CFCFCE;}
	.st25{fill:#C9C7C7;}
	.st26{fill:#E0E1E0;}
	.st27{fill:#E2E1E1;}
	.st28{fill:#B6B5B5;}
	.st29{fill:#B8B7B7;}
	.st30{fill:#C7C5C5;}
	.st31{fill:#949293;}
	.st32{fill:#B2B0B0;}
	.st33{fill:#ACAAAA;}
	.st34{fill:#A9A8A8;}
	.st35{fill:#B3B1B2;}
	.st36{fill:#AAA9A9;}
	.st37{fill:#868485;}
	.st38{fill:#8F8C8D;}
	.st39{fill:#939190;}
	.st40{fill:#949192;}
	.st41{fill:#908F8E;}
	.st42{fill:#A8A5A6;}
	.st43{fill:#A5A4A4;}
	.st44{fill:#6A6868;}
	.st45{fill:#706F6F;}
	.st46{fill:#5E5C5C;}
	.st47{fill:#5B5859;}
	.st48{fill:url(#SVGID_7_);}
	.st49{fill:url(#SVGID_8_);}
	.st50{fill:url(#SVGID_9_);}
	.st51{fill:url(#SVGID_10_);}
	.st52{fill:#F4F4F4;}
	.st53{fill:#E4E4E4;}
	.st54{fill:#D4D3D2;}
	.st55{fill:#C3C2C2;}
	.st56{fill:#D7D6D5;}
	.st57{fill:#D9D8D8;}
	.st58{fill:#DBDADA;}
	.st59{fill:#C2C0C0;}
	.st60{fill:#929090;}
	.st61{fill:#ACAAAB;}
	.st62{fill:#999798;}
	.st63{fill:#ADACAC;}
	.st64{fill:#878484;}
	.st65{fill:#9C9C9C;}
	.st66{fill:url(#SVGID_11_);}
	.st67{fill:url(#SVGID_12_);}
	.st68{fill:url(#SVGID_13_);}
	.st69{fill:url(#SVGID_14_);}
	.st70{fill:#EBEAEA;}
	.st71{fill:#DFDFDE;}
	.st72{fill:#ECECEC;}
	.st73{fill:#E1E0E0;}
	.st74{fill:#D0D0D0;}
	.st75{fill:#BBBABA;}
	.st76{fill:#CCCBCC;}
	.st77{fill:#BAB9B9;}
	.st78{fill:#CFCDCE;}
	.st79{fill:#CECCCD;}
	.st80{fill:#CBCACA;}
	.st81{fill:#B4B2B3;}
	.st82{fill:#C8C5C6;}
	.st83{fill:#B2B1B1;}
	.st84{fill:#A09E9F;}
	.st85{fill:#999698;}
	.st86{fill:#B5B3B4;}
	.st87{fill:#B1B0B1;}
	.st88{fill:#969595;}
	.st89{fill:#888686;}
	.st90{fill:#727070;}
	.st91{fill:#888586;}
	.st92{fill:#868383;}
	.st93{fill:url(#SVGID_15_);}
</style>
<g>
	<linearGradient id="SVGID_1_" gradientUnits="userSpaceOnUse" x1="1493.0724" y1="849.3627" x2="1299.9681" y2="937.3764">
		<stop  offset="0.0661" style="stop-color:#ED2224"/>
		<stop  offset="0.2708" style="stop-color:#DC2427"/>
		<stop  offset="0.6478" style="stop-color:#C8272B"/>
		<stop  offset="0.8966" style="stop-color:#C1282D"/>
	</linearGradient>
	<path style="fill:url(#SVGID_1_);" d="M1452.08,914.17c0,0-1.31-118.22-57.8-60.42c-56.49,57.8-9.2,52.54-9.2,52.54L1452.08,914.17
		z"/>
	<linearGradient id="SVGID_2_" gradientUnits="userSpaceOnUse" x1="347.9749" y1="928.576" x2="638.2915" y2="831.3658">
		<stop  offset="0.1322" style="stop-color:#ED2224"/>
		<stop  offset="0.3206" style="stop-color:#DC2427"/>
		<stop  offset="0.6676" style="stop-color:#C8272B"/>
		<stop  offset="0.8966" style="stop-color:#C1282D"/>
	</linearGradient>
	<path style="fill:url(#SVGID_2_);" d="M465.38,914.17c0,0,1.31-118.22,57.8-60.42c56.49,57.8,9.2,52.54,9.2,52.54L465.38,914.17z"
		/>
	
		<radialGradient id="SVGID_3_" cx="886.5053" cy="-3304.3831" r="388.9401" gradientTransform="matrix(1.8573 0 0 0.0805 -688.4342 1169.777)" gradientUnits="userSpaceOnUse">
		<stop  offset="0" style="stop-color:#0D1F44"/>
		<stop  offset="0.1468" style="stop-color:#393F5E"/>
		<stop  offset="0.3184" style="stop-color:#666680"/>
		<stop  offset="0.484" style="stop-color:#908FA3"/>
		<stop  offset="0.6391" style="stop-color:#B8B7C4"/>
		<stop  offset="0.7813" style="stop-color:#DAD9DF"/>
		<stop  offset="0.9061" style="stop-color:#F2F1F3"/>
		<stop  offset="1" style="stop-color:#FFFFFF"/>
	</radialGradient>
	<path style="fill:url(#SVGID_3_);" d="M958.07,856.68c-284.25,0-530.15,10.68-648.06,26.2v41.56
		c117.91,15.52,363.81,26.2,648.06,26.2c287.39,0,535.57-10.91,651.92-26.72V883.4C1493.64,867.6,1245.46,856.68,958.07,856.68z"/>
	<rect x="310.01" y="905.91" class="st15" width="1299.98" height="189.53"/>
	<g class="st16">
		<path class="st0" d="M1466.77,846.2c-4.31-8.15-8.7-16.24-17.33-20.8c5.65,0,13.91-2.22,16.28,0.57
			c2.92,3.43,0.93,11.04,1.05,16.84C1466.79,843.94,1466.77,845.07,1466.77,846.2z"/>
		<path class="st0" d="M563.72,1043.77c-14.19-0.8-22.93-9.27-27.05-21.73c-14.52-43.88-28.46-87.94-42.37-132.02
			c-2.74-8.68-7.45-16.93-6.85-26.51c-1.32-3.47-1.32-6.93,0-10.4c1.05-14.94,12.23-24.9,29.22-25.97c2.3-0.14,4.62-0.03,6.93-0.03
			c300.04,0,600.09,0,900.13,0.02c3.45,0,7-0.23,10.35,0.43c24.05,4.7,33.28,20.84,24.18,45.76c-11.53,31.57-21.91,63.58-35.53,94.4
			c-6.5,14.7-10.99,30.28-16.57,45.4c-4.77,12.94-10.58,25.1-25.41,29.39c-1.91,0.55-3.89,0.84-5.84,1.25c-3,1.59-6.24,0.8-9.36,0.8
			c-264.16,0.04-528.32,0.04-792.48,0C569.96,1044.57,566.72,1045.36,563.72,1043.77z"/>
		<path class="st0" d="M563.72,1043.77c270.4,0,540.79,0,811.19,0c-2.56,2.84-5.95,1.68-8.98,1.68
			c-264.41,0.05-528.82,0.05-793.22,0C569.67,1045.46,566.28,1046.61,563.72,1043.77z"/>
		<path class="st0" d="M487.45,853.13c0,3.47,0,6.93,0,10.4C484.82,860.06,484.82,856.6,487.45,853.13z"/>
		<path class="st18" d="M1393.97,1021.24c-3.13,11-12.9,17.87-24.19,15.67c-6.91-1.35-11.72,3.61-18.27,3.6
			c-254.16-0.24-508.32,0-762.47-0.88c-11.07-0.04-23.89,1.21-35.12-5.6c-6.71-4.07-10.57-10.25-11.73-16.16
			c-2.23-11.38-6.29-21.97-9.77-32.85c-7.7-24.07-14.35-48.49-22.76-72.31c-5.37-15.21-9.08-30.98-15.81-45.73
			c-4.06-8.92,0.22-17.14,5.05-23.95c4.42-6.22,10.71-11.52,20-7.64c2.12,0.89,5.68,0.76,7.49-0.48c4.24-2.91,8.71-2.58,13.29-2.58
			c289.39,0,578.79-0.05,868.18,0.18c11.04,0.01,22.59,1.21,32.98,4.65c13.21,4.37,17.93,15.91,13.49,29.06
			c-3.1,9.15-9.44,17.14-9.71,27.39c-0.05,1.82-1.93,2.74-3.85,2.84c-3.51-4.19-0.81-8.18,0.37-12.23
			c2.04-8.92,6.85-17.11,5.92-26.82c-0.89-9.29-4.05-13.66-13.04-15.71c-5.08-1.16-10.18-1.75-15.43-1.75
			c-296.6,0.04-593.2,0.03-889.8,0.06c-9.28,0-18.71-0.09-25,8.64c-5.6,6.22-4.14,13.48-2.5,20.45c4.77,20.21,12,39.7,18.34,59.43
			c9.16,28.52,17.77,57.22,27.79,85.48c4.26,14.78,14.86,18.78,29.16,18.77c261.43-0.16,522.86-0.13,784.29-0.08
			c10.13,0,19.57-1.29,26.88-9.27C1389.33,1021.72,1391.39,1020.51,1393.97,1021.24z"/>
		<path class="st52" d="M1442.5,886.06c-0.57,3.47-2.35,6.73-1.73,10.4c-1.4,0.75-1.7,2.04-1.73,3.47c-2.4,4.98-1.77,10.96-5.2,15.6
			c-1.4,0.75-1.7,2.04-1.73,3.47c-1.56,4.69-1.93,9.82-5.2,13.87c0,0.58-0.01,1.15-0.01,1.73c-2.83,4.21-1.92,9.82-5.2,13.86
			c-1.4,0.75-1.7,2.04-1.73,3.47c-1.56,4.69-1.93,9.82-5.2,13.87c0,0.58-0.01,1.15-0.01,1.73c-2.83,4.21-1.92,9.82-5.2,13.86
			c-1.4,0.75-1.7,2.04-1.73,3.47c-2.4,4.98-1.77,10.96-5.2,15.6c-1.4,0.75-1.7,2.04-1.73,3.47c-1.34,6.17-2.04,12.59-6.93,17.33v0
			c-10.63,13.07-25.01,14.04-40.55,14.03c-259.39-0.23-518.79-0.16-778.18-0.17c-18.64,0-24.66-4.44-30.59-22.53
			c1.09-0.53,2.14-0.45,3.16,0.21c8.9,15.63,23.16,18.34,39.81,18.32c254.33-0.25,508.66-0.17,762.99-0.17
			c3.46,0,6.93,0.08,10.39-0.06c17.58-0.7,26.16-6.95,32.36-23.56c3.43-9.18,6.75-18.41,10.09-27.61
			c10.06-25.66,19.88-51.42,28.36-77.67c0.92-2.91,1.58-5.9,2.34-8.86c1.06-2.88,1.77-5.98,4.66-7.78
			C1440.15,884.95,1441.41,885.07,1442.5,886.06z"/>
		<path class="st18" d="M1393.97,1021.24c2.31-5.78,4.62-11.55,6.93-17.33C1402.42,1011.22,1401.74,1017.65,1393.97,1021.24z"/>
		<path class="st18" d="M1402.64,1000.44c-0.43-5.92,2.44-10.74,5.2-15.6C1405.91,989.98,1410.81,997.39,1402.64,1000.44z"/>
		<path class="st18" d="M1433.84,915.52c-0.43-5.92,2.44-10.74,5.2-15.6C1437.1,905.06,1442.02,912.47,1433.84,915.52z"/>
		<path class="st18" d="M1409.57,981.38c-0.38-5.41,1.55-9.96,5.2-13.86C1412.84,972.06,1417.38,979.04,1409.57,981.38z"/>
		<path class="st18" d="M1421.7,948.45c-0.38-5.41,1.55-9.96,5.2-13.86C1424.97,939.13,1429.51,946.11,1421.7,948.45z"/>
		<path class="st18" d="M1414.78,965.79c1.38-4.75,2.22-9.71,5.2-13.87C1420.72,957.47,1420.25,962.57,1414.78,965.79z"/>
		<path class="st18" d="M1426.91,932.86c1.38-4.75,2.22-9.71,5.2-13.87C1432.85,924.54,1432.38,929.64,1426.91,932.86z"/>
		<path class="st17" d="M1442.5,886.06c-1.14,0-2.28,0.01-3.42,0.01c-2.21-3.29-0.42-6.19,0.85-9.16c1.99-4.19,3.46-8.59,4.53-13.08
			c2.34-9.76-3.75-18.97-13.76-20.15c-8.57-1.01-17.11-2.08-25.83-2.07c-286.52,0.12-573.04,0.12-859.57,0.01
			c-9.85,0-19.54,1.35-29.31,1.94c-5.33,0.32-8.12,5.43-13.03,6.37c-0.56-0.09-1.11-0.18-1.67-0.28
			c2.88-10.75,12.18-10.71,20.54-12.04c2.82-0.45,5.76-0.08,8.65-0.08c295.12,0,590.24,0.01,885.36-0.05
			c6.65,0,13.19,0.42,19.7,1.78c8.49,1.77,13.16,7.57,13.97,16.26C1450.56,866.58,1446.46,876.26,1442.5,886.06z"/>
		<path class="st17" d="M546.38,1012.58l-0.87,0c0,0-0.87,0-0.87,0c-7.27-22.07-14.72-44.09-21.77-66.23
			c-8.17-25.67-16.3-51.36-23.76-77.24c-1.8-6.23-4.63-13.69,2.19-19.46c0,0,0.01,0.01,0.01,0.01
			c2.83,36.68,19.18,69.64,29.03,104.38c4.71,16.62,9.94,33.15,15.69,49.48C547.06,1006.41,548.7,1009.48,546.38,1012.58z"/>
		<path class="st70" d="M546.38,1012.58c-11.8-36.87-23.63-73.73-35.38-110.61c-3.39-10.65-6.37-21.42-9.81-32.05
			c-2.21-6.84-2.06-13.51,0.13-20.25c9.21-10.69,22.15-10.2,34.21-10.23c133.43-0.27,266.86-0.17,400.29-0.17
			c157.98,0,315.95-0.03,473.93,0.08c7.72,0.01,15.49,0.82,23.15,1.86c8.38,1.14,15.79,10.95,14.66,19.62
			c-0.85,6.49-2.4,12.99-6.78,18.3c-2.92-3.57-0.8-7.17,0.02-10.71c3.48-15.14-2.21-22.63-17.75-23.19
			c-3.46-0.12-6.93-0.06-10.39-0.06c-286.61,0-573.22,0-859.83,0.02c-4.9,0-9.82-0.35-14.67,0.48c-5.03,1.58-10.26,0.84-15.4,1.18
			c-11.12,0.73-15.98,6.09-15.6,17.07c0.21,6.12,2.23,11.82,4.04,17.56c5.53,17.51,11.51,34.88,16.16,52.68
			c7.55,26.35,15.76,52.47,25.15,78.21c3.78,10.37,11.78,14.39,22.1,15.01c3.46,0.21,6.93,0.09,10.4,0.09c256.5,0,513,0,769.51,0
			c3.18,0,6.35,0.01,9.53-0.04c10.71-0.17,18.82-4.33,23.55-14.46c3.3-7.08,6.27-14.25,8.77-21.63c1.47-6.8,2.35-13.85,7.93-18.94
			c3.81,0.78,2.79,3.15,1.82,5.51c-3.85,11.14-7.56,22.33-11.59,33.4c-5.38,14.77-16.64,21.32-31.84,22.03
			c-1.44,0.07-2.89,0.02-4.33,0.02c-259.27,0-518.54-0.01-777.81,0.03C564.79,1033.4,552.33,1028.43,546.38,1012.58z"/>
		<path class="st71" d="M535.96,844.44c2.58-2.8,5.97-1.66,9-1.66c292.05-0.05,584.1-0.05,876.14-0.04
			c20.16,0,27.28,9.72,21.36,28.87c-0.76,2.45-1.14,5.01-1.7,7.52c-0.56,2.31-1.13,4.62-1.69,6.93c-1.17,2.31-2.33,4.63-3.5,6.94
			c-1,3.19-2.02,6.37-2.8,9.63c-2.04,7.46-5.84,14.3-7.65,21.84c-0.68,2.81-1.89,4.89-5.35,3.5c-2.35-4.15,0.28-7.65,1.48-11.32
			c3.36-10.24,8.29-19.95,10.26-30.65c0.88-6.96,4.64-13.03,6.07-19.81c2.53-3.64,3.86-7.31,0.18-11.06
			c-1.89-1.84-4.02-3.31-6.51-4.26c-2.32-0.91-4.82-1.13-7.19-1.9c-1.86-0.56-3.68-1.21-5.56-1.75c-4.92-0.51-9.83-0.28-14.73-0.28
			c-284.01-0.01-568.02,0-852.03-0.08C546.47,846.84,540.73,848.46,535.96,844.44z"/>
		<path class="st72" d="M1420,927.68c5.59-2.43,4.67-8.38,6.74-12.69c2.07-4.31,3.6-8.88,5.36-13.34c0.58-0.83,1.16-0.79,1.73,0
			c-3.26,15.16-9.76,29.22-15.06,43.67c-4.01,10.94-6.99,22.3-12.68,32.59c-0.06-1.9,0.3-3.93-1.68-5.21
			c-1.67-7.92,3.93-13.96,5.41-21.07C1413.22,943.65,1414.7,934.86,1420,927.68z"/>
		<path class="st70" d="M1433.84,901.66c-0.58,0-1.16,0-1.73,0c0.74-3.05,1.09-6.26,3.48-8.65
			C1435.76,896.04,1435.49,898.99,1433.84,901.66z"/>
		<path class="st73" d="M1399.17,990.05c-2.31,8.97-6.11,17.32-10.18,25.6c-4.87,9.91-13.18,13.85-23.68,14.25
			c-2.02,0.08-4.04,0.02-6.06,0.02c-259.49,0-518.98,0-778.47,0c-21.05,0-26.71-3.96-33.37-23.99
			c-7.26-21.82-14.32-43.7-21.39-65.58c-0.77-2.38-2.1-4.87-0.44-7.46c0.82-0.6,1.61-0.57,2.38,0.09c2.24,2.89,2.82,6.4,3.66,9.82
			c7.36,20.38,12.36,41.55,20.77,61.56c2.01,3.94,4.01,7.89,5.72,11.97c0.69,2.68,2.3,4.47,5.04,5.2c0.78,0.28,1.5,0.63,2.23,1.01
			c3.13,2.06,6.9,1.91,10.32,2.98c4.06,0.31,8.11,0.2,12.15,0.2c237.16,0,474.31,0.01,711.46-0.01c17.45,0.1,34.91-0.06,52.36,0.09
			c6.62,0.06,13.14-0.26,19.5-2.13c0.82-0.39,1.62-0.85,2.34-1.41c9.14-5.14,14.45-13.18,17.76-22.93c1.22-3.6,1.43-7.99,5.6-10.04
			C1397.74,989.19,1398.51,989.46,1399.17,990.05z"/>
		<path class="st74" d="M527.3,932.88l-0.87-0.01c0,0-0.87,0.01-0.87,0.01c-6.35-19.62-13.34-39.07-18.88-58.92
			c-6.22-22.28-0.06-29.5,23.24-29.51c2.01,0,4.02-0.01,6.04-0.01c291.67,0.01,583.35,0.02,875.02,0.11c3.58,0,7.56-1.43,10.74,1.64
			c-4.18,3.77-9.34,2.4-14.1,2.4c-102.25,0.08-204.49,0.06-306.74,0.06c-187.74,0-375.48,0-563.22,0c-3.75,0-7.51-0.04-11.22,0.11
			c-0.92,0.08-1.87,0.25-2.76,0.53c-14.69,2.75-16.67,6.07-12.72,21.49c0.27,0.75,0.47,1.52,0.65,2.29
			c1.22,7.04,4.03,13.59,6.22,20.33c0.3,0.75,0.52,1.51,0.72,2.29c0.72,3.96,1.8,7.8,3.56,11.44c2.41,5.93,4.57,11.93,5.95,18.19
			C528.63,927.92,529.58,930.57,527.3,932.88z"/>
		<path class="st71" d="M1399.17,990.05c-0.59,0-1.17-0.01-1.76-0.01c-1.41-1.39-1.79-3.12-1.65-5.02
			c3.58-11.32,6.5-22.91,13.1-33.04c0.82-0.55,1.65-0.56,2.48-0.02c-1.03,7.34-4.76,13.78-6.92,20.75
			C1403.2,978.65,1399.05,983.7,1399.17,990.05z"/>
		<path class="st75" d="M1425.19,847.91c2.39,0.27,5.11-0.78,6.96,1.71c3.39,2.61,6.87,5.14,8.29,9.48
			c0.37,2.24,0.33,4.39-1.38,6.17c0.98,7.61-5.03,13.45-5.25,20.75c-2.01,1.38-1.09,6.7-5.87,4.35c-1.91-5.82,1.54-10.6,3.31-15.59
			c1.48-4.17,2.25-8.24,2.01-12.61c-0.33-6.18-4.39-8.2-9.72-8.91c-1.02-0.21-1.98-0.5-2.96-0.82c-4.92-0.58-9.84-0.32-14.75-0.32
			c-289.17-0.02-578.34,0.01-867.5-0.02c-4.45,0.14-8.96-0.6-13.37,0.64c-1.39,0.36-2.81,0.52-4.24,0.49
			c-1.41-0.09-2.71-0.48-3.82-1.4c-0.91-4.84,4.07-1.82,5.22-3.9l-0.01,0c3-1.61,6.24-0.81,9.35-0.81
			c294.78-0.04,589.56-0.04,884.34,0C1418.94,847.13,1422.17,846.36,1425.19,847.91z"/>
		<path class="st76" d="M1425.19,847.91c-301.02,0.01-602.04,0.02-903.07,0.03c3.16-3.13,7.14-1.67,10.71-1.67
			c296.3-0.08,592.59-0.08,888.89-0.08C1423.15,846.21,1424.44,846.52,1425.19,847.91z"/>
		<path class="st74" d="M1428.65,891.27c1.72-1.75,3.44-3.5,5.15-5.24c-1.98,11.44-7.29,21.75-11.01,32.61
			c-1.02,2.98-1.87,6.03-2.79,9.05c-1.22,8.69-5.07,16.44-8.66,24.28c-0.59-0.01-1.18-0.02-1.76-0.04
			c-1.94-1.65-2.02-3.95-2.19-6.23c-0.06-0.9-0.05-1.79,0.01-2.69c0.11-1.78,0.46-3.5,1.28-5.09c6.23-8.13,8.1-18.12,11.61-27.41
			c3.21-5.85,4.02-12.66,7.37-18.46C1427.98,891.78,1428.31,891.53,1428.65,891.27z"/>
		<path class="st74" d="M1439.05,865.27c-0.01-2.31-0.02-4.62-0.03-6.93c-1.14-1.74-1.29-3.47,0.01-5.21
			C1441.9,857.18,1445.95,861.22,1439.05,865.27z"/>
		<path class="st76" d="M1439.03,853.14c0,1.74,0,3.47-0.01,5.21c-2.3-2.91-4.59-5.82-6.89-8.73
			C1435.14,849.42,1436.65,852.13,1439.03,853.14z"/>
		<path class="st77" d="M1374.95,1023.02c-0.04,0.54-0.07,1.07-0.1,1.61c-6.17,1.6-12.46,1.81-18.79,1.81
			c-257.36,0-514.73-0.01-772.1,0.04c-7.01,0-13.74-0.94-20.26-3.48c-0.55-0.04-1.11-0.07-1.66-0.09c-2.24-1.22-3.94-2.97-5.21-5.17
			c-1.77-4.02-4.64-7.56-5.27-12.07c-1.41-2.28-2.04-4.6-0.35-7.05c0.93-0.58,1.93-0.75,3-0.52c2.21,1.02,2.9,3.07,3.55,5.17
			c3.75,12.11,12.09,15.72,24.43,15.71c260.88-0.22,521.75-0.21,782.61-0.17c2.91,0.06,5.84-0.03,8.72-0.53
			c0.92-0.03,1.81,0.16,2.65,0.56C1378.17,1020.92,1376.16,1021.85,1374.95,1023.02z"/>
		<path class="st78" d="M563.7,1023c225.92,3.92,451.86,0.64,677.79,1.67c44.45,0.2,88.9-0.01,133.35-0.04
			c-5.19,2.59-10.73,3.52-16.47,3.52c-19.35-0.01-38.69-0.03-58.04-0.04c-3.3-1.6-6.82-0.78-10.23-0.78
			c-235.84-0.05-471.68-0.04-707.52-0.08c-3.4,0-6.93,0.83-10.23-0.79C569.02,1026.44,565.44,1027.03,563.7,1023z"/>
		<path class="st74" d="M572.37,1026.45c239.36,0,478.73-0.01,718.09,0.05c3.31,0,6.99-1.3,9.88,1.61
			c-239.95,0.02-479.89,0.04-719.84,0.02C577.73,1028.12,574.65,1029.06,572.37,1026.45z"/>
		<path class="st76" d="M551.59,998.71c-0.01,2.32-0.02,4.63-0.03,6.95c-5.81-5.09-5.94-12.71-8.29-19.25
			c-5.1-14.25-9.5-28.76-14.19-43.16c1.14-0.98,2.44-1.29,3.9-0.98c2.45,0.9,3.34,3.09,4.12,5.26c5.47,15.21,9.94,30.73,14.76,46.15
			C552.38,995.33,552.53,997.08,551.59,998.71z"/>
		<path class="st79" d="M1374.95,1023.02c0.57-1.17,1.14-2.33,1.72-3.5c0.64-3.57,4.14-5.45,5.17-8.79c0.34-0.68,0.78-1.28,1.3-1.82
			c2.92-0.79,3.38-3.34,4.05-5.73c0.23-0.72,0.52-1.4,0.84-2.08c2-3.6,2.95-7.59,4.26-11.45c0.24-0.72,0.55-1.4,0.91-2.07
			c1.12-1.36,1.65-3.65,4.24-2.73c-0.01,1.73-0.01,3.46-0.02,5.19c-5.59,9.3-5.94,21.41-15.48,28.61
			C1379.72,1020.32,1378.2,1023.02,1374.95,1023.02z"/>
		<path class="st80" d="M532.55,943.24c-1.16,0-2.31,0-3.47,0.01c-0.59-3.46-1.19-6.91-1.78-10.37c0.32-2.56-0.61-4.82-1.66-7.05
			c3.47-1.84,4.56,0.8,5.69,3.12c1.38,2.84,2.27,5.86,2.89,8.96C534.4,939.91,534.04,941.76,532.55,943.24z"/>
		<path class="st74" d="M556.83,1017.74c2.31,1.15,4.02,2.9,5.21,5.18C558.65,1022.85,556.93,1021.11,556.83,1017.74z"/>
		<path class="st81" d="M532.51,938.05c-2.88-3.74-1.08-10.12-6.87-12.22c-0.32-6.72-4.1-12.48-5.25-18.98
			c-1.46-3.96-1.91-8.21-3.45-12.15l0.01,0.01c-2.03-7.6-4.85-14.96-6.94-22.54l0.01,0.01c-1.36-3.81-2.02-7.93-1.46-11.75
			c0.65-4.43,1.04-10.27,8.35-9.06c1.16,0.01,2.33,0.02,3.5,0.03c-10.19,11.37-4.21,22.91-0.32,34.42
			c1.08,3.67,2.34,7.28,3.55,10.91c2.52,10.97,6.83,21.37,10.22,32.06c0.71,2.95,2.28,5.82,0.95,8.98
			C534.12,938.57,533.36,938.66,532.51,938.05z"/>
		<path class="st76" d="M516.9,851.39c-5.97,1.03-6.62,5.69-6.89,10.41c-0.2,3.45-0.02,6.93,0,10.39
			c-6.59-15.4-2.66-23.28,12.12-24.25C520.39,849.09,518.64,850.24,516.9,851.39z"/>
		<path class="st76" d="M510,872.18c3.77,7.07,6.41,14.48,6.94,22.54C513.1,887.68,510.45,880.26,510,872.18z"/>
		<path class="st76" d="M516.94,894.7c2.85,3.57,3.6,7.73,3.45,12.15C517.47,903.31,516.79,899.12,516.94,894.7z"/>
		<path class="st82" d="M1397.43,984.85c-1.16,1.15-2.32,2.3-3.48,3.45c-1.85-1.91-1.58-4.14-0.91-6.38
			c3.47-11.73,8.77-22.78,12.76-34.33c0.55-1.58,1.59-3.08,3.77-2.61c0,2.31,0,4.63,0,6.94
			C1405.53,962.9,1401.48,973.87,1397.43,984.85z"/>
		<path class="st34" d="M518.65,886.06c-4.05-6.06-5.17-13.19-6.67-20.04c-1.51-6.91,3.56-10.9,8.42-14.61
			c1.15-0.01,2.3-0.02,3.45-0.03c4.3-1.71,8.79-0.42,13.17-0.82c291.78,0,583.55-0.01,875.32,0.04c3.69,0,7.5-0.87,11.1,0.78
			c0.58,0,1.15,0.01,1.73,0.01c0.45,1.24,0.11,2.2-1.02,2.88c-5.28,2.19-10.84,1.26-16.27,1.26
			c-289.05,0.05-578.11,0.04-867.16,0.05c-4.91,0-9.82-0.17-14.69,0.24c-11.14,4.74-11.45,5.6-6.98,19.95
			C519.84,879.24,521.76,882.75,518.65,886.06z"/>
		<path class="st83" d="M1423.44,851.39c-295.82,0-591.64-0.01-887.46-0.01c-0.57-0.38-0.75-0.76-0.56-1.13
			c0.19-0.37,0.38-0.56,0.57-0.56c292.82,0,585.64-0.01,878.45,0.03C1417.48,849.72,1420.87,848.58,1423.44,851.39z"/>
		<path class="st83" d="M1425.17,853.13c0-0.58,0-1.15,0-1.73c10.23,2.17,13.57,9.61,9.27,21.12c-2.3,6.15-5.25,12.07-5.79,18.76
			c0,0,0-0.01,0-0.01c-1.53,0.87-0.33,5.04-4.01,3.32c-1.13-1.48-1.3-3.17-1.11-4.94c0.74-3.74,2.13-7.27,3.57-10.79
			c0.9-2.11,1.48-4.39,2.53-6.41C1433.68,864.67,1430.14,858.76,1425.17,853.13z"/>
		<path class="st81" d="M535.99,849.69c0,0.56-0.01,1.13-0.01,1.69c-4.04,0-8.09,0-12.13,0
			C527.52,848.1,531.95,850.32,535.99,849.69z"/>
		<path class="st81" d="M1409.57,944.98c-5.64,14.28-12.47,28.14-15.62,43.32c0,0,0,0,0,0c-2.26,4.43-3.05,9.4-5.19,13.87v0
			c-1.49,0.93-0.32,4.98-3.97,3.37c-0.83-1.06-1.17-2.29-1.22-3.62c0.39-4.76,2.48-9.05,3.72-13.58c1.21-3.23,2.25-6.52,3.72-9.65
			c4.28-9.65,7.14-19.83,11.19-29.55c1.29-3.09,1.67-7.84,7.24-5.97C1409.49,943.78,1409.53,944.38,1409.57,944.98z"/>
		<path class="st84" d="M1409.45,943.18c-7.71,4.81-6.54,14.08-10.41,20.84c-2.82,4.93-2.46,11.31-6.79,15.65
			c-1.58-1.28-1.94-3.07-2.08-4.96c4.08-15.05,10.26-29.34,16.18-43.73c1.42-1.56,2.16-4.38,5.25-2.94
			c2.44,3.97-0.13,6.92-2.02,10.02C1409.54,939.77,1409.49,941.48,1409.45,943.18z"/>
		<path class="st75" d="M1409.58,938.06c0.57-3.47,1.15-6.94,1.72-10.41c-0.01-0.39-0.03-0.79-0.05-1.18
			c1.15-4.55,2.43-9.06,4.97-13.09c1.3-1.37,2.52-2.86,4.45-3.42c0.35,0.13,0.71,0.26,1.06,0.38
			C1418.98,920.15,1418.29,930.86,1409.58,938.06z"/>
		<path class="st75" d="M1425.14,894.7c1.17-1.15,2.34-2.29,3.51-3.44c-1.18,6.77-2.58,13.45-6.92,19.08c0,0-0.06-0.04-0.06-0.04
			c-1.49-1.43-2-3.26-2.07-5.25C1420.28,900.98,1419.48,896.11,1425.14,894.7z"/>
		<path class="st85" d="M518.65,886.06c0.63-3.67-1.19-6.93-1.72-10.41c0.78-0.58,1.6-0.63,2.45-0.18
			c5.19,5.36,5.71,12.7,7.93,19.27c1.35,4,2.38,8.09,4.58,11.75c0.52,1.21,0.84,2.47,1.05,3.77c2.52,9.9,4.56,19.95,9.53,29.04
			c2.15,4.29,3.77,8.75,4.31,13.55c0.02,4.7,1.91,8.78,4.19,12.75c0.49,1.18,0.77,2.42,0.92,3.69c0.05,5.32,2.03,9.98,4.96,14.32
			c1.68,3.12,2.26,6.51,2.56,9.99c5.52,18.29,10.04,21.73,28.94,21.73c254.53,0.02,509.07,0,763.6,0.05
			c8.56,0,16.69-0.84,23.49-6.69c0.99-0.44,2.04-0.62,3.13-0.55c1.87,0.32,2.45,1.64,2.53,3.33c-0.92,3.71-3.71,5.63-6.9,7.17
			c-2.78,1.51-5.76,1.97-8.89,1.72c-259.22,0-518.43-0.11-777.63,0.29c-15.52,0.02-27.15-2.71-32.6-18.48
			c-0.08-1.4-0.32-2.71-1.69-3.48c-3.82-8.13-6.34-16.7-8.46-25.39c-1.87-11.03-6.31-21.26-9.97-31.74
			c-0.69-1.07-1.38-2.15-0.73-3.5c-0.57-2.89-1.14-5.78-1.7-8.67c-2.98-11.12-7.24-21.84-10.43-32.9
			C519.63,893.45,518.81,889.86,518.65,886.06z"/>
		<path class="st36" d="M555.08,1002.16c0.7,0.49,1.84,0.84,2.05,1.49c4.99,15.35,16.95,16.04,30.54,16.03
			c260.1-0.22,520.2-0.16,780.31-0.17c0.57,0.39,0.75,0.77,0.56,1.15c-0.19,0.38-0.38,0.57-0.57,0.57
			c-263.16,0.01-526.32,0.02-789.47,0.02C564.39,1021.26,560.07,1017.69,555.08,1002.16z"/>
		<path class="st86" d="M546.38,972.72c2.33,8.65,4.66,17.31,7,25.96c-0.6,0.01-1.2,0.02-1.79,0.03
			c-5.21-15.93-10.38-31.88-15.68-47.79c-0.88-2.63-1.08-5.63-3.36-7.68c-0.01-1.73-0.02-3.46-0.04-5.19c0.57,0,1.14,0,1.71,0
			c0.58,0.59,1.16,1.18,1.73,1.76C539.01,950.92,543.24,961.64,546.38,972.72z"/>
		<path class="st81" d="M1374.86,1017.69c1.17-2.27,2.89-4,5.18-5.14c1.02-0.9,1.54-2.81,3.53-1.71c-0.41,4.4-3.7,6.51-6.91,8.68
			c-0.59-0.01-1.18-0.01-1.76-0.02c-0.6-0.39-0.8-0.79-0.62-1.19C1374.47,1017.9,1374.67,1017.69,1374.86,1017.69z"/>
		<path class="st87" d="M1374.86,1017.69c0.01,0.6,0.02,1.2,0.04,1.81c-2.16,1.19-4.41,2.01-6.93,1.74c0-0.57,0.01-1.15,0.01-1.72
			C1370.27,1018.91,1372.57,1018.3,1374.86,1017.69z"/>
		<path class="st82" d="M1388.77,1002.18c0.53-5.08,1.53-9.97,5.19-13.87C1393.46,993.39,1392.48,998.29,1388.77,1002.18z"/>
		<path class="st87" d="M1383.57,1010.84c-1.18,0.57-2.35,1.14-3.53,1.71c0.04-1.14,0.08-2.29,0.12-3.43
			c0.31-3.35,0.61-6.71,5.13-6.98c0.01,1.18,0.02,2.36,0.04,3.55c1.01,1.89-0.51,2.6-1.62,3.5
			C1383.67,1009.75,1383.63,1010.3,1383.57,1010.84z"/>
		<path class="st82" d="M1383.71,1009.2c0.54-1.17,1.08-2.34,1.62-3.5c1.15-1.17,2.29-2.35,3.44-3.52
			C1388.37,1005.45,1389.49,1009.81,1383.71,1009.2z"/>
		<path class="st34" d="M522.09,896.49c4.81,10.54,9.07,21.26,10.43,32.9C527.77,918.82,523.5,908.11,522.09,896.49z"/>
		<path class="st85" d="M1425.17,853.13c10.49,5.84,11.16,10.89,3.48,26.02c-1.51-1.19-1.87-2.88-2.03-4.65
			c-0.29-3.73,1.49-7.18,1.5-10.87c0.13-2.56-0.68-4.56-3.25-5.53c-0.78-0.24-1.54-0.5-2.32-0.73c-3.15-0.45-6.3-0.07-9.46-0.07
			c-284.72,0.08-569.41,0.01-854.1,0.06c-9.09-0.06-18.19,0.04-27.28-0.08c-3.35-0.04-6.91,0.43-9.6-2.41
			c3.48-3.19,7.74-1.65,11.6-1.66C830.86,853.12,1128.01,853.13,1425.17,853.13z"/>
		<path class="st40" d="M522.1,854.85c12.14,0.01,24.28,0.01,36.42,0.02c0.55,0.97,0.39,1.81-0.48,2.51
			c-8.29,3.15-16.91,1.17-25.37,1.49c-11.08,0.43-11.39,0.47-12.03,11.35c-0.12,2.03-0.32,3.99-1.99,5.43l-0.87,0c0,0-0.87,0-0.87,0
			C512.05,862.14,512.56,860.12,522.1,854.85z"/>
		<path class="st84" d="M1425.14,894.7c-2.47,3.03-3.31,6.6-3.46,10.39c-1.18,1.1-0.6,3.32-2.52,3.95c-0.88-0.1-1.54-0.52-2-1.28
			c-0.75-1.57-0.91-3.25-0.9-4.96c0.24-3.89,1.21-7.53,3.67-10.66c1.53-1.3,2.64-3.47,5.25-2.62
			C1425.16,891.25,1425.15,892.98,1425.14,894.7z"/>
		<path class="st40" d="M1425.17,889.53c-1.16,1.15-2.32,2.3-3.48,3.45c-1.77-7.2,1.06-14.97,6.94-19.05c0,1.74,0.01,3.48,0.01,5.22
			C1427.49,882.61,1426.33,886.07,1425.17,889.53z"/>
		<path class="st85" d="M1385.29,1002.15c-1.71,2.33-3.42,4.65-5.13,6.98c-0.61-0.01-1.21-0.02-1.82-0.02
			c-2.21-2.49-1.17-4.93,0.1-7.37c3.71-4.12,2.71-10.91,7.98-14.15c0.88-0.06,1.68,0.18,2.37,0.73
			C1387.63,992.93,1386.46,997.54,1385.29,1002.15z"/>
		<path class="st88" d="M1388.79,988.32c-0.6-0.01-1.2-0.02-1.81-0.02c-2.35-6.17-0.81-10.87,5.23-13.86
			c0.01,1.74,0.02,3.49,0.03,5.23C1391.49,982.71,1391.1,985.9,1388.79,988.32z"/>
		<path class="st89" d="M1392.22,974.43c-2.35,4.39-5.1,8.63-5.23,13.86c-3.65,3.97-2.48,10.32-6.87,13.94
			c-1.13-0.92-1.64-2.16-1.86-3.56c2.36-14.01,8.7-26.71,13.42-39.93c9.68-27.08,19.75-54.03,29.62-81.05
			c2.48-6.8,3.78-13.19-2.2-18.89c-0.07-0.96,0.18-1.82,0.75-2.59c1.82-0.55,3.62-0.89,5.31,0.37l0,0c2.16,1.31,3.88,3.06,5.2,5.21
			c-0.58,4.04-1.15,8.08-1.73,12.12c-3.19,6.03-5.84,12.26-6.94,19.05c-2.49,3.03-3.31,6.61-3.47,10.41
			c-1.9,2.71-1.17,6.11-2.33,9.02c-1.45,3.31-2.48,6.76-3.43,10.24c-1.5,2.85-3.71,5.31-4.62,8.49
			c-4.47,12.02-7.95,24.41-13.69,35.95C1393,969.4,1391.96,971.74,1392.22,974.43z"/>
		<path class="st40" d="M1407.84,931.12c-0.12-3.4,0.72-6.41,3.45-8.68c1.39,1.73,1.12,3.47,0.01,5.21v0
			C1410.15,928.81,1409,929.97,1407.84,931.12z"/>
		<path class="st84" d="M1411.3,927.65c0-1.74-0.01-3.47-0.01-5.21c0.17-3.8,0.98-7.38,3.47-10.4c1.55-0.76,0.11-4.49,3.45-3.48
			l0.06,0.04c1.25,1.74,1.14,3.46-0.06,5.16C1414.51,917.71,1415.74,924.09,1411.3,927.65z"/>
		<path class="st83" d="M1418.21,913.77c0.02-1.72,0.04-3.44,0.06-5.16c1.14-1.17,2.27-2.34,3.41-3.51c0,1.74,0,3.47,0,5.21
			C1420.52,911.46,1419.36,912.62,1418.21,913.77z"/>
		<path class="st90" d="M1419.96,858.34c8.08,4.18,6.84,10.56,4.31,17.45c-10.18,27.72-20.3,55.46-30.36,83.22
			c-4.77,13.17-10.46,26.02-13.82,39.68c-6.3,15.27-9.47,17.34-26.75,17.34c-254.88,0-509.76,0-764.64,0
			c-19.98,0-22.36-1.63-29.89-20.49c-0.54-1.34-1.06-2.68-1.98-3.82c-0.61-2.86-1.21-5.73-1.82-8.59c-2.59-4.31-1.94-9.82-5.16-13.9
			c-0.02-1.14-0.04-2.28-0.05-3.43c-2.31-3.81-1.64-8.87-5.13-12.18c0.2-4.96-2.88-9.08-3.52-13.82
			c-4.05-9.63-4.69-20.45-10.34-29.51c-0.02-1.14-0.04-2.28-0.06-3.42c-4.08-11.39-7.63-22.97-10.42-34.73
			c-2.38-10.04,0.9-14.42,10.94-14.57c12.98-0.19,25.96-0.86,38.92-0.87c279.05-0.14,558.1-0.11,837.15-0.06
			C1411.58,856.65,1416.07,855.51,1419.96,858.34z"/>
		<path class="st91" d="M556.84,991.72c4.62,0.84,4.01,5.15,5.13,8.11c4.23,11.18,8.62,14.46,20.63,14.46
			c258.44,0.01,516.89-0.04,775.33,0.18c11.97,0.01,17.32-6.96,22.16-15.77c0.01,1.18,0.02,2.36,0.03,3.54
			c-1.22,2.13-1.99,4.37-1.78,6.87c-6.86,7.24-15.48,8.75-25.08,8.75c-255.59-0.11-511.17-0.15-766.76,0.03
			C567.53,1017.9,560.07,1010.72,556.84,991.72z"/>
		<path class="st92" d="M1419.96,858.34c-293.72,0-587.43,0-881.15,0c-2.89,0-5.82-0.25-8.65,0.17c-7.8,1.16-10.32,5.76-8.41,13.39
			c2.92,11.68,7.87,22.84,9.01,34.97c-6-4.4-4.59-11.82-7.14-17.64c-1.93-4.41-3.32-9.05-4.96-13.59c-0.18-2.58-0.19-5.18-0.57-7.73
			c-1.07-7.23,2.18-11.08,9.24-11.27c10.38-0.27,20.77-0.08,31.15-0.08c3.3-1.61,6.83-0.78,10.23-0.78
			c282.09-0.04,564.18-0.04,846.27-0.04c1.7,0.07,3.46-0.27,4.98,0.84C1419.97,857.18,1419.96,857.76,1419.96,858.34z"/>
		<path class="st92" d="M530.82,910.3c8.37,8.11,8.87,18.98,10.34,29.51C534.26,931.18,533.7,920.33,530.82,910.3z"/>
		<path class="st34" d="M546.38,972.72c-4.75-10.56-9.02-21.28-10.43-32.9C540.77,950.36,545.03,961.08,546.38,972.72z"/>
		<path class="st92" d="M549.87,969.24c5.86,3.09,5.14,8.63,5.16,13.9C550.13,979.68,549.96,974.47,549.87,969.24z"/>
		<path class="st92" d="M544.68,953.62c6.38,2.1,4.95,7.48,5.13,12.18C545.26,962.94,545.27,958.16,544.68,953.62z"/>
		<path class="st89" d="M1416.53,856.58c-286.01,0-572.02,0-858.03,0c0.02-0.57,0.03-1.14,0.03-1.71
			c285.99,0,571.97,0.01,857.96,0.01c0.48,0.37,0.64,0.74,0.5,1.12C1416.83,856.39,1416.68,856.58,1416.53,856.58z"/>
		<path class="st40" d="M1430.36,861.8c-2.32-1.15-4.06-2.88-5.2-5.21C1428.49,856.75,1430.22,858.48,1430.36,861.8z"/>
		<path class="st40" d="M1416.53,856.58c-0.01-0.57-0.03-1.14-0.04-1.7c2.93,0.39,6.25-1.17,8.69,1.72c-1.73,0-3.47,0-5.2-0.01
			C1418.82,856.59,1417.67,856.59,1416.53,856.58z"/>
		<path class="st40" d="M1418.21,908.57c-1.15,1.16-2.3,2.32-3.45,3.48c-0.08-3.38,0.73-6.41,3.47-8.66
			C1418.22,905.11,1418.21,906.84,1418.21,908.57z"/>
		<path class="st44" d="M1411.3,861.79c2.31,0,4.62,0.01,6.92,0.01c5.1,2.91,5.2,7.26,3.48,12.13
			c-15.03,40.76-30.05,81.53-45.1,122.28c-4.68,12.68-7.56,14.63-20.98,14.63c-257.04,0-514.07,0-771.11,0
			c-13.29,0-15.34-0.86-19.65-13.44c-8.19-23.92-15.79-48.05-23.51-72.13c-5.26-16.41-10.33-32.89-15.47-49.34
			c-3.63-11.62-2.03-13.86,10.1-14.14c3-1.58,6.24-0.8,9.36-0.8c285.53-0.04,571.07-0.04,856.6,0
			C1405.06,860.99,1408.3,860.21,1411.3,861.79z"/>
		<path class="st45" d="M1411.3,861.79c-291.77,0-583.55,0-875.32,0c2.56-2.83,5.95-1.68,8.98-1.68
			c285.78-0.05,571.57-0.05,857.35,0C1405.35,860.11,1408.74,858.96,1411.3,861.79z"/>
		<path class="st45" d="M1421.7,873.93c0.53-4.53-0.28-8.67-3.47-12.13C1425.77,864.01,1424.1,868.87,1421.7,873.93z"/>
		<path class="st46" d="M974.56,865.26c143.8,0,287.6,0,431.41,0c13.04,0,14.66,1.86,10.23,13.94
			c-12.65,34.56-26.21,68.79-38.25,103.56c-10.49,30.29-9.17,24.5-36.64,24.52c-250.35,0.17-500.71,0.1-751.06,0.1
			c-18.74,0-19.93-0.96-25.5-18.67c-10.71-34.03-21.43-68.05-32.32-102.02c-6.67-20.79-6.34-21.43,15.07-21.43
			C689.84,865.26,832.2,865.26,974.56,865.26z"/>
		<path class="st47" d="M972.41,870.46c142.08,0,284.16,0,426.23,0c14.09,0,14.73,0.66,9.83,14.28
			c-12.97,36-26.21,71.9-39.24,107.88c-2.48,6.85-6.71,9.69-14.29,9.69c-256.43-0.16-512.87-0.15-769.3-0.02
			c-7.55,0-11.71-2.82-13.95-9.94c-11.9-37.88-23.88-75.74-36.12-113.51c-2.17-6.69,0.28-8.49,6.27-8.38c2.02,0.04,4.04,0,6.06,0
			C689.41,870.46,830.91,870.46,972.41,870.46z"/>
	</g>
	<g>
		<linearGradient id="SVGID_4_" gradientUnits="userSpaceOnUse" x1="960" y1="1096.7529" x2="960" y2="815.2158">
			<stop  offset="0.1322" style="stop-color:#ED2224"/>
			<stop  offset="0.3206" style="stop-color:#DC2427"/>
			<stop  offset="0.6676" style="stop-color:#C8272B"/>
			<stop  offset="0.8966" style="stop-color:#C1282D"/>
		</linearGradient>
		<polygon class="st12" points="1363.85,1006.12 548.26,1006.12 494.45,837.99 1425.55,837.99 		"/>
	</g>
	<rect x="771.46" y="837.99" class="st0" width="9.2" height="168.13"/>
	<path class="st0" d="M722.32,890.46c-1.51-5.65-5.96-10.1-11.61-11.61c-10.24-2.74-51.29-2.74-51.29-2.74s-41.05,0-51.29,2.74
		c-5.65,1.51-10.1,5.96-11.61,11.61c-2.74,10.24-2.74,31.6-2.74,31.6s0,21.36,2.74,31.6c1.51,5.65,5.96,10.1,11.61,11.61
		c10.24,2.74,51.29,2.74,51.29,2.74s41.05,0,51.29-2.74c5.65-1.51,10.1-5.96,11.61-11.61c2.74-10.24,2.74-31.6,2.74-31.6
		S725.07,900.7,722.32,890.46z M646.31,941.74v-39.38l34.1,19.69L646.31,941.74z"/>
</g>
</svg>
