<?xml version="1.0" encoding="utf-8"?>
<!-- Generator: Adobe Illustrator 24.1.2, SVG Export Plug-In . SVG Version: 6.00 Build 0)  -->
<svg version="1.1" id="Layer_1" xmlns="http://www.w3.org/2000/svg" xmlns:xlink="http://www.w3.org/1999/xlink" x="0px" y="0px"
	 viewBox="0 0 1920 1920" style="enable-background:new 0 0 1920 1920;" xml:space="preserve">
<style type="text/css">
	.st0{fill:#009245;}
	.st1{fill:#939598;}
	.st2{fill:#39B54A;}
	.st3{fill:#FFFFFF;}
	.st4{opacity:0.1;}
	.st5{opacity:0.5;fill:#939598;}
</style>
<g>
	<path class="st0" d="M1683.07,834.62H236.93c-14.26,0-25.82,11.56-25.82,25.82v223.73c0,14.26,11.56,25.82,25.82,25.82h1446.14
		c14.26,0,25.82-11.56,25.82-25.82V860.45C1708.89,846.19,1697.33,834.62,1683.07,834.62z"/>
	<path class="st1" d="M1683.07,834.62h-236.12V1110h236.12c14.26,0,25.82-11.56,25.82-25.82V860.45
		C1708.89,846.19,1697.33,834.62,1683.07,834.62z"/>
	<path class="st2" d="M1683.07,810H236.93c-14.26,0-25.82,11.56-25.82,25.82v223.73c0,14.26,11.56,25.82,25.82,25.82h1446.14
		c14.26,0,25.82-11.56,25.82-25.82V835.82C1708.89,821.56,1697.33,810,1683.07,810z"/>
	<path class="st3" d="M1683.07,810h-236.12v275.38h236.12c14.26,0,25.82-11.56,25.82-25.82V835.82
		C1708.89,821.56,1697.33,810,1683.07,810z"/>
	<g class="st4">
		<path class="st3" d="M365.47,810l-154.36,89.12v128.44c0,31.93,25.88,57.81,57.82,57.81h29.07L774.96,810H365.47z"/>
		<polygon class="st3" points="894.86,810 417.89,1085.38 656.88,1085.38 1133.85,810 		"/>
		<polygon class="st3" points="1253.75,810 776.78,1085.38 1015.77,1085.38 1492.74,810 		"/>
	</g>
	<circle class="st5" cx="1575.15" cy="929.15" r="56.77"/>
	<path class="st1" d="M1601.6,929.15c0,14.61-11.85,26.45-26.45,26.45c-14.61,0-26.45-11.85-26.45-26.45
		c0-14.61,11.84-26.45,26.45-26.45C1589.76,902.71,1601.6,914.54,1601.6,929.15z"/>
	<path class="st2" d="M1637.22,961.84c0-2.88-2.33-5.21-5.22-5.21h-7.29c-2.71,0-4.86,2.09-5.12,4.72v-5.85
		c0-2.88-2.34-5.21-5.21-5.21h-7.31c-2.13,0-3.95,1.29-4.76,3.12v-3.47c0-2.88-2.33-5.21-5.21-5.21h-7.3
		c-2.43,0-4.37,1.69-4.96,3.94v-18.36c0-2.88-2.33-5.21-5.21-5.21h-7.3c-2.88,0-5.21,2.33-5.21,5.21v44.94h-1.75
		c-0.22,0-0.4,0.1-0.62,0.12l-10.15-9.99c-2.06-2.02-5.37-1.98-7.38,0.09l-5.1,5.21c-2.01,2.06-1.97,5.37,0.09,7.38l23.72,23.34
		c0.02,0.02,0.05,0.03,0.08,0.05l4.48,16.46c0,2.83,2.29,5.11,5.11,5.11h53.85c2.83,0,5.11-2.28,5.11-5.11l2.92-37.55
		L1637.22,961.84z"/>
</g>
</svg>
