<?xml version="1.0" encoding="utf-8"?>
<!-- Generator: Adobe Illustrator 24.1.2, SVG Export Plug-In . SVG Version: 6.00 Build 0)  -->
<svg version="1.1" id="Layer_1" xmlns="http://www.w3.org/2000/svg" xmlns:xlink="http://www.w3.org/1999/xlink" x="0px" y="0px"
	 viewBox="0 0 1920 1920" style="enable-background:new 0 0 1920 1920;" xml:space="preserve">
<style type="text/css">
	.st0{fill-rule:evenodd;clip-rule:evenodd;fill:#FFFFFF;}
</style>
<path class="st0" d="M1139.11,577.92c35.72-1.19,71.43-0.26,107.26-0.34c4.36,0,8.75,0,14.74,0V391.73
	c-19.1-1.91-39.07-4.68-59.04-5.63c-36.64-1.63-73.34-3.46-110.05-2.61c-56.02,1.17-109.01,14.82-155.32,48
	c-53.09,38.21-82.25,91.82-93.34,155.18c-4.59,26.14-5.79,53.19-6.47,79.77c-1.03,41.72-0.22,83.41-0.14,125.16v15.62H658.89v207.62
	h176.82v521.88h216.09v-521.05h176.23c9.05-69.03,17.86-137.4,27.13-208.59c-14.16,0-26.9-0.04-39.63,0
	c-50.11,0.2-165.17,0-165.17,0s0.5-102.91,1.73-147.56C1053.83,598.36,1090.12,579.69,1139.11,577.92z"/>
</svg>
