<?xml version="1.0" encoding="utf-8"?>
<!-- Generator: Adobe Illustrator 24.1.2, SVG Export Plug-In . SVG Version: 6.00 Build 0)  -->
<svg version="1.1" id="Layer_1" xmlns="http://www.w3.org/2000/svg" xmlns:xlink="http://www.w3.org/1999/xlink" x="0px" y="0px"
	 viewBox="0 0 1920 1920" style="enable-background:new 0 0 1920 1920;" xml:space="preserve">
<style type="text/css">
	.st0{fill:#FFFFFF;}
</style>
<g>
	<path class="st0" d="M1421.72,726.25c-6.31-61.76-29.97-116.42-75.9-160.2c-48.28-46.09-107.37-66.45-172.11-69.9
		c-110.32-6.02-372.29-9.82-464.27,5.19c-105.1,17.13-174.01,78.46-203.07,182.29c-22.36,79.87-17.92,447.97-4.87,526.92
		c17.8,107.95,81.6,177.17,188.58,204.73c74.05,19.12,437.92,16.67,519.59,3.43c108.04-17.46,177.53-80.91,205.61-187.71
		C1436.73,1149.03,1429.22,800.21,1421.72,726.25z M1335.32,1195.29c-12.56,82-66.98,132.78-149.41,141.79
		c-75.71,8.3-413.85,12.87-484.08-6.77c-67.17-18.78-105.59-64.96-116.76-132.59c-10.65-64.6-13.29-387.32-0.14-473.69
		c12.38-81.29,66.77-132.01,148.74-141.17c83.16-9.32,382.38-10.34,462.05,1.87c81.81,12.56,132.53,67.09,141.51,149.66
		C1345.62,811.39,1348.01,1112.5,1335.32,1195.29z M960.08,719.41c-132.93-0.07-240.74,107.63-240.81,240.56
		c-0.07,132.91,107.63,240.74,240.55,240.8c132.93,0.08,240.74-107.62,240.82-240.55C1200.71,827.29,1093.01,719.46,960.08,719.41z
		 M958.42,1115.56c-85.97-0.77-155.02-71.07-154.24-157.02c0.77-85.97,71.07-155.02,157.02-154.24
		c85.97,0.77,155.02,71.08,154.25,157.03C1114.68,1047.29,1044.39,1116.34,958.42,1115.56z M1266.5,710.29
		c-0.08,31.13-25.37,56.29-56.49,56.22c-31.13-0.08-56.28-25.37-56.22-56.49c0.09-31.13,25.37-56.3,56.49-56.22
		C1241.41,653.87,1266.58,679.17,1266.5,710.29z"/>
	<path class="st0" d="M1421.72,726.25c-6.31-61.76-29.97-116.42-75.9-160.2c-48.28-46.09-107.37-66.45-172.11-69.9
		c-110.32-6.02-372.29-9.82-464.27,5.19c-105.1,17.13-174.01,78.46-203.07,182.29c-22.36,79.87-17.92,447.97-4.87,526.92
		c17.8,107.95,81.6,177.17,188.58,204.73c74.05,19.12,437.92,16.67,519.59,3.43c108.04-17.46,177.53-80.91,205.61-187.71
		C1436.73,1149.03,1429.22,800.21,1421.72,726.25z M1335.32,1195.29c-12.56,82-66.98,132.78-149.41,141.79
		c-75.71,8.3-413.85,12.87-484.08-6.77c-67.17-18.78-105.59-64.96-116.76-132.59c-10.65-64.6-13.29-387.32-0.14-473.69
		c12.38-81.29,66.77-132.01,148.74-141.17c83.16-9.32,382.38-10.34,462.05,1.87c81.81,12.56,132.53,67.09,141.51,149.66
		C1345.62,811.39,1348.01,1112.5,1335.32,1195.29z M960.08,719.41c-132.93-0.07-240.74,107.63-240.81,240.56
		c-0.07,132.91,107.63,240.74,240.55,240.8c132.93,0.08,240.74-107.62,240.82-240.55C1200.71,827.29,1093.01,719.46,960.08,719.41z
		 M958.42,1115.56c-85.97-0.77-155.02-71.07-154.24-157.02c0.77-85.97,71.07-155.02,157.02-154.24
		c85.97,0.77,155.02,71.08,154.25,157.03C1114.68,1047.29,1044.39,1116.34,958.42,1115.56z M1266.5,710.29
		c-0.08,31.13-25.37,56.29-56.49,56.22c-31.13-0.08-56.28-25.37-56.22-56.49c0.09-31.13,25.37-56.3,56.49-56.22
		C1241.41,653.87,1266.58,679.17,1266.5,710.29z"/>
</g>
</svg>
