<?xml version="1.0" encoding="utf-8"?>
<!-- Generator: Adobe Illustrator 24.1.2, SVG Export Plug-In . SVG Version: 6.00 Build 0)  -->
<svg version="1.1" id="Layer_1" xmlns="http://www.w3.org/2000/svg" xmlns:xlink="http://www.w3.org/1999/xlink" x="0px" y="0px"
	 viewBox="0 0 1920 1920" style="enable-background:new 0 0 1920 1920;" xml:space="preserve">
<style type="text/css">
	.st0{fill:#079247;}
	.st1{fill:#FFFFFF;}
</style>
<path class="st0" d="M1804.21,862.82v194.36c0,34.57-28.02,62.59-62.59,62.59H203.7c-34.57,0-62.59-28.02-62.59-62.59V862.82
	c0-34.57,28.02-62.59,62.59-62.59h1537.92C1776.18,800.23,1804.21,828.25,1804.21,862.82z"/>
<path class="st1" d="M1428.75,800.23L1428.75,800.23c0,64.97-34.66,125-90.92,157.48l-3.96,2.29l3.96,2.29
	c56.26,32.48,90.92,92.52,90.92,157.48l0,0h312.87c34.57,0,62.59-28.02,62.59-62.59V862.82c0-34.57-28.02-62.59-62.59-62.59H1428.75
	z"/>
<g>
	<path class="st0" d="M1571.58,1050.5c-2.99,0-5.98-1.15-8.26-3.44c-4.52-4.56-4.48-11.92,0.08-16.44l72.64-71.96l-72.64-71.96
		c-4.56-4.52-4.6-11.88-0.08-16.44s11.88-4.59,16.43-0.08l89.31,88.48l-89.31,88.48C1577.5,1049.38,1574.54,1050.5,1571.58,1050.5z"
		/>
</g>
</svg>
