<?xml version="1.0" encoding="utf-8"?>
<!-- Generator: Adobe Illustrator 24.1.2, SVG Export Plug-In . SVG Version: 6.00 Build 0)  -->
<svg version="1.1" id="Layer_1" xmlns="http://www.w3.org/2000/svg" xmlns:xlink="http://www.w3.org/1999/xlink" x="0px" y="0px"
	 viewBox="0 0 1920 1920" style="enable-background:new 0 0 1920 1920;" xml:space="preserve">
<style type="text/css">
	.st0{fill:#FFFFFF;}
</style>
<g>
	<g>
		<path class="st0" d="M1015.46,877.7c14.71-16.53,26.84-33.32,41.95-47.56c46.46-43.79,101.42-65.88,165.58-65.33
			c35.26,0.3,70.12,2.84,104.11,12.67c77.76,22.48,122.95,76.01,144.5,151.97c16.16,56.97,19.15,115.45,19.25,174.13
			c0.21,123.76-0.36,247.52-0.09,371.27c0.03,11.59-3.22,14.63-14.63,14.53c-63.75-0.53-127.52-0.54-191.27,0.02
			c-11.22,0.1-13.64-3.38-13.61-13.98c0.35-117.76,0.45-235.52,0.07-353.28c-0.1-29.51-1.97-59-10.25-87.7
			c-15.25-52.85-53.09-79.78-108.46-76.86c-75.6,3.99-114.92,41.43-124.56,118.32c-2.3,18.36-3.39,36.73-3.38,55.23
			c0.1,114.53-0.12,229.06,0.31,343.58c0.04,11.42-2.82,14.79-14.49,14.68c-64.22-0.57-128.44-0.5-192.66-0.04
			c-10.3,0.07-13.27-2.7-13.26-13.12c0.28-226.74,0.29-453.49-0.01-680.23c-0.02-11.22,3.66-13.82,14.27-13.74
			c60.98,0.45,121.98,0.51,182.96-0.04c11.22-0.1,14.12,3.53,13.88,14.16C1015.04,823.48,1015.46,850.59,1015.46,877.7z"/>
		<path class="st0" d="M666.13,1136.83c0,112.17-0.19,224.35,0.27,336.52c0.05,12.47-3.05,16.24-15.96,16.1
			c-63.73-0.7-127.47-0.54-191.2-0.09c-10.22,0.07-13.29-2.48-13.28-13.04c0.31-227.12,0.28-454.24,0.06-681.35
			c-0.01-9.4,2.27-12.75,12.25-12.69c64.66,0.42,129.32,0.55,193.97-0.08c12.42-0.12,14.11,4.7,14.08,15.34
			C666.01,910.64,666.13,1023.73,666.13,1136.83z"/>
		<path class="st0" d="M683.7,557.2c0.07,70.43-57.1,127.81-127.36,127.83c-69.36,0.02-127.02-57.4-127.24-126.73
			c-0.23-70.1,57.38-127.82,127.51-127.75C626.25,430.61,683.63,487.81,683.7,557.2z"/>
	</g>
</g>
</svg>
