<?xml version="1.0" encoding="utf-8"?>
<!-- Generator: Adobe Illustrator 24.1.2, SVG Export Plug-In . SVG Version: 6.00 Build 0)  -->
<svg version="1.1" id="Layer_1" xmlns="http://www.w3.org/2000/svg" xmlns:xlink="http://www.w3.org/1999/xlink" x="0px" y="0px"
	 viewBox="0 0 1920 1920" style="enable-background:new 0 0 1920 1920;" xml:space="preserve">
<style type="text/css">
	.st0{fill:#006837;}
	.st1{fill:#FFFFFF;}
</style>
<g>
	<circle class="st0" cx="1379.9" cy="960" r="226.08"/>
	<g>
		<path class="st1" d="M1367.29,1093.13c-4.33,0-8.67-1.67-11.97-4.99c-6.55-6.61-6.5-17.28,0.12-23.83L1460.73,960l-105.29-104.31
			c-6.61-6.55-6.66-17.22-0.12-23.83c6.56-6.61,17.22-6.66,23.82-0.11L1508.6,960l-129.46,128.25
			C1375.86,1091.5,1371.58,1093.13,1367.29,1093.13z"/>
	</g>
</g>
<g>
	<circle class="st0" cx="540.1" cy="960" r="226.08"/>
	<g>
		<path class="st1" d="M552.71,1093.13c4.33,0,8.67-1.67,11.97-4.99c6.55-6.61,6.5-17.28-0.12-23.83L459.27,960l105.29-104.31
			c6.61-6.55,6.66-17.22,0.12-23.83c-6.56-6.61-17.22-6.66-23.82-0.11L411.4,960l129.46,128.25
			C544.14,1091.5,548.42,1093.13,552.71,1093.13z"/>
	</g>
</g>
</svg>
