<?xml version="1.0" encoding="utf-8"?>
<!-- Generator: Adobe Illustrator 24.1.2, SVG Export Plug-In . SVG Version: 6.00 Build 0)  -->
<svg version="1.1" id="Layer_1" xmlns="http://www.w3.org/2000/svg" xmlns:xlink="http://www.w3.org/1999/xlink" x="0px" y="0px"
	 viewBox="0 0 1920 1920" style="enable-background:new 0 0 1920 1920;" xml:space="preserve">
<style type="text/css">
	.st0{fill-rule:evenodd;clip-rule:evenodd;fill:#046937;}
	.st1{fill:#046937;}
</style>
<path class="st1" d="M1532.3,672.49c-13.74-51.4-54.21-91.87-105.61-105.61C1333.54,541.91,960,541.91,960,541.91
	s-373.54,0-466.7,24.96c-51.4,13.74-91.87,54.21-105.61,105.61C362.74,765.64,362.74,960,362.74,960s0,194.36,24.96,287.52
	c13.74,51.39,54.21,91.87,105.61,105.61c93.15,24.96,466.7,24.96,466.7,24.96s373.54,0,466.69-24.96
	c51.4-13.74,91.87-54.22,105.61-105.61c24.96-93.16,24.96-287.52,24.96-287.52S1557.26,765.64,1532.3,672.49z M840.55,1139.18
	V780.82l310.33,179.18L840.55,1139.18z"/>
</svg>
