<?xml version="1.0" encoding="utf-8"?>
<!-- Generator: Adobe Illustrator 24.1.2, SVG Export Plug-In . SVG Version: 6.00 Build 0)  -->
<svg version="1.1" id="Layer_1" xmlns="http://www.w3.org/2000/svg" xmlns:xlink="http://www.w3.org/1999/xlink" x="0px" y="0px"
	 viewBox="0 0 1920 1920" style="enable-background:new 0 0 1920 1920;" xml:space="preserve">
<style type="text/css">
	.st0{fill:#39B54A;}
	.st1{clip-path:url(#SVGID_4_);}
	.st2{clip-path:url(#SVGID_5_);fill:url(#SVGID_6_);}
	.st3{opacity:0.9;fill:url(#SVGID_7_);enable-background:new    ;}
</style>
<g>
	<g>
		<path class="st0" d="M1049.87,938.54l-27.61-27.51c-102.44-90.63-169.4-151.72-169.4-226.66c0-60.97,47.33-108.31,108.31-108.31
			c33.59,0,67.06,15.79,88.7,41.37c21.65-25.59,55.11-41.37,88.7-41.37c60.97,0,108.31,47.33,108.31,108.31
			c0,74.94-66.96,136.04-169.4,226.66L1049.87,938.54z"/>
	</g>
	<g>
		<path class="st0" d="M1363.53,934.08c-7.32,7.95-16.02,14.83-24,22.06c-9.61,8.74-19.48,17.19-29.44,25.5
			c-18.52,15.46-37.42,30.45-56.01,45.81c-3.66-9.32-11.55-17.29-19.77-22.74c-12.47-8.28-27.53-12.54-42.69-14.75
			c9.34-12.14,25.04-17.16,38.58-23.15c15.78-6.97,28.38-17.95,41.89-28.43c13.31-10.33,27.77-19.68,45.02-20.93
			C1333.21,916.29,1353.02,920.92,1363.53,934.08z"/>
		<path class="st0" d="M1343.49,901.37c-1.27,3.96-4.16,7.59-6.51,10.94c-4.53-0.91-9.13-1.44-13.65-1.7
			c-19.05-1.09-36.08,8.03-50.93,19.02c-14.89,11.02-28.2,23.6-45.33,31.17c-15.9,7.03-32.95,12.91-42.99,28.07
			c-0.03,0.04-0.06,0.09-0.08,0.13c-4.98-0.52-9.92-0.85-14.74-1.07c-1.65-0.07-3.29-0.13-4.93-0.17
			c11.25-12.23,25.35-21.35,39.44-30.09c15.55-9.67,30.4-19.67,44.67-31.15c14.3-11.51,28.91-23.58,46.32-30.03
			C1310.18,890.81,1331.02,888.93,1343.49,901.37z"/>
		<path class="st0" d="M1286.52,892.41c-13.34,5.93-25.33,15.28-36.55,24.23c-7.44,5.92-14.75,11.99-22.44,17.58
			c-8.07,5.87-16.63,11.05-25.12,16.3c-17,10.5-34.28,21.46-46.97,37.18c-12.49,0.09-24.97,0.93-37.43,1.86
			c11.07-11.08,24.06-20.06,36.74-29.22c14.55-10.52,27.5-22.27,40.59-34.52c12.75-11.92,26.29-23.44,42.75-29.83
			C1253.12,890.15,1270.59,888.92,1286.52,892.41z"/>
		<path class="st0" d="M1077.61,1065.23c-0.82-0.12-1.58-0.15-1.99-0.34c-4.45-0.41-8.93-0.75-13.4-1.01l-11.19-0.54
			c-0.18-0.11-1.62,0.14-1.76,0.01c-6.05-0.14-12.1-0.1-18.14,0.14l-6.4,0.35c-5.58,0.37-11.15,0.93-16.68,1.71
			c-25.1,3.55-48.97,11.23-71.68,22.42c-3.92,1.94-7.37-3.93-3.43-5.87c25.25-12.45,51.94-20.87,79.99-23.97
			c21.37-2.36,42.9-1.92,64.27,0.08c0.4,0.02,0.8,0.05,1.21,0.11c3.15,0.31,6.29,0.65,9.44,1.01c20.98,2.46,41.77,6.4,62.82,8.26
			c21.2,1.88,43.57,2.36,63.96-4.7c15.88-5.5,39.19-13.09,34.06-33.41c-4.96-19.64-26.66-23.73-44.39-28.75
			c-23.66-6.7-48.44-7.08-72.85-6.42c-24.25,0.66-48.55-3.77-72.8-4.39c-22.84-0.59-46.07-9.61-66.14-21.18
			c-0.24-0.09-0.5-0.22-0.75-0.39c-0.11-0.08-0.22-0.15-0.33-0.23c-0.03-0.02-0.07-0.03-0.09-0.06c-0.09-0.04-0.14-0.1-0.22-0.15
			c-33.04-22.76-68.66-52.25-110.65-53.56c-22.12-0.69-43.49,5.3-64.97,9.68c-10.54,2.15-21.42,4.32-32.2,4.54
			c-10.72,0.22-21.44,0.04-32.16-0.02c-25-0.14-49.82,1.2-73.41,10.28c-22.5,8.67-44.03,19.89-63.78,33.75
			c-19.79,13.89-36.67,30.63-54.1,47.26c-1.11,1.06-2.23,2.13-3.35,3.18l91.38,136.5c5.44-3.98,11.11-7.65,17.03-10.88
			c21.4-11.71,44.47-17.18,68.86-16.83c24.75,0.35,49.58,4.76,73.65,10.26c26.93,6.16,53.54,13.58,80.24,20.62
			c26.56,6.99,53.29,13.75,80.39,18.31c26.23,4.4,54.3,7.01,80.52,1.1c0.26-0.06,0.5-0.08,0.75-0.09
			c24.86-14.88,45.51-35.36,65.97-55.65c10.2-10.12,20.4-20.27,31.19-29.76c8.3-7.3,16.89-14.94,26.37-20.89
			c-26.16-0.04-52.57-5.34-78.48-8.75L1077.61,1065.23z"/>
		<path class="st0" d="M1119.92,976.04c0.19-0.01,0.38-0.01,0.58-0.02v-0.49C1120.3,975.7,1120.11,975.87,1119.92,976.04z"/>
	</g>
</g>
<g>
	<g>
		<defs>
			<polygon id="SVGID_1_" points="1,1 2,1 1,2 			"/>
		</defs>
		<defs>
			<polygon id="SVGID_3_" points="-1,-1 -2,-1 -1,-2 			"/>
		</defs>
		<clipPath id="SVGID_4_">
			<use xlink:href="#SVGID_1_"  style="overflow:visible;"/>
		</clipPath>
		<clipPath id="SVGID_5_" class="st1">
			<use xlink:href="#SVGID_3_"  style="overflow:visible;"/>
		</clipPath>
		
			<radialGradient id="SVGID_6_" cx="1719.3557" cy="-18168.9941" r="474.5094" gradientTransform="matrix(0.7857 0.0114 1.100000e-03 -0.0794 -348.8318 -156.3638)" gradientUnits="userSpaceOnUse">
			<stop  offset="0" style="stop-color:#FFFFFF"/>
			<stop  offset="0.1137" style="stop-color:#E9E9E9"/>
			<stop  offset="0.35" style="stop-color:#B2B2B2"/>
			<stop  offset="0.6853" style="stop-color:#595959"/>
			<stop  offset="1" style="stop-color:#000000"/>
		</radialGradient>
		<path class="st2" d="M1354.81,1311.28c0.3-20.82-166.34-40.12-372.19-43.11c-205.84-2.99-372.96,11.45-373.27,32.27
			c-0.3,20.81,166.33,40.11,372.18,43.1C1187.36,1346.54,1354.5,1332.09,1354.81,1311.28z"/>
	</g>
</g>
<radialGradient id="SVGID_7_" cx="1719.3557" cy="-18168.9941" r="474.5094" gradientTransform="matrix(0.7857 0.0114 1.100000e-03 -0.0794 -348.8318 -156.3638)" gradientUnits="userSpaceOnUse">
	<stop  offset="0" style="stop-color:#39B54A"/>
	<stop  offset="0.1177" style="stop-color:#39B54A"/>
	<stop  offset="1" style="stop-color:#F3F3F3"/>
</radialGradient>
<path class="st3" d="M1354.81,1311.28c0.3-20.82-166.34-40.12-372.19-43.11c-205.84-2.99-372.96,11.45-373.27,32.27
	c-0.3,20.81,166.33,40.11,372.18,43.1C1187.36,1346.54,1354.5,1332.09,1354.81,1311.28z"/>
<g>
	<path class="st0" d="M1343.08,1528.32H576.92c-102.14,0-185.24-83.1-185.24-185.24V576.92c0-102.14,83.1-185.24,185.24-185.24
		h766.16c102.14,0,185.24,83.1,185.24,185.24v766.16C1528.32,1445.22,1445.22,1528.32,1343.08,1528.32z M576.92,417.89
		c-87.69,0-159.03,71.34-159.03,159.03v766.16c0,87.69,71.34,159.03,159.03,159.03h766.16c87.69,0,159.03-71.34,159.03-159.03
		V576.92c0-87.69-71.34-159.03-159.03-159.03L576.92,417.89L576.92,417.89z"/>
</g>
</svg>
