<?xml version="1.0" encoding="utf-8"?>
<!-- Generator: Adobe Illustrator 24.1.2, SVG Export Plug-In . SVG Version: 6.00 Build 0)  -->
<svg version="1.1" id="Layer_1" xmlns="http://www.w3.org/2000/svg" xmlns:xlink="http://www.w3.org/1999/xlink" x="0px" y="0px"
	 viewBox="0 0 1920 1920" style="enable-background:new 0 0 1920 1920;" xml:space="preserve">
<style type="text/css">
	.st0{fill:#39B54A;}
</style>
<g>
	<path class="st0" d="M1288.3,824.56c-10.39-0.95-22.45-0.78-31.5,3.58c-42.45,20.48-67.58,54.53-72.62,101.88
		c-2.42,22.73-1.72,45.83-4.88,68.43c-4.4,31.47-11.24,62.6-16.72,93.93c-1.25,7.13-1.96,14.51-1.65,21.72
		c1.48,34.38,4.03,68.73,4.7,103.12c0.16,8.12-4.73,16.77-8.88,24.3c-1.5,2.71-8.34,4.77-11.53,3.66c-3.73-1.29-7.28-5.94-8.81-9.94
		c-1.64-4.28-0.68-9.52-1.15-14.3c-1.58-15.8-2.96-31.64-5.04-47.38c-2.13-16.03-5.3-31.93-7.45-47.96
		c-1.35-10.06-6.21-13.07-14.97-7.83c-11.11,6.64-13.53,17.65-14.8,29.5c-1.22,11.34-2.52,22.81-5.42,33.79
		c-8.6,32.56-18.15,64.87-27.03,97.36c-3.13,11.45-9.83,16.64-20.66,14.72c-9.87-1.75-14.92-9.55-12.5-21.05
		c2.51-11.93,6.36-23.58,8.96-35.49c2.98-13.64,5.21-27.45,7.78-41.18c3.33-17.77,6.68-35.54,10.03-53.31
		c0.65-3.47,1.3-6.94,2.3-12.24c-13.44,1.07-17.02,9.29-19.57,17.83c-2.77,9.25-5.52,18.51-8.26,27.77
		c-0.04,0.12-0.07,0.22-0.1,0.35c-11.33,38.66-33.88,106.31-33.88,106.31s-24.97,39.46-45.91,12.08
		c-6.06-8.49,13.44-58.98,23.44-83.4c0.17-2.41,0.97-4.7,2.02-7.13c0.85-1.95,1.88-3.82,2.81-5.72c0.23-0.47,0.46-0.95,0.7-1.42
		l-0.01-0.47c4.68-13.32,9.12-26.75,14.34-39.86c3.41-8.57,8.98-16.32,11.95-25c1.9-5.55,0.84-12.12,1.13-18.73
		c-12.34,0.16-14.53,7.79-17.74,14.22c-3.5,7.03-6.98,14.07-10.47,21.1v-0.01c0,0-0.01,0.03-0.02,0.04
		c-4.53,9.16-9.06,18.32-13.62,27.47c-0.06,0.12-0.12,0.23-0.18,0.35c-0.7,6.23-4.02,11.92-6.94,17.44
		c0.08,0.08,0.16,0.15,0.24,0.23c-16.86,33.92-40.2,72.25-54.38,59.01c-17.82-16.64-1.48-53.62,8.33-71.89
		c0.48-1.18,1.08-2.32,1.57-3.34c0.06-0.13,0.13-0.25,0.21-0.37c0.8-1.35,1.74-2.55,2.77-3.66c15.43-31.33,29.87-60.67,43.67-88.68
		c14.52,5.11,25.98,11.1,38.08,12.94c17.34,2.64,35.26,1.28,52.7,3.49c13.41,1.71,26.36,6.76,39.7,9.36
		c4.87,0.95,10.27-0.87,15.43-1.42c-1.25-5.44-0.94-12.11-4.06-16.08c-7.49-9.51-18.54-13.55-30.6-13.04
		c-26.89,1.13-53.76,2.83-80.65,4.08c-3.43,0.16-6.92-1.03-10.39-1.6c0.01-1.05,0.01-2.1,0.02-3.14
		c12.06-3.39,24.11-6.78,36.17-10.17c0.1-1.32,0.19-2.64,0.29-3.96c-3.69-1.15-7.3-2.79-11.08-3.37
		c-11.34-1.73-22.78-2.81-34.09-4.69c-2.75-0.46-5.16-2.98-7.72-4.56c0.36-0.8,0.73-1.6,1.09-2.4h43.87
		c0.17-0.91,0.33-1.83,0.5-2.74c-17.76-4.17-35.51-8.34-53.27-12.51c0.23-1.89,0.46-3.79,0.68-5.68
		c18.63-4.98,36.99,6.32,55.53,6.25c0.17-1.01,0.35-2.02,0.52-3.03c-14.56-5.33-29.12-10.66-43.68-15.99c0-1.36-0.01-2.73-0.01-4.09
		c3.59-0.72,7.47-2.7,10.7-1.94c11.86,2.78,23.53,6.4,35.22,9.84c9.67,2.85,19.22,6.84,30.21,2.89
		c-5.02-11.77-19.28-20.07-11.67-35.36c11.71,11.86,22.51,22.67,33.15,33.62c4.87,5.02,10.15,9.86,13.99,15.61
		c4.71,7.07,10.16,9.47,17.87,6.11c20.32-8.85,40.64-17.69,60.84-26.82c6.51-2.95,11.77-7.84,8.54-15.72
		c-3.42-8.33-10.68-5.1-16.36-3.14c-20.62,7.12-41.05,14.78-61.59,22.12c-2.64,0.94-5.52,1.23-8.29,1.82
		c-0.38-1.15-0.76-2.3-1.13-3.45c4.04-2.07,8.06-4.18,12.12-6.22c20.8-10.42,41.67-20.71,62.37-31.34c3.54-1.82,7.54-4.47,9.19-7.79
		c1.71-3.45,2.4-9.17,0.59-12.07c-1.72-2.76-7.16-3.9-11.12-4.3c-2.57-0.26-5.49,1.92-8.11,3.28
		c-21.05,10.89-42.03,21.94-63.15,32.7c-3.38,1.72-7.35,2.26-11.05,3.34c-0.35-0.97-0.7-1.93-1.06-2.9
		c19.3-12.89,38.62-25.75,57.89-38.69c4.86-3.27,9.21-6.97,4.94-13.59c-3.89-6.04-9.06-5.67-14.47-2.42
		c-20.59,12.37-41.21,24.69-61.64,37.31c-5.59,3.45-10.76,6.1-18.8,1.33c12.02-15.45,23.78-29.98,34.75-45.07
		c2.56-3.52,2.46-8.97,3.59-13.53c-5.05,0.24-11.18-1.24-14.92,1.1c-6.45,4.04-11.63,10.26-16.95,15.92
		c-10.39,11.05-19.61,23.36-30.97,33.27c-14.18,12.38-30.53,22.25-45.03,34.31c-22.81,18.98-46.57,36.25-76.8,39.96
		c-11.65,1.43-24.7,0.56-35.61-3.39c-14.11-5.11-14-16.57-1.36-24.76c4.01-2.6,8.38-5.01,12.92-6.39
		c31.5-9.57,56.95-28.21,78.69-52.3c11.42-12.65,21.67-26.39,39.28-31.5c3.55-1.03,6.49-4.82,9.28-7.74
		c13.76-14.46,29.4-25.73,48.57-32.32c15.56-5.35,26.87-21.37,24.31-36.14c-4.86-28.05-10.13-56.16-17.61-83.6
		c-7.09-26.03-16.56-51.49-26.19-76.74c-10.55-27.67-22.43-54.84-33.82-82.19c-7.3-17.53-23.36-19.81-39.01-20.25
		c-10.6-0.3-26.31,9.07-23.46,25.31c3.43,19.59,8.32,38.94,13.11,58.27c5.77,23.29,13.93,46.14,17.79,69.71
		c6.4,39.14,11.23,78.43,25.41,115.88c2.53,6.69,2.74,14.56,2.6,21.85c-0.08,4.13-3.06,8.2-4.87,12.6
		c-13.94-5.23-20.41-14.38-23.31-26.03c-4.65-18.69-7.89-37.76-13.18-56.26c-5.06-17.71-11.08-35.27-18.25-52.23
		c-11.52-27.25-24.59-53.84-36.53-80.92c-10.44-23.69-19.46-48.03-30.68-71.33c-4.14-8.59-11.94-16.08-19.6-22.13
		c-8.99-7.11-20.92-4.6-28.4,3.82c0,0,0,0-0.01,0c-20.14,4.39-25.93,13.57-20.93,34.73c2.04,8.61,5.09,17.07,8.48,25.27
		c8.79,21.21,19.78,41.67,26.74,63.44c16.92,52.98,33.1,106.14,57.97,156.15c3.78,7.61,7.35,15.56,9.34,23.76
		c1.79,7.37,2.17,15.39,1.4,22.94c-0.34,3.4-4.99,6.36-7.69,9.52c-2.62-2.79-5.96-5.18-7.73-8.42
		c-15.05-27.59-29.36-55.59-44.83-82.93c-10.53-18.61-23.75-35.76-33.67-54.66c-13.07-24.9-23.8-51.02-36.06-76.36
		c-9.93-20.51-27.97-24.29-45.78-10.27c-13.38,10.53-15.62,17.38-8.8,33.92c19.06,46.22,38.05,92.48,58.09,138.27
		c13.47,30.78,25.9,62.17,48.49,88.27c9.49,10.96,14.62,25.08,12.22,40.42c-1.57,10-3.65,20.9-14.53,24.37
		c-10.24,3.26-14.16-7.26-20.1-12.9c-16.04-15.25-30.97-31.95-48.44-45.35c-21.54-16.53-42.9-32.83-60.55-53.67
		c-10.04-11.86-20.71-23.24-31.69-34.24c-6.84-6.86-15.73-8.53-24.7-4.35c-8.93,4.17-12.55,12.17-13.12,21.67
		c-0.85,14.03,3.81,26.42,12.51,37.07c13.13,16.07,26.67,31.81,40.27,47.49c31.03,35.78,59.96,73.52,97.05,103.66
		c3.34,2.71,6.93,6.43,8.04,10.34c9.99,35.29,34.61,62.67,50.77,94.61c0.76,1.5,1.97,3.15,3.35,4.54
		c37.69,68.99,73.74,132.39,103.63,148.12c30.6,16.11,59.86,22.39,92.75,6.36c2.46-1.2,4.44-2.48,6.03-3.82
		c0.02-0.01,0.04-0.02,0.07-0.03c6.6-3.36,12.97-7.31,19.83-9.99c6.7-2.62,13.82-5.29,20.87-5.63
		c41.47-2.03,79.95-9.55,102.48-50.12c1.42-2.55,3.59-4.71,5.53-6.95c20.86-23.98,31.85-52.26,36.56-83.31
		c3.64-23.95,3.98-48.62,19.28-69.63c3.8-5.21,4.25-13.33,4.92-20.24c1.21-12.52,1.49-25.14,2.03-37.72
		c2.29-52.98,13.71-103.35,41.26-149.44c8.14-13.62,15.8-27.75,21.6-42.47C1309.38,840.72,1302.01,825.81,1288.3,824.56z
		 M1253.93,834.96c1.14-0.33,2.27-0.66,3.41-0.98c0.04,0.54,0.09,1.08,0.13,1.61C1256.29,835.37,1255.11,835.17,1253.93,834.96z"/>
	<g>
		<path class="st0" d="M1343.08,1528.32H576.92c-102.14,0-185.24-83.1-185.24-185.24V576.92c0-102.14,83.1-185.24,185.24-185.24
			h766.16c102.14,0,185.24,83.1,185.24,185.24v766.16C1528.32,1445.22,1445.22,1528.32,1343.08,1528.32z M576.92,417.89
			c-87.69,0-159.03,71.34-159.03,159.03v766.16c0,87.69,71.34,159.03,159.03,159.03h766.16c87.69,0,159.03-71.34,159.03-159.03
			V576.92c0-87.69-71.34-159.03-159.03-159.03L576.92,417.89L576.92,417.89z"/>
	</g>
</g>
</svg>
