<?xml version="1.0" encoding="utf-8"?>
<!-- Generator: Adobe Illustrator 24.1.2, SVG Export Plug-In . SVG Version: 6.00 Build 0)  -->
<svg version="1.1" id="Layer_1" xmlns="http://www.w3.org/2000/svg" xmlns:xlink="http://www.w3.org/1999/xlink" x="0px" y="0px"
	 viewBox="0 0 1920 1920" style="enable-background:new 0 0 1920 1920;" xml:space="preserve">
<style type="text/css">
	.st0{fill:#FFFFFF;}
	.st1{fill:#046937;}
	.st2{fill:#079247;}
	.st3{filter:url(#Adobe_OpacityMaskFilter);}
	.st4{filter:url(#Adobe_OpacityMaskFilter_1_);}
	.st5{mask:url(#SVGID_1_);fill:url(#SVGID_2_);}
	.st6{opacity:0.9;fill:url(#SVGID_3_);}
	.st7{fill:#939598;}
	.st8{fill:#3DB54A;}
	.st9{opacity:0.35;}
	.st10{fill:#E6E6E5;}
	.st11{opacity:0.6;fill:#079247;}
	.st12{fill:url(#SVGID_4_);}
	.st13{fill:url(#SVGID_5_);}
	.st14{fill:url(#SVGID_6_);}
	.st15{fill-rule:evenodd;clip-rule:evenodd;fill:#FFFFFF;}
	.st16{opacity:0.6;}
	.st17{fill:#F3F3F3;}
	.st18{fill:#F7F8F8;}
	.st19{fill:#E4E3E3;}
	.st20{fill:#E8E6E5;}
	.st21{fill:#D4D3D3;}
	.st22{fill:#BFBDBD;}
	.st23{fill:#D3D2D2;}
	.st24{fill:#CFCFCE;}
	.st25{fill:#C9C7C7;}
	.st26{fill:#E0E1E0;}
	.st27{fill:#E2E1E1;}
	.st28{fill:#B6B5B5;}
	.st29{fill:#B8B7B7;}
	.st30{fill:#C7C5C5;}
	.st31{fill:#949293;}
	.st32{fill:#B2B0B0;}
	.st33{fill:#ACAAAA;}
	.st34{fill:#A9A8A8;}
	.st35{fill:#B3B1B2;}
	.st36{fill:#AAA9A9;}
	.st37{fill:#868485;}
	.st38{fill:#8F8C8D;}
	.st39{fill:#939190;}
	.st40{fill:#949192;}
	.st41{fill:#908F8E;}
	.st42{fill:#A8A5A6;}
	.st43{fill:#A5A4A4;}
	.st44{fill:#6A6868;}
	.st45{fill:#706F6F;}
	.st46{fill:#5E5C5C;}
	.st47{fill:#5B5859;}
	.st48{fill:url(#SVGID_7_);}
	.st49{fill:url(#SVGID_8_);}
	.st50{fill:url(#SVGID_9_);}
	.st51{fill:url(#SVGID_10_);}
	.st52{fill:#F4F4F4;}
	.st53{fill:#E4E4E4;}
	.st54{fill:#D4D3D2;}
	.st55{fill:#C3C2C2;}
	.st56{fill:#D7D6D5;}
	.st57{fill:#D9D8D8;}
	.st58{fill:#DBDADA;}
	.st59{fill:#C2C0C0;}
	.st60{fill:#929090;}
	.st61{fill:#ACAAAB;}
	.st62{fill:#999798;}
	.st63{fill:#ADACAC;}
	.st64{fill:#878484;}
	.st65{fill:#9C9C9C;}
	.st66{fill:url(#SVGID_11_);}
	.st67{fill:url(#SVGID_12_);}
	.st68{fill:url(#SVGID_13_);}
	.st69{fill:url(#SVGID_14_);}
	.st70{fill:#EBEAEA;}
	.st71{fill:#DFDFDE;}
	.st72{fill:#ECECEC;}
	.st73{fill:#E1E0E0;}
	.st74{fill:#D0D0D0;}
	.st75{fill:#BBBABA;}
	.st76{fill:#CCCBCC;}
	.st77{fill:#BAB9B9;}
	.st78{fill:#CFCDCE;}
	.st79{fill:#CECCCD;}
	.st80{fill:#CBCACA;}
	.st81{fill:#B4B2B3;}
	.st82{fill:#C8C5C6;}
	.st83{fill:#B2B1B1;}
	.st84{fill:#A09E9F;}
	.st85{fill:#999698;}
	.st86{fill:#B5B3B4;}
	.st87{fill:#B1B0B1;}
	.st88{fill:#969595;}
	.st89{fill:#888686;}
	.st90{fill:#727070;}
	.st91{fill:#888586;}
	.st92{fill:#868383;}
	.st93{fill:url(#SVGID_15_);}
	.st94{fill:#C1282D;}
</style>
<g>
	<g>
		<g>
			<circle class="st1" cx="734.07" cy="565.43" r="52.95"/>
			<circle class="st1" cx="734.07" cy="1019.65" r="52.95"/>
			<circle class="st1" cx="1185.93" cy="1019.65" r="52.95"/>
			<circle class="st1" cx="1185.93" cy="565.43" r="52.95"/>
			<path class="st1" d="M894.1,973.75c10.37,0,19.47,5.38,24.71,13.49v-24.5c-64.09-15.68-114.52-66.11-130.2-130.2h-23.33
				c-12.33,0-18.27-18.83-8.92-27.64l-0.01,0c6.97-3.13,11.84-10.11,11.84-18.25c0-11.05-8.96-20-20-20s-20,8.96-20,20
				c0,8.14,4.87,15.13,11.84,18.25l-0.01,0c9.35,8.81,3.41,27.64-8.92,27.64h-30.1c5.85,36.18,19.09,69.87,38.08,99.53
				c9.98-7.8,22.53-12.45,36.18-12.45c32.49,0,58.84,26.34,58.84,58.84c0,13.39-4.48,25.74-12.02,35.63
				c28.97,18.04,61.7,30.62,96.75,36.28v-31.27c-5.24,8.11-14.34,13.49-24.71,13.49c-16.25,0-29.42-13.17-29.42-29.42
				S877.86,973.75,894.1,973.75z"/>
			<path class="st1" d="M1187.74,832.55c8.11,5.24,13.49,14.34,13.49,24.71c0,16.25-13.17,29.42-29.42,29.42
				s-29.42-13.17-29.42-29.42c0-10.37,5.38-19.47,13.49-24.71h-22.14c-15.68,64.09-66.11,114.52-130.2,130.2v25.69
				c0,12.33-18.83,18.27-27.64,8.92l0,0.01c-3.13-6.97-10.11-11.84-18.25-11.84c-11.05,0-20,8.96-20,20s8.96,20,20,20
				c8.14,0,15.13-4.87,18.25-11.84l0,0.01c8.81-9.35,27.64-3.41,27.64,8.92v27.75c34.41-5.56,66.57-17.8,95.15-35.31
				c-7.99-10.05-12.78-22.76-12.78-36.59c0-32.49,26.34-58.84,58.84-58.84c14.36,0,27.51,5.15,37.73,13.7
				c19.42-29.96,32.96-64.08,38.89-100.77H1187.74z"/>
			<path class="st1" d="M964.71,561.9c-8.14,0-15.13,4.87-18.25,11.84l0-0.01c-8.81,9.35-27.64,3.41-27.64-8.92V530
				c-36.07,5.83-69.67,19.01-99.27,37.91c9.05,10.35,14.54,23.88,14.54,38.7c0,32.49-26.34,58.84-58.84,58.84
				c-14.57,0-27.89-5.31-38.17-14.08c-17.94,28.9-30.45,61.53-36.09,96.45h30.46c-6.31-5.4-10.33-13.4-10.33-22.36
				c0-16.25,13.17-29.42,29.42-29.42c16.25,0,29.42,13.17,29.42,29.42c0,8.96-4.02,16.96-10.33,22.36h18.98
				c15.68-64.09,66.11-114.52,130.2-130.2v-18.62c0-12.33,18.83-18.27,27.64-8.92l0-0.01c3.13,6.97,10.11,11.84,18.25,11.84
				c11.05,0,20-8.96,20-20S975.76,561.9,964.71,561.9z"/>
			<path class="st1" d="M1179.98,775.46l0.01,0c-9.35-8.81-3.41-27.64,8.92-27.64h32.46c-5.73-35.46-18.56-68.54-36.94-97.76
				c-10.46,9.56-24.39,15.39-39.67,15.39c-32.49,0-58.84-26.34-58.84-58.84c0-15.29,5.83-29.21,15.39-39.67
				c-29.23-18.38-62.3-31.21-97.76-36.94v35.98c5.24-8.11,14.34-13.49,24.71-13.49c16.25,0,29.42,13.17,29.42,29.42
				s-13.17,29.42-29.42,29.42c-10.37,0-19.47-5.38-24.71-13.49v19.79c64.09,15.68,114.52,66.11,130.2,130.2h20.98
				c12.33,0,18.27,18.83,8.92,27.64l0.01,0c-6.97,3.13-11.84,10.11-11.84,18.25c0,11.05,8.96,20,20,20s20-8.96,20-20
				C1191.82,785.58,1186.95,778.59,1179.98,775.46z"/>
		</g>
		<path class="st94" d="M1067.33,742.51c-3.36-0.31-7.26-0.25-10.18,1.16c-13.72,6.62-21.85,17.63-23.48,32.93
			c-0.78,7.35-0.56,14.82-1.58,22.12c-1.42,10.17-3.63,20.24-5.41,30.37c-0.4,2.3-0.63,4.69-0.53,7.02
			c0.48,11.12,1.3,22.22,1.52,33.34c0.05,2.62-1.53,5.42-2.87,7.86c-0.48,0.88-2.69,1.54-3.73,1.18c-1.2-0.42-2.35-1.92-2.85-3.21
			c-0.53-1.38-0.22-3.08-0.37-4.62c-0.51-5.11-0.96-10.23-1.63-15.32c-0.69-5.18-1.71-10.32-2.41-15.5
			c-0.44-3.25-2.01-4.22-4.84-2.53c-3.59,2.15-4.37,5.7-4.78,9.54c-0.39,3.66-0.81,7.37-1.75,10.92
			c-2.78,10.53-5.87,20.97-8.74,31.47c-1.01,3.7-3.18,5.38-6.68,4.76c-3.19-0.56-4.82-3.09-4.04-6.81c0.81-3.86,2.06-7.62,2.9-11.47
			c0.96-4.41,1.68-8.87,2.52-13.31c1.08-5.75,2.16-11.49,3.24-17.23c0.21-1.12,0.42-2.24,0.74-3.96c-4.34,0.35-5.5,3-6.33,5.76
			c-0.9,2.99-1.78,5.98-2.67,8.98c-0.01,0.04-0.02,0.07-0.03,0.11c-3.66,12.5-10.95,34.37-10.95,34.37s-8.07,12.76-14.84,3.91
			c-1.96-2.74,4.34-19.07,7.58-26.96c0.06-0.78,0.31-1.52,0.65-2.3c0.27-0.63,0.61-1.23,0.91-1.85c0.08-0.15,0.15-0.31,0.23-0.46
			l0-0.15c1.51-4.31,2.95-8.65,4.64-12.88c1.1-2.77,2.9-5.28,3.86-8.08c0.62-1.8,0.27-3.92,0.37-6.06c-3.99,0.05-4.7,2.52-5.73,4.6
			c-1.13,2.27-2.26,4.55-3.38,6.82v0c0,0,0,0.01-0.01,0.01c-1.46,2.96-2.93,5.92-4.4,8.88c-0.02,0.04-0.04,0.08-0.06,0.11
			c-0.23,2.01-1.3,3.85-2.24,5.64c0.03,0.02,0.05,0.05,0.08,0.07c-5.45,10.96-13,23.36-17.58,19.08
			c-5.76-5.38-0.48-17.33,2.69-23.24c0.16-0.38,0.35-0.75,0.51-1.08c0.02-0.04,0.04-0.08,0.07-0.12c0.26-0.44,0.56-0.82,0.89-1.18
			c4.99-10.13,9.66-19.61,14.12-28.67c4.69,1.65,8.4,3.59,12.31,4.18c5.6,0.85,11.4,0.41,17.04,1.13c4.33,0.55,8.52,2.18,12.83,3.03
			c1.57,0.31,3.32-0.28,4.99-0.46c-0.4-1.76-0.3-3.91-1.31-5.2c-2.42-3.07-5.99-4.38-9.89-4.21c-8.69,0.37-17.38,0.92-26.07,1.32
			c-1.11,0.05-2.24-0.33-3.36-0.52c0-0.34,0-0.68,0.01-1.02c3.9-1.1,7.79-2.19,11.69-3.29c0.03-0.43,0.06-0.85,0.09-1.28
			c-1.19-0.37-2.36-0.9-3.58-1.09c-3.67-0.56-7.36-0.91-11.02-1.52c-0.89-0.15-1.67-0.96-2.5-1.47c0.12-0.26,0.24-0.52,0.35-0.78
			h14.18c0.05-0.3,0.11-0.59,0.16-0.89c-5.74-1.35-11.48-2.7-17.22-4.05c0.07-0.61,0.15-1.22,0.22-1.84
			c6.02-1.61,11.96,2.04,17.95,2.02c0.06-0.33,0.11-0.65,0.17-0.98c-4.71-1.72-9.41-3.45-14.12-5.17c0-0.44,0-0.88,0-1.32
			c1.16-0.23,2.41-0.87,3.46-0.63c3.83,0.9,7.61,2.07,11.39,3.18c3.13,0.92,6.21,2.21,9.77,0.94c-1.62-3.8-6.23-6.49-3.77-11.43
			c3.79,3.83,7.28,7.33,10.72,10.87c1.58,1.62,3.28,3.19,4.52,5.05c1.52,2.28,3.29,3.06,5.78,1.98c6.57-2.86,13.14-5.72,19.67-8.67
			c2.11-0.95,3.81-2.54,2.76-5.08c-1.11-2.69-3.45-1.65-5.29-1.01c-6.66,2.3-13.27,4.78-19.91,7.15c-0.85,0.31-1.79,0.4-2.68,0.59
			c-0.12-0.37-0.24-0.74-0.37-1.11c1.31-0.67,2.61-1.35,3.92-2.01c6.72-3.37,13.47-6.7,20.16-10.13c1.15-0.59,2.44-1.44,2.97-2.52
			c0.55-1.11,0.77-2.97,0.19-3.9c-0.56-0.89-2.32-1.26-3.59-1.39c-0.83-0.08-1.77,0.62-2.62,1.06c-6.81,3.52-13.59,7.09-20.42,10.57
			c-1.09,0.56-2.38,0.73-3.57,1.08c-0.11-0.31-0.23-0.63-0.34-0.94c6.24-4.17,12.49-8.32,18.71-12.51c1.57-1.06,2.98-2.25,1.6-4.39
			c-1.26-1.95-2.93-1.83-4.68-0.78c-6.66,4-13.32,7.98-19.93,12.06c-1.81,1.12-3.48,1.97-6.08,0.43c3.89-5,7.69-9.69,11.23-14.57
			c0.83-1.14,0.8-2.9,1.16-4.37c-1.63,0.08-3.62-0.4-4.82,0.36c-2.09,1.31-3.76,3.32-5.48,5.15c-3.36,3.57-6.34,7.55-10.01,10.76
			c-4.58,4-9.87,7.19-14.56,11.09c-7.37,6.13-15.05,11.72-24.83,12.92c-3.77,0.46-7.98,0.18-11.51-1.1c-4.56-1.65-4.53-5.36-0.44-8
			c1.3-0.84,2.71-1.62,4.18-2.07c10.18-3.1,18.41-9.12,25.44-16.91c3.69-4.09,7.01-8.53,12.7-10.18c1.15-0.33,2.1-1.56,3-2.5
			c4.45-4.67,9.5-8.32,15.7-10.45c5.03-1.73,8.69-6.91,7.86-11.68c-1.57-9.07-3.28-18.16-5.69-27.03
			c-2.29-8.42-5.35-16.64-8.47-24.81c-3.41-8.95-7.25-17.73-10.93-26.57c-2.36-5.67-7.55-6.4-12.61-6.55
			c-3.43-0.1-8.51,2.93-7.59,8.18c1.11,6.33,2.69,12.59,4.24,18.84c1.87,7.53,4.5,14.91,5.75,22.54
			c2.07,12.65,3.63,25.36,8.21,37.46c0.82,2.16,0.89,4.71,0.84,7.07c-0.03,1.33-0.99,2.65-1.57,4.07c-4.51-1.69-6.6-4.65-7.53-8.41
			c-1.5-6.04-2.55-12.21-4.26-18.19c-1.64-5.73-3.58-11.4-5.9-16.88c-3.72-8.81-7.95-17.4-11.81-26.16
			c-3.38-7.66-6.29-15.53-9.92-23.06c-1.34-2.78-3.86-5.2-6.34-7.16c-2.91-2.3-6.76-1.49-9.18,1.23c0,0,0,0,0,0
			c-6.51,1.42-8.38,4.39-6.77,11.23c0.66,2.79,1.64,5.52,2.74,8.17c2.84,6.86,6.4,13.47,8.64,20.51
			c5.47,17.13,10.7,34.31,18.74,50.48c1.22,2.46,2.38,5.03,3.02,7.68c0.58,2.38,0.7,4.97,0.45,7.42c-0.11,1.1-1.61,2.06-2.49,3.08
			c-0.85-0.9-1.93-1.67-2.5-2.72c-4.87-8.92-9.49-17.97-14.49-26.81c-3.41-6.02-7.68-11.56-10.88-17.67
			c-4.22-8.05-7.69-16.49-11.66-24.68c-3.21-6.63-9.04-7.85-14.8-3.32c-4.33,3.4-5.05,5.62-2.84,10.97
			c6.16,14.94,12.3,29.9,18.78,44.7c4.36,9.95,8.37,20.1,15.68,28.54c3.07,3.54,4.73,8.11,3.95,13.07c-0.51,3.23-1.18,6.76-4.7,7.88
			c-3.31,1.05-4.58-2.35-6.5-4.17c-5.18-4.93-10.01-10.33-15.66-14.66c-6.96-5.34-13.87-10.61-19.58-17.35
			c-3.25-3.83-6.7-7.51-10.24-11.07c-2.21-2.22-5.09-2.76-7.98-1.41c-2.89,1.35-4.06,3.93-4.24,7c-0.27,4.54,1.23,8.54,4.04,11.98
			c4.24,5.2,8.62,10.28,13.02,15.35c10.03,11.57,19.38,23.77,31.37,33.51c1.08,0.88,2.24,2.08,2.6,3.34
			c3.23,11.41,11.19,20.26,16.41,30.58c0.24,0.48,0.64,1.02,1.08,1.47c12.18,22.3,23.84,42.8,33.5,47.88
			c9.89,5.21,19.35,7.24,29.98,2.06c0.79-0.39,1.44-0.8,1.95-1.23c0.01,0,0.01-0.01,0.02-0.01c2.13-1.09,4.19-2.36,6.41-3.23
			c2.16-0.85,4.47-1.71,6.75-1.82c13.41-0.66,25.85-3.09,33.13-16.2c0.46-0.83,1.16-1.52,1.79-2.25c6.74-7.75,10.3-16.9,11.82-26.93
			c1.18-7.74,1.29-15.72,6.23-22.51c1.23-1.68,1.37-4.31,1.59-6.54c0.39-4.05,0.48-8.13,0.66-12.2
			c0.74-17.13,4.43-33.41,13.34-48.31c2.63-4.4,5.11-8.97,6.98-13.73C1074.15,747.73,1071.77,742.91,1067.33,742.51z
			 M1056.22,745.87c0.37-0.11,0.73-0.21,1.1-0.32c0.01,0.17,0.03,0.35,0.04,0.52C1056.98,746,1056.6,745.94,1056.22,745.87z"/>
	</g>
	<g>
		<circle class="st94" cx="694.62" cy="1375.65" r="18.1"/>
		<circle class="st94" cx="1055.91" cy="1318.64" r="18.1"/>
		<circle class="st94" cx="1406.41" cy="1318.64" r="18.1"/>
	</g>
	<g>
		<path class="st1" d="M761.04,1365.66c-4.2-5.51-9.23-10.24-15.09-14.17c-5.86-3.94-12.29-6.96-19.29-9.06v-18.37h-3.65
			c0.02-4.26,0.05-8.51,0.11-12.73c0.09-6.04,0.39-12.03,0.92-17.98c0.35-4.02,0.92-7.7,1.71-11.02c0.79-3.32,1.62-6.56,2.49-9.71
			c0.87-3.15,1.62-6.34,2.23-9.58c0.61-3.24,0.92-6.78,0.92-10.63c0-4.55-0.75-8.79-2.23-12.73c-1.49-3.94-3.59-7.39-6.3-10.37
			c-2.72-2.97-5.95-5.34-9.71-7.09c-3.76-1.75-7.92-2.62-12.47-2.62c-4.9,0-9.97,0.88-15.22,2.62v-42.52h56.7v-13.91H578.36h-5.25
			H423.24v13.91H538.2v0.52c-0.52,3.15-3.46,5.95-8.79,8.4c-5.34,2.45-11.86,5.03-19.55,7.74c-7.7,2.72-15.97,5.77-24.8,9.19
			c-8.84,3.41-17.06,7.7-24.67,12.86c-7.61,5.16-13.91,11.55-18.9,19.16c-4.99,7.61-7.48,16.84-7.48,27.69
			c0,18.37,7.83,32.72,23.49,43.05c15.66,10.33,38.45,15.49,68.38,15.49c2.27,0,4.42,0,6.43,0c2.01,0,3.98-0.09,5.91-0.26v5.77
			h24.67v-149.61h10.24h5.25h82.42v17.06l-4.72-2.36c-4.38-2.1-8.84-3.81-13.39-5.12c-4.55-1.31-8.84-2.36-12.86-3.15
			c-4.03-0.79-7.74-1.31-11.16-1.58c-3.41-0.26-6.17-0.39-8.27-0.39c-6.13,0-10.94,1.1-14.44,3.28c-3.5,2.19-6.17,4.86-8.01,8.01
			c-1.84,3.15-2.98,6.43-3.41,9.84c-0.44,3.41-0.66,6.34-0.66,8.79c0,4.55,0.7,9.19,2.1,13.91c1.4,4.73,3.72,8.97,6.96,12.73
			c3.24,3.77,7.52,6.87,12.86,9.32c5.34,2.45,12.03,3.67,20.08,3.67v-24.67c-6.65,0-11.16-1.53-13.52-4.59
			c-2.36-3.06-3.54-6.17-3.54-9.32c0-1.4,0-2.71,0-3.94c0-1.22,0.09-2.01,0.26-2.36h2.62c2.8,0.18,6.96,0.66,12.47,1.44
			s10.98,2.19,16.41,4.2c5.42,2.01,10.15,4.9,14.17,8.66c4.02,3.77,6.04,8.62,6.04,14.57v8.14c-2.45,1.4-5.91,2.67-10.37,3.81
			c-4.46,1.14-9.36,2.41-14.7,3.81c-5.34,1.4-10.76,3.02-16.27,4.86c-5.51,1.84-10.54,4.2-15.09,7.09
			c-4.55,2.89-8.27,6.39-11.16,10.5c-2.89,4.11-4.33,9.15-4.33,15.09c0,7.7,2.27,13.87,6.82,18.5c4.55,4.64,10.24,8.23,17.06,10.76
			c6.82,2.54,14.08,4.24,21.79,5.12c7.7,0.88,14.7,1.31,21,1.31h5.25v1.57h24.67v-79.53c3.5-1.75,6.47-2.93,8.92-3.54
			c2.45-0.61,4.46-0.92,6.04-0.92c2.8,0,4.55,0.75,5.25,2.23c0.7,1.49,1.05,3.2,1.05,5.12c0,1.75-0.22,3.94-0.66,6.56
			c-0.44,2.62-1.1,5.16-1.97,7.61c-1.23,3.85-2.19,8.27-2.89,13.25c-0.7,4.99-1.27,10.28-1.71,15.88
			c-0.44,5.6-0.75,11.38-0.92,17.32c-0.18,5.95-0.26,11.73-0.26,17.32h3.41v8.4c-1.75,0-3.24-0.05-4.46-0.13
			c-1.22-0.09-2.27-0.13-3.15-0.13c-0.87,0-1.57,0.04-2.1,0.13c-0.53,0.09-0.87,0.13-1.05,0.13v0.26
			c-4.72,0.17-9.14,1.18-13.26,3.03c-4.11,1.84-7.7,4.3-10.76,7.38c-3.06,3.07-5.42,6.67-7.09,10.8c-1.66,4.12-2.49,8.56-2.49,13.3
			c0,4.74,0.92,9.18,2.76,13.31c1.84,4.12,4.33,7.77,7.48,10.93c3.15,3.16,6.82,5.66,11.02,7.51c4.2,1.84,8.66,2.76,13.39,2.76
			c4.55,0,8.92-0.88,13.12-2.62c4.2-1.75,7.87-4.2,11.02-7.35c3.15-3.15,5.64-6.82,7.48-11.02c1.84-4.2,2.76-8.66,2.76-13.39
			c0-0.7,0-1.49,0-2.36c0-0.88-0.17-1.49-0.52-1.84c7.87,3.15,13.78,7.91,17.72,14.3c3.94,6.39,5.91,14.57,5.91,24.54h24.67
			c0-8.4-1.14-16.1-3.41-23.1C768.48,1377.43,765.24,1371.17,761.04,1365.66z M538.2,1298.6c-1.76,0.18-3.51,0.31-5.27,0.39
			c-1.76,0.09-3.6,0.13-5.53,0.13c-5.44,0-10.97-0.22-16.59-0.66c-5.62-0.43-11.07-1.22-16.33-2.36
			c-5.27-1.14-10.27-2.67-15.01-4.59c-4.74-1.92-8.86-4.29-12.37-7.09c-5.62-4.72-8.43-11.2-8.43-19.42c0-5.42,1.27-10.19,3.82-14.3
			c2.54-4.11,6.1-7.78,10.66-11.02c4.56-3.24,10.14-6.25,16.72-9.06c6.58-2.8,13.91-5.51,21.99-8.14c4.56-1.57,9.08-3.19,13.56-4.86
			c4.48-1.66,8.74-3.45,12.77-5.38V1298.6z M660.78,1302.01h-6.3c-8.05,0-15.79-0.61-23.23-1.84c-7.44-1.22-12.91-3.24-16.4-6.04
			c-0.88-0.87-1.31-1.75-1.31-2.63c0-1.57,1.14-3.1,3.41-4.59c2.27-1.48,5.12-2.93,8.53-4.33c3.41-1.4,7.09-2.67,11.02-3.81
			c3.94-1.14,7.65-2.14,11.16-3.02c3.5-0.87,6.47-1.57,8.92-2.1c2.45-0.53,3.85-0.87,4.2-1.05V1302.01z M698.84,1379.7
			c-1.92,1.92-4.2,2.89-6.82,2.89c-2.8,0-5.16-0.96-7.09-2.89c-1.92-1.93-2.89-4.2-2.89-6.82c0-2.8,0.96-5.16,2.89-7.09
			c1.93-1.93,4.29-2.89,7.09-2.89c2.62,0,4.9,0.96,6.82,2.89c1.93,1.92,2.89,4.29,2.89,7.09
			C701.72,1375.5,700.77,1377.78,698.84,1379.7z"/>
		<path class="st1" d="M1346.89,1165.78h-5.25h-10.5v-3.41h-24.67v7.61c-1.4-1.57-2.93-2.67-4.59-3.28
			c-1.07-0.39-2.95-0.66-5.64-0.8v-0.12h-149.87h-5.25H996.49h-5.25H981v-8.14c0-7.35,1.05-13.73,3.15-19.16
			c2.1-5.42,4.55-9.97,7.35-13.65c2.8-3.67,5.6-6.52,8.4-8.53c2.8-2.01,4.9-3.37,6.3-4.07c9.97-4.9,20.21-7.35,30.71-7.35
			c4.73,0,10.37,0.79,16.93,2.36c6.56,1.57,12.95,4.29,19.16,8.14c6.21,3.85,11.55,9.01,16.01,15.49c4.46,6.48,6.87,14.7,7.22,24.67
			h24.67c-0.35-10.5-2.71-20.34-7.09-29.53c-4.38-9.19-10.33-17.15-17.85-23.89c-7.52-6.73-16.32-12.07-26.38-16.01
			c-10.06-3.94-20.96-5.91-32.68-5.91c-11.38,0-21.96,1.88-31.76,5.64c-9.8,3.76-18.29,9.01-25.46,15.75
			c-7.18,6.74-12.86,14.88-17.06,24.41c-4.2,9.54-6.3,20.08-6.3,31.63v8.14h-10.23h-5.25H930.6v-3.41h-24.67v26.25
			c-0.18,0-0.26,0.09-0.26,0.26c-20.83-15.92-40.95-23.89-60.37-23.89c-11.2,0-20.87,2.49-29,7.48
			c-8.14,4.99-14.57,12.12-19.29,21.39c-3.15,7.18-4.72,14.17-4.72,21c0,5.6,0.91,10.94,2.73,16.01c1.82,5.08,4.33,9.71,7.53,13.91
			c3.2,4.2,7.06,7.92,11.58,11.16c4.51,3.24,9.48,5.64,14.91,7.22l-11.29,10.24l16.85,18.11l41.86-38.32
			c5.61-4.2,10.88-8.53,15.79-12.99c4.91-4.46,9.47-8.96,13.69-13.52v102.89h24.67v-149.87h10.24h5.25h10.23v149.35H981v-149.35
			h10.23h5.25h109.71v0.52c0,3.33-2.58,6.17-7.74,8.53c-5.16,2.36-11.59,4.86-19.29,7.48c-7.7,2.62-16.06,5.6-25.07,8.92
			c-9.02,3.33-17.37,7.61-25.07,12.86c-7.7,5.25-14.13,11.68-19.29,19.29c-5.16,7.61-7.74,16.93-7.74,27.95
			c0,17.15,7,31.33,21,42.52c-1.23,3.15-1.84,6.65-1.84,10.5c0,4.72,0.92,9.23,2.76,13.52c1.84,4.29,4.34,8.01,7.5,11.15
			c3.16,3.15,6.89,5.64,11.19,7.48c4.3,1.84,8.82,2.76,13.56,2.76c15.8,0,26.95-8.23,33.44-24.67c2.98-0.17,5.88-0.43,8.69-0.79
			c2.8-0.35,5.44-0.7,7.9-1.05v3.94h24.67v-150.92h10.24h5.25h109.72v0.52c-0.53,3.15-3.46,5.95-8.79,8.4
			c-5.34,2.45-11.86,5.03-19.56,7.74c-7.7,2.72-15.97,5.77-24.8,9.19c-8.84,3.41-17.06,7.7-24.67,12.86
			c-7.61,5.16-13.91,11.55-18.9,19.16c-4.99,7.61-7.48,16.84-7.48,27.69c0,18.37,7.83,32.72,23.49,43.05
			c15.66,10.33,38.45,15.49,68.38,15.49c2.27,0,4.42,0,6.43,0c2.01,0,3.98-0.09,5.91-0.26v5.77h24.67v-149.61h10.24h3.94
			c7.52,0,11.37,3.76,11.55,11.29v138.06h24.67v-149.35h10.5h5.25h109.71v0.52c0,3.33-2.58,6.17-7.74,8.53
			c-5.16,2.36-11.59,4.86-19.29,7.48c-7.7,2.62-16.06,5.6-25.07,8.92c-9.02,3.33-17.37,7.61-25.07,12.86
			c-7.7,5.25-14.13,11.68-19.29,19.29c-5.16,7.61-7.74,16.93-7.74,27.95c0,17.15,7,31.33,21,42.52c-1.23,3.15-1.84,6.65-1.84,10.5
			c0,4.72,0.92,9.23,2.76,13.52c1.84,4.29,4.34,8.01,7.5,11.15c3.16,3.15,6.89,5.64,11.19,7.48c4.3,1.84,8.82,2.76,13.56,2.76
			c15.8,0,26.95-8.23,33.44-24.67c2.98-0.17,5.88-0.43,8.69-0.79c2.8-0.35,5.44-0.7,7.9-1.05v3.94h24.67v-150.92h15.49v-13.91
			H1346.89z M860.26,1234.29l-1.84,1.31c-4.55,3.33-9.45,4.99-14.7,4.99c-3.67,0-7.18-0.7-10.5-2.1c-3.33-1.4-6.17-3.24-8.53-5.51
			c-2.36-2.27-4.24-4.94-5.64-8.01c-1.4-3.06-2.1-6.34-2.1-9.84c0-4.2,0.74-7.87,2.23-11.02c1.48-3.15,3.54-5.77,6.17-7.87
			c2.63-2.1,5.64-3.72,9.06-4.86c3.41-1.14,6.96-1.71,10.63-1.71c13.47,0,28.26,6.04,44.36,18.11L860.26,1234.29z M1063.5,1325.5
			c-2.04,2.01-4.47,3.02-7.31,3.02c-2.84,0-5.27-1-7.31-3.02c-2.04-2.01-3.06-4.42-3.06-7.22c0-2.8,1.02-5.2,3.06-7.22
			c2.04-2.01,4.47-3.02,7.31-3.02c2.83,0,5.27,1.01,7.31,3.02c2.04,2.01,3.06,4.42,3.06,7.22
			C1066.56,1321.08,1065.54,1323.49,1063.5,1325.5z M1106.2,1301.22c-4.74,1.4-10.89,2.19-18.44,2.36
			c-7.2-13.47-17.73-20.21-31.6-20.21c-6.5,0-12.47,1.67-17.91,4.99c-7.73-5.77-11.59-13.47-11.59-23.1
			c0-5.42,1.27-10.19,3.82-14.31c2.54-4.11,6.1-7.78,10.66-11.02c4.56-3.24,10.14-6.25,16.72-9.06c6.58-2.8,13.91-5.51,21.99-8.14
			c4.56-1.57,9.08-3.19,13.56-4.86c4.48-1.66,8.74-3.45,12.78-5.38V1301.22z M1256.07,1298.6c-1.76,0.18-3.51,0.31-5.27,0.39
			c-1.76,0.09-3.6,0.13-5.53,0.13c-5.44,0-10.97-0.22-16.59-0.66c-5.62-0.43-11.06-1.22-16.33-2.36
			c-5.27-1.14-10.27-2.67-15.01-4.59c-4.74-1.92-8.86-4.29-12.37-7.09c-5.62-4.72-8.43-11.2-8.43-19.42c0-5.42,1.27-10.19,3.82-14.3
			c2.54-4.11,6.1-7.78,10.66-11.02c4.56-3.24,10.14-6.25,16.72-9.06c6.58-2.8,13.91-5.51,21.99-8.14c4.56-1.57,9.08-3.19,13.56-4.86
			c4.48-1.66,8.74-3.45,12.78-5.38V1298.6z M1413.91,1325.5c-2.04,2.01-4.47,3.02-7.31,3.02c-2.84,0-5.27-1-7.31-3.02
			c-2.04-2.01-3.06-4.42-3.06-7.22c0-2.8,1.02-5.2,3.06-7.22c2.04-2.01,4.47-3.02,7.31-3.02c2.83,0,5.27,1.01,7.31,3.02
			c2.04,2.01,3.06,4.42,3.06,7.22C1416.97,1321.08,1415.95,1323.49,1413.91,1325.5z M1456.6,1301.22
			c-4.74,1.4-10.89,2.19-18.44,2.36c-7.2-13.47-17.73-20.21-31.6-20.21c-6.5,0-12.47,1.67-17.91,4.99
			c-7.73-5.77-11.59-13.47-11.59-23.1c0-5.42,1.27-10.19,3.82-14.31c2.54-4.11,6.1-7.78,10.66-11.02
			c4.56-3.24,10.14-6.25,16.72-9.06c6.58-2.8,13.91-5.51,21.99-8.14c4.56-1.57,9.08-3.19,13.56-4.86c4.48-1.66,8.74-3.45,12.78-5.38
			V1301.22z"/>
	</g>
</g>
</svg>
